<svg xmlns="http://www.w3.org/2000/svg">
<defs>
<font id="EagleSans-Regular" horiz-adv-x="1347" >
  <font-face 
    font-family="EagleSans-Regular"
    font-weight="400"
    font-stretch="normal"
    units-per-em="2048"
    panose-1="2 0 5 4 3 0 0 2 0 4"
    ascent="1638"
    descent="-410"
    x-height="991"
    cap-height="1366"
    bbox="-479 -518 2470 1882"
    underline-thickness="40"
    underline-position="-204"
    unicode-range="U+0020-FB02"
  />
<missing-glyph horiz-adv-x="2048" 
 />
    <glyph glyph-name=".notdef" horiz-adv-x="2048" 
 />
    <glyph glyph-name="glyph1" horiz-adv-x="0" 
 />
    <glyph glyph-name="glyph2" horiz-adv-x="2048" 
 />
    <glyph glyph-name="space" unicode=" " horiz-adv-x="489" 
 />
    <glyph glyph-name="exclam" unicode="!" horiz-adv-x="555" 
d="M205 0v203h211v-203h-211zM205 1366h211l-21 -963h-172z" />
    <glyph glyph-name="quotedbl" unicode="&#x22;" horiz-adv-x="737" 
d="M102 997v500h211v-256q0 -49 -15 -90t-35.5 -72.5t-42 -52t-32.5 -29.5h-86zM434 997v500h211v-256q0 -49 -15.5 -90t-36 -72.5t-41 -52t-32.5 -29.5h-86z" />
    <glyph glyph-name="numbersign" unicode="#" 
d="M84 401v150h231l47 276h-208v150h231l61 389h199l-65 -389h288l64 389h198l-65 -389h199v-150h-224l-45 -276h201v-150h-227l-64 -401h-196l65 401h-289l-65 -401h-195l66 401h-207zM512 551h289l45 276h-291z" />
    <glyph glyph-name="dollar" unicode="$" 
d="M158 852v225q0 141 69.5 215t210.5 74h146v229h135v-229h168q61 0 127.5 -14.5t120.5 -57.5v-88h-416v-434h194q131 0 205 -66.5t74 -181.5v-233q0 -137 -59.5 -214t-214.5 -77h-199v-307h-135v307h-156q-86 0 -148.5 20.5t-101.5 51.5v88h406v452h-152
q-135 0 -204.5 63.5t-69.5 176.5zM365 879q0 -55 27.5 -81t92.5 -26h99v434h-97q-123 0 -122 -110v-217zM719 160h141q125 0 125 108v234q0 53 -29.5 81.5t-99.5 28.5h-137v-452z" />
    <glyph glyph-name="percent" unicode="%" horiz-adv-x="1908" 
d="M117 803v350q0 100 45 156.5t145 56.5h271q92 0 137 -48t45 -126v-350q0 -96 -36 -151.5t-144 -55.5h-275q-188 0 -188 168zM293 825q0 -27 9 -38t42 -11h191q31 0 41 11.5t10 37.5v346q0 27 -9.5 39.5t-41.5 12.5h-191q-33 0 -42 -12.5t-9 -39.5v-346zM324 -41
l1081 1448h178l-1079 -1448h-180zM1147 166v350q0 98 43 155.5t147 57.5h271q92 0 137 -47t45 -125v-350q0 -98 -35 -152.5t-145 -54.5h-275q-94 0 -141 43t-47 123zM1323 188q0 -25 9 -36t42 -11h189q33 0 43 11.5t10 35.5v349q0 27 -9.5 38t-43.5 11h-189q-33 0 -42 -12.5
t-9 -36.5v-349z" />
    <glyph glyph-name="ampersand" unicode="&#x26;" horiz-adv-x="1681" 
d="M256 266v174q0 66 21.5 100.5t66.5 75.5l201 191q-37 43 -60.5 71.5t-38 52t-20.5 46t-6 57.5v66q0 139 75.5 193.5t223.5 54.5h254q57 0 100 -9.5t72 -20.5t45 -22.5t20 -17.5v-84h-469q-72 0 -94 -22.5t-22 -73.5v-58q0 -35 14 -54t31 -36l432 -479l209 215l131 -119
l-221 -225l313 -342h-262l-185 199l-169 -154q-41 -35 -98.5 -40t-162.5 -5h-104q-96 0 -153.5 15.5t-90.5 47t-43 82t-10 121.5zM455 272q0 -66 23.5 -92t99.5 -26h116q29 0 47.5 3t31.5 9t24.5 16.5t27.5 24.5l136 129l-302 340l-165 -166q-25 -25 -32 -49.5t-7 -57.5
v-131z" />
    <glyph glyph-name="quotesingle" unicode="'" horiz-adv-x="403" 
d="M96 997v500h211v-256q0 -49 -15.5 -90t-35.5 -72.5t-41.5 -52t-32.5 -29.5h-86z" />
    <glyph glyph-name="parenleft" unicode="(" horiz-adv-x="649" 
d="M127 360v629q0 131 26.5 228.5t81 168t136.5 120.5t190 87l60 -114q-86 -31 -144.5 -76t-93.5 -106.5t-49.5 -140.5t-14.5 -177v-608q0 -98 14.5 -177t49.5 -140.5t93.5 -105.5t144.5 -75l-60 -117q-111 37 -192.5 87.5t-135 122t-80 167.5t-26.5 227z" />
    <glyph glyph-name="parenright" unicode=")" horiz-adv-x="649" 
d="M14 -127q86 31 144.5 75t93.5 105.5t49 140t14 177.5v608q0 98 -14 177t-49 140.5t-93.5 106.5t-144.5 76l58 114q111 -37 192.5 -87t136 -120.5t81 -168t26.5 -228.5v-629q0 -131 -26.5 -227t-80 -167.5t-136.5 -122t-193 -87.5z" />
    <glyph glyph-name="asterisk" unicode="*" horiz-adv-x="1030" 
d="M137 1262l47 143l260 -88l-12 256h160l-12 -256l258 88l45 -143l-262 -72l170 -203l-132 -88l-149 215l-152 -215l-127 88l168 205z" />
    <glyph glyph-name="plus" unicode="+" 
d="M178 412v161h404v418h176v-418h407v-161h-407v-412h-176v412h-404z" />
    <glyph glyph-name="comma" unicode="," horiz-adv-x="403" 
d="M102 201h211v-105q0 -68 -17 -128t-38.5 -108t-43 -80t-30.5 -42h-82v463z" />
    <glyph glyph-name="hyphen" unicode="-" horiz-adv-x="768" 
d="M72 420v164h622v-164h-622z" />
    <glyph glyph-name="period" unicode="." horiz-adv-x="403" 
d="M98 0v203h209v-203h-209z" />
    <glyph glyph-name="slash" unicode="/" horiz-adv-x="966" 
d="M41 -102l676 1570h205l-676 -1570h-205z" />
    <glyph glyph-name="zero" unicode="0" 
d="M137 248v870q0 123 76 185.5t199 62.5h520q135 0 206.5 -66.5t71.5 -181.5v-870q0 -117 -67.5 -182.5t-206.5 -65.5h-524q-139 0 -207 65.5t-68 182.5zM344 287q0 -72 25.5 -99.5t107.5 -27.5h391q45 0 72 8t41 23.5t18.5 40t4.5 55.5v794q0 66 -28 95.5t-108 29.5h-389
q-84 0 -109.5 -30.5t-25.5 -94.5v-794z" />
    <glyph glyph-name="one" unicode="1" horiz-adv-x="995" 
d="M125 1147v119l295 100h198v-1210h232v-156h-692v156h252v1038z" />
    <glyph glyph-name="two" unicode="2" horiz-adv-x="1275" 
d="M117 0v311q0 41 11 72t46 53l760 469v178q0 66 -31 93.5t-117 27.5h-639v88q10 8 23.5 21.5t38 25t64.5 19.5t106 8h475q131 0 208 -61.5t77 -176.5v-196q0 -59 -15.5 -95t-56.5 -61l-741 -450v-166h833v-160h-1042z" />
    <glyph glyph-name="three" unicode="3" horiz-adv-x="1236" 
d="M82 1206v84q10 8 24.5 21.5t39 26t65.5 20.5t102 8h480q137 0 208.5 -67.5t71.5 -190.5v-223q0 -51 -17.5 -84t-41 -53.5t-47 -29.5t-33.5 -11q8 -2 35.5 -8.5t56.5 -24t51.5 -50t22.5 -83.5v-287q0 -53 -14.5 -100.5t-47 -81t-86 -53t-129.5 -19.5h-497q-63 0 -104.5 8
t-68 20.5t-41 26t-22.5 21.5v84h662q88 0 113.5 28.5t25.5 102.5v198q0 72 -27.5 100.5t-111.5 28.5h-412v158h397q78 0 104.5 30t26.5 95v184q0 70 -29.5 95.5t-109.5 25.5h-647z" />
    <glyph glyph-name="four" unicode="4" horiz-adv-x="1310" 
d="M82 326v151l737 889h213v-881h232v-159h-232v-326h-207v326h-743zM297 485h528v633z" />
    <glyph glyph-name="five" unicode="5" horiz-adv-x="1232" 
d="M137 72v88h604q43 0 72 5t45 18.5t23.5 38t7.5 63.5v250q0 72 -33 96t-111 24h-587v711h886v-160h-690v-393h465q141 0 209 -67.5t68 -182.5v-309q0 -49 -12.5 -95t-44 -82t-85 -56.5t-135.5 -20.5h-383q-115 0 -183.5 17.5t-115.5 54.5z" />
    <glyph glyph-name="six" unicode="6" horiz-adv-x="1335" 
d="M137 262v862q0 57 21.5 102.5t58.5 76t87 47t108 16.5h430q115 0 183.5 -17.5t115.5 -54.5v-88h-670q-59 0 -93 -25.5t-34 -90.5v-330q25 20 77 45.5t157 25.5h337q80 0 134.5 -20t87 -55t47 -81t14.5 -97v-256q0 -74 -11 -134.5t-42 -101.5t-87.5 -63.5t-146.5 -22.5
h-419q-90 0 -157 12.5t-111 42t-65.5 79.5t-21.5 128zM344 270q0 -72 39 -91t109 -19h352q90 0 118.5 27.5t28.5 101.5v254q0 74 -30.5 101.5t-108.5 27.5h-285q-59 0 -118.5 -5t-104.5 -28v-369z" />
    <glyph glyph-name="seven" unicode="7" horiz-adv-x="1116" 
d="M20 1206v160h1031v-141l-600 -1225h-230l608 1206h-809z" />
    <glyph glyph-name="eight" unicode="8" 
d="M135 258v283q0 49 19.5 80.5t45 50t52.5 26t41 11.5q-12 2 -36 10t-45.5 27.5t-37.5 52t-16 82.5v239q0 106 69.5 176t212.5 70h463q76 0 130 -18.5t89 -51t51.5 -77.5t16.5 -97v-241q0 -49 -17.5 -82t-40 -52.5t-48 -27.5t-40.5 -10q14 -4 43 -11.5t55.5 -25t47 -49
t20.5 -82.5v-283q0 -53 -14 -100t-46 -82t-86 -55.5t-134 -20.5h-512q-80 0 -134.5 19.5t-87 53t-47 82t-14.5 103.5zM342 291q0 -68 24.5 -99.5t108.5 -31.5h395q78 0 106 28.5t28 98.5v211q0 68 -29 96.5t-107 28.5h-391q-84 0 -109.5 -30t-25.5 -97v-205zM365 903
q0 -66 29.5 -93.5t101.5 -27.5h350q78 0 107.5 27t29.5 96v176q0 70 -29.5 97.5t-107.5 27.5h-342q-80 0 -109.5 -28.5t-29.5 -100.5v-174z" />
    <glyph glyph-name="nine" unicode="9" horiz-adv-x="1335" 
d="M137 809v235q0 74 11.5 134.5t42 101.5t87 63.5t146.5 22.5h420q90 0 156.5 -12.5t110.5 -42t65.5 -80.5t21.5 -127v-862q0 -57 -21.5 -102.5t-58.5 -76t-87 -47t-107 -16.5h-451q-115 0 -183.5 17.5t-115.5 54.5v88h690q59 0 93 25.5t34 90.5v351q-25 -20 -77 -46
t-156 -26h-338q-80 0 -134.5 20.5t-87 55.5t-47 81t-14.5 97zM344 844q0 -74 31 -101.5t108 -27.5h285q59 0 118.5 5t104.5 28v348q0 72 -39 91t-108 19h-352q-90 0 -119 -27.5t-29 -101.5v-233z" />
    <glyph glyph-name="colon" unicode=":" horiz-adv-x="403" 
d="M131 0v203h213v-203h-213zM131 653v201h213v-201h-213z" />
    <glyph glyph-name="semicolon" unicode=";" horiz-adv-x="403" 
d="M131 201h211v-105q0 -68 -16.5 -128t-39 -108t-44 -80t-29.5 -42h-82v463zM131 651v203h211v-203h-211z" />
    <glyph glyph-name="less" unicode="&#x3c;" 
d="M176 406v178l995 370v-174l-792 -278l792 -287v-172z" />
    <glyph glyph-name="equal" unicode="=" 
d="M178 227v162h987v-162h-987zM178 598v162h987v-162h-987z" />
    <glyph glyph-name="greater" unicode="&#x3e;" 
d="M178 43v172l795 281l-795 286v172l996 -362v-178z" />
    <glyph glyph-name="question" unicode="?" horiz-adv-x="882" 
d="M70 1210v78q6 6 21 18.5t45 26t76 23.5t118 10h200q76 0 129.5 -20.5t87 -57.5t49 -86t15.5 -106v-88q0 -61 -16.5 -93t-53.5 -65l-262 -236v-211h-203v193q0 43 15.5 69.5t46.5 55.5l270 248v133q0 55 -31.5 81.5t-103.5 26.5h-403zM272 0v201h211v-201h-211z" />
    <glyph glyph-name="at" unicode="@" horiz-adv-x="2238" 
d="M219 131v725q0 117 37 215t108.5 168t177 108.5t242.5 38.5h727q272 0 389 -121.5t117 -355.5v-659q0 -109 -67.5 -179.5t-202.5 -70.5h-406l-16 86q-27 -25 -57 -43q-29 -16 -65 -29.5t-83 -13.5h-166q-143 0 -204.5 65.5t-61.5 182.5v502q0 47 15.5 90t47 76.5t82 54
t117.5 20.5h572v-837h149q86 0 116 24.5t30 93.5v617q0 92 -15.5 157.5t-55.5 107.5t-109.5 60.5t-178.5 18.5h-612q-223 0 -323.5 -93t-100.5 -311v-667q0 -102 21.5 -179t73.5 -129.5t136 -78t211 -25.5h697v-153h-756q-156 0 -266.5 35.5t-181 105t-104.5 168t-34 225.5z
M891 264q0 -61 22.5 -85.5t104.5 -24.5h137q86 0 122 11t42 15v656h-299q-43 0 -68.5 -8.5t-39 -24t-17.5 -38t-4 -50.5v-451z" />
    <glyph glyph-name="A" unicode="A" horiz-adv-x="1304" 
d="M8 0l518 1366h260l517 -1366h-234l-147 418h-537l-145 -418h-232zM442 584h420l-211 594z" />
    <glyph glyph-name="B" unicode="B" horiz-adv-x="1343" 
d="M152 0v1366h722q154 0 219.5 -69.5t65.5 -186.5v-229q0 -43 -12 -72t-29.5 -47.5t-36 -28.5t-28.5 -14q18 -4 43.5 -13.5t49 -29t39 -51t15.5 -80.5v-291q0 -55 -14.5 -101.5t-47 -80t-86 -53t-128.5 -19.5h-772zM358 160h504q78 0 105.5 27.5t27.5 88.5v226
q0 63 -28.5 92t-104.5 29h-504v-463zM358 782h465q76 0 103.5 27t27.5 92v184q0 59 -26.5 90t-102.5 31h-467v-424z" />
    <glyph glyph-name="C" unicode="C" horiz-adv-x="1226" 
d="M141 242v878q0 111 72 178.5t205 67.5h456q86 0 146.5 -16t112.5 -56v-88h-654q-74 0 -103.5 -28.5t-29.5 -94.5v-802q0 -61 25.5 -91t103.5 -30h690v-86q-12 -8 -29.5 -20.5t-48 -25t-74.5 -20.5t-108 -8h-495q-135 0 -202 67.5t-67 174.5z" />
    <glyph glyph-name="D" unicode="D" horiz-adv-x="1409" 
d="M152 0v1366h841q137 0 206 -68.5t69 -179.5v-866q0 -123 -71 -187.5t-206 -64.5h-839zM360 160h564q86 0 111.5 28.5t25.5 98.5v790q0 33 -4 57.5t-16.5 41t-37 23.5t-67.5 7h-576v-1046z" />
    <glyph glyph-name="E" unicode="E" horiz-adv-x="1202" 
d="M152 0v1366h974v-160h-768v-422h623v-159h-623v-465h768v-160h-974z" />
    <glyph glyph-name="F" unicode="F" horiz-adv-x="1140" 
d="M152 0v1366h974v-160h-768v-422h623v-159h-623v-625h-206z" />
    <glyph glyph-name="G" unicode="G" horiz-adv-x="1357" 
d="M141 244v880q0 57 20.5 102.5t57.5 76t87 47t108 16.5h473q57 0 99 -4t75 -13.5t57.5 -22.5t46.5 -32v-88h-690q-59 0 -94 -24.5t-35 -89.5v-813q0 -68 30 -94.5t101 -26.5h416q66 0 94.5 25.5t28.5 84.5v340h-398v160h605v-528q0 -59 -20.5 -104.5t-56.5 -75t-84 -45
t-101 -15.5h-555q-121 0 -193 61.5t-72 182.5z" />
    <glyph glyph-name="H" unicode="H" horiz-adv-x="1402" 
d="M152 0v1366h206v-571h686v571h209v-1366h-209v635h-686v-635h-206z" />
    <glyph glyph-name="I" unicode="I" horiz-adv-x="509" 
d="M152 0v1366h206v-1366h-206z" />
    <glyph glyph-name="J" unicode="J" horiz-adv-x="1136" 
d="M63 250v190l207 35v-201q0 -63 28 -89.5t93 -26.5h266q66 0 93.5 27.5t27.5 86.5v1094h209v-1120q0 -123 -72.5 -184.5t-195.5 -61.5h-389q-123 0 -195 62.5t-72 187.5z" />
    <glyph glyph-name="K" unicode="K" horiz-adv-x="1198" 
d="M152 0v1366h208v-674l553 674h248l-520 -639l571 -727h-260l-450 575l-142 -161v-414h-208z" />
    <glyph glyph-name="L" unicode="L" horiz-adv-x="1148" 
d="M152 0v1366h206v-1208h756v-158h-962z" />
    <glyph glyph-name="M" unicode="M" horiz-adv-x="1622" 
d="M152 0v1366h223l442 -838l432 838h221v-1366h-206v987l-357 -680h-182l-365 678v-985h-208z" />
    <glyph glyph-name="N" unicode="N" horiz-adv-x="1413" 
d="M152 0v1366h229l674 -1036v1036h207v-1366h-228l-676 1038v-1038h-206z" />
    <glyph glyph-name="O" unicode="O" horiz-adv-x="1441" 
d="M141 248v870q0 123 77 185.5t200 62.5h602q137 0 208.5 -66.5t71.5 -181.5v-870q0 -117 -68.5 -182.5t-209.5 -65.5h-604q-141 0 -209 65.5t-68 182.5zM348 287q0 -72 26.5 -99.5t106.5 -27.5h477q45 0 71 8t40 23.5t18.5 40t4.5 55.5v794q0 66 -28 95.5t-110 29.5h-469
q-84 0 -110.5 -30.5t-26.5 -94.5v-794z" />
    <glyph glyph-name="P" unicode="P" horiz-adv-x="1251" 
d="M152 0v1366h743q152 0 218.5 -70.5t66.5 -185.5v-315q0 -123 -72 -179.5t-203 -56.5h-547v-559h-206zM358 719h484q78 0 104.5 27.5t26.5 91.5v245q0 63 -27.5 93t-103.5 30h-484v-487z" />
    <glyph glyph-name="Q" unicode="Q" horiz-adv-x="1441" 
d="M141 246v868q0 123 77 187.5t200 64.5h549q164 0 247.5 -61.5t83.5 -190.5v-817q0 -68 -13 -122t-45 -93t-84 -60.5t-130 -21.5h-201v-80v-8q0 -53 25 -79q27 -28 92 -28h145v-157h-204q-125 0 -197 62.5t-72 180.5v109h-200q-135 0 -204 67.5t-69 178.5zM346 287
q0 -72 27.5 -99.5t107.5 -27.5h475q45 0 73 8t41 24.5t17.5 40t4.5 54.5v792q0 66 -27 96.5t-109 30.5h-475q-80 0 -107.5 -30.5t-27.5 -96.5v-792z" />
    <glyph glyph-name="R" unicode="R" horiz-adv-x="1298" 
d="M152 0v1366h735q150 0 217 -70.5t67 -185.5v-281q0 -123 -72.5 -179t-201.5 -56h-115l488 -594h-258l-477 594h-175v-594h-208zM360 754h471q80 0 107 27.5t27 90.5v211q0 63 -27 93t-104 30h-474v-452z" />
    <glyph glyph-name="S" unicode="S" horiz-adv-x="1292" 
d="M145 63v95h676q63 0 91 25.5t28 82.5v238q0 53 -27.5 82.5t-95.5 29.5h-405q-129 0 -197 63.5t-68 176.5v211q0 147 64.5 223t206.5 76h440q57 0 100 -7t74 -17t48.5 -21.5t25.5 -20.5v-94h-637q-115 0 -115 -110v-213q0 -55 26 -81t87 -26h371q150 0 229.5 -59.5
t79.5 -188.5v-237q0 -84 -16.5 -139.5t-53.5 -89t-95 -48t-142 -14.5h-455q-115 0 -171 25.5t-69 37.5z" />
    <glyph glyph-name="T" unicode="T" horiz-adv-x="1165" 
d="M-14 1206v160h1194v-160h-494v-1206h-207v1206h-493z" />
    <glyph glyph-name="U" unicode="U" horiz-adv-x="1421" 
d="M152 313v1053h204v-1085q0 -61 25 -92t102 -31h441q86 0 112.5 27.5t26.5 101.5v1079h207v-1051q0 -70 -12.5 -127t-43 -99t-83 -65.5t-132.5 -23.5h-579q-152 0 -210 85t-58 228z" />
    <glyph glyph-name="V" unicode="V" horiz-adv-x="1239" 
d="M-12 1366h235l402 -1147l403 1147h225l-512 -1366h-241z" />
    <glyph glyph-name="W" unicode="W" horiz-adv-x="1746" 
d="M-6 1366h235l258 -1092l263 1092h243l279 -1100l254 1100h225l-352 -1366h-262l-267 1073l-270 -1073h-258z" />
    <glyph glyph-name="X" unicode="X" horiz-adv-x="1189" 
d="M-25 0l494 707l-465 659h262l328 -502l332 502h227l-453 -645l514 -721h-260l-374 563l-373 -563h-232z" />
    <glyph glyph-name="Y" unicode="Y" horiz-adv-x="1171" 
d="M-27 1366h246l369 -580l381 580h229l-508 -735v-631h-213v625z" />
    <glyph glyph-name="Z" unicode="Z" horiz-adv-x="1214" 
d="M63 0v127l801 1079h-758v160h1031v-129l-807 -1079h811v-158h-1078z" />
    <glyph glyph-name="bracketleft" unicode="[" horiz-adv-x="649" 
d="M127 -211v1774h463v-156h-268v-1462h268v-156h-463z" />
    <glyph glyph-name="backslash" unicode="\" horiz-adv-x="966" 
d="M41 1468h205l676 -1570h-205z" />
    <glyph glyph-name="bracketright" unicode="]" horiz-adv-x="649" 
d="M59 -55h269v1462h-269v156h463v-1774h-463v156z" />
    <glyph glyph-name="asciicircum" unicode="^" 
d="M152 1051l438 544h162l442 -544l-180 -74l-344 436l-346 -436z" />
    <glyph glyph-name="underscore" unicode="_" horiz-adv-x="1024" 
d="M-8 -340h1040v-172h-1040v172z" />
    <glyph glyph-name="grave" unicode="`" horiz-adv-x="1024" 
d="M326 1444h237l162 -299h-160z" />
    <glyph glyph-name="a" unicode="a" horiz-adv-x="1085" 
d="M113 215v152q0 100 66.5 155.5t189.5 55.5h376v139q0 59 -27.5 90t-115.5 31h-436v75q27 20 63 39q33 14 80 26.5t111 12.5h237q141 0 215 -62.5t74 -185.5v-743h-178l-16 94q-20 -27 -50 -47q-25 -18 -62.5 -32.5t-90.5 -14.5h-180q-133 0 -194.5 53t-61.5 162zM313 246
q0 -61 35 -76.5t103 -15.5h135q41 0 81 2t78 8v260h-319q-63 0 -88 -22.5t-25 -73.5v-82z" />
    <glyph glyph-name="b" unicode="b" horiz-adv-x="1177" 
d="M143 0v1442l201 37v-574q8 10 24.5 25.5t42 29t61.5 22.5t81 9h211q135 0 206.5 -67.5t71.5 -184.5v-495q0 -111 -68.5 -177.5t-203.5 -66.5h-238q-59 0 -110 25.5t-86 66.5l-17 -92h-176zM344 180q14 -8 37 -14q18 -4 48 -8t73 -4h215q66 0 94.5 27.5t28.5 86.5v451
q0 59 -30 89t-103 30h-205q-47 0 -77 -5.5t-48 -9.5q-23 -6 -33 -12v-631z" />
    <glyph glyph-name="c" unicode="c" horiz-adv-x="983" 
d="M133 242v506q0 111 71.5 177t207.5 66h252q82 0 139 -20.5t110 -57.5v-75h-448q-74 0 -102.5 -29t-28.5 -94v-439q0 -61 25.5 -91.5t105.5 -30.5h455v-76q-6 -4 -26 -17.5t-54.5 -27t-86 -23.5t-124.5 -10h-226q-135 0 -202.5 65.5t-67.5 176.5z" />
    <glyph glyph-name="d" unicode="d" horiz-adv-x="1171" 
d="M133 244v495q0 117 71.5 184.5t207.5 67.5h206q45 0 81 -9t61.5 -22.5t42 -29t24.5 -25.5v537l201 35v-1477h-176l-16 92q-35 -41 -86.5 -66.5t-110.5 -25.5h-233q-135 0 -204 66.5t-69 177.5zM334 268q0 -59 28.5 -86.5t94.5 -27.5h213q41 0 71.5 4t49.5 8q23 6 36 14
v631q-10 6 -32 12q-18 4 -48 9.5t-77 5.5h-203q-74 0 -103.5 -30t-29.5 -89v-451z" />
    <glyph glyph-name="e" unicode="e" horiz-adv-x="1126" 
d="M133 250v489q0 68 21.5 116t60.5 78t92 44t117 14h291q141 0 212.5 -64.5t71.5 -185.5v-301h-665v-172q0 -63 24.5 -88.5t106.5 -25.5h526v-76q-31 -23 -69 -39q-35 -16 -84.5 -27.5t-114.5 -11.5h-309q-143 0 -212 65.5t-69 184.5zM334 594h465v121q0 61 -22.5 92
t-104.5 31h-207q-86 0 -108.5 -33t-22.5 -86v-125z" />
    <glyph glyph-name="f" unicode="f" horiz-adv-x="696" 
d="M20 838v153h175v250q0 123 56 171t179 48h72q133 0 235 -78v-75h-245q-53 0 -75 -26t-22 -75v-215h277v-153h-277v-838h-200v838h-175z" />
    <glyph glyph-name="g" unicode="g" horiz-adv-x="1173" 
d="M133 252v438q0 68 13.5 124t47 95t88 60.5t138.5 21.5h207q66 0 117 -18.5t94 -65.5l14 84h178v-1112q0 -123 -71.5 -185.5t-210.5 -62.5h-306q-61 0 -110 10.5t-83 23.5t-54.5 26.5t-26.5 17.5v76h530q74 0 102.5 26.5t28.5 94.5v182q-23 -25 -53 -45
q-27 -16 -66.5 -29.5t-93.5 -13.5h-210q-76 0 -128.5 19.5t-84 54.5t-46 80t-14.5 98zM334 268q0 -68 31.5 -91t101.5 -23h238q27 0 49 2t39 6q20 4 36 8v526v60.5t2 64.5q-43 12 -82.5 14.5t-117.5 2.5h-164q-70 0 -101.5 -25t-31.5 -84v-461z" />
    <glyph glyph-name="h" unicode="h" horiz-adv-x="1157" 
d="M143 0v1442l203 35v-572q29 35 82 60.5t131 25.5h178q74 0 127.5 -19.5t87 -53t49 -79.5t15.5 -98v-741h-203v719q0 119 -127 119h-160q-94 0 -131 -10.5t-49 -16.5v-811h-203z" />
    <glyph glyph-name="i" unicode="i" horiz-adv-x="499" 
d="M143 1212v189h213v-189h-213zM150 0v991h202v-991h-202z" />
    <glyph glyph-name="j" unicode="j" horiz-adv-x="489" 
d="M-41 -213h51q74 0 103.5 26.5t29.5 92.5v1085h205l-2 -1110q0 -250 -287 -250h-100v156zM139 1212v189h213v-189h-213z" />
    <glyph glyph-name="k" unicode="k" horiz-adv-x="1019" 
d="M143 0v1442l203 35v-955l414 469h237l-374 -428l395 -563h-238l-293 416l-141 -162v-254h-203z" />
    <glyph glyph-name="l" unicode="l" horiz-adv-x="487" 
d="M143 0v1442l201 35v-1477h-201z" />
    <glyph glyph-name="m" unicode="m" horiz-adv-x="1638" 
d="M143 0v991h189l8 -90q20 29 66.5 59.5t125.5 30.5h146q86 0 130 -23.5t71 -64.5q18 29 65 58.5t119 29.5h156q76 0 129 -20.5t85.5 -54t47 -79.5t14.5 -96v-741h-201v715q0 59 -28.5 91t-94.5 32h-122q-59 0 -91 -9.5t-45 -13.5q4 -10 8.5 -30.5t4.5 -55.5v-729h-201v713
q0 63 -24.5 94t-94.5 31h-102q-72 0 -111 -10.5t-51 -16.5q2 -23 2 -46.5v-49.5v-715h-201z" />
    <glyph glyph-name="n" unicode="n" horiz-adv-x="1153" 
d="M143 0v991h189l8 -90q23 33 68 61.5t131 28.5h196q150 0 214.5 -70.5t64.5 -175.5v-745h-201v729q0 59 -31.5 84t-95.5 25h-172q-88 0 -125 -11.5t-47 -15.5q2 -27 2 -50.5v-49.5v-711h-201z" />
    <glyph glyph-name="o" unicode="o" horiz-adv-x="1173" 
d="M133 248v495q0 123 77 185.5t200 62.5h352q137 0 206.5 -67.5t69.5 -180.5v-495q0 -117 -67.5 -182.5t-206.5 -65.5h-356q-137 0 -206 65.5t-69 182.5zM334 281q0 -72 26.5 -99.5t108.5 -27.5h233q45 0 73 8t41 23.5t17.5 40t4.5 55.5v430q0 66 -27 96.5t-109 30.5h-233
q-82 0 -108.5 -31t-26.5 -96v-430z" />
    <glyph glyph-name="p" unicode="p" horiz-adv-x="1175" 
d="M143 -369v1360h181l14 -92q35 41 87 66.5t112 25.5h231q135 0 203.5 -66.5t68.5 -176.5v-496q0 -117 -71.5 -184.5t-206.5 -67.5h-205q-45 0 -81 9t-62.5 22.5t-44 29t-25.5 25.5v-455h-201zM344 180q12 -8 35 -14q18 -4 49 -8t78 -4h201q74 0 103.5 29.5t29.5 88.5v451
q0 59 -29 87t-94 28h-211q-43 0 -73 -5.5t-50 -9.5q-23 -6 -39 -12v-631z" />
    <glyph glyph-name="q" unicode="q" horiz-adv-x="1169" 
d="M133 252v496q0 111 68.5 177t204.5 66h231q59 0 111.5 -25.5t87.5 -66.5l14 92h176v-1360h-201v455q-8 -10 -24.5 -25.5t-42 -29t-61 -22.5t-81.5 -9h-204q-135 0 -207 67.5t-72 184.5zM334 272q0 -59 29.5 -88.5t103.5 -29.5h201q47 0 76.5 4t48.5 8q23 6 32 14v631
q-14 6 -37 12q-18 4 -48.5 9.5t-71.5 5.5h-211q-66 0 -94.5 -28t-28.5 -87v-451z" />
    <glyph glyph-name="r" unicode="r" horiz-adv-x="745" 
d="M143 0v991h176l13 -94q23 29 62.5 61.5t105.5 32.5h266l-53 -155h-170q-94 0 -138.5 -13.5t-62.5 -23.5q2 -27 2 -48.5v-48.5v-702h-201z" />
    <glyph glyph-name="s" unicode="s" horiz-adv-x="1028" 
d="M109 78v76h497q66 0 91.5 25.5t25.5 82.5v70q0 47 -19.5 70.5t-91.5 23.5h-268q-109 0 -169 50t-60 147v129q0 117 76.5 178t205.5 61h230q160 0 268 -73v-80h-455q-43 0 -68.5 -8.5t-37.5 -21.5t-15.5 -33.5t-3.5 -45.5v-65q0 -45 20.5 -63.5t82.5 -18.5h264
q129 0 185.5 -56.5t56.5 -152.5v-133q0 -115 -72 -177.5t-215 -62.5h-283q-76 0 -132 15.5t-113 62.5z" />
    <glyph glyph-name="t" unicode="t" horiz-adv-x="706" 
d="M0 838v153h172v287l201 35v-322h280v-153h-280v-584q0 -59 22.5 -79.5t87.5 -20.5h224v-76q-29 -23 -66 -39q-33 -16 -77 -27.5t-97 -11.5h-74q-74 0 -118 20.5t-66.5 53t-29.5 76t-7 86.5v602h-172z" />
    <glyph glyph-name="u" unicode="u" horiz-adv-x="1155" 
d="M137 246v745h201v-729q0 -59 31.5 -83.5t95.5 -24.5h172q88 0 125 11t47 15q-2 27 -2 50.5v50.5v710h201v-991h-189l-8 90q-23 -33 -68 -61.5t-131 -28.5h-196q-76 0 -128 18.5t-86 52t-49.5 78t-15.5 97.5z" />
    <glyph glyph-name="v" unicode="v" horiz-adv-x="1026" 
d="M23 991h223l270 -774l272 774h216l-381 -991h-222z" />
    <glyph glyph-name="w" unicode="w" horiz-adv-x="1464" 
d="M39 991h225l178 -721l197 721h199l198 -723l181 723h208l-290 -991h-207l-199 692l-203 -692h-196z" />
    <glyph glyph-name="x" unicode="x" horiz-adv-x="989" 
d="M0 0l379 510l-359 481h246l230 -327l225 327h223l-344 -461l389 -530h-248l-256 369l-264 -369h-221z" />
    <glyph glyph-name="y" unicode="y" horiz-adv-x="993" 
d="M33 991h217l256 -682l250 682h209l-523 -1360h-200l157 426z" />
    <glyph glyph-name="z" unicode="z" horiz-adv-x="942" 
d="M51 0v127l559 711h-532v153h803v-125l-564 -712h574v-154h-840z" />
    <glyph glyph-name="braceleft" unicode="{" horiz-adv-x="649" 
d="M0 602v146q51 0 82 8t48 25.5t23.5 45t6.5 68.5v295q0 115 23.5 187.5t67.5 113.5t107.5 56.5t143.5 15.5h114v-144h-53q-74 0 -115.5 -10t-63.5 -41t-27 -88t-5 -152v-297q0 -45 -21.5 -74.5t-48 -47t-51 -25.5t-32.5 -8q6 -2 30.5 -8t52 -23.5t49 -46.5t21.5 -74v-307
q0 -92 6.5 -148.5t28 -87t63.5 -40t113 -9.5h53v-143h-114q-84 0 -147.5 16.5t-106.5 58.5t-65.5 112.5t-22.5 181.5v305q0 41 -7.5 67.5t-24.5 43t-48 22.5t-80 6z" />
    <glyph glyph-name="bar" unicode="|" 
d="M582 -297v1864h174v-1864h-174z" />
    <glyph glyph-name="braceright" unicode="}" horiz-adv-x="649" 
d="M33 -68h53q72 0 114 9.5t63.5 40t27.5 87t6 148.5v307q0 45 21.5 74t48 46.5t51 23.5t31.5 8q-6 0 -31 8t-51.5 25.5t-48 47t-21.5 74.5v297q0 94 -5 151.5t-26.5 88.5t-63.5 41t-116 10h-53v144h114q80 0 143.5 -15.5t107.5 -56.5t67.5 -113.5t23.5 -187.5v-295
q0 -41 6.5 -68.5t24 -45t48 -25.5t81.5 -8v-146q-49 0 -79.5 -6t-48 -22.5t-25 -43t-7.5 -67.5v-305q0 -111 -22.5 -181.5t-65.5 -112.5t-107.5 -58.5t-146.5 -16.5h-114v143z" />
    <glyph glyph-name="asciitilde" unicode="~" 
d="M164 422q10 18 35.5 53t65.5 71t92.5 61.5t113.5 25.5q53 0 105.5 -18.5t103.5 -40t100 -39t97 -17.5q37 0 68.5 13.5t57 32t45 39t29.5 34.5l105 -70q-12 -25 -39 -58.5t-67 -66t-91 -55t-115 -22.5q-55 0 -107 18t-102.5 39.5t-99.5 40t-98 18.5q-37 0 -69 -15
t-56.5 -36.5t-41.5 -43t-26 -36.5z" />
    <glyph glyph-name="uni00A0" unicode="&#xa0;" horiz-adv-x="444" 
 />
    <glyph glyph-name="exclamdown" unicode="&#xa1;" horiz-adv-x="555" 
d="M139 1163v203h211v-203h-211zM143 0l15 963h174l14 -963h-203z" />
    <glyph glyph-name="cent" unicode="&#xa2;" 
d="M197 242v506q0 111 71.5 177t206.5 66h166v297h135v-297h107q82 0 139 -20.5t111 -57.5v-75h-357v-684h363v-76q-6 -4 -25.5 -17.5t-54.5 -27t-86 -23.5t-125 -10h-72v-307h-135v307h-174q-135 0 -202.5 65.5t-67.5 176.5zM397 276q0 -61 26 -91.5t105 -30.5h113v684
h-113q-74 0 -102.5 -29t-28.5 -94v-439z" />
    <glyph glyph-name="sterling" unicode="&#xa3;" 
d="M78 621v147h196v352q0 104 70 175t203 71h381q61 0 106 -7t77 -17.5t50.5 -21.5t26.5 -20v-94h-578q-78 0 -103.5 -30.5t-25.5 -96.5v-311h512v-147h-512v-463h760v-97q-12 -14 -73.5 -37.5t-196.5 -23.5h-885v158h188v463h-196z" />
    <glyph glyph-name="currency" unicode="&#xa4;" 
d="M106 1118q31 29 61 58.5t60 58.5q47 -45 92.5 -89t90.5 -91q57 43 124.5 61.5t139.5 18.5t138.5 -20.5t121.5 -61.5l182 182q31 -29 61.5 -58.5t59.5 -58.5l-182 -180q47 -57 66.5 -122.5t19.5 -133.5q0 -72 -19.5 -137.5t-66.5 -122.5l180 -182q-31 -29 -60.5 -58.5
t-60.5 -58.5l-184 184q-53 -43 -120 -62.5t-138 -19.5q-72 0 -138.5 19.5t-123.5 60.5q-45 -47 -90.5 -91t-92.5 -91q-29 31 -59.5 60.5t-58.5 58.5q45 47 90 93t90 93q-47 55 -66.5 118.5t-19.5 133.5t19.5 132t66.5 122zM397 680q0 -59 18.5 -109.5t54.5 -88.5t88 -59.5
t118 -21.5q61 0 111.5 22.5t85 61.5t53 89.5t18.5 105.5t-18.5 105.5t-53 89t-85 61t-113.5 22.5q-66 0 -117 -22.5t-86 -60t-54.5 -88t-19.5 -107.5z" />
    <glyph glyph-name="yen" unicode="&#xa5;" 
d="M61 1366h246l369 -530l381 530h229l-346 -459h246v-147h-357l-51 -68v-86h408v-147h-408v-459h-213v459h-409v147h409v80l-55 74h-354v147h245z" />
    <glyph glyph-name="brokenbar" unicode="&#xa6;" 
d="M582 -297v635h174v-635h-174zM582 932v635h174v-635h-174z" />
    <glyph glyph-name="section" unicode="&#xa7;" horiz-adv-x="1306" 
d="M174 453v170q0 51 13.5 88t32 62.5t35.5 38.5t26 15q-2 0 -11.5 6.5t-19.5 21.5t-18.5 40t-8.5 61v187q0 113 66.5 168t189.5 55h359q63 0 108 -9t75 -21.5t44 -24t20 -17.5v-84h-542q-41 0 -64.5 -7t-35 -20.5t-14.5 -33t-3 -41.5v-100q0 -43 20.5 -59.5t79.5 -33.5
l410 -104q104 -27 151.5 -80t47.5 -156v-141q0 -61 -11.5 -101t-28 -64.5t-34 -37t-29.5 -20.5q14 -10 38 -41t24 -96v-205q0 -63 -19.5 -105.5t-57.5 -67t-93.5 -34.5t-124.5 -10h-359q-66 0 -110.5 9t-75.5 20.5t-47.5 23.5t-22.5 19v83h588q66 0 93.5 25t27.5 78v110
q0 47 -18.5 66.5t-88.5 36.5l-344 84q-70 16 -121 34.5t-83.5 46t-48 66.5t-15.5 99zM383 481q0 -53 18.5 -77.5t83.5 -38.5l389 -97q14 6 25 25q10 16 18.5 44t8.5 79v127q0 23 -2 42t-11.5 35.5t-30 30t-59.5 23.5l-393 98q-14 -10 -24 -24t-16.5 -35t-6.5 -49v-183z" />
    <glyph glyph-name="dieresis" unicode="&#xa8;" horiz-adv-x="1024" 
d="M221 1225v188h209v-188h-209zM594 1225v188h209v-188h-209z" />
    <glyph glyph-name="copyright" unicode="&#xa9;" horiz-adv-x="1390" 
d="M0 246v872q0 123 76 185.5t198 62.5h758q176 0 267.5 -58.5t91.5 -189.5v-788q0 -74 -12.5 -135.5t-43 -104.5t-84 -66.5t-135.5 -23.5h-764q-174 0 -263 53t-89 193zM170 274q0 -72 26.5 -100.5t110.5 -28.5h776q90 0 114 33t24 96v816q0 68 -29 98.5t-113 30.5h-772
q-84 0 -110.5 -32t-26.5 -97v-816zM354 512v352q0 92 58.5 146.5t171.5 54.5h241q51 0 86 -7t57.5 -16.5t35 -18.5t16.5 -15v-66h-383q-66 0 -89.5 -24.5t-23.5 -81.5v-293q0 -55 21.5 -81t91.5 -26h389v-65q-6 -6 -17.5 -16.5t-35 -19.5t-61.5 -15.5t-93 -6.5h-244
q-111 0 -166 54.5t-55 144.5z" />
    <glyph glyph-name="ordfeminine" unicode="&#xaa;" horiz-adv-x="737" 
d="M98 897v78q0 70 45 108.5t127 38.5h187v72q0 23 -10.5 33t-45.5 10h-270v70q12 16 35 28q18 10 48 20.5t75 10.5h145q96 0 143.5 -44t47.5 -124v-448h-154q0 14 -1 27.5t-1 27.5q-16 -25 -45 -40t-76 -15h-78q-90 0 -131 37.5t-41 109.5zM111 453v139h520v-139h-520z
M266 903q0 -18 13.5 -22t35.5 -4h64q18 0 37.5 1t40.5 3v125h-144q-29 0 -38 -6.5t-9 -22.5v-74z" />
    <glyph glyph-name="guillemotleft" unicode="&#xab;" horiz-adv-x="960" 
d="M86 449v98l315 385l121 -88l-237 -346l237 -344l-121 -88zM457 449v98l317 385l121 -88l-238 -346l238 -344l-121 -88z" />
    <glyph glyph-name="logicalnot" unicode="&#xac;" 
d="M178 412v161h987v-573h-176v412h-811z" />
    <glyph glyph-name="uni00AD" unicode="&#xad;" horiz-adv-x="768" 
d="M72 420v164h622v-164h-622z" />
    <glyph glyph-name="registered" unicode="&#xae;" horiz-adv-x="878" 
d="M0 913v455q0 92 56.5 148.5t170.5 56.5h426q115 0 170.5 -56.5t55.5 -148.5v-455q0 -92 -55.5 -148t-170.5 -56h-426q-115 0 -171 56t-56 148zM115 954q0 -41 5 -69.5t21.5 -47t47 -26.5t81.5 -8h340q51 0 82 8t47.5 26.5t21.5 47t5 69.5v373q0 41 -5 69.5t-21.5 47
t-47 27t-82.5 8.5h-340q-51 0 -81.5 -8.5t-47 -27t-21.5 -47t-5 -69.5v-373zM248 920v452h282q55 0 79 -25.5t24 -68.5v-96q0 -43 -23.5 -69t-74.5 -26h-17l139 -167h-127l-137 167h-39v-167h-106zM354 1182h138q23 0 28.5 11t5.5 28v26q0 16 -6 24.5t-28 8.5h-138v-98z" />
    <glyph glyph-name="macron" unicode="&#xaf;" horiz-adv-x="1024" 
d="M195 1233v151h634v-151h-634z" />
    <glyph glyph-name="degree" unicode="&#xb0;" horiz-adv-x="827" 
d="M109 1069v238q0 84 51 128t137 44h240q92 0 138 -47.5t46 -124.5v-238q0 -80 -44 -124t-138 -44h-242q-94 0 -141 44t-47 124zM266 1102q0 -35 11.5 -50.5t56.5 -15.5h160q45 0 56 15.5t11 50.5v176q0 35 -11 51.5t-56 16.5h-160q-45 0 -56.5 -16.5t-11.5 -51.5v-176z
" />
    <glyph glyph-name="plusminus" unicode="&#xb1;" 
d="M178 0v170h987v-170h-987zM178 535v161h404v295h176v-295h407v-161h-407v-293h-176v293h-404z" />
    <glyph glyph-name="uni00B2" unicode="&#xb2;" horiz-adv-x="927" 
d="M115 838v170q0 53 25.5 97t84.5 77l396 239v54q0 20 -10.5 31.5t-39.5 11.5h-438v98q6 4 18.5 14t33 19.5t50 16.5t70.5 7h311q96 0 140.5 -50t44.5 -136v-68q0 -53 -16.5 -81.5t-57.5 -53.5l-432 -258v-35h518v-153h-698z" />
    <glyph glyph-name="uni00B3" unicode="&#xb3;" horiz-adv-x="909" 
d="M121 1518v98q10 10 52 33.5t120 23.5h287q104 0 146 -53t42 -143v-103q0 -29 -8 -47t-19.5 -28.5t-21.5 -16.5t-12 -8q4 -2 16 -7t25.5 -17.5t23.5 -31t10 -49.5v-135q0 -41 -6 -76.5t-25.5 -62.5t-55.5 -42t-93 -15h-305q-78 0 -121 22.5t-53 30.5v100h428q31 0 40 10.5
t9 38.5v101q0 27 -10 37t-39 10h-289v147h275q33 0 42 11.5t9 37.5v86q0 27 -10.5 37.5t-42.5 10.5h-414z" />
    <glyph glyph-name="acute" unicode="&#xb4;" horiz-adv-x="1024" 
d="M326 1145l161 299h238l-240 -299h-159z" />
    <glyph glyph-name="paragraph" unicode="&#xb6;" horiz-adv-x="1306" 
d="M182 887v317q0 66 50.5 114t115.5 48h776v-135h-131v-1231h-153v1231h-154v-1231h-156v727h-182q-33 0 -62.5 12.5t-53 34t-37 51t-13.5 62.5z" />
    <glyph glyph-name="periodcentered" unicode="&#xb7;" horiz-adv-x="403" 
d="M98 408v202h209v-202h-209z" />
    <glyph glyph-name="cedilla" unicode="&#xb8;" horiz-adv-x="1024" 
d="M307 -412l43 103q23 -8 45 -17q20 -6 47 -11t56 -5q47 0 73.5 22.5t26.5 53.5q0 70 -111 69q-12 0 -25 -1t-26 -3l-28 -4l94 205h129l-49 -104q106 0 147 -47.5t41 -108.5q0 -92 -70.5 -145.5t-181.5 -53.5q-41 0 -79 6.5t-66 16.5q-35 10 -66 24z" />
    <glyph glyph-name="uni00B9" unicode="&#xb9;" horiz-adv-x="860" 
d="M174 838v153h184v518l-178 -24v131l219 61h142v-686h172v-153h-539z" />
    <glyph glyph-name="ordmasculine" unicode="&#xba;" horiz-adv-x="784" 
d="M109 911v293q0 82 51 122t131 40h201q90 0 137 -43t47 -119v-293q0 -78 -45 -119.5t-137 -41.5h-203q-182 0 -182 161zM111 453v141h563v-141h-563zM276 936q0 -27 9.5 -37t40.5 -10h131q35 0 43 12t8 35v246q0 23 -10.5 34t-40.5 11h-131q-31 0 -40.5 -11.5t-9.5 -33.5
v-246z" />
    <glyph glyph-name="guillemotright" unicode="&#xbb;" horiz-adv-x="960" 
d="M70 154l237 346l-237 344l120 88l316 -383v-98l-316 -385zM440 154l238 346l-238 344l123 88l316 -383v-98l-316 -385z" />
    <glyph glyph-name="onequarter" unicode="&#xbc;" horiz-adv-x="2181" 
d="M145 530v154h201v518l-194 -22v129l233 61h141v-686h189v-154h-570zM438 -41l1047 1448h178l-1045 -1448h-180zM1257 184v129l467 527h172v-502h134v-154h-134v-184h-180v184h-459zM1473 334h243v284z" />
    <glyph glyph-name="onehalf" unicode="&#xbd;" horiz-adv-x="2181" 
d="M145 530v154h201v518l-194 -22v129l233 61h141v-686h189v-154h-570zM428 -41l1047 1448h178l-1045 -1448h-180zM1348 0v170q0 53 25.5 96t84.5 78l400 240v53q0 20 -10.5 31.5t-39.5 11.5h-440v98q10 10 49 33t121 23h317q94 0 138.5 -49.5t44.5 -135.5v-67
q0 -53 -15.5 -83t-56.5 -53l-438 -258v-34h524v-154h-704z" />
    <glyph glyph-name="threequarters" unicode="&#xbe;" horiz-adv-x="2181" 
d="M154 1210v99q10 10 52 33.5t120 23.5h301q109 0 148.5 -53t39.5 -144v-102q0 -29 -8 -47.5t-19.5 -28.5t-21.5 -16t-12 -8q4 -2 16 -7.5t25.5 -17.5t23.5 -30.5t10 -49.5v-162q0 -74 -37.5 -122t-142.5 -48h-319q-80 0 -122 22.5t-50 31.5v100h440q31 0 41 10.5t10 38.5
v101q0 27 -11 37t-40 10h-297v147h283q35 0 43 11.5t8 37.5v86q0 27 -10.5 37t-42.5 10h-428zM516 -41l1047 1448h178l-1045 -1448h-180zM1266 184v129l467 527h172v-502h133v-154h-133v-184h-181v184h-458zM1481 334h243v284z" />
    <glyph glyph-name="questiondown" unicode="&#xbf;" horiz-adv-x="882" 
d="M72 270v88q0 61 16 93t53 65l262 236v211h203v-193q0 -43 -15.5 -69.5t-45.5 -55.5l-271 -248v-133q0 -55 32 -81.5t104 -26.5h403v-78q-6 -6 -21.5 -18.5t-45 -26t-76.5 -23.5t-117 -10h-201q-76 0 -129 20.5t-87 57.5t-49 86t-15 106zM399 1165v201h211v-201h-211z" />
    <glyph glyph-name="Agrave" unicode="&#xc0;" horiz-adv-x="1304" 
d="M8 0l518 1366h260l517 -1366h-234l-147 418h-537l-145 -418h-232zM352 1784h250l184 -283h-159zM442 584h420l-211 594z" />
    <glyph glyph-name="Aacute" unicode="&#xc1;" horiz-adv-x="1304" 
d="M8 0l518 1366h260l517 -1366h-234l-147 418h-537l-145 -418h-232zM442 584h420l-211 594zM537 1501l184 283h250l-275 -283h-159z" />
    <glyph glyph-name="Acircumflex" unicode="&#xc2;" horiz-adv-x="1304" 
d="M8 0l518 1366h260l517 -1366h-234l-147 418h-537l-145 -418h-232zM332 1561l243 243h156l242 -243l-92 -95l-228 187l-229 -183zM442 584h420l-211 594z" />
    <glyph glyph-name="Atilde" unicode="&#xc3;" horiz-adv-x="1304" 
d="M8 0l518 1366h260l517 -1366h-234l-147 418h-537l-145 -418h-232zM274 1630q29 39 66 70q33 27 77 49.5t103 22.5q43 0 78 -12.5t66.5 -26t60.5 -25.5t59 -12q29 0 55.5 13t48 28.5t34.5 30.5l12 14l94 -103q-29 -41 -65 -71q-33 -29 -78 -50.5t-103 -21.5
q-41 0 -74.5 12.5t-65.5 26.5t-60.5 26.5t-57.5 12.5q-31 0 -59.5 -13.5t-50 -29t-33.5 -29.5l-12 -14zM442 584h420l-211 594z" />
    <glyph glyph-name="Adieresis" unicode="&#xc4;" horiz-adv-x="1304" 
d="M8 0l518 1366h260l517 -1366h-234l-147 418h-537l-145 -418h-232zM350 1579v186h209v-186h-209zM442 584h420l-211 594zM743 1579v186h209v-186h-209z" />
    <glyph glyph-name="Aring" unicode="&#xc5;" horiz-adv-x="1304" 
d="M8 0l518 1366h260l517 -1366h-234l-147 418h-537l-145 -418h-232zM432 1614v123q0 76 30 110.5t116 34.5h149q86 0 115.5 -35t29.5 -106v-127q0 -78 -29.5 -112t-115.5 -34h-149q-86 0 -116 34t-30 112zM442 584h420l-211 594zM557 1583h191v184h-191v-184z" />
    <glyph glyph-name="AE" unicode="&#xc6;" horiz-adv-x="1830" 
d="M-47 0l795 1366h1007v-160h-665v-422h520v-159h-520v-465h665v-160h-872v418h-447l-239 -418h-244zM514 582h369v630z" />
    <glyph glyph-name="Ccedilla" unicode="&#xc7;" horiz-adv-x="1226" 
d="M141 242v878q0 111 72 178.5t205 67.5h456q86 0 146.5 -15.5t112.5 -56.5v-88h-654q-74 0 -103.5 -28.5t-29.5 -94.5v-802q0 -61 25.5 -91t103.5 -30h690v-86q-12 -8 -29.5 -20.5t-48 -25t-74.5 -20.5t-108 -8h-172l-49 -125q106 0 147 -47.5t41 -108.5q0 -92 -70.5 -145
t-180.5 -53q-41 0 -79 6t-67 16q-35 10 -65 25l43 102q23 -8 45 -16q20 -6 46.5 -11t55.5 -5q47 0 73.5 22.5t26.5 52.5q0 70 -110 70q-12 0 -25.5 -1t-25.5 -3q-14 -2 -29 -4l94 225h-194q-135 0 -202 67.5t-67 174.5z" />
    <glyph glyph-name="Egrave" unicode="&#xc8;" horiz-adv-x="1202" 
d="M152 0v1366h974v-160h-768v-422h623v-159h-623v-465h768v-160h-974zM362 1784h250l185 -283h-160z" />
    <glyph glyph-name="Eacute" unicode="&#xc9;" horiz-adv-x="1202" 
d="M152 0v1366h974v-160h-768v-422h623v-159h-623v-465h768v-160h-974zM506 1501l184 283h250l-274 -283h-160z" />
    <glyph glyph-name="Ecircumflex" unicode="&#xca;" horiz-adv-x="1202" 
d="M152 0v1366h974v-160h-768v-422h623v-159h-623v-465h768v-160h-974zM279 1581l284 244h156l282 -244l-81 -94l-279 186l-281 -182z" />
    <glyph glyph-name="Edieresis" unicode="&#xcb;" horiz-adv-x="1202" 
d="M152 0v1366h974v-160h-768v-422h623v-159h-623v-465h768v-160h-974zM352 1579v186h209v-186h-209zM745 1579v186h209v-186h-209z" />
    <glyph glyph-name="Igrave" unicode="&#xcc;" horiz-adv-x="509" 
d="M-63 1784h249l185 -283h-160zM152 0v1366h206v-1366h-206z" />
    <glyph glyph-name="Iacute" unicode="&#xcd;" horiz-adv-x="509" 
d="M141 1501l185 283h249l-274 -283h-160zM152 0v1366h206v-1366h-206z" />
    <glyph glyph-name="Icircumflex" unicode="&#xce;" horiz-adv-x="509" 
d="M-66 1581l244 244h156l241 -244l-81 -94l-238 186l-240 -182zM152 0v1366h206v-1366h-206z" />
    <glyph glyph-name="Idieresis" unicode="&#xcf;" horiz-adv-x="509" 
d="M-25 1579v186h209v-186h-209zM152 0v1366h206v-1366h-206zM328 1579v186h209v-186h-209z" />
    <glyph glyph-name="Eth" unicode="&#xd0;" horiz-adv-x="1409" 
d="M0 635v160h152v571h841q137 0 206 -68.5t69 -179.5v-866q0 -123 -71 -187.5t-206 -64.5h-839v635h-152zM360 160h564q86 0 111.5 28.5t25.5 98.5v790q0 33 -4 57.5t-16.5 41t-37 23.5t-67.5 7h-576v-411h408v-160h-408v-475z" />
    <glyph glyph-name="Ntilde" unicode="&#xd1;" horiz-adv-x="1413" 
d="M152 0v1366h229l674 -1036v1036h207v-1366h-228l-676 1038v-1038h-206zM330 1630q29 39 65 70q33 27 77 49.5t103 22.5q43 0 78 -12.5t67 -26t60.5 -25.5t59.5 -12q29 0 55.5 13t48 28.5t33.5 30.5l12 14l94 -103q-29 -41 -65 -71q-33 -29 -78 -50.5t-102 -21.5
q-41 0 -75 12.5t-65.5 26.5t-60.5 26.5t-57 12.5q-31 0 -59.5 -13.5t-50 -29t-34.5 -29.5l-12 -14z" />
    <glyph glyph-name="Ograve" unicode="&#xd2;" horiz-adv-x="1441" 
d="M141 248v870q0 123 77 185.5t200 62.5h602q137 0 208.5 -66.5t71.5 -181.5v-870q0 -117 -68.5 -182.5t-209.5 -65.5h-604q-141 0 -209 65.5t-68 182.5zM348 287q0 -72 26.5 -99.5t106.5 -27.5h477q45 0 71 8t40 23.5t18.5 40t4.5 55.5v794q0 66 -28 95.5t-110 29.5h-469
q-84 0 -110.5 -30.5t-26.5 -94.5v-794zM424 1784h250l184 -283h-160z" />
    <glyph glyph-name="Oacute" unicode="&#xd3;" horiz-adv-x="1441" 
d="M141 248v870q0 123 77 185.5t200 62.5h602q137 0 208.5 -66.5t71.5 -181.5v-870q0 -117 -68.5 -182.5t-209.5 -65.5h-604q-141 0 -209 65.5t-68 182.5zM348 287q0 -72 26.5 -99.5t106.5 -27.5h477q45 0 71 8t40 23.5t18.5 40t4.5 55.5v794q0 66 -28 95.5t-110 29.5h-469
q-84 0 -110.5 -30.5t-26.5 -94.5v-794zM588 1501l184 283h250l-274 -283h-160z" />
    <glyph glyph-name="Ocircumflex" unicode="&#xd4;" horiz-adv-x="1441" 
d="M141 248v870q0 123 77 185.5t200 62.5h602q137 0 208.5 -66.5t71.5 -181.5v-870q0 -117 -68.5 -182.5t-209.5 -65.5h-604q-141 0 -209 65.5t-68 182.5zM348 287q0 -72 26.5 -99.5t106.5 -27.5h477q45 0 71 8t40 23.5t18.5 40t4.5 55.5v794q0 66 -28 95.5t-110 29.5h-469
q-84 0 -110.5 -30.5t-26.5 -94.5v-794zM358 1581l285 244h156l282 -244l-82 -94l-278 186l-281 -182z" />
    <glyph glyph-name="Otilde" unicode="&#xd5;" horiz-adv-x="1441" 
d="M141 248v870q0 123 77 185.5t200 62.5h602q137 0 208.5 -66.5t71.5 -181.5v-870q0 -117 -68.5 -182.5t-209.5 -65.5h-604q-141 0 -209 65.5t-68 182.5zM344 1630q29 39 66 70q33 27 76.5 49.5t103.5 22.5q43 0 77.5 -12.5t66.5 -26t60.5 -25.5t59.5 -12q29 0 55.5 13
t48 28.5t34.5 30.5l12 14l94 -103q-29 -41 -66 -71q-33 -29 -78 -50.5t-102 -21.5q-41 0 -75 12.5t-65.5 26.5t-60 26.5t-57.5 12.5q-31 0 -59.5 -13.5t-50 -29t-34.5 -29.5l-12 -14zM348 287q0 -72 26.5 -99.5t106.5 -27.5h477q45 0 71 8t40 23.5t18.5 40t4.5 55.5v794
q0 66 -28 95.5t-110 29.5h-469q-84 0 -110.5 -30.5t-26.5 -94.5v-794z" />
    <glyph glyph-name="Odieresis" unicode="&#xd6;" horiz-adv-x="1441" 
d="M141 248v870q0 123 77 185.5t200 62.5h602q137 0 208.5 -66.5t71.5 -181.5v-870q0 -117 -68.5 -182.5t-209.5 -65.5h-604q-141 0 -209 65.5t-68 182.5zM348 287q0 -72 26.5 -99.5t106.5 -27.5h477q45 0 71 8t40 23.5t18.5 40t4.5 55.5v794q0 66 -28 95.5t-110 29.5h-469
q-84 0 -110.5 -30.5t-26.5 -94.5v-794zM420 1579v186h209v-186h-209zM813 1579v186h209v-186h-209z" />
    <glyph glyph-name="multiply" unicode="&#xd7;" 
d="M231 809l125 125l316 -318l317 318l123 -125l-315 -317l315 -318l-125 -123l-315 316l-314 -314l-125 125l314 314z" />
    <glyph glyph-name="Oslash" unicode="&#xd8;" horiz-adv-x="1441" 
d="M98 -190l140 233q-49 31 -73 83t-24 122v870q0 123 77 185.5t200 62.5h602h14l109 178h205l-140 -229q92 -68 92 -197v-870q0 -117 -68.5 -182.5t-209.5 -65.5h-604l-115 -190h-205zM348 287q0 -16 1 -29.5t3 -24.5l586 973h-453q-84 0 -110.5 -30.5t-26.5 -94.5v-794z
M514 160h444q45 0 71 8t40 23.5t18.5 40t4.5 55.5v794q0 10 -1 18.5t-1 16.5z" />
    <glyph glyph-name="Ugrave" unicode="&#xd9;" horiz-adv-x="1421" 
d="M152 313v1053h204v-1085q0 -61 25 -92t102 -31h441q86 0 112.5 27.5t26.5 101.5v1079h207v-1051q0 -70 -12.5 -127t-43 -99t-83 -65.5t-132.5 -23.5h-579q-152 0 -210 85t-58 228zM426 1784h250l184 -283h-160z" />
    <glyph glyph-name="Uacute" unicode="&#xda;" horiz-adv-x="1421" 
d="M152 313v1053h204v-1085q0 -61 25 -92t102 -31h441q86 0 112.5 27.5t26.5 101.5v1079h207v-1051q0 -70 -12.5 -127t-43 -99t-83 -65.5t-132.5 -23.5h-579q-152 0 -210 85t-58 228zM586 1501l184 283h250l-275 -283h-159z" />
    <glyph glyph-name="Ucircumflex" unicode="&#xdb;" horiz-adv-x="1421" 
d="M152 313v1053h204v-1085q0 -61 25 -92t102 -31h441q86 0 112.5 27.5t26.5 101.5v1079h207v-1051q0 -70 -12.5 -127t-43 -99t-83 -65.5t-132.5 -23.5h-579q-152 0 -210 85t-58 228zM348 1581l285 244h155l283 -244l-82 -94l-278 186l-281 -182z" />
    <glyph glyph-name="Udieresis" unicode="&#xdc;" horiz-adv-x="1421" 
d="M152 313v1053h204v-1085q0 -61 25 -92t102 -31h441q86 0 112.5 27.5t26.5 101.5v1079h207v-1051q0 -70 -12.5 -127t-43 -99t-83 -65.5t-132.5 -23.5h-579q-152 0 -210 85t-58 228zM410 1579v186h208v-186h-208zM803 1579v186h209v-186h-209z" />
    <glyph glyph-name="Yacute" unicode="&#xdd;" horiz-adv-x="1171" 
d="M-27 1366h246l369 -580l381 580h229l-508 -735v-631h-213v625zM485 1501l185 283h250l-275 -283h-160z" />
    <glyph glyph-name="Thorn" unicode="&#xde;" horiz-adv-x="1251" 
d="M152 0v1366h206v-258h537q152 0 218.5 -70.5t66.5 -185.5v-315q0 -123 -72 -179.5t-203 -56.5h-547v-301h-206zM358 461h484q78 0 104.5 27.5t26.5 91.5v245q0 63 -27.5 93t-103.5 30h-484v-487z" />
    <glyph glyph-name="germandbls" unicode="&#xdf;" horiz-adv-x="1234" 
d="M143 0v1202q0 125 71 192.5t206 67.5h313q141 0 217 -62.5t76 -187.5v-178q0 -61 -18.5 -100t-41 -62.5t-43 -33t-24.5 -11.5q2 0 34 -6t68.5 -28.5t67.5 -69.5t31 -127v-346q0 -250 -248 -250h-150q-86 0 -147 20.5t-90 49.5v84h305q74 0 100.5 24.5t26.5 102.5v274
q0 86 -28.5 123t-116.5 37h-187v153h97q76 0 118.5 32t42.5 114v160q0 45 -8 71.5t-25.5 40.5t-43 18.5t-60.5 4.5h-223q-72 0 -94.5 -34t-22.5 -112v-1163h-203z" />
    <glyph glyph-name="agrave" unicode="&#xe0;" horiz-adv-x="1085" 
d="M113 215v152q0 100 66.5 155.5t189.5 55.5h376v139q0 59 -27.5 90t-115.5 31h-436v75q27 20 63 39q33 14 80 26.5t111 12.5h237q141 0 215 -62.5t74 -185.5v-743h-178l-16 94q-20 -27 -50 -47q-25 -18 -62.5 -32.5t-90.5 -14.5h-180q-133 0 -194.5 53t-61.5 162z
M289 1444h237l162 -299h-160zM313 246q0 -61 35 -76.5t103 -15.5h135q41 0 81 2t78 8v260h-319q-63 0 -88 -22.5t-25 -73.5v-82z" />
    <glyph glyph-name="aacute" unicode="&#xe1;" horiz-adv-x="1085" 
d="M113 215v152q0 100 66.5 155.5t189.5 55.5h376v139q0 59 -27.5 90t-115.5 31h-436v75q27 20 63 39q33 14 80 26.5t111 12.5h237q141 0 215 -62.5t74 -185.5v-743h-178l-16 94q-20 -27 -50 -47q-25 -18 -62.5 -32.5t-90.5 -14.5h-180q-133 0 -194.5 53t-61.5 162zM313 246
q0 -61 35 -76.5t103 -15.5h135q41 0 81 2t78 8v260h-319q-63 0 -88 -22.5t-25 -73.5v-82zM434 1145l162 299h238l-240 -299h-160z" />
    <glyph glyph-name="acircumflex" unicode="&#xe2;" horiz-adv-x="1085" 
d="M113 215v152q0 100 66.5 155.5t189.5 55.5h376v139q0 59 -27.5 90t-115.5 31h-436v75q27 20 63 39q33 14 80 26.5t111 12.5h237q141 0 215 -62.5t74 -185.5v-743h-178l-16 94q-20 -27 -50 -47q-25 -18 -62.5 -32.5t-90.5 -14.5h-180q-133 0 -194.5 53t-61.5 162z
M223 1194l262 295h156l262 -293l-100 -82l-240 223l-239 -221zM313 246q0 -61 35 -76.5t103 -15.5h135q41 0 81 2t78 8v260h-319q-63 0 -88 -22.5t-25 -73.5v-82z" />
    <glyph glyph-name="atilde" unicode="&#xe3;" horiz-adv-x="1085" 
d="M113 215v152q0 100 66.5 155.5t189.5 55.5h376v139q0 59 -27.5 90t-115.5 31h-436v75q27 20 63 39q33 14 80 26.5t111 12.5h237q141 0 215 -62.5t74 -185.5v-743h-178l-16 94q-20 -27 -50 -47q-25 -18 -62.5 -32.5t-90.5 -14.5h-180q-133 0 -194.5 53t-61.5 162z
M188 1282q27 39 64 70q31 27 75 49t101 22q43 0 77 -12t64.5 -25.5t59 -25.5t59.5 -12q27 0 53.5 13t47 28.5t33.5 30.5l12 14l92 -103q-29 -41 -66 -71q-31 -29 -75 -50.5t-99 -21.5q-39 0 -73.5 12t-65.5 26.5t-59.5 27t-55.5 12.5q-31 0 -58.5 -13.5t-48 -29t-32.5 -29.5
l-12 -14zM313 246q0 -61 35 -76.5t103 -15.5h135q41 0 81 2t78 8v260h-319q-63 0 -88 -22.5t-25 -73.5v-82z" />
    <glyph glyph-name="adieresis" unicode="&#xe4;" horiz-adv-x="1085" 
d="M113 215v152q0 100 66.5 155.5t189.5 55.5h376v139q0 59 -27.5 90t-115.5 31h-436v75q27 20 63 39q33 14 80 26.5t111 12.5h237q141 0 215 -62.5t74 -185.5v-743h-178l-16 94q-20 -27 -50 -47q-25 -18 -62.5 -32.5t-90.5 -14.5h-180q-133 0 -194.5 53t-61.5 162z
M272 1225v188h209v-188h-209zM313 246q0 -61 35 -76.5t103 -15.5h135q41 0 81 2t78 8v260h-319q-63 0 -88 -22.5t-25 -73.5v-82zM645 1225v188h209v-188h-209z" />
    <glyph glyph-name="aring" unicode="&#xe5;" horiz-adv-x="1085" 
d="M113 215v152q0 100 66.5 155.5t189.5 55.5h376v139q0 59 -27.5 90t-115.5 31h-436v75q27 20 63 39q33 14 80 26.5t111 12.5h237q141 0 215 -62.5t74 -185.5v-743h-178l-16 94q-20 -27 -50 -47q-25 -18 -62.5 -32.5t-90.5 -14.5h-180q-133 0 -194.5 53t-61.5 162zM313 246
q0 -61 35 -76.5t103 -15.5h135q41 0 81 2t78 8v260h-319q-63 0 -88 -22.5t-25 -73.5v-82zM344 1233v123q0 76 29.5 109.5t115.5 33.5h150q86 0 115.5 -33.5t29.5 -105.5v-127q0 -78 -29.5 -112t-115.5 -34h-150q-86 0 -115.5 34t-29.5 112zM469 1202h190v184h-190v-184z" />
    <glyph glyph-name="ae" unicode="&#xe6;" horiz-adv-x="1738" 
d="M113 215v160q0 100 66.5 155.5t189.5 55.5h376v131q0 59 -27.5 90t-115.5 31h-436v75q27 20 63 39q33 14 80 26.5t111 12.5h237q80 0 124 -23.5t65 -70.5q23 47 67.5 70.5t122.5 23.5h291q141 0 213 -64.5t72 -185.5v-309h-666v-164q0 -63 24.5 -88.5t106.5 -25.5h527
v-76q-31 -23 -70 -39q-35 -16 -84 -27.5t-115 -11.5h-329q-78 0 -110 26.5t-52 67.5q-23 -37 -61 -65.5t-103 -28.5h-311q-133 0 -194.5 53t-61.5 162zM313 246q0 -61 35 -76.5t103 -15.5h135q41 0 84 2t80 20q-4 25 -4.5 50.5t-0.5 60.5v145h-319q-63 0 -88 -22.5
t-25 -73.5v-90zM946 586h465v129q0 61 -22.5 92t-104.5 31h-207q-86 0 -108.5 -33t-22.5 -86v-133z" />
    <glyph glyph-name="ccedilla" unicode="&#xe7;" horiz-adv-x="983" 
d="M133 242v506q0 111 71.5 177t207.5 66h252q82 0 139 -20.5t110 -57.5v-75h-448q-74 0 -102.5 -29t-28.5 -94v-439q0 -61 25.5 -91.5t105.5 -30.5h455v-76q-6 -4 -26 -17.5t-54.5 -27t-86 -23.5t-124.5 -10h-17l-49 -104q106 0 147.5 -47.5t41.5 -108.5q0 -92 -71 -145.5
t-181 -53.5q-41 0 -79 6.5t-67 16.5q-35 10 -65 24l43 103q23 -8 45 -17q20 -6 47 -11t55 -5q47 0 74 22.5t27 53.5q0 70 -111 69q-12 0 -25.5 -1t-25.5 -3q-14 -2 -29 -4l94 205h-80q-135 0 -202.5 65.5t-67.5 176.5z" />
    <glyph glyph-name="egrave" unicode="&#xe8;" horiz-adv-x="1126" 
d="M133 250v489q0 68 21.5 116t60.5 78t92 44t117 14h291q141 0 212.5 -64.5t71.5 -185.5v-301h-665v-172q0 -63 24.5 -88.5t106.5 -25.5h526v-76q-31 -23 -69 -39q-35 -16 -84.5 -27.5t-114.5 -11.5h-309q-143 0 -212 65.5t-69 184.5zM315 1444h238l162 -299h-160zM334 594
h465v121q0 61 -22.5 92t-104.5 31h-207q-86 0 -108.5 -33t-22.5 -86v-125z" />
    <glyph glyph-name="eacute" unicode="&#xe9;" horiz-adv-x="1126" 
d="M133 250v489q0 68 21.5 116t60.5 78t92 44t117 14h291q141 0 212.5 -64.5t71.5 -185.5v-301h-665v-172q0 -63 24.5 -88.5t106.5 -25.5h526v-76q-31 -23 -69 -39q-35 -16 -84.5 -27.5t-114.5 -11.5h-309q-143 0 -212 65.5t-69 184.5zM334 594h465v121q0 61 -22.5 92
t-104.5 31h-207q-86 0 -108.5 -33t-22.5 -86v-125zM446 1145l162 299h238l-240 -299h-160z" />
    <glyph glyph-name="ecircumflex" unicode="&#xea;" horiz-adv-x="1126" 
d="M133 250v489q0 68 21.5 116t60.5 78t92 44t117 14h291q141 0 212.5 -64.5t71.5 -185.5v-301h-665v-172q0 -63 24.5 -88.5t106.5 -25.5h526v-76q-31 -23 -69 -39q-35 -16 -84.5 -27.5t-114.5 -11.5h-309q-143 0 -212 65.5t-69 184.5zM240 1194l262 295h155l263 -293
l-101 -82l-239 223l-240 -221zM334 594h465v121q0 61 -22.5 92t-104.5 31h-207q-86 0 -108.5 -33t-22.5 -86v-125z" />
    <glyph glyph-name="edieresis" unicode="&#xeb;" horiz-adv-x="1126" 
d="M133 250v489q0 68 21.5 116t60.5 78t92 44t117 14h291q141 0 212.5 -64.5t71.5 -185.5v-301h-665v-172q0 -63 24.5 -88.5t106.5 -25.5h526v-76q-31 -23 -69 -39q-35 -16 -84.5 -27.5t-114.5 -11.5h-309q-143 0 -212 65.5t-69 184.5zM274 1225v188h209v-188h-209zM334 594
h465v121q0 61 -22.5 92t-104.5 31h-207q-86 0 -108.5 -33t-22.5 -86v-125zM647 1225v188h209v-188h-209z" />
    <glyph glyph-name="igrave" unicode="&#xec;" horiz-adv-x="499" 
d="M-33 1444h238l162 -299h-160zM150 0v991h202v-991h-202z" />
    <glyph glyph-name="iacute" unicode="&#xed;" horiz-adv-x="499" 
d="M150 0v991h202v-991h-202zM152 1145l161 299h238l-240 -299h-159z" />
    <glyph glyph-name="icircumflex" unicode="&#xee;" horiz-adv-x="499" 
d="M-70 1194l242 295h156l241 -293l-100 -82l-219 223l-219 -221zM150 0v991h202v-991h-202z" />
    <glyph glyph-name="idieresis" unicode="&#xef;" horiz-adv-x="499" 
d="M-20 1225v188h208v-188h-208zM150 0v991h202v-991h-202zM311 1225v188h209v-188h-209z" />
    <glyph glyph-name="eth" unicode="&#xf0;" horiz-adv-x="1163" 
d="M133 248v473q0 123 76 185.5t199 62.5h210q49 0 84 -10.5t58.5 -24.5t36 -26.5t18.5 -16.5q0 106 -28.5 181t-69.5 114l-195 -113l-45 68l166 96q-47 23 -113.5 34t-164.5 11h-91v156h88q303 0 443 -99l182 111l47 -70l-164 -100q86 -78 117 -213t31 -326v-493
q0 -117 -68.5 -182.5t-206.5 -65.5h-335q-137 0 -206 65.5t-69 182.5zM336 281q0 -72 25.5 -99.5t107.5 -27.5h211q90 0 113.5 32.5t23.5 94.5v510q-12 6 -35 12q-18 4 -47.5 8t-72.5 4h-191q-84 0 -109.5 -30.5t-25.5 -96.5v-407z" />
    <glyph glyph-name="ntilde" unicode="&#xf1;" horiz-adv-x="1153" 
d="M143 0v991h189l8 -90q23 33 68 61.5t131 28.5h196q150 0 214.5 -70.5t64.5 -175.5v-745h-201v729q0 59 -31.5 84t-95.5 25h-172q-88 0 -125 -11.5t-47 -15.5q2 -27 2 -50.5v-49.5v-711h-201zM203 1282q27 39 63 70q31 27 75 49t101 22q43 0 77 -12t64.5 -25.5t59.5 -25.5
t59 -12q27 0 53.5 13t47 28.5t33.5 30.5l12 14l92 -103q-29 -41 -66 -71q-31 -29 -74.5 -50.5t-99.5 -21.5q-39 0 -73.5 12t-65.5 26.5t-59.5 27t-55.5 12.5q-31 0 -58.5 -13.5t-48 -29t-32.5 -29.5l-12 -14z" />
    <glyph glyph-name="ograve" unicode="&#xf2;" horiz-adv-x="1173" 
d="M133 248v495q0 123 77 185.5t200 62.5h352q137 0 206.5 -67.5t69.5 -180.5v-495q0 -117 -67.5 -182.5t-206.5 -65.5h-356q-137 0 -206 65.5t-69 182.5zM311 1444h238l162 -299h-160zM334 281q0 -72 26.5 -99.5t108.5 -27.5h233q45 0 73 8t41 23.5t17.5 40t4.5 55.5v430
q0 66 -27 96.5t-109 30.5h-233q-82 0 -108.5 -31t-26.5 -96v-430z" />
    <glyph glyph-name="oacute" unicode="&#xf3;" horiz-adv-x="1173" 
d="M133 248v495q0 123 77 185.5t200 62.5h352q137 0 206.5 -67.5t69.5 -180.5v-495q0 -117 -67.5 -182.5t-206.5 -65.5h-356q-137 0 -206 65.5t-69 182.5zM334 281q0 -72 26.5 -99.5t108.5 -27.5h233q45 0 73 8t41 23.5t17.5 40t4.5 55.5v430q0 66 -27 96.5t-109 30.5h-233
q-82 0 -108.5 -31t-26.5 -96v-430zM469 1145l162 299h237l-239 -299h-160z" />
    <glyph glyph-name="ocircumflex" unicode="&#xf4;" horiz-adv-x="1173" 
d="M133 248v495q0 123 77 185.5t200 62.5h352q137 0 206.5 -67.5t69.5 -180.5v-495q0 -117 -67.5 -182.5t-206.5 -65.5h-356q-137 0 -206 65.5t-69 182.5zM246 1194l262 295h156l262 -293l-101 -82l-239 223l-240 -221zM334 281q0 -72 26.5 -99.5t108.5 -27.5h233q45 0 73 8
t41 23.5t17.5 40t4.5 55.5v430q0 66 -27 96.5t-109 30.5h-233q-82 0 -108.5 -31t-26.5 -96v-430z" />
    <glyph glyph-name="otilde" unicode="&#xf5;" horiz-adv-x="1173" 
d="M133 248v495q0 123 77 185.5t200 62.5h352q137 0 206.5 -67.5t69.5 -180.5v-495q0 -117 -67.5 -182.5t-206.5 -65.5h-356q-137 0 -206 65.5t-69 182.5zM217 1282q27 39 64 70q31 27 74.5 49t101.5 22q43 0 76.5 -12t64.5 -25.5t59.5 -25.5t59.5 -12q27 0 53.5 13t47 28.5
t32.5 30.5l12 14l92 -103q-29 -41 -65 -71q-31 -29 -75 -50.5t-99 -21.5q-39 0 -74 12t-65.5 26.5t-59.5 27t-55 12.5q-31 0 -58.5 -13.5t-48 -29t-32.5 -29.5l-13 -14zM334 281q0 -72 26.5 -99.5t108.5 -27.5h233q45 0 73 8t41 23.5t17.5 40t4.5 55.5v430q0 66 -27 96.5
t-109 30.5h-233q-82 0 -108.5 -31t-26.5 -96v-430z" />
    <glyph glyph-name="odieresis" unicode="&#xf6;" horiz-adv-x="1173" 
d="M133 248v495q0 123 77 185.5t200 62.5h352q137 0 206.5 -67.5t69.5 -180.5v-495q0 -117 -67.5 -182.5t-206.5 -65.5h-356q-137 0 -206 65.5t-69 182.5zM295 1225v188h209v-188h-209zM334 281q0 -72 26.5 -99.5t108.5 -27.5h233q45 0 73 8t41 23.5t17.5 40t4.5 55.5v430
q0 66 -27 96.5t-109 30.5h-233q-82 0 -108.5 -31t-26.5 -96v-430zM668 1225v188h209v-188h-209z" />
    <glyph glyph-name="divide" unicode="&#xf7;" 
d="M180 410v170h987v-170h-987zM565 33v203h213v-203h-213zM565 756v202h213v-202h-213z" />
    <glyph glyph-name="oslash" unicode="&#xf8;" horiz-adv-x="1173" 
d="M45 -184l158 247q-70 63 -70 185v495q0 123 77 185.5t200 62.5h352q20 0 29 -2l118 187h205l-156 -244q80 -66 80 -189v-495q0 -117 -67.5 -182.5t-206.5 -65.5h-356h-19.5t-19.5 2l-119 -186h-205zM334 268l360 570h-225q-82 0 -108.5 -31t-26.5 -96v-430v-13zM465 154
h4h233q45 0 73 8t41 23.5t17.5 40t4.5 55.5v430q0 18 -2 28z" />
    <glyph glyph-name="ugrave" unicode="&#xf9;" horiz-adv-x="1155" 
d="M137 246v745h201v-729q0 -59 31.5 -83.5t95.5 -24.5h172q88 0 125 11t47 15q-2 27 -2 50.5v50.5v710h201v-991h-189l-8 90q-23 -33 -68 -61.5t-131 -28.5h-196q-76 0 -128 18.5t-86 52t-49.5 78t-15.5 97.5zM311 1444h238l162 -299h-160z" />
    <glyph glyph-name="uacute" unicode="&#xfa;" horiz-adv-x="1155" 
d="M137 246v745h201v-729q0 -59 31.5 -83.5t95.5 -24.5h172q88 0 125 11t47 15q-2 27 -2 50.5v50.5v710h201v-991h-189l-8 90q-23 -33 -68 -61.5t-131 -28.5h-196q-76 0 -128 18.5t-86 52t-49.5 78t-15.5 97.5zM459 1145l162 299h237l-240 -299h-159z" />
    <glyph glyph-name="ucircumflex" unicode="&#xfb;" horiz-adv-x="1155" 
d="M137 246v745h201v-729q0 -59 31.5 -83.5t95.5 -24.5h172q88 0 125 11t47 15q-2 27 -2 50.5v50.5v710h201v-991h-189l-8 90q-23 -33 -68 -61.5t-131 -28.5h-196q-76 0 -128 18.5t-86 52t-49.5 78t-15.5 97.5zM238 1194l262 295h155l263 -293l-101 -82l-239 223l-240 -221z
" />
    <glyph glyph-name="udieresis" unicode="&#xfc;" horiz-adv-x="1155" 
d="M137 246v745h201v-729q0 -59 31.5 -83.5t95.5 -24.5h172q88 0 125 11t47 15q-2 27 -2 50.5v50.5v710h201v-991h-189l-8 90q-23 -33 -68 -61.5t-131 -28.5h-196q-76 0 -128 18.5t-86 52t-49.5 78t-15.5 97.5zM287 1225v188h209v-188h-209zM659 1225v188h209v-188h-209z
" />
    <glyph glyph-name="yacute" unicode="&#xfd;" horiz-adv-x="993" 
d="M33 991h217l256 -682l250 682h209l-523 -1360h-200l157 426zM379 1145l162 299h237l-239 -299h-160z" />
    <glyph glyph-name="thorn" unicode="&#xfe;" horiz-adv-x="1175" 
d="M143 -369v1811l201 35v-572q35 37 85 61.5t108 24.5h231q135 0 203.5 -66.5t68.5 -176.5v-496q0 -117 -71.5 -184.5t-206.5 -67.5h-205q-45 0 -81 9t-62.5 22.5t-44 29t-25.5 25.5v-455h-201zM344 180q12 -8 35 -14q18 -4 49 -8t78 -4h201q74 0 103.5 29.5t29.5 88.5v451
q0 59 -29 87t-94 28h-211q-43 0 -73 -5.5t-50 -9.5q-23 -6 -39 -12v-631z" />
    <glyph glyph-name="ydieresis" unicode="&#xff;" horiz-adv-x="993" 
d="M33 991h217l256 -682l250 682h209l-523 -1360h-200l157 426zM207 1225v188h209v-188h-209zM580 1225v188h208v-188h-208z" />
    <glyph glyph-name="Amacron" unicode="&#x100;" horiz-adv-x="1304" 
d="M8 0l518 1366h260l517 -1366h-234l-147 418h-537l-145 -418h-232zM336 1579v152h633v-152h-633zM442 584h420l-211 594z" />
    <glyph glyph-name="amacron" unicode="&#x101;" horiz-adv-x="1085" 
d="M113 215v152q0 100 66.5 155.5t189.5 55.5h376v139q0 59 -27.5 90t-115.5 31h-436v75q27 20 63 39q33 14 80 26.5t111 12.5h237q141 0 215 -62.5t74 -185.5v-743h-178l-16 94q-20 -27 -50 -47q-25 -18 -62.5 -32.5t-90.5 -14.5h-180q-133 0 -194.5 53t-61.5 162z
M246 1233v151h635v-151h-635zM313 246q0 -61 35 -76.5t103 -15.5h135q41 0 81 2t78 8v260h-319q-63 0 -88 -22.5t-25 -73.5v-82z" />
    <glyph glyph-name="Abreve" unicode="&#x102;" horiz-adv-x="1304" 
d="M8 0l518 1366h260l517 -1366h-234l-147 418h-537l-145 -418h-232zM319 1755v41h158v-18q0 -72 36 -107t138 -35q106 0 140 35t34 107v18h158v-53q0 -51 -16.5 -97.5t-55.5 -80t-102.5 -54t-157.5 -20.5q-96 0 -159.5 19.5t-102.5 54t-54.5 83t-15.5 107.5zM442 584h420
l-211 594z" />
    <glyph glyph-name="abreve" unicode="&#x103;" horiz-adv-x="1085" 
d="M113 215v152q0 100 66.5 155.5t189.5 55.5h376v139q0 59 -27.5 90t-115.5 31h-436v75q27 20 63 39q33 14 80 26.5t111 12.5h237q141 0 215 -62.5t74 -185.5v-743h-178l-16 94q-20 -27 -50 -47q-25 -18 -62.5 -32.5t-90.5 -14.5h-180q-133 0 -194.5 53t-61.5 162z
M250 1411v57h156v-36q0 -35 5 -63t22.5 -48.5t48 -30.5t79.5 -10q51 0 82 11.5t48.5 30.5t22.5 47t5 63v36h155v-57q0 -57 -12 -106.5t-47 -86t-96.5 -58t-157.5 -21.5q-94 0 -154.5 21.5t-95.5 58t-48 86t-13 106.5zM313 246q0 -61 35 -76.5t103 -15.5h135q41 0 81 2t78 8
v260h-319q-63 0 -88 -22.5t-25 -73.5v-82z" />
    <glyph glyph-name="Aogonek" unicode="&#x104;" horiz-adv-x="1304" 
d="M8 0l518 1366h260l517 -1366q-55 -29 -99 -66q-37 -31 -66.5 -72.5t-29.5 -92.5q0 -53 28.5 -74t94.5 -21q49 0 90 11q23 4 43 10l25 -109q-29 -10 -62 -18q-29 -8 -66.5 -13.5t-84.5 -5.5q-55 0 -101.5 8.5t-80 29t-52 56t-18.5 89.5q0 61 34.5 110t77.5 84
q49 41 113 74h-80l-147 418h-537l-145 -418h-232zM442 584h420l-211 594z" />
    <glyph glyph-name="aogonek" unicode="&#x105;" horiz-adv-x="1085" 
d="M113 215v152q0 100 66.5 155.5t189.5 55.5h376v139q0 59 -27.5 90t-115.5 31h-436v75q27 20 63 39q33 14 80 26.5t111 12.5h237q141 0 215 -62.5t74 -185.5v-743q-55 -29 -98 -66q-37 -31 -66.5 -72.5t-29.5 -92.5q0 -53 28.5 -74t93.5 -21q49 0 91 11q23 4 43 10
l24 -109q-29 -10 -61 -18q-29 -8 -67 -13.5t-85 -5.5q-55 0 -101 8.5t-80 29t-52.5 56t-18.5 89.5q0 61 35 110t78 84q49 41 113 74h-25l-16 94q-20 -27 -50 -47q-25 -18 -62.5 -32.5t-90.5 -14.5h-180q-133 0 -194.5 53t-61.5 162zM313 246q0 -61 35 -76.5t103 -15.5h135
q41 0 81 2t78 8v260h-319q-63 0 -88 -22.5t-25 -73.5v-82z" />
    <glyph glyph-name="Cacute" unicode="&#x106;" horiz-adv-x="1226" 
d="M141 242v878q0 111 72 178.5t205 67.5h456q86 0 146.5 -15.5t112.5 -56.5v-88h-654q-74 0 -103.5 -28.5t-29.5 -94.5v-802q0 -61 25.5 -91t103.5 -30h690v-86q-12 -8 -29.5 -20.5t-48 -25t-74.5 -20.5t-108 -8h-495q-135 0 -202 67.5t-67 174.5zM526 1501l185 283h250
l-275 -283h-160z" />
    <glyph glyph-name="cacute" unicode="&#x107;" horiz-adv-x="983" 
d="M133 242v506q0 111 71.5 177t207.5 66h252q82 0 139 -20.5t110 -57.5v-75h-448q-74 0 -102.5 -29t-28.5 -94v-439q0 -61 25.5 -91.5t105.5 -30.5h455v-76q-6 -4 -26 -17.5t-54.5 -27t-86 -23.5t-124.5 -10h-226q-135 0 -202.5 65.5t-67.5 176.5zM395 1145l162 299h238
l-240 -299h-160z" />
    <glyph glyph-name="Ccircumflex" unicode="&#x108;" horiz-adv-x="1226" 
d="M141 242v878q0 111 72 178.5t205 67.5h456q86 0 146.5 -15.5t112.5 -56.5v-88h-654q-74 0 -103.5 -28.5t-29.5 -94.5v-802q0 -61 25.5 -91t103.5 -30h690v-86q-12 -8 -29.5 -20.5t-48 -25t-74.5 -20.5t-108 -8h-495q-135 0 -202 67.5t-67 174.5zM289 1581l284 244h156
l283 -244l-82 -94l-279 186l-280 -182z" />
    <glyph glyph-name="ccircumflex" unicode="&#x109;" horiz-adv-x="983" 
d="M133 242v506q0 111 71.5 177t207.5 66h252q82 0 139 -20.5t110 -57.5v-75h-448q-74 0 -102.5 -29t-28.5 -94v-439q0 -61 25.5 -91.5t105.5 -30.5h455v-76q-6 -4 -26 -17.5t-54.5 -27t-86 -23.5t-124.5 -10h-226q-135 0 -202.5 65.5t-67.5 176.5zM193 1194l262 295h155
l262 -293l-100 -82l-240 223l-239 -221z" />
    <glyph glyph-name="Cdotaccent" unicode="&#x10a;" horiz-adv-x="1226" 
d="M141 242v878q0 111 72 178.5t205 67.5h456q86 0 146.5 -15.5t112.5 -56.5v-88h-654q-74 0 -103.5 -28.5t-29.5 -94.5v-802q0 -61 25.5 -91t103.5 -30h690v-86q-12 -8 -29.5 -20.5t-48 -25t-74.5 -20.5t-108 -8h-495q-135 0 -202 67.5t-67 174.5zM557 1579v186h209v-186
h-209z" />
    <glyph glyph-name="cdotaccent" unicode="&#x10b;" horiz-adv-x="983" 
d="M133 242v506q0 111 71.5 177t207.5 66h252q82 0 139 -20.5t110 -57.5v-75h-448q-74 0 -102.5 -29t-28.5 -94v-439q0 -61 25.5 -91.5t105.5 -30.5h455v-76q-6 -4 -26 -17.5t-54.5 -27t-86 -23.5t-124.5 -10h-226q-135 0 -202.5 65.5t-67.5 176.5zM444 1225v188h211v-188
h-211z" />
    <glyph glyph-name="Ccaron" unicode="&#x10c;" horiz-adv-x="1226" 
d="M141 242v878q0 111 72 178.5t205 67.5h456q86 0 146.5 -15.5t112.5 -56.5v-88h-654q-74 0 -103.5 -28.5t-29.5 -94.5v-802q0 -61 25.5 -91t103.5 -30h690v-86q-12 -8 -29.5 -20.5t-48 -25t-74.5 -20.5t-108 -8h-495q-135 0 -202 67.5t-67 174.5zM301 1731l82 94l279 -187
l280 183l82 -90l-285 -244h-155z" />
    <glyph glyph-name="ccaron" unicode="&#x10d;" horiz-adv-x="983" 
d="M133 242v506q0 111 71.5 177t207.5 66h252q82 0 139 -20.5t110 -57.5v-75h-448q-74 0 -102.5 -29t-28.5 -94v-439q0 -61 25.5 -91.5t105.5 -30.5h455v-76q-6 -4 -26 -17.5t-54.5 -27t-86 -23.5t-124.5 -10h-226q-135 0 -202.5 65.5t-67.5 176.5zM195 1407l100 82
l240 -223l239 221l100 -78l-262 -295h-155z" />
    <glyph glyph-name="Dcaron" unicode="&#x10e;" horiz-adv-x="1409" 
d="M152 0v1366h841q137 0 206 -68.5t69 -179.5v-866q0 -123 -71 -187.5t-206 -64.5h-839zM311 1731l82 94l279 -187l280 183l82 -90l-284 -244h-156zM360 160h564q86 0 111.5 28.5t25.5 98.5v790q0 33 -4 57.5t-16.5 41t-37 23.5t-67.5 7h-576v-1046z" />
    <glyph glyph-name="dcaron" unicode="&#x10f;" horiz-adv-x="1357" 
d="M133 244v495q0 117 71.5 184.5t207.5 67.5h206q45 0 81 -9t61.5 -22.5t42 -29t24.5 -25.5v537l201 35v-1477h-176l-16 92q-35 -41 -86.5 -66.5t-110.5 -25.5h-233q-135 0 -204 66.5t-69 177.5zM334 268q0 -59 28.5 -86.5t94.5 -27.5h213q41 0 71.5 4t49.5 8q23 6 36 14
v631q-10 6 -32 12q-18 4 -48 9.5t-77 5.5h-203q-74 0 -103.5 -30t-29.5 -89v-451zM1174 1087v394h194v-111q0 -68 -15.5 -116t-36 -81.5t-41 -54t-28.5 -31.5h-73z" />
    <glyph glyph-name="Dcroat" unicode="&#x110;" horiz-adv-x="1409" 
d="M0 635v160h152v571h841q137 0 206 -68.5t69 -179.5v-866q0 -123 -71 -187.5t-206 -64.5h-839v635h-152zM360 160h564q86 0 111.5 28.5t25.5 98.5v790q0 33 -4 57.5t-16.5 41t-37 23.5t-67.5 7h-576v-411h408v-160h-408v-475z" />
    <glyph glyph-name="dcroat" unicode="&#x111;" horiz-adv-x="1171" 
d="M133 244v495q0 117 71.5 184.5t207.5 67.5h206q45 0 81 -9t61.5 -22.5t42 -29t24.5 -25.5v260h-368v154h368v123l201 35v-158h184v-154h-184v-1165h-176l-16 92q-35 -41 -86.5 -66.5t-110.5 -25.5h-233q-135 0 -204 66.5t-69 177.5zM334 268q0 -59 28.5 -86.5t94.5 -27.5
h213q41 0 71.5 4t49.5 8q23 6 36 14v631q-10 6 -32 12q-18 4 -48 9.5t-77 5.5h-203q-74 0 -103.5 -30t-29.5 -89v-451z" />
    <glyph glyph-name="Emacron" unicode="&#x112;" horiz-adv-x="1202" 
d="M152 0v1366h974v-160h-768v-422h623v-159h-623v-465h768v-160h-974zM283 1579v152h714v-152h-714z" />
    <glyph glyph-name="emacron" unicode="&#x113;" horiz-adv-x="1126" 
d="M133 250v489q0 68 21.5 116t60.5 78t92 44t117 14h291q141 0 212.5 -64.5t71.5 -185.5v-301h-665v-172q0 -63 24.5 -88.5t106.5 -25.5h526v-76q-31 -23 -69 -39q-35 -16 -84.5 -27.5t-114.5 -11.5h-309q-143 0 -212 65.5t-69 184.5zM250 1233v151h635v-151h-635zM334 594
h465v121q0 61 -22.5 92t-104.5 31h-207q-86 0 -108.5 -33t-22.5 -86v-125z" />
    <glyph glyph-name="Ebreve" unicode="&#x114;" horiz-adv-x="1202" 
d="M152 0v1366h974v-160h-768v-422h623v-159h-623v-465h768v-160h-974zM313 1755v41h158v-18q0 -72 36 -107t138 -35q106 0 140 35t34 107v18h158v-53q0 -51 -16.5 -97.5t-55.5 -80t-102.5 -54t-157.5 -20.5q-96 0 -159.5 19.5t-102.5 54t-54.5 83t-15.5 107.5z" />
    <glyph glyph-name="ebreve" unicode="&#x115;" horiz-adv-x="1126" 
d="M133 250v489q0 68 21.5 116t60.5 78t92 44t117 14h291q141 0 212.5 -64.5t71.5 -185.5v-301h-665v-172q0 -63 24.5 -88.5t106.5 -25.5h526v-76q-31 -23 -69 -39q-35 -16 -84.5 -27.5t-114.5 -11.5h-309q-143 0 -212 65.5t-69 184.5zM256 1411v57h156v-36q0 -35 5 -63
t22.5 -48.5t48 -30.5t79.5 -10q51 0 82 11.5t48.5 30.5t22.5 47t5 63v36h156v-57q0 -57 -12.5 -106.5t-47.5 -86t-96 -58t-158 -21.5q-94 0 -154.5 21.5t-95 58t-48 86t-13.5 106.5zM334 594h465v121q0 61 -22.5 92t-104.5 31h-207q-86 0 -108.5 -33t-22.5 -86v-125z" />
    <glyph glyph-name="Edotaccent" unicode="&#x116;" horiz-adv-x="1202" 
d="M152 0v1366h974v-160h-768v-422h623v-159h-623v-465h768v-160h-974zM555 1579v186h209v-186h-209z" />
    <glyph glyph-name="edotaccent" unicode="&#x117;" horiz-adv-x="1126" 
d="M133 250v489q0 68 21.5 116t60.5 78t92 44t117 14h291q141 0 212.5 -64.5t71.5 -185.5v-301h-665v-172q0 -63 24.5 -88.5t106.5 -25.5h526v-76q-31 -23 -69 -39q-35 -16 -84.5 -27.5t-114.5 -11.5h-309q-143 0 -212 65.5t-69 184.5zM334 594h465v121q0 61 -22.5 92
t-104.5 31h-207q-86 0 -108.5 -33t-22.5 -86v-125zM473 1225v188h211v-188h-211z" />
    <glyph glyph-name="Eogonek" unicode="&#x118;" horiz-adv-x="1202" 
d="M152 0v1366h974v-160h-768v-422h623v-159h-623v-465h768v-160q-55 -29 -98 -66q-37 -31 -66.5 -72.5t-29.5 -92.5q0 -53 28.5 -74t94.5 -21q49 0 90 11q23 4 43 10l24 -109q-29 -10 -61 -18q-29 -8 -66.5 -13.5t-85.5 -5.5q-55 0 -101 8.5t-80 29t-52 56t-18 89.5
q0 61 34.5 110t77.5 84q49 41 113 74h-821z" />
    <glyph glyph-name="eogonek" unicode="&#x119;" horiz-adv-x="1126" 
d="M133 250v489q0 68 21.5 116t60.5 78t92 44t117 14h291q141 0 212.5 -64.5t71.5 -185.5v-301h-665v-172q0 -63 24.5 -88.5t106.5 -25.5h526v-76l-106 -53q-18 -10 -50 -29t-63 -47.5t-54.5 -66.5t-23.5 -87q0 -53 29 -73.5t94 -20.5q49 0 90 10q23 4 43 10l25 -108
q-29 -10 -62 -19q-29 -8 -66.5 -13t-84.5 -5q-55 0 -101.5 8t-80 28.5t-52 56.5t-18.5 89q0 43 18.5 80t45 68t57.5 54.5t55 39.5h-272q-143 0 -212 65.5t-69 184.5zM334 594h465v121q0 61 -22.5 92t-104.5 31h-207q-86 0 -108.5 -33t-22.5 -86v-125z" />
    <glyph glyph-name="Ecaron" unicode="&#x11a;" horiz-adv-x="1202" 
d="M152 0v1366h974v-160h-768v-422h623v-159h-623v-465h768v-160h-974zM283 1731l82 94l278 -187l281 183l82 -90l-285 -244h-156z" />
    <glyph glyph-name="ecaron" unicode="&#x11b;" horiz-adv-x="1126" 
d="M133 250v489q0 68 21.5 116t60.5 78t92 44t117 14h291q141 0 212.5 -64.5t71.5 -185.5v-301h-665v-172q0 -63 24.5 -88.5t106.5 -25.5h526v-76q-31 -23 -69 -39q-35 -16 -84.5 -27.5t-114.5 -11.5h-309q-143 0 -212 65.5t-69 184.5zM238 1407l100 82l240 -223l239 221
l101 -78l-263 -295h-155zM334 594h465v121q0 61 -22.5 92t-104.5 31h-207q-86 0 -108.5 -33t-22.5 -86v-125z" />
    <glyph glyph-name="Gcircumflex" unicode="&#x11c;" horiz-adv-x="1357" 
d="M141 244v880q0 57 20.5 102.5t57.5 76t87 47t108 16.5h473q57 0 99 -4t75 -13.5t57.5 -22.5t46.5 -32v-88h-690q-59 0 -94 -24.5t-35 -89.5v-813q0 -68 30 -94.5t101 -26.5h416q66 0 94.5 25.5t28.5 84.5v340h-398v160h605v-528q0 -59 -20.5 -104.5t-56.5 -75t-84 -45
t-101 -15.5h-555q-121 0 -193 61.5t-72 182.5zM317 1581l285 244h156l282 -244l-82 -94l-278 186l-281 -182z" />
    <glyph glyph-name="gcircumflex" unicode="&#x11d;" horiz-adv-x="1173" 
d="M133 252v438q0 68 13.5 124t47 95t88 60.5t138.5 21.5h207q66 0 117 -18.5t94 -65.5l14 84h178v-1112q0 -123 -71.5 -185.5t-210.5 -62.5h-306q-61 0 -110 10.5t-83 23.5t-54.5 26.5t-26.5 17.5v76h530q74 0 102.5 26.5t28.5 94.5v182q-23 -25 -53 -45
q-27 -16 -66.5 -29.5t-93.5 -13.5h-210q-76 0 -128.5 19.5t-84 54.5t-46 80t-14.5 98zM256 1194l262 295h156l262 -293l-100 -82l-240 223l-240 -221zM334 268q0 -68 31.5 -91t101.5 -23h238q27 0 49 2t39 6q20 4 36 8v526v60.5t2 64.5q-43 12 -82.5 14.5t-117.5 2.5h-164
q-70 0 -101.5 -25t-31.5 -84v-461z" />
    <glyph glyph-name="Gbreve" unicode="&#x11e;" horiz-adv-x="1357" 
d="M141 244v880q0 57 20.5 102.5t57.5 76t87 47t108 16.5h473q57 0 99 -4t75 -13.5t57.5 -22.5t46.5 -32v-88h-690q-59 0 -94 -24.5t-35 -89.5v-813q0 -68 30 -94.5t101 -26.5h416q66 0 94.5 25.5t28.5 84.5v340h-398v160h605v-528q0 -59 -20.5 -104.5t-56.5 -75t-84 -45
t-101 -15.5h-555q-121 0 -193 61.5t-72 182.5zM346 1755v41h158v-18q0 -72 35.5 -107t138.5 -35q106 0 140 35t34 107v18h158v-53q0 -51 -16.5 -97.5t-55.5 -80t-102.5 -54t-157.5 -20.5q-96 0 -159.5 19.5t-102.5 54t-54.5 83t-15.5 107.5z" />
    <glyph glyph-name="gbreve" unicode="&#x11f;" horiz-adv-x="1173" 
d="M133 252v438q0 68 13.5 124t47 95t88 60.5t138.5 21.5h207q66 0 117 -18.5t94 -65.5l14 84h178v-1112q0 -123 -71.5 -185.5t-210.5 -62.5h-306q-61 0 -110 10.5t-83 23.5t-54.5 26.5t-26.5 17.5v76h530q74 0 102.5 26.5t28.5 94.5v182q-23 -25 -53 -45
q-27 -16 -66.5 -29.5t-93.5 -13.5h-210q-76 0 -128.5 19.5t-84 54.5t-46 80t-14.5 98zM274 1411v57h156v-36q0 -35 5 -63t22.5 -48.5t48.5 -30.5t80 -10q51 0 81.5 11.5t48 30.5t22.5 47t5 63v36h156v-57q0 -57 -12.5 -106.5t-47 -86t-96 -58t-157.5 -21.5
q-94 0 -154.5 21.5t-95.5 58t-48.5 86t-13.5 106.5zM334 268q0 -68 31.5 -91t101.5 -23h238q27 0 49 2t39 6q20 4 36 8v526v60.5t2 64.5q-43 12 -82.5 14.5t-117.5 2.5h-164q-70 0 -101.5 -25t-31.5 -84v-461z" />
    <glyph glyph-name="Gdotaccent" unicode="&#x120;" horiz-adv-x="1357" 
d="M141 244v880q0 57 20.5 102.5t57.5 76t87 47t108 16.5h473q57 0 99 -4t75 -13.5t57.5 -22.5t46.5 -32v-88h-690q-59 0 -94 -24.5t-35 -89.5v-813q0 -68 30 -94.5t101 -26.5h416q66 0 94.5 25.5t28.5 84.5v340h-398v160h605v-528q0 -59 -20.5 -104.5t-56.5 -75t-84 -45
t-101 -15.5h-555q-121 0 -193 61.5t-72 182.5zM573 1579v186h209v-186h-209z" />
    <glyph glyph-name="gdotaccent" unicode="&#x121;" horiz-adv-x="1173" 
d="M133 252v438q0 68 13.5 124t47 95t88 60.5t138.5 21.5h207q66 0 117 -18.5t94 -65.5l14 84h178v-1112q0 -123 -71.5 -185.5t-210.5 -62.5h-306q-61 0 -110 10.5t-83 23.5t-54.5 26.5t-26.5 17.5v76h530q74 0 102.5 26.5t28.5 94.5v182q-23 -25 -53 -45
q-27 -16 -66.5 -29.5t-93.5 -13.5h-210q-76 0 -128.5 19.5t-84 54.5t-46 80t-14.5 98zM334 268q0 -68 31.5 -91t101.5 -23h238q27 0 49 2t39 6q20 4 36 8v526v60.5t2 64.5q-43 12 -82.5 14.5t-117.5 2.5h-164q-70 0 -101.5 -25t-31.5 -84v-461zM500 1225v188h211v-188h-211z
" />
    <glyph glyph-name="Gcommaaccent" unicode="&#x122;" horiz-adv-x="1357" 
d="M141 244v880q0 57 20.5 102.5t57.5 76t87 47t108 16.5h473q57 0 99 -4t75 -13.5t57.5 -22.5t46.5 -32v-88h-690q-59 0 -94 -24.5t-35 -89.5v-813q0 -68 30 -94.5t101 -26.5h416q66 0 94.5 25.5t28.5 84.5v340h-398v160h605v-528q0 -59 -20.5 -104.5t-56.5 -75t-84 -45
t-101 -15.5h-555q-121 0 -193 61.5t-72 182.5zM582 -125h194v-111q0 -68 -15.5 -115.5t-35.5 -81.5t-40.5 -54.5t-29.5 -30.5h-73v393z" />
    <glyph glyph-name="gcommaaccent" unicode="&#x123;" horiz-adv-x="1173" 
d="M133 252v438q0 68 13.5 124t47 95t88 60.5t138.5 21.5h207q66 0 117 -18.5t94 -65.5l14 84h178v-1112q0 -123 -71.5 -185.5t-210.5 -62.5h-306q-61 0 -110 10.5t-83 23.5t-54.5 26.5t-26.5 17.5v76h530q74 0 102.5 26.5t28.5 94.5v182q-23 -25 -53 -45
q-27 -16 -66.5 -29.5t-93.5 -13.5h-210q-76 0 -128.5 19.5t-84 54.5t-46 80t-14.5 98zM334 268q0 -68 31.5 -91t101.5 -23h238q27 0 49 2t39 6q20 4 36 8v526v60.5t2 64.5q-43 12 -82.5 14.5t-117.5 2.5h-164q-70 0 -101.5 -25t-31.5 -84v-461zM489 1208v111q0 68 15.5 116
t36 81.5t40 54t27.5 31.5h76v-394h-195z" />
    <glyph glyph-name="Hcircumflex" unicode="&#x124;" horiz-adv-x="1402" 
d="M152 0v1366h206v-571h686v571h209v-1366h-209v635h-686v-635h-206zM340 1581l285 244h155l283 -244l-82 -94l-279 186l-280 -182z" />
    <glyph glyph-name="hcircumflex" unicode="&#x125;" horiz-adv-x="1157" 
d="M-76 1577l256 293h156l254 -293l-103 -78l-229 221l-229 -219zM143 0v1442l203 35v-572q29 35 82 60.5t131 25.5h178q74 0 127.5 -19.5t87 -53t49 -79.5t15.5 -98v-741h-203v719q0 119 -127 119h-160q-94 0 -131 -10.5t-49 -16.5v-811h-203z" />
    <glyph glyph-name="Hbar" unicode="&#x126;" horiz-adv-x="1402" 
d="M-41 1004v159h193v203h206v-203h686v203h209v-203h191v-159h-191v-1004h-209v635h-686v-635h-206v1004h-193zM358 795h686v209h-686v-209z" />
    <glyph glyph-name="hbar" unicode="&#x127;" horiz-adv-x="1157" 
d="M-41 1165v154h184v123l203 35v-158h367v-154h-367v-260q29 35 82 60.5t131 25.5h178q74 0 127.5 -19.5t87 -53t49 -79.5t15.5 -98v-741h-203v719q0 119 -127 119h-160q-94 0 -131 -10.5t-49 -16.5v-811h-203v1165h-184z" />
    <glyph glyph-name="Itilde" unicode="&#x128;" horiz-adv-x="509" 
d="M-121 1630q29 39 66 70q33 27 77 49.5t103 22.5q43 0 78 -12.5t66.5 -26t60 -25.5t59.5 -12q29 0 55.5 13t48 28.5t33.5 30.5l13 14l94 -103q-29 -41 -66 -71q-33 -29 -78 -50.5t-102 -21.5q-41 0 -74.5 12.5t-65.5 26.5t-60.5 26.5t-57.5 12.5q-31 0 -59.5 -13.5
t-50 -29t-33.5 -29.5l-13 -14zM152 0v1366h206v-1366h-206z" />
    <glyph glyph-name="itilde" unicode="&#x129;" horiz-adv-x="499" 
d="M-82 1282q25 39 57 70q29 27 68 49t90 22q37 0 68.5 -12t59.5 -25.5t53.5 -25.5t54.5 -12t52 11t40 27q20 16 35 39l86 -94q-25 -41 -58 -71q-29 -29 -68.5 -50.5t-88.5 -21.5q-37 0 -68 12t-58.5 26.5t-53 27t-50.5 12.5q-29 0 -52.5 -12.5t-39.5 -26.5q-20 -18 -37 -39
zM150 0v991h202v-991h-202z" />
    <glyph glyph-name="Imacron" unicode="&#x12a;" horiz-adv-x="509" 
d="M-41 1579v152h592v-152h-592zM152 0v1366h206v-1366h-206z" />
    <glyph glyph-name="imacron" unicode="&#x12b;" horiz-adv-x="499" 
d="M-6 1233v151h512v-151h-512zM150 0v991h202v-991h-202z" />
    <glyph glyph-name="Ibreve" unicode="&#x12c;" horiz-adv-x="509" 
d="M-55 1755v41h161v-18q0 -35 5.5 -61.5t22 -44t46 -27t76.5 -9.5q49 0 79 9.5t45 27t20.5 44t5.5 61.5v18h161v-53q0 -51 -13 -97.5t-48 -80t-95.5 -54t-154.5 -20.5q-96 0 -156.5 19.5t-95.5 54t-47 83t-12 107.5zM152 0v1366h206v-1366h-206z" />
    <glyph glyph-name="ibreve" unicode="&#x12d;" horiz-adv-x="499" 
d="M-41 1421v47h156v-22q0 -35 4 -64.5t17.5 -52t40 -36t73.5 -13.5t74.5 13.5t41 36t17.5 52t4 64.5v22h156v-47q0 -57 -11.5 -108t-43 -90t-89 -61.5t-149.5 -22.5q-90 0 -146.5 22.5t-89 61.5t-44 90t-11.5 108zM150 0v991h202v-991h-202z" />
    <glyph glyph-name="Iogonek" unicode="&#x12e;" horiz-adv-x="509" 
d="M0 -268q0 57 31.5 105t70.5 85q45 41 103 78h-53v1366h206v-1366q-51 -29 -88 -66q-33 -31 -59.5 -72.5t-26.5 -92.5q0 -53 29 -74t94 -21q49 0 90 11q23 4 43 10l25 -109q-29 -10 -62 -18q-29 -8 -66.5 -13.5t-84.5 -5.5q-55 0 -101.5 8.5t-80 29t-52 56t-18.5 89.5z
" />
    <glyph glyph-name="iogonek" unicode="&#x12f;" horiz-adv-x="499" 
d="M14 -268q0 53 29 102t63 86q39 43 93 80h-49v991h202v-991q-43 -29 -78 -66q-29 -31 -52 -72.5t-23 -92.5q0 -53 28.5 -74t94.5 -21q49 0 90 11q23 4 43 10l24 -109q-29 -10 -61 -18q-29 -8 -67 -13.5t-85 -5.5q-55 0 -101 8.5t-80 29t-52.5 56t-18.5 89.5zM143 1212v189
h213v-189h-213z" />
    <glyph glyph-name="Idotaccent" unicode="&#x130;" horiz-adv-x="509" 
d="M152 0v1366h206v-1366h-206zM152 1579v186h208v-186h-208z" />
    <glyph glyph-name="dotlessi" unicode="&#x131;" horiz-adv-x="499" 
d="M150 0v991h202v-991h-202z" />
    <glyph glyph-name="IJ" unicode="&#x132;" horiz-adv-x="1505" 
d="M152 0v1366h206v-1366h-206zM532 250v190l207 35v-201q0 -63 28 -89.5t93 -26.5h164q66 0 93.5 27.5t27.5 86.5v1094h209v-1120q0 -123 -73 -184.5t-196 -61.5h-286q-123 0 -195 62.5t-72 187.5z" />
    <glyph glyph-name="ij" unicode="&#x133;" horiz-adv-x="989" 
d="M143 1212v189h213v-189h-213zM150 0v991h202v-991h-202zM459 -213h51q74 0 103.5 26.5t29.5 92.5v1085h205l-2 -1110q0 -250 -287 -250h-100v156zM639 1212v189h213v-189h-213z" />
    <glyph glyph-name="Jcircumflex" unicode="&#x134;" horiz-adv-x="1136" 
d="M63 250v190l207 35v-201q0 -63 28 -89.5t93 -26.5h266q66 0 93.5 27.5t27.5 86.5v1094h209v-1120q0 -123 -72.5 -184.5t-195.5 -61.5h-389q-123 0 -195 62.5t-72 187.5zM565 1581l244 244h156l241 -244l-82 -94l-237 186l-240 -182z" />
    <glyph glyph-name="jcircumflex" unicode="&#x135;" horiz-adv-x="489" 
d="M-70 1194l242 295h156l241 -293l-100 -82l-219 223l-219 -221zM-41 -213h51q74 0 103.5 26.5t29.5 92.5v1085h205l-2 -1110q0 -250 -287 -250h-100v156z" />
    <glyph glyph-name="Kcommaaccent" unicode="&#x136;" horiz-adv-x="1198" 
d="M152 0v1366h208v-674l553 674h248l-520 -639l571 -727h-260l-450 575l-142 -161v-414h-208zM502 -125h194v-111q0 -68 -15 -115.5t-35.5 -81.5t-41 -54.5t-29.5 -30.5h-73v393z" />
    <glyph glyph-name="kcommaaccent" unicode="&#x137;" horiz-adv-x="1019" 
d="M143 0v1442l203 35v-955l414 469h237l-374 -428l395 -563h-238l-293 416l-141 -162v-254h-203zM414 -125h194v-111q0 -68 -15 -115.5t-35.5 -81.5t-41 -54.5t-29.5 -30.5h-73v393z" />
    <glyph glyph-name="kgreenlandic" unicode="&#x138;" horiz-adv-x="1019" 
d="M143 0v991h203v-469l414 469h237l-374 -428l395 -563h-238l-293 416l-141 -162v-254h-203z" />
    <glyph glyph-name="Lacute" unicode="&#x139;" horiz-adv-x="1148" 
d="M152 0v1366h206v-1208h756v-158h-962zM174 1501l184 283h250l-274 -283h-160z" />
    <glyph glyph-name="lacute" unicode="&#x13a;" horiz-adv-x="487" 
d="M143 0v1442l201 35v-1477h-201zM145 1575l162 299h238l-240 -299h-160z" />
    <glyph glyph-name="Lcommaaccent" unicode="&#x13b;" horiz-adv-x="1148" 
d="M152 0v1366h206v-1208h756v-158h-962zM477 -125h195v-111q0 -68 -15.5 -115.5t-36 -81.5t-41 -54.5t-28.5 -30.5h-74v393z" />
    <glyph glyph-name="lcommaaccent" unicode="&#x13c;" horiz-adv-x="487" 
d="M143 0v1442l201 35v-1477h-201zM147 -125h195v-111q0 -68 -15.5 -115.5t-36 -81.5t-41 -54.5t-28.5 -30.5h-74v393z" />
    <glyph glyph-name="Lcaron" unicode="&#x13d;" horiz-adv-x="1148" 
d="M152 0v1366h206v-1208h756v-158h-962zM645 973v393h195v-111q0 -68 -15.5 -115.5t-36 -81.5t-41 -54.5t-28.5 -30.5h-74z" />
    <glyph glyph-name="lcaron" unicode="&#x13e;" horiz-adv-x="673" 
d="M143 0v1442l201 35v-1477h-201zM489 1085v394h195v-111q0 -68 -15.5 -116t-36 -81.5t-41 -54t-28.5 -31.5h-74z" />
    <glyph glyph-name="Ldot" unicode="&#x13f;" horiz-adv-x="1148" 
d="M152 0v1366h206v-1208h756v-158h-962zM725 662v188h188v-188h-188z" />
    <glyph glyph-name="ldot" unicode="&#x140;" horiz-adv-x="890" 
d="M143 0v1442l201 35v-1477h-201zM586 408v202h209v-202h-209z" />
    <glyph glyph-name="Lslash" unicode="&#x141;" horiz-adv-x="1148" 
d="M-20 455v180l172 98v633h206v-543l355 203v-180l-355 -203v-485h756v-158h-962v553z" />
    <glyph glyph-name="lslash" unicode="&#x142;" horiz-adv-x="487" 
d="M-18 504v207l161 92v639l201 35v-594l170 98v-207l-170 -98v-676h-201v596z" />
    <glyph glyph-name="Nacute" unicode="&#x143;" horiz-adv-x="1413" 
d="M152 0v1366h229l674 -1036v1036h207v-1366h-228l-676 1038v-1038h-206zM608 1501l185 283h249l-274 -283h-160z" />
    <glyph glyph-name="nacute" unicode="&#x144;" horiz-adv-x="1153" 
d="M143 0v991h189l8 -90q23 33 68 61.5t131 28.5h196q150 0 214.5 -70.5t64.5 -175.5v-745h-201v729q0 59 -31.5 84t-95.5 25h-172q-88 0 -125 -11.5t-47 -15.5q2 -27 2 -50.5v-49.5v-711h-201zM426 1145l162 299h237l-239 -299h-160z" />
    <glyph glyph-name="Ncommaaccent" unicode="&#x145;" horiz-adv-x="1413" 
d="M152 0v1366h229l674 -1036v1036h207v-1366h-228l-676 1038v-1038h-206zM608 -125h195v-111q0 -68 -15.5 -115.5t-36 -81.5t-41 -54.5t-28.5 -30.5h-74v393z" />
    <glyph glyph-name="ncommaaccent" unicode="&#x146;" horiz-adv-x="1153" 
d="M143 0v991h189l8 -90q23 33 68 61.5t131 28.5h196q150 0 214.5 -70.5t64.5 -175.5v-745h-201v729q0 59 -31.5 84t-95.5 25h-172q-88 0 -125 -11.5t-47 -15.5q2 -27 2 -50.5v-49.5v-711h-201zM479 -125h195v-111q0 -68 -15.5 -115.5t-36 -81.5t-41 -54.5t-28.5 -30.5h-74
v393z" />
    <glyph glyph-name="Ncaron" unicode="&#x147;" horiz-adv-x="1413" 
d="M152 0v1366h229l674 -1036v1036h207v-1366h-228l-676 1038v-1038h-206zM344 1731l82 94l279 -187l280 183l82 -90l-285 -244h-155z" />
    <glyph glyph-name="ncaron" unicode="&#x148;" horiz-adv-x="1153" 
d="M143 0v991h189l8 -90q23 33 68 61.5t131 28.5h196q150 0 214.5 -70.5t64.5 -175.5v-745h-201v729q0 59 -31.5 84t-95.5 25h-172q-88 0 -125 -11.5t-47 -15.5q2 -27 2 -50.5v-49.5v-711h-201zM233 1407l101 82l239 -223l240 221l100 -78l-262 -295h-155z" />
    <glyph glyph-name="napostrophe" unicode="&#x149;" horiz-adv-x="1153" 
d="M0 1075v393h195v-110q0 -68 -15.5 -117t-36 -83t-41 -54.5l-28.5 -28.5h-74zM143 0v991h189l8 -90q23 33 68 61.5t131 28.5h196q150 0 214.5 -70.5t64.5 -175.5v-745h-201v729q0 59 -31.5 84t-95.5 25h-172q-88 0 -125 -11.5t-47 -15.5q2 -27 2 -50.5v-49.5v-711h-201z
" />
    <glyph glyph-name="Eng" unicode="&#x14a;" horiz-adv-x="1413" 
d="M152 0v1366h229l674 -920v920h207v-1489q0 -123 -73 -184.5t-196 -61.5h-184q-123 0 -194.5 62.5t-71.5 187.5v88l207 35v-98q0 -63 27.5 -90t92.5 -27h62q66 0 93.5 27.5t27.5 87.5v200l-695 934v-1038h-206z" />
    <glyph glyph-name="eng" unicode="&#x14b;" horiz-adv-x="1153" 
d="M143 0v991h189l8 -90q23 33 68 61.5t131 28.5h196q150 0 214.5 -70.5t64.5 -175.5v-864q0 -250 -289 -250h-182v156h137q74 0 103.5 26.5t29.5 92.5v823q0 59 -31.5 84t-95.5 25h-172q-88 0 -125 -11.5t-47 -15.5q2 -27 2 -50.5v-49.5v-711h-201z" />
    <glyph glyph-name="Omacron" unicode="&#x14c;" horiz-adv-x="1441" 
d="M141 248v870q0 123 77 185.5t200 62.5h602q137 0 208.5 -66.5t71.5 -181.5v-870q0 -117 -68.5 -182.5t-209.5 -65.5h-604q-141 0 -209 65.5t-68 182.5zM348 287q0 -72 26.5 -99.5t106.5 -27.5h477q45 0 71 8t40 23.5t18.5 40t4.5 55.5v794q0 66 -28 95.5t-110 29.5h-469
q-84 0 -110.5 -30.5t-26.5 -94.5v-794zM362 1579v152h715v-152h-715z" />
    <glyph glyph-name="omacron" unicode="&#x14d;" horiz-adv-x="1173" 
d="M133 248v495q0 123 77 185.5t200 62.5h352q137 0 206.5 -67.5t69.5 -180.5v-495q0 -117 -67.5 -182.5t-206.5 -65.5h-356q-137 0 -206 65.5t-69 182.5zM268 1233v151h635v-151h-635zM334 281q0 -72 26.5 -99.5t108.5 -27.5h233q45 0 73 8t41 23.5t17.5 40t4.5 55.5v430
q0 66 -27 96.5t-109 30.5h-233q-82 0 -108.5 -31t-26.5 -96v-430z" />
    <glyph glyph-name="Obreve" unicode="&#x14e;" horiz-adv-x="1441" 
d="M141 248v870q0 123 77 185.5t200 62.5h602q137 0 208.5 -66.5t71.5 -181.5v-870q0 -117 -68.5 -182.5t-209.5 -65.5h-604q-141 0 -209 65.5t-68 182.5zM348 287q0 -72 26.5 -99.5t106.5 -27.5h477q45 0 71 8t40 23.5t18.5 40t4.5 55.5v794q0 66 -28 95.5t-110 29.5h-469
q-84 0 -110.5 -30.5t-26.5 -94.5v-794zM389 1755v41h158v-18q0 -72 35.5 -107t138.5 -35q106 0 140 35t34 107v18h158v-53q0 -51 -16.5 -97.5t-55.5 -80t-102.5 -54t-157.5 -20.5q-96 0 -159.5 19.5t-102.5 54t-54.5 83t-15.5 107.5z" />
    <glyph glyph-name="obreve" unicode="&#x14f;" horiz-adv-x="1173" 
d="M133 248v495q0 123 77 185.5t200 62.5h352q137 0 206.5 -67.5t69.5 -180.5v-495q0 -117 -67.5 -182.5t-206.5 -65.5h-356q-137 0 -206 65.5t-69 182.5zM274 1411v57h156v-36q0 -35 5 -63t22.5 -48.5t48.5 -30.5t80 -10q51 0 81.5 11.5t48 30.5t22.5 47t5 63v36h156v-57
q0 -57 -12.5 -106.5t-47 -86t-96 -58t-157.5 -21.5q-94 0 -154.5 21.5t-95.5 58t-48.5 86t-13.5 106.5zM334 281q0 -72 26.5 -99.5t108.5 -27.5h233q45 0 73 8t41 23.5t17.5 40t4.5 55.5v430q0 66 -27 96.5t-109 30.5h-233q-82 0 -108.5 -31t-26.5 -96v-430z" />
    <glyph glyph-name="Ohungarumlaut" unicode="&#x150;" horiz-adv-x="1441" 
d="M141 248v870q0 123 77 185.5t200 62.5h602q137 0 208.5 -66.5t71.5 -181.5v-870q0 -117 -68.5 -182.5t-209.5 -65.5h-604q-141 0 -209 65.5t-68 182.5zM348 287q0 -72 26.5 -99.5t106.5 -27.5h477q45 0 71 8t40 23.5t18.5 40t4.5 55.5v794q0 66 -28 95.5t-110 29.5h-469
q-84 0 -110.5 -30.5t-26.5 -94.5v-794zM389 1501l160 281h250l-240 -281h-170zM774 1501l162 281h248l-238 -281h-172z" />
    <glyph glyph-name="ohungarumlaut" unicode="&#x151;" horiz-adv-x="1173" 
d="M133 248v495q0 123 77 185.5t200 62.5h352q137 0 206.5 -67.5t69.5 -180.5v-495q0 -117 -67.5 -182.5t-206.5 -65.5h-356q-137 0 -206 65.5t-69 182.5zM317 1145l150 299h227l-227 -299h-150zM334 281q0 -72 26.5 -99.5t108.5 -27.5h233q45 0 73 8t41 23.5t17.5 40
t4.5 55.5v430q0 66 -27 96.5t-109 30.5h-233q-82 0 -108.5 -31t-26.5 -96v-430zM655 1145l150 299h225l-227 -299h-148z" />
    <glyph glyph-name="OE" unicode="&#x152;" horiz-adv-x="2062" 
d="M141 248v870q0 123 77 185.5t200 62.5h1569v-160h-727v-422h581v-159h-581v-465h727v-160h-1569q-141 0 -209 65.5t-68 182.5zM348 287q0 -72 26.5 -99.5t106.5 -27.5h570v1046h-566q-84 0 -110.5 -30.5t-26.5 -94.5v-794z" />
    <glyph glyph-name="oe" unicode="&#x153;" horiz-adv-x="1835" 
d="M129 248v495q0 123 77 185.5t200 62.5h348q59 0 94 -16.5t55 -36.5q23 -23 33 -53q6 31 29 53q18 20 52 36.5t93 16.5h313q141 0 213 -64.5t72 -185.5v-301h-666v-172q0 -63 25 -88.5t107 -25.5h526v-76q-31 -23 -70 -39q-35 -16 -84 -27.5t-114 -11.5h-324
q-55 0 -89 13.5t-52.5 30.5t-25.5 33.5t-7 22.5q-2 -4 -9 -20.5t-26.5 -33.5t-53.5 -31.5t-89 -14.5h-353q-137 0 -205.5 65.5t-68.5 182.5zM330 281q0 -72 26.5 -99.5t108.5 -27.5h233q45 0 73 8t41 23.5t17.5 40t4.5 55.5v430q0 66 -27 96.5t-109 30.5h-233
q-82 0 -108.5 -31t-26.5 -96v-430zM1042 594h465v121q0 61 -22.5 92t-104.5 31h-206q-80 0 -106 -29t-26 -76v-139z" />
    <glyph glyph-name="Racute" unicode="&#x154;" horiz-adv-x="1298" 
d="M152 0v1366h735q150 0 217 -70.5t67 -185.5v-281q0 -123 -72.5 -179t-201.5 -56h-115l488 -594h-258l-477 594h-175v-594h-208zM360 754h471q80 0 107 27.5t27 90.5v211q0 63 -27 93t-104 30h-474v-452zM475 1501l184 283h250l-274 -283h-160z" />
    <glyph glyph-name="racute" unicode="&#x155;" horiz-adv-x="745" 
d="M143 0v991h176l13 -94q23 29 62.5 61.5t105.5 32.5h266l-53 -155h-170q-94 0 -138.5 -13.5t-62.5 -23.5q2 -27 2 -48.5v-48.5v-702h-201zM174 1145l162 299h237l-239 -299h-160z" />
    <glyph glyph-name="Rcommaaccent" unicode="&#x156;" horiz-adv-x="1298" 
d="M152 0v1366h735q150 0 217 -70.5t67 -185.5v-281q0 -123 -72.5 -179t-201.5 -56h-115l488 -594h-258l-477 594h-175v-594h-208zM360 754h471q80 0 107 27.5t27 90.5v211q0 63 -27 93t-104 30h-474v-452zM551 -125h194v-111q0 -68 -15 -115.5t-35.5 -81.5t-41 -54.5
t-28.5 -30.5h-74v393z" />
    <glyph glyph-name="rcommaaccent" unicode="&#x157;" horiz-adv-x="745" 
d="M143 0v991h176l13 -94q23 29 62.5 61.5t105.5 32.5h266l-53 -155h-170q-94 0 -138.5 -13.5t-62.5 -23.5q2 -27 2 -48.5v-48.5v-702h-201zM150 -125h194v-111q0 -68 -15.5 -115.5t-36 -81.5t-41 -54.5t-28.5 -30.5h-73v393z" />
    <glyph glyph-name="Rcaron" unicode="&#x158;" horiz-adv-x="1298" 
d="M152 0v1366h735q150 0 217 -70.5t67 -185.5v-281q0 -123 -72.5 -179t-201.5 -56h-115l488 -594h-258l-477 594h-175v-594h-208zM258 1731l82 94l278 -187l281 183l82 -90l-285 -244h-155zM360 754h471q80 0 107 27.5t27 90.5v211q0 63 -27 93t-104 30h-474v-452z" />
    <glyph glyph-name="rcaron" unicode="&#x159;" horiz-adv-x="745" 
d="M-39 1407l100 82l240 -223l240 221l100 -78l-262 -295h-156zM143 0v991h176l13 -94q23 29 62.5 61.5t105.5 32.5h266l-53 -155h-170q-94 0 -138.5 -13.5t-62.5 -23.5q2 -27 2 -48.5v-48.5v-702h-201z" />
    <glyph glyph-name="Sacute" unicode="&#x15a;" horiz-adv-x="1292" 
d="M145 63v95h676q63 0 91 25.5t28 82.5v238q0 53 -27.5 82.5t-95.5 29.5h-405q-129 0 -197 63.5t-68 176.5v211q0 147 64.5 223t206.5 76h440q57 0 100 -7t74 -17.5t48.5 -21.5t25.5 -20v-94h-637q-115 0 -115 -110v-213q0 -55 26 -81t87 -26h371q150 0 229.5 -59.5
t79.5 -188.5v-237q0 -84 -16.5 -139.5t-53.5 -89t-95 -48t-142 -14.5h-455q-115 0 -171 25.5t-69 37.5zM510 1501l184 283h250l-274 -283h-160z" />
    <glyph glyph-name="sacute" unicode="&#x15b;" horiz-adv-x="1028" 
d="M109 78v76h497q66 0 91.5 25.5t25.5 82.5v70q0 47 -19.5 70.5t-91.5 23.5h-268q-109 0 -169 50t-60 147v129q0 117 76.5 178t205.5 61h230q160 0 268 -73v-80h-455q-43 0 -68.5 -8.5t-37.5 -21.5t-15.5 -33.5t-3.5 -45.5v-65q0 -45 20.5 -63.5t82.5 -18.5h264
q129 0 185.5 -56.5t56.5 -152.5v-133q0 -115 -72 -177.5t-215 -62.5h-283q-76 0 -132 15.5t-113 62.5zM397 1145l162 299h238l-240 -299h-160z" />
    <glyph glyph-name="Scircumflex" unicode="&#x15c;" horiz-adv-x="1292" 
d="M145 63v95h676q63 0 91 25.5t28 82.5v238q0 53 -27.5 82.5t-95.5 29.5h-405q-129 0 -197 63.5t-68 176.5v211q0 147 64.5 223t206.5 76h440q57 0 100 -7t74 -17.5t48.5 -21.5t25.5 -20v-94h-637q-115 0 -115 -110v-213q0 -55 26 -81t87 -26h371q150 0 229.5 -59.5
t79.5 -188.5v-237q0 -84 -16.5 -139.5t-53.5 -89t-95 -48t-142 -14.5h-455q-115 0 -171 25.5t-69 37.5zM285 1581l284 244h156l283 -244l-82 -94l-279 186l-280 -182z" />
    <glyph glyph-name="scircumflex" unicode="&#x15d;" horiz-adv-x="1028" 
d="M109 78v76h497q66 0 91.5 25.5t25.5 82.5v70q0 47 -19.5 70.5t-91.5 23.5h-268q-109 0 -169 50t-60 147v129q0 117 76.5 178t205.5 61h230q160 0 268 -73v-80h-455q-43 0 -68.5 -8.5t-37.5 -21.5t-15.5 -33.5t-3.5 -45.5v-65q0 -45 20.5 -63.5t82.5 -18.5h264
q129 0 185.5 -56.5t56.5 -152.5v-133q0 -115 -72 -177.5t-215 -62.5h-283q-76 0 -132 15.5t-113 62.5zM182 1194l262 295h156l262 -293l-100 -82l-240 223l-239 -221z" />
    <glyph glyph-name="Scedilla" unicode="&#x15e;" horiz-adv-x="1292" 
d="M145 63v95h676q63 0 91 25.5t28 82.5v238q0 53 -27.5 82.5t-95.5 29.5h-405q-129 0 -197 63.5t-68 176.5v211q0 147 64.5 223t206.5 76h440q57 0 100 -7t74 -17.5t48.5 -21.5t25.5 -20v-94h-637q-115 0 -115 -110v-213q0 -55 26 -81t87 -26h371q150 0 229.5 -59.5
t79.5 -188.5v-237q0 -84 -16.5 -139.5t-53.5 -89t-95 -48t-142 -14.5h-115l-49 -125q106 0 147 -47.5t41 -108.5q0 -92 -70.5 -145t-181.5 -53q-43 0 -81.5 6t-67.5 16q-35 10 -62 25l43 102q23 -8 45 -16q20 -6 47 -11t56 -5q47 0 73.5 22.5t26.5 52.5q0 70 -110 70
q-12 0 -25.5 -1t-26.5 -3l-28 -4l94 225h-211q-115 0 -171 25.5t-69 37.5z" />
    <glyph glyph-name="scedilla" unicode="&#x15f;" horiz-adv-x="1028" 
d="M109 78v76h497q66 0 91.5 25.5t25.5 82.5v70q0 47 -19.5 70.5t-91.5 23.5h-268q-109 0 -169 50t-60 147v129q0 117 76.5 178t205.5 61h230q160 0 268 -73v-80h-455q-43 0 -68.5 -8.5t-37.5 -21.5t-15.5 -33.5t-3.5 -45.5v-65q0 -45 20.5 -63.5t82.5 -18.5h264
q129 0 185.5 -56.5t56.5 -152.5v-133q0 -115 -72 -177.5t-215 -62.5h-45l-49 -104q106 0 147 -47.5t41 -108.5q0 -92 -70.5 -145.5t-181.5 -53.5q-41 0 -79 6.5t-66 16.5q-35 10 -66 24l43 103q23 -8 45 -17q20 -6 47 -11t56 -5q47 0 73.5 22.5t26.5 53.5q0 70 -110 69
q-12 0 -25.5 -1t-26.5 -3l-28 -4l94 205h-109q-76 0 -132 15.5t-113 62.5z" />
    <glyph glyph-name="Scaron" unicode="&#x160;" horiz-adv-x="1292" 
d="M145 63v95h676q63 0 91 25.5t28 82.5v238q0 53 -27.5 82.5t-95.5 29.5h-405q-129 0 -197 63.5t-68 176.5v211q0 147 64.5 223t206.5 76h440q57 0 100 -7t74 -17.5t48.5 -21.5t25.5 -20v-94h-637q-115 0 -115 -110v-213q0 -55 26 -81t87 -26h371q150 0 229.5 -59.5
t79.5 -188.5v-237q0 -84 -16.5 -139.5t-53.5 -89t-95 -48t-142 -14.5h-455q-115 0 -171 25.5t-69 37.5zM285 1731l82 94l278 -187l281 183l82 -90l-285 -244h-156z" />
    <glyph glyph-name="scaron" unicode="&#x161;" horiz-adv-x="1028" 
d="M109 78v76h497q66 0 91.5 25.5t25.5 82.5v70q0 47 -19.5 70.5t-91.5 23.5h-268q-109 0 -169 50t-60 147v129q0 117 76.5 178t205.5 61h230q160 0 268 -73v-80h-455q-43 0 -68.5 -8.5t-37.5 -21.5t-15.5 -33.5t-3.5 -45.5v-65q0 -45 20.5 -63.5t82.5 -18.5h264
q129 0 185.5 -56.5t56.5 -152.5v-133q0 -115 -72 -177.5t-215 -62.5h-283q-76 0 -132 15.5t-113 62.5zM180 1407l101 82l239 -223l240 221l100 -78l-262 -295h-156z" />
    <glyph glyph-name="Tcommaaccent" unicode="&#x162;" horiz-adv-x="1165" 
d="M-14 1206v160h1194v-160h-494v-1206h-35l-49 -125q106 0 147.5 -47.5t41.5 -108.5q0 -92 -71 -145t-181 -53q-41 0 -79 6t-67 16q-35 10 -65 25l43 102q23 -8 45 -16q20 -6 46.5 -11t55.5 -5q47 0 73.5 22.5t26.5 52.5q0 70 -110 70q-12 0 -25.5 -1t-25.5 -3
q-14 -2 -29 -4l94 225h-43v1206h-493z" />
    <glyph glyph-name="tcommaaccent" unicode="&#x163;" horiz-adv-x="706" 
d="M0 838v153h172v287l201 35v-322h280v-153h-280v-584q0 -59 22.5 -79.5t87.5 -20.5h224v-76q-29 -23 -66 -39q-33 -16 -77 -27.5t-97 -11.5h-49l-39 -84q106 0 147 -47.5t41 -108.5q0 -92 -70.5 -145t-181.5 -53q-41 0 -78.5 6t-66.5 16q-35 10 -66 25l43 102l46 -16
q20 -6 46.5 -11.5t55.5 -5.5q47 0 73.5 23t26.5 53q0 70 -110 70q-12 0 -25.5 -1t-26.5 -3l-28 -4l90 196q-80 27 -101.5 89.5t-21.5 134.5v602h-172z" />
    <glyph glyph-name="Tcaron" unicode="&#x164;" horiz-adv-x="1165" 
d="M-14 1206v160h1194v-160h-494v-1206h-207v1206h-493zM221 1731l82 94l279 -187l280 183l82 -90l-285 -244h-155z" />
    <glyph glyph-name="tcaron" unicode="&#x165;" horiz-adv-x="706" 
d="M0 838v153h172v287l201 35v-322h280v-153h-280v-584q0 -59 22.5 -79.5t87.5 -20.5h224v-76q-29 -23 -66 -39q-33 -16 -77 -27.5t-97 -11.5h-74q-74 0 -118 20.5t-66.5 53t-29.5 76t-7 86.5v602h-172zM512 1112v393h195v-110q0 -68 -15.5 -116t-36 -82t-41 -54.5
t-28.5 -30.5h-74z" />
    <glyph glyph-name="Tbar" unicode="&#x166;" horiz-adv-x="1165" 
d="M-14 1206v160h1194v-160h-494v-411h358v-160h-358v-635h-207v635h-360v160h360v411h-493z" />
    <glyph glyph-name="tbar" unicode="&#x167;" horiz-adv-x="706" 
d="M0 465v153h172v220h-172v153h172v287l201 35v-322h280v-153h-280v-220h188v-153h-188v-211q0 -59 22.5 -79.5t87.5 -20.5h224v-76q-29 -23 -66 -39q-33 -16 -77 -27.5t-97 -11.5h-74q-74 0 -118 20.5t-66.5 53t-29.5 76t-7 86.5v229h-172z" />
    <glyph glyph-name="Utilde" unicode="&#x168;" horiz-adv-x="1421" 
d="M152 313v1053h204v-1085q0 -61 25 -92t102 -31h441q86 0 112.5 27.5t26.5 101.5v1079h207v-1051q0 -70 -12.5 -127t-43 -99t-83 -65.5t-132.5 -23.5h-579q-152 0 -210 85t-58 228zM334 1630q29 39 65 70q33 27 77 49.5t104 22.5q43 0 77.5 -12.5t66.5 -26t60.5 -25.5
t59.5 -12q29 0 55.5 13t48 28.5t33.5 30.5l12 14l94 -103q-29 -41 -65 -71q-33 -29 -78 -50.5t-102 -21.5q-41 0 -75 12.5t-65.5 26.5t-60.5 26.5t-57 12.5q-31 0 -59.5 -13.5t-50 -29t-34.5 -29.5l-12 -14z" />
    <glyph glyph-name="utilde" unicode="&#x169;" horiz-adv-x="1155" 
d="M137 246v745h201v-729q0 -59 31.5 -83.5t95.5 -24.5h172q88 0 125 11t47 15q-2 27 -2 50.5v50.5v710h201v-991h-189l-8 90q-23 -33 -68 -61.5t-131 -28.5h-196q-76 0 -128 18.5t-86 52t-49.5 78t-15.5 97.5zM209 1282q27 39 63 70q31 27 75 49t102 22q43 0 76.5 -12
t64.5 -25.5t59.5 -25.5t59.5 -12q27 0 53 13t46.5 28.5t33.5 30.5l12 14l92 -103q-29 -41 -65 -71q-31 -29 -75 -50.5t-99 -21.5q-39 0 -74 12t-65.5 26.5t-59.5 27t-55 12.5q-31 0 -58.5 -13.5t-48 -29t-32.5 -29.5l-13 -14z" />
    <glyph glyph-name="Umacron" unicode="&#x16a;" horiz-adv-x="1421" 
d="M152 313v1053h204v-1085q0 -61 25 -92t102 -31h441q86 0 112.5 27.5t26.5 101.5v1079h207v-1051q0 -70 -12.5 -127t-43 -99t-83 -65.5t-132.5 -23.5h-579q-152 0 -210 85t-58 228zM352 1579v152h715v-152h-715z" />
    <glyph glyph-name="umacron" unicode="&#x16b;" horiz-adv-x="1155" 
d="M137 246v745h201v-729q0 -59 31.5 -83.5t95.5 -24.5h172q88 0 125 11t47 15q-2 27 -2 50.5v50.5v710h201v-991h-189l-8 90q-23 -33 -68 -61.5t-131 -28.5h-196q-76 0 -128 18.5t-86 52t-49.5 78t-15.5 97.5zM260 1233v151h635v-151h-635z" />
    <glyph glyph-name="Ubreve" unicode="&#x16c;" horiz-adv-x="1421" 
d="M152 313v1053h204v-1085q0 -61 25 -92t102 -31h441q86 0 112.5 27.5t26.5 101.5v1079h207v-1051q0 -70 -12.5 -127t-43 -99t-83 -65.5t-132.5 -23.5h-579q-152 0 -210 85t-58 228zM379 1755v41h158v-18q0 -72 35.5 -107t138.5 -35q106 0 140 35t34 107v18h157v-53
q0 -51 -16 -97.5t-55 -80t-102.5 -54t-157.5 -20.5q-96 0 -160 19.5t-102.5 54t-54 83t-15.5 107.5z" />
    <glyph glyph-name="ubreve" unicode="&#x16d;" horiz-adv-x="1155" 
d="M137 246v745h201v-729q0 -59 31.5 -83.5t95.5 -24.5h172q88 0 125 11t47 15q-2 27 -2 50.5v50.5v710h201v-991h-189l-8 90q-23 -33 -68 -61.5t-131 -28.5h-196q-76 0 -128 18.5t-86 52t-49.5 78t-15.5 97.5zM264 1411v57h156v-36q0 -35 5 -63t22.5 -48.5t48 -30.5
t79.5 -10q51 0 82 11.5t48.5 30.5t22.5 47t5 63v36h156v-57q0 -57 -12.5 -106.5t-47 -86t-96 -58t-158.5 -21.5q-94 0 -154.5 21.5t-95 58t-48 86t-13.5 106.5z" />
    <glyph glyph-name="Uring" unicode="&#x16e;" horiz-adv-x="1421" 
d="M152 313v1053h204v-1085q0 -61 25 -92t102 -31h441q86 0 112.5 27.5t26.5 101.5v1079h207v-1051q0 -70 -12.5 -127t-43 -99t-83 -65.5t-132.5 -23.5h-579q-152 0 -210 85t-58 228zM489 1614v123q0 76 30 110.5t116 34.5h149q86 0 116 -35t30 -106v-127q0 -78 -30 -112
t-116 -34h-149q-86 0 -116 34t-30 112zM614 1583h191v184h-191v-184z" />
    <glyph glyph-name="uring" unicode="&#x16f;" horiz-adv-x="1155" 
d="M137 246v745h201v-729q0 -59 31.5 -83.5t95.5 -24.5h172q88 0 125 11t47 15q-2 27 -2 50.5v50.5v710h201v-991h-189l-8 90q-23 -33 -68 -61.5t-131 -28.5h-196q-76 0 -128 18.5t-86 52t-49.5 78t-15.5 97.5zM356 1233v123q0 76 30 109.5t116 33.5h149q86 0 116 -33.5
t30 -105.5v-127q0 -78 -30 -112t-116 -34h-149q-86 0 -116 34t-30 112zM481 1202h191v184h-191v-184z" />
    <glyph glyph-name="Uhungarumlaut" unicode="&#x170;" horiz-adv-x="1421" 
d="M152 313v1053h204v-1085q0 -61 25 -92t102 -31h441q86 0 112.5 27.5t26.5 101.5v1079h207v-1051q0 -70 -12.5 -127t-43 -99t-83 -65.5t-132.5 -23.5h-579q-152 0 -210 85t-58 228zM401 1501l160 281h250l-240 -281h-170zM786 1501l162 281h248l-238 -281h-172z" />
    <glyph glyph-name="uhungarumlaut" unicode="&#x171;" horiz-adv-x="1155" 
d="M137 246v745h201v-729q0 -59 31.5 -83.5t95.5 -24.5h172q88 0 125 11t47 15q-2 27 -2 50.5v50.5v710h201v-991h-189l-8 90q-23 -33 -68 -61.5t-131 -28.5h-196q-76 0 -128 18.5t-86 52t-49.5 78t-15.5 97.5zM311 1145l150 299h227l-227 -299h-150zM649 1145l150 299h225
l-227 -299h-148z" />
    <glyph glyph-name="Uogonek" unicode="&#x172;" horiz-adv-x="1421" 
d="M152 313v1053h204v-1085q0 -61 25 -92t102 -31h441q86 0 112.5 27.5t26.5 101.5v1079h207v-1051q0 -70 -12.5 -127t-43 -99t-83 -65.5t-132.5 -23.5h-125q-55 -29 -98 -66q-37 -31 -66.5 -72.5t-29.5 -92.5q0 -53 28.5 -74t94.5 -21q49 0 90 11q23 4 43 10l25 -109
q-29 -10 -62 -18q-29 -8 -66.5 -13.5t-84.5 -5.5q-55 0 -101.5 8.5t-80.5 29t-52 56t-18 89.5q0 61 34.5 110t77.5 84q49 41 113 74h-301q-152 0 -210 85t-58 228z" />
    <glyph glyph-name="uogonek" unicode="&#x173;" horiz-adv-x="1155" 
d="M137 246v745h201v-729q0 -59 31.5 -83.5t95.5 -24.5h172q88 0 125 11t47 15q-2 27 -2 50.5v50.5v710h201v-991q-55 -29 -99 -66q-37 -31 -66.5 -72.5t-29.5 -92.5q0 -53 28.5 -74t94.5 -21q49 0 90 11q23 4 43 10l25 -109q-29 -10 -62 -18q-29 -8 -66.5 -13.5t-84.5 -5.5
q-55 0 -101.5 8.5t-80 29t-52 56t-18.5 89.5q0 61 34.5 110t77.5 84q49 41 113 74h-35l-8 90q-23 -33 -68 -61.5t-131 -28.5h-196q-76 0 -128 18.5t-86 52t-49.5 78t-15.5 97.5z" />
    <glyph glyph-name="Wcircumflex" unicode="&#x174;" horiz-adv-x="1746" 
d="M-6 1366h235l258 -1092l263 1092h243l279 -1100l254 1100h225l-352 -1366h-262l-267 1073l-270 -1073h-258zM512 1581l285 244h155l283 -244l-82 -94l-279 186l-280 -182z" />
    <glyph glyph-name="wcircumflex" unicode="&#x175;" horiz-adv-x="1464" 
d="M39 991h225l178 -721l197 721h199l198 -723l181 723h208l-290 -991h-207l-199 692l-203 -692h-196zM391 1194l262 295h156l262 -293l-100 -82l-240 223l-239 -221z" />
    <glyph glyph-name="Ycircumflex" unicode="&#x176;" horiz-adv-x="1171" 
d="M-27 1366h246l369 -580l381 580h229l-508 -735v-631h-213v625zM223 1581l285 244h156l282 -244l-82 -94l-278 186l-281 -182z" />
    <glyph glyph-name="ycircumflex" unicode="&#x177;" horiz-adv-x="993" 
d="M33 991h217l256 -682l250 682h209l-523 -1360h-200l157 426zM158 1194l262 295h155l263 -293l-101 -82l-239 223l-240 -221z" />
    <glyph glyph-name="Ydieresis" unicode="&#x178;" horiz-adv-x="1171" 
d="M-27 1366h246l369 -580l381 580h229l-508 -735v-631h-213v625zM285 1579v186h209v-186h-209zM678 1579v186h209v-186h-209z" />
    <glyph glyph-name="Zacute" unicode="&#x179;" horiz-adv-x="1214" 
d="M63 0v127l801 1079h-758v160h1031v-129l-807 -1079h811v-158h-1078zM477 1501l185 283h249l-274 -283h-160z" />
    <glyph glyph-name="zacute" unicode="&#x17a;" horiz-adv-x="942" 
d="M51 0v127l559 711h-532v153h803v-125l-564 -712h574v-154h-840zM336 1145l162 299h237l-239 -299h-160z" />
    <glyph glyph-name="Zdotaccent" unicode="&#x17b;" horiz-adv-x="1214" 
d="M63 0v127l801 1079h-758v160h1031v-129l-807 -1079h811v-158h-1078zM520 1579v186h209v-186h-209z" />
    <glyph glyph-name="zdotaccent" unicode="&#x17c;" horiz-adv-x="942" 
d="M51 0v127l559 711h-532v153h803v-125l-564 -712h574v-154h-840zM371 1225v188h211v-188h-211z" />
    <glyph glyph-name="Zcaron" unicode="&#x17d;" horiz-adv-x="1214" 
d="M63 0v127l801 1079h-758v160h1031v-129l-807 -1079h811v-158h-1078zM279 1731l81 94l279 -187l281 183l81 -90l-284 -244h-156z" />
    <glyph glyph-name="zcaron" unicode="&#x17e;" horiz-adv-x="942" 
d="M51 0v127l559 711h-532v153h803v-125l-564 -712h574v-154h-840zM143 1407l101 82l239 -223l240 221l100 -78l-262 -295h-155z" />
    <glyph glyph-name="uni01CD" unicode="&#x1cd;" horiz-adv-x="1304" 
d="M8 0l518 1366h260l517 -1366h-234l-147 418h-537l-145 -418h-232zM332 1710l92 94l227 -186l230 182l92 -90l-244 -244h-156zM442 584h420l-211 594z" />
    <glyph glyph-name="uni01CE" unicode="&#x1ce;" horiz-adv-x="1085" 
d="M113 215v152q0 100 66.5 155.5t189.5 55.5h376v139q0 59 -27.5 90t-115.5 31h-436v75q27 20 63 39q33 14 80 26.5t111 12.5h237q141 0 215 -62.5t74 -185.5v-743h-178l-16 94q-20 -27 -50 -47q-25 -18 -62.5 -32.5t-90.5 -14.5h-180q-133 0 -194.5 53t-61.5 162z
M223 1407l101 82l239 -223l240 221l100 -78l-262 -295h-156zM313 246q0 -61 35 -76.5t103 -15.5h135q41 0 81 2t78 8v260h-319q-63 0 -88 -22.5t-25 -73.5v-82z" />
    <glyph glyph-name="Scommaaccent" unicode="&#x218;" horiz-adv-x="1292" 
d="M145 63v95h676q63 0 91 25.5t28 82.5v238q0 53 -27.5 82.5t-95.5 29.5h-405q-129 0 -197 63.5t-68 176.5v211q0 147 64.5 223t206.5 76h440q57 0 100 -7t74 -17.5t48.5 -21.5t25.5 -20v-94h-637q-115 0 -115 -110v-213q0 -55 26 -81t87 -26h371q150 0 229.5 -59.5
t79.5 -188.5v-237q0 -84 -16.5 -139.5t-53.5 -89t-95 -48t-142 -14.5h-455q-115 0 -171 25.5t-69 37.5zM549 -125h194v-111q0 -68 -15 -115.5t-35.5 -81.5t-41 -54.5t-28.5 -30.5h-74v393z" />
    <glyph glyph-name="scommaaccent" unicode="&#x219;" horiz-adv-x="1028" 
d="M109 78v76h497q66 0 91.5 25.5t25.5 82.5v70q0 47 -19.5 70.5t-91.5 23.5h-268q-109 0 -169 50t-60 147v129q0 117 76.5 178t205.5 61h230q160 0 268 -73v-80h-455q-43 0 -68.5 -8.5t-37.5 -21.5t-15.5 -33.5t-3.5 -45.5v-65q0 -45 20.5 -63.5t82.5 -18.5h264
q129 0 185.5 -56.5t56.5 -152.5v-133q0 -115 -72 -177.5t-215 -62.5h-283q-76 0 -132 15.5t-113 62.5zM420 -125h194v-111q0 -68 -15 -115.5t-35.5 -81.5t-41 -54.5t-28.5 -30.5h-74v393z" />
    <glyph glyph-name="uni021A" unicode="&#x21a;" horiz-adv-x="1165" 
d="M-14 1206v160h1194v-160h-494v-1206h-207v1206h-493zM485 -125h195v-111q0 -68 -15.5 -115.5t-36 -81.5t-41 -54.5t-28.5 -30.5h-74v393z" />
    <glyph glyph-name="uni021B" unicode="&#x21b;" horiz-adv-x="706" 
d="M0 838v153h172v287l201 35v-322h280v-153h-280v-584q0 -59 22.5 -79.5t87.5 -20.5h224v-76q-29 -23 -66 -39q-33 -16 -77 -27.5t-97 -11.5h-74q-74 0 -118 20.5t-66.5 53t-29.5 76t-7 86.5v602h-172zM256 -125h195v-111q0 -68 -15.5 -115.5t-36 -81.5t-41 -54.5
t-28.5 -30.5h-74v393z" />
    <glyph glyph-name="uni0226" unicode="&#x226;" horiz-adv-x="1304" 
d="M8 0l518 1366h260l517 -1366h-234l-147 418h-537l-145 -418h-232zM442 584h420l-211 594zM547 1579v186h209v-186h-209z" />
    <glyph glyph-name="uni0227" unicode="&#x227;" horiz-adv-x="1085" 
d="M113 215v152q0 100 66.5 155.5t189.5 55.5h376v139q0 59 -27.5 90t-115.5 31h-436v75q27 20 63 39q33 14 80 26.5t111 12.5h237q141 0 215 -62.5t74 -185.5v-743h-178l-16 94q-20 -27 -50 -47q-25 -18 -62.5 -32.5t-90.5 -14.5h-180q-133 0 -194.5 53t-61.5 162zM313 246
q0 -61 35 -76.5t103 -15.5h135q41 0 81 2t78 8v260h-319q-63 0 -88 -22.5t-25 -73.5v-82zM457 1225v188h211v-188h-211z" />
    <glyph glyph-name="uni022E" unicode="&#x22e;" horiz-adv-x="1441" 
d="M141 248v870q0 123 77 185.5t200 62.5h602q137 0 208.5 -66.5t71.5 -181.5v-870q0 -117 -68.5 -182.5t-209.5 -65.5h-604q-141 0 -209 65.5t-68 182.5zM348 287q0 -72 26.5 -99.5t106.5 -27.5h477q45 0 71 8t40 23.5t18.5 40t4.5 55.5v794q0 66 -28 95.5t-110 29.5h-469
q-84 0 -110.5 -30.5t-26.5 -94.5v-794zM616 1579v186h209v-186h-209z" />
    <glyph glyph-name="uni022F" unicode="&#x22f;" horiz-adv-x="1173" 
d="M133 248v495q0 123 77 185.5t200 62.5h352q137 0 206.5 -67.5t69.5 -180.5v-495q0 -117 -67.5 -182.5t-206.5 -65.5h-356q-137 0 -206 65.5t-69 182.5zM334 281q0 -72 26.5 -99.5t108.5 -27.5h233q45 0 73 8t41 23.5t17.5 40t4.5 55.5v430q0 66 -27 96.5t-109 30.5h-233
q-82 0 -108.5 -31t-26.5 -96v-430zM481 1225v188h211v-188h-211z" />
    <glyph glyph-name="circumflex" unicode="&#x2c6;" horiz-adv-x="1024" 
d="M172 1194l262 295h156l262 -293l-100 -82l-240 223l-240 -221z" />
    <glyph glyph-name="caron" unicode="&#x2c7;" horiz-adv-x="1024" 
d="M172 1407l100 82l240 -223l240 221l100 -78l-262 -295h-156z" />
    <glyph glyph-name="breve" unicode="&#x2d8;" horiz-adv-x="1024" 
d="M195 1411v57h155v-36q0 -35 5 -63t22.5 -48.5t48.5 -30.5t80 -10q51 0 81.5 11.5t48 30.5t23 47t5.5 63v36h155v-57q0 -57 -12 -106.5t-47 -86t-96.5 -58t-157.5 -21.5q-94 0 -154.5 21.5t-95.5 58t-48 86t-13 106.5z" />
    <glyph glyph-name="dotaccent" unicode="&#x2d9;" horiz-adv-x="1024" 
d="M406 1225v188h210v-188h-210z" />
    <glyph glyph-name="ring" unicode="&#x2da;" horiz-adv-x="1024" 
d="M291 1233v123q0 76 29.5 109.5t115.5 33.5h150q86 0 115.5 -33.5t29.5 -105.5v-127q0 -78 -29.5 -112t-115.5 -34h-150q-86 0 -115.5 34t-29.5 112zM416 1202h190v184h-190v-184z" />
    <glyph glyph-name="ogonek" unicode="&#x2db;" horiz-adv-x="1024" 
d="M301 -268q0 61 35 110t78 84q49 41 112 74h154q-55 -29 -98 -66q-37 -31 -67 -72.5t-30 -92.5q0 -53 29 -74t94 -21q49 0 90 11q23 4 43 10l25 -109q-29 -10 -61 -18q-29 -8 -67 -13.5t-85 -5.5q-55 0 -101 8.5t-80 29t-52.5 56t-18.5 89.5z" />
    <glyph glyph-name="tilde" unicode="&#x2dc;" horiz-adv-x="1024" 
d="M141 1282q27 39 64 70q31 27 75 49t101 22q43 0 77 -12t64.5 -25.5t59 -25.5t59.5 -12q27 0 53.5 13t47 28.5t32.5 30.5l12 14l93 -103q-29 -41 -66 -71q-31 -29 -75 -50.5t-99 -21.5q-39 0 -74 12t-65.5 26.5t-59 27t-55.5 12.5q-31 0 -58.5 -13.5t-48 -29t-32.5 -29.5
l-13 -14z" />
    <glyph glyph-name="hungarumlaut" unicode="&#x2dd;" horiz-adv-x="1024" 
d="M156 1145l149 299h227l-227 -299h-149zM494 1145l149 299h225l-227 -299h-147z" />
    <glyph glyph-name="afii10023" unicode="&#x401;" horiz-adv-x="1187" 
d="M152 0v1366h954v-160h-748v-422h623v-159h-623v-465h748v-160h-954zM285 1536v188h213v-188h-213zM786 1536v188h213v-188h-213z" />
    <glyph glyph-name="afii10051" unicode="&#x402;" horiz-adv-x="1452" 
d="M0 1206v160h1133v-160h-615v-411h531q154 0 222 -63.5t68 -196.5v-293q0 -106 -66.5 -174t-201.5 -68h-65q-59 0 -101.5 7t-72 18.5t-51 24.5t-36.5 24v86h261q74 0 100.5 27.5t26.5 84.5v240q0 61 -25 92t-102 31h-488v-635h-209v1206h-309z" />
    <glyph glyph-name="afii10052" unicode="&#x403;" horiz-adv-x="1095" 
d="M154 0v1366h921v-158h-715v-1208h-206zM446 1483l226 313h243l-301 -313h-168z" />
    <glyph glyph-name="afii10053" unicode="&#x404;" horiz-adv-x="1226" 
d="M141 242v878q0 111 72 178.5t205 67.5h456q84 0 136.5 -16.5t103.5 -55.5v-88h-635q-74 0 -103.5 -28.5t-29.5 -94.5v-299h604v-159h-604v-344q0 -61 25.5 -91t103.5 -30h643v-86q-12 -8 -22.5 -20.5t-32 -25t-58 -20.5t-100.5 -8h-495q-135 0 -202 67.5t-67 174.5z" />
    <glyph glyph-name="afii10054" unicode="&#x405;" horiz-adv-x="1292" 
d="M139 864v213q0 141 70 215t211 74h448q61 0 128 -14.5t120 -57.5v-88h-647q-123 0 -123 -110v-205q0 -55 27.5 -81t93.5 -26h428q131 0 205 -66.5t74 -180.5v-246q0 -137 -59.5 -214t-215.5 -77h-489q-86 0 -148.5 20.5t-101.5 51.5v88h682q125 0 125 108v246
q0 53 -30 82t-99 29h-424q-135 0 -205 63.5t-70 175.5z" />
    <glyph glyph-name="afii10055" unicode="&#x406;" horiz-adv-x="509" 
d="M152 0v1366h206v-1366h-206z" />
    <glyph glyph-name="afii10056" unicode="&#x407;" horiz-adv-x="509" 
d="M43 1536v188h170v-188h-170zM152 0v1366h206v-1366h-206zM297 1536v188h170v-188h-170z" />
    <glyph glyph-name="afii10057" unicode="&#x408;" horiz-adv-x="1136" 
d="M63 250v190l207 35v-201q0 -63 28 -89.5t93 -26.5h266q66 0 93.5 27.5t27.5 86.5v1094h209v-1120q0 -123 -72.5 -184.5t-195.5 -61.5h-389q-123 0 -195 62.5t-72 187.5z" />
    <glyph glyph-name="afii10058" unicode="&#x409;" horiz-adv-x="2088" 
d="M0 0v160h29q51 0 80.5 6t45 25.5t22.5 57.5t13 101l86 778q6 55 23.5 99.5t52.5 75t89.5 47t131.5 16.5h646v-571h524q131 0 202.5 -56.5t71.5 -179.5v-303q0 -115 -66.5 -185.5t-217.5 -70.5h-723v1206h-389q-41 0 -68 -8t-42 -25.5t-22.5 -43t-11.5 -62.5l-86 -760
q-10 -92 -32.5 -151.5t-58.5 -94t-88 -48t-124 -13.5h-88zM1219 160h460q76 0 103.5 29.5t27.5 93.5v233q0 63 -26.5 91t-104.5 28h-460v-475z" />
    <glyph glyph-name="afii10059" unicode="&#x40a;" horiz-adv-x="2082" 
d="M152 0v1366h206v-571h625v571h209v-571h524q131 0 203 -56.5t72 -179.5v-303q0 -115 -66.5 -185.5t-218.5 -70.5h-723v635h-625v-635h-206zM1192 160h461q76 0 103.5 29.5t27.5 93.5v233q0 63 -26.5 91t-104.5 28h-461v-475z" />
    <glyph glyph-name="afii10060" unicode="&#x40b;" horiz-adv-x="1452" 
d="M0 1206v160h1133v-160h-615v-411h531q154 0 222 -63.5t68 -196.5v-535h-206v512q0 61 -25 92t-102 31h-488v-635h-209v1206h-309z" />
    <glyph glyph-name="afii10061" unicode="&#x40c;" horiz-adv-x="1329" 
d="M152 0v1366h208v-571h201l451 571h245l-469 -571h115q129 0 212 -69t83 -191v-535h-207v516q0 63 -36.5 91t-116.5 28h-478v-635h-208zM508 1483l225 313h244l-301 -313h-168z" />
    <glyph glyph-name="afii10062" unicode="&#x40e;" horiz-adv-x="1290" 
d="M113 813v553h206v-530q0 -61 25 -92t102 -31h494v653h209v-1124q0 -106 -67.5 -174t-202.5 -68h-476q-63 0 -107 8t-75 20.5t-48 25t-30 20.5v86h670q78 0 102.5 29.5t24.5 91.5v272h-537q-154 0 -222 63.5t-68 196.5zM332 1759v29h198v-23q0 -55 18.5 -87.5t98.5 -32.5
q41 0 64.5 8t36 24.5t15.5 38t3 49.5v23h199v-29q0 -55 -9.5 -104t-42 -85t-96 -57.5t-170.5 -21.5q-106 0 -168.5 20.5t-95.5 57.5t-42 86t-9 104z" />
    <glyph glyph-name="afii10145" unicode="&#x40f;" horiz-adv-x="1402" 
d="M152 0v1366h208v-1208h684v1208h209v-1366h-448v-307h-203v307h-450z" />
    <glyph glyph-name="afii10017" unicode="&#x410;" horiz-adv-x="1294" 
d="M0 0l518 1366h260l516 -1366h-233l-148 418h-536l-146 -418h-231zM434 584h420l-211 594z" />
    <glyph glyph-name="afii10018" unicode="&#x411;" horiz-adv-x="1292" 
d="M152 0v1366h962v-158h-756v-413h547q131 0 203 -56.5t72 -179.5v-303q0 -115 -66.5 -185.5t-218.5 -70.5h-743zM358 160h484q76 0 103.5 29.5t27.5 93.5v233q0 63 -26.5 91t-104.5 28h-484v-475z" />
    <glyph glyph-name="afii10019" unicode="&#x412;" horiz-adv-x="1323" 
d="M152 0v1366h722q154 0 219.5 -69.5t65.5 -186.5v-229q0 -43 -12 -72t-29.5 -47.5t-36 -28.5t-28.5 -14l38.5 -16.5t49 -30t42 -52t17.5 -81.5v-285q0 -55 -14.5 -101.5t-47 -80t-86 -53t-128.5 -19.5h-772zM358 160h504q78 0 105.5 27.5t27.5 88.5v226q0 63 -28.5 92
t-104.5 29h-504v-463zM358 782h465q76 0 103.5 27t27.5 92v184q0 59 -26.5 90t-102.5 31h-467v-424z" />
    <glyph glyph-name="afii10020" unicode="&#x413;" horiz-adv-x="1093" 
d="M152 0v1366h921v-158h-715v-1208h-206z" />
    <glyph glyph-name="afii10021" unicode="&#x414;" horiz-adv-x="1394" 
d="M0 160h16q47 0 76 14t46.5 40t24.5 60.5t11 75.5l66 778q4 55 21.5 99.5t53 75t90 47t132.5 16.5h675v-1208h152v-465h-209v307h-946v-307h-209v467zM287 158h717v1048h-431q-41 0 -67.5 -8t-41.5 -25.5t-23.5 -43t-10.5 -62.5l-57 -666q-8 -94 -27.5 -153.5t-58.5 -89.5
z" />
    <glyph glyph-name="afii10022" unicode="&#x415;" horiz-adv-x="1187" 
d="M152 0v1366h954v-160h-748v-422h623v-159h-623v-465h748v-160h-954z" />
    <glyph glyph-name="afii10024" unicode="&#x416;" horiz-adv-x="2023" 
d="M72 1366h245l451 -571h139v571h209v-571h139l451 571h246l-469 -571h114q129 0 212 -69t83 -191v-535h-206v516q0 63 -37 91t-117 28h-416v-635h-209v635h-415q-80 0 -117 -27.5t-37 -91.5v-516h-207v535q0 123 83 191.5t212 68.5h115z" />
    <glyph glyph-name="afii10025" unicode="&#x417;" horiz-adv-x="1189" 
d="M72 74v86h633q88 0 113.5 28.5t25.5 102.5v196q0 72 -28 105t-111 33h-486v159h471q78 0 116 30t38 95v176q0 70 -30 95.5t-109 25.5h-629v88q8 6 24.5 18.5t43 24t65.5 20.5t96 9h463q137 0 209 -67.5t72 -190.5v-215q0 -51 -20.5 -84t-48.5 -53.5t-54.5 -29.5
t-38.5 -11q8 -2 34.5 -8.5t55.5 -23.5t50.5 -50t21.5 -84v-295q0 -53 -13.5 -100.5t-46.5 -81t-85 -53t-128 -19.5h-485q-57 0 -94 6t-60.5 17.5t-38 24.5t-26.5 26z" />
    <glyph glyph-name="afii10026" unicode="&#x418;" horiz-adv-x="1413" 
d="M152 0v1366h206v-1071l674 1071h230v-1366h-207v1073l-676 -1073h-227z" />
    <glyph glyph-name="afii10027" unicode="&#x419;" horiz-adv-x="1413" 
d="M152 0v1366h206v-1071l674 1071h230v-1366h-207v1073l-676 -1073h-227zM389 1759v29h199v-23q0 -55 18.5 -87.5t98.5 -32.5q41 0 64.5 8t35.5 24.5t15 38t3 49.5v23h199v-29q0 -55 -9 -104t-42 -85t-96.5 -57.5t-169.5 -21.5t-169 20.5t-95.5 57.5t-42 86t-9.5 104z" />
    <glyph glyph-name="afii10028" unicode="&#x41a;" horiz-adv-x="1329" 
d="M152 0v1366h208v-571h201l451 571h245l-469 -571h115q129 0 212 -69t83 -191v-535h-207v516q0 63 -36.5 91t-116.5 28h-478v-635h-208z" />
    <glyph glyph-name="afii10029" unicode="&#x41b;" horiz-adv-x="1390" 
d="M0 0v160h29q51 0 80.5 6t45 25.5t22.5 57.5t13 101l86 778q6 55 23.5 99.5t52.5 75t89.5 47t131.5 16.5h666v-1366h-209v1206h-409q-41 0 -68 -8t-42 -25.5t-22.5 -43t-11.5 -62.5l-86 -760q-10 -92 -32.5 -151.5t-58.5 -94t-88 -48t-124 -13.5h-88z" />
    <glyph glyph-name="afii10030" unicode="&#x41c;" horiz-adv-x="1622" 
d="M152 0v1366h223l442 -838l432 838h221v-1366h-206v987l-357 -680h-182l-365 678v-985h-208z" />
    <glyph glyph-name="afii10031" unicode="&#x41d;" horiz-adv-x="1404" 
d="M152 0v1366h206v-571h686v571h209v-1366h-209v635h-686v-635h-206z" />
    <glyph glyph-name="afii10032" unicode="&#x41e;" horiz-adv-x="1441" 
d="M141 248v870q0 123 77 185.5t200 62.5h602q137 0 208.5 -66.5t71.5 -181.5v-870q0 -117 -68.5 -182.5t-209.5 -65.5h-604q-141 0 -209 65.5t-68 182.5zM348 287q0 -72 26.5 -99.5t106.5 -27.5h477q45 0 71 8t40 23.5t18.5 40t4.5 55.5v794q0 66 -28 95.5t-110 29.5h-469
q-84 0 -110.5 -30.5t-26.5 -94.5v-794z" />
    <glyph glyph-name="afii10033" unicode="&#x41f;" horiz-adv-x="1404" 
d="M152 0v1366h1101v-1366h-209v1208h-684v-1208h-208z" />
    <glyph glyph-name="afii10034" unicode="&#x420;" horiz-adv-x="1251" 
d="M152 0v1366h743q152 0 218.5 -70.5t66.5 -185.5v-315q0 -123 -72 -179.5t-203 -56.5h-547v-559h-206zM358 719h484q78 0 104.5 27.5t26.5 91.5v245q0 63 -27.5 93t-103.5 30h-484v-487z" />
    <glyph glyph-name="afii10035" unicode="&#x421;" horiz-adv-x="1206" 
d="M141 242v878q0 111 72 178.5t205 67.5h456q86 0 146.5 -15.5t112.5 -56.5v-88h-654q-74 0 -103.5 -28.5t-29.5 -94.5v-802q0 -61 25.5 -91t103.5 -30h690v-86q-12 -8 -29.5 -20.5t-48 -25t-74.5 -20.5t-108 -8h-495q-135 0 -202 67.5t-67 174.5z" />
    <glyph glyph-name="afii10036" unicode="&#x422;" horiz-adv-x="1153" 
d="M0 1206v160h1153v-160h-473v-1206h-207v1206h-473z" />
    <glyph glyph-name="afii10037" unicode="&#x423;" horiz-adv-x="1290" 
d="M113 813v553h206v-530q0 -61 25 -92t102 -31h494v653h209v-1124q0 -106 -67.5 -174t-202.5 -68h-476q-63 0 -107 8t-75 20.5t-48 25t-30 20.5v86h670q78 0 102.5 29.5t24.5 91.5v272h-537q-154 0 -222 63.5t-68 196.5z" />
    <glyph glyph-name="afii10038" unicode="&#x424;" horiz-adv-x="1650" 
d="M123 399v586q0 123 76.5 175t199.5 52h322v174h207v-174h319q137 0 209 -56t72 -171v-586q0 -117 -68.5 -182t-210.5 -65h-321v-172h-207v172h-322q-141 0 -208.5 65.5t-67.5 181.5zM330 438q0 -72 26.5 -99.5t106.5 -27.5h258v742h-254q-84 0 -110.5 -31t-26.5 -94v-490
zM928 311h258q45 0 70.5 8.5t40 23.5t18.5 40t4 55v490q0 66 -27.5 95.5t-109.5 29.5h-254v-742z" />
    <glyph glyph-name="afii10039" unicode="&#x425;" horiz-adv-x="1239" 
d="M0 0l494 707l-465 659h262l327 -502l332 502h228l-453 -645l514 -721h-260l-375 563l-373 -563h-231z" />
    <glyph glyph-name="afii10040" unicode="&#x426;" horiz-adv-x="1402" 
d="M152 0v1366h208v-1208h684v1208h209v-1206h150v-467h-203v307h-1048z" />
    <glyph glyph-name="afii10041" unicode="&#x427;" horiz-adv-x="1300" 
d="M113 813v553h206v-530q0 -61 25 -92t102 -31h494v653h209v-1366h-209v553h-537q-154 0 -222 63.5t-68 196.5z" />
    <glyph glyph-name="afii10042" unicode="&#x428;" horiz-adv-x="1970" 
d="M152 0v1366h208v-1208h521v1208h209v-1208h520v1208h209v-1366h-1667z" />
    <glyph glyph-name="afii10043" unicode="&#x429;" horiz-adv-x="2002" 
d="M152 0v1366h208v-1208h521v1208h209v-1208h520v1208h209v-1206h153v-467h-203v307h-1617z" />
    <glyph glyph-name="afii10044" unicode="&#x42a;" horiz-adv-x="1406" 
d="M0 1206v160h514v-571h547q131 0 202.5 -56.5t71.5 -179.5v-303q0 -115 -66.5 -185.5t-217.5 -70.5h-744v1206h-307zM514 160h483q76 0 103.5 29.5t27.5 93.5v233q0 63 -26.5 91t-104.5 28h-483v-475z" />
    <glyph glyph-name="afii10045" unicode="&#x42b;" horiz-adv-x="1748" 
d="M152 0v1366h206v-571h547q131 0 203 -56.5t72 -179.5v-303q0 -115 -66.5 -185.5t-218.5 -70.5h-743zM358 160h484q76 0 103.5 29.5t27.5 93.5v233q0 63 -26.5 91t-104.5 28h-484v-475zM1391 0v1366h206v-1366h-206z" />
    <glyph glyph-name="afii10046" unicode="&#x42c;" horiz-adv-x="1251" 
d="M152 0v1366h206v-571h547q131 0 203 -56.5t72 -179.5v-303q0 -115 -66.5 -185.5t-218.5 -70.5h-743zM358 160h484q76 0 103.5 29.5t27.5 93.5v233q0 63 -26.5 91t-104.5 28h-484v-475z" />
    <glyph glyph-name="afii10047" unicode="&#x42d;" horiz-adv-x="1226" 
d="M111 74v86h641q78 0 103.5 29.5t25.5 91.5v344h-625v159h625v299q0 66 -30 94.5t-103 28.5h-635v88q51 39 103 55.5t136 16.5h457q133 0 204.5 -67.5t71.5 -178.5v-878q0 -106 -66.5 -174t-201.5 -68h-455q-90 0 -148 19.5t-103 54.5z" />
    <glyph glyph-name="afii10048" unicode="&#x42e;" horiz-adv-x="1959" 
d="M152 0v1366h206v-571h357v323q0 123 76.5 185.5t199.5 62.5h547q137 0 209 -66.5t72 -181.5v-870q0 -117 -69 -182.5t-210 -65.5h-549q-141 0 -208.5 65.5t-67.5 182.5v387h-357v-635h-206zM922 287q0 -72 26.5 -99.5t106.5 -27.5h422q45 0 70.5 8t40 23.5t18.5 40
t4 55.5v794q0 66 -28 95.5t-109 29.5h-414q-84 0 -110.5 -30.5t-26.5 -94.5v-794z" />
    <glyph glyph-name="afii10049" unicode="&#x42f;" horiz-adv-x="1298" 
d="M29 0l487 594h-115q-129 0 -201.5 56.5t-72.5 178.5v281q0 115 67.5 185.5t217.5 70.5h735v-1366h-209v594h-205l-446 -594h-258zM334 870q0 -63 26.5 -90.5t106.5 -27.5h471v454h-473q-78 0 -104.5 -29.5t-26.5 -93.5v-213z" />
    <glyph glyph-name="afii10065" unicode="&#x430;" horiz-adv-x="1064" 
d="M92 215v152q0 100 66.5 155.5t189.5 55.5h377v139q0 59 -27.5 90t-115.5 31h-437v75q27 20 64 39q33 14 80 26.5t110 12.5h238q141 0 215 -62.5t74 -185.5v-743h-178l-17 94q-20 -27 -49 -47q-25 -18 -62.5 -32.5t-91.5 -14.5h-180q-133 0 -194.5 53t-61.5 162zM293 246
q0 -61 34.5 -76.5t102.5 -15.5h135q41 0 81 2t79 8v260h-319q-63 0 -88 -22.5t-25 -73.5v-82z" />
    <glyph glyph-name="afii10066" unicode="&#x431;" horiz-adv-x="1171" 
d="M133 248v874q0 111 70.5 177.5t206.5 66.5h583v-76q-53 -37 -110.5 -57.5t-139.5 -20.5h-278q-74 0 -102.5 -28.5t-28.5 -93.5v-187q18 33 65 60.5t133 27.5h230q137 0 206.5 -67.5t69.5 -180.5v-495q0 -117 -67.5 -182.5t-206.5 -65.5h-356q-137 0 -206 65.5t-69 182.5z
M334 281q0 -72 26.5 -99.5t108.5 -27.5h233q45 0 73 8t41 23.5t17.5 40t4.5 55.5v430q0 66 -27 96.5t-109 30.5h-221q-41 0 -80 -7.5t-67 -19.5v-530z" />
    <glyph glyph-name="afii10067" unicode="&#x432;" horiz-adv-x="1126" 
d="M137 0v991h635q123 0 173 -45t50 -143v-127q0 -90 -37.5 -122t-101.5 -40v-12q72 -8 115 -42t43 -128v-148q0 -184 -223 -184h-654zM340 154h385q51 0 67.5 13t16.5 58v127q0 49 -23.5 62.5t-76.5 13.5h-369v-274zM340 582h352q59 0 80 14t21 63v109q0 45 -17.5 57.5
t-66.5 12.5h-369v-256z" />
    <glyph glyph-name="afii10068" unicode="&#x433;" horiz-adv-x="831" 
d="M137 0v991h674v-153h-471v-838h-203z" />
    <glyph glyph-name="afii10069" unicode="&#x434;" horiz-adv-x="1124" 
d="M10 154h45q51 2 74 29.5t31 90.5l59 467q16 121 90 185.5t219 64.5h451v-837h94v-461h-203v307h-657v-307h-203v461zM287 154h489v684h-223q-72 0 -101.5 -35t-39.5 -103l-52 -389q-4 -47 -21 -94t-52 -63z" />
    <glyph glyph-name="afii10070" unicode="&#x435;" horiz-adv-x="1112" 
d="M133 250v489q0 68 21.5 116t60.5 78t92 44t117 14h291q141 0 212.5 -64.5t71.5 -185.5v-301h-665v-172q0 -63 24.5 -88.5t106.5 -25.5h526v-76q-31 -23 -69 -39q-35 -16 -84.5 -27.5t-114.5 -11.5h-309q-143 0 -212 65.5t-69 184.5zM334 594h465v121q0 61 -22.5 92
t-104.5 31h-207q-86 0 -108.5 -33t-22.5 -86v-125z" />
    <glyph glyph-name="afii10072" unicode="&#x436;" horiz-adv-x="1505" 
d="M72 991h225l258 -397h96v397h203v-397h96l258 397h226l-281 -403h31q121 0 168 -46t47 -126v-416h-201v385q0 41 -22.5 48t-75.5 7h-246v-440h-203v440h-245q-53 0 -76 -7t-23 -48v-385h-201v416q0 80 47.5 126t168.5 46h30z" />
    <glyph glyph-name="afii10073" unicode="&#x437;" horiz-adv-x="983" 
d="M63 78v76h463q80 0 101.5 20.5t21.5 81.5v106q0 37 -16.5 57.5t-67.5 20.5h-338v154h338q57 0 70.5 23.5t13.5 58.5v61q0 59 -24.5 80t-85.5 21h-469v75q53 37 110.5 57.5t138.5 20.5h267q131 0 197.5 -61.5t66.5 -167.5v-96q0 -70 -36 -100.5t-87 -41.5v-12
q51 -10 87 -38t36 -103v-144q0 -106 -62.5 -166.5t-193.5 -60.5h-240q-74 0 -125 10t-85.5 23.5t-54 27t-26.5 17.5z" />
    <glyph glyph-name="afii10074" unicode="&#x438;" horiz-adv-x="1132" 
d="M137 0v991h203v-704l432 704h223v-991h-202v725l-433 -725h-223z" />
    <glyph glyph-name="afii10075" unicode="&#x439;" horiz-adv-x="1132" 
d="M137 0v991h203v-704l432 704h223v-991h-202v725l-433 -725h-223zM250 1442v28h199v-22q0 -55 18 -88t98 -33q41 0 64.5 8t36 24.5t15.5 38t3 50.5v22h199v-28q0 -55 -9.5 -104.5t-42 -85t-96 -57t-170.5 -21.5q-106 0 -168.5 20t-95.5 57t-42 86t-9 105z" />
    <glyph glyph-name="afii10076" unicode="&#x43a;" horiz-adv-x="1110" 
d="M137 0v991h203v-397h154l299 397h245l-321 -397h51q121 0 168 -45t47 -125v-424h-201v385q0 41 -22.5 48t-75.5 7h-344v-440h-203z" />
    <glyph glyph-name="afii10077" unicode="&#x43b;" horiz-adv-x="1095" 
d="M10 0v154h10q37 0 58.5 6t34 20.5t17.5 38t9 55.5l60 467q16 121 89.5 185.5t219.5 64.5h450v-991h-202v838h-224q-72 0 -101.5 -35t-39.5 -103l-57 -450q-8 -61 -23.5 -108.5t-45 -78t-77 -47t-118.5 -16.5h-60z" />
    <glyph glyph-name="afii10078" unicode="&#x43c;" horiz-adv-x="1343" 
d="M137 0v991h203l336 -508l330 508h200v-991h-202v664l-275 -420h-102l-287 420v-664h-203z" />
    <glyph glyph-name="afii10079" unicode="&#x43d;" horiz-adv-x="1132" 
d="M137 0v991h203v-397h453v397h202v-991h-202v440h-453v-440h-203z" />
    <glyph glyph-name="afii10080" unicode="&#x43e;" horiz-adv-x="1171" 
d="M133 248v495q0 123 77 185.5t200 62.5h352q137 0 206.5 -67.5t69.5 -180.5v-495q0 -117 -67.5 -182.5t-206.5 -65.5h-356q-137 0 -206 65.5t-69 182.5zM334 281q0 -72 26.5 -99.5t108.5 -27.5h233q45 0 73 8t41 23.5t17.5 40t4.5 55.5v430q0 66 -27 96.5t-109 30.5h-233
q-82 0 -108.5 -31t-26.5 -96v-430z" />
    <glyph glyph-name="afii10081" unicode="&#x43f;" horiz-adv-x="1132" 
d="M137 0v991h858v-991h-202v838h-453v-838h-203z" />
    <glyph glyph-name="afii10082" unicode="&#x440;" horiz-adv-x="1167" 
d="M137 -369v1360h180l15 -92q35 41 87 66.5t111 25.5h232q135 0 203.5 -66.5t68.5 -176.5v-496q0 -117 -71.5 -184.5t-206.5 -67.5h-205q-45 0 -81 9t-62.5 22.5t-44 29t-25.5 25.5v-455h-201zM338 180q12 -8 35 -14q18 -4 49 -8t78 -4h200q74 0 104 29.5t30 88.5v451
q0 59 -29 87t-94 28h-211q-43 0 -73 -5.5t-50 -9.5q-23 -6 -39 -12v-631z" />
    <glyph glyph-name="afii10083" unicode="&#x441;" horiz-adv-x="983" 
d="M133 242v506q0 111 71.5 177t207.5 66h252q82 0 139 -20.5t110 -57.5v-75h-448q-74 0 -102.5 -29t-28.5 -94v-439q0 -61 25.5 -91.5t105.5 -30.5h455v-76q-6 -4 -26 -17.5t-54.5 -27t-86 -23.5t-124.5 -10h-226q-135 0 -202.5 65.5t-67.5 176.5z" />
    <glyph glyph-name="afii10084" unicode="&#x442;" horiz-adv-x="888" 
d="M31 838v153h827v-153h-311v-838h-203v838h-313z" />
    <glyph glyph-name="afii10085" unicode="&#x443;" horiz-adv-x="1167" 
d="M133 252v739h201v-723q0 -68 31.5 -91t101.5 -23h238q27 0 49 2t39 6q20 4 36 8v821h201v-1112q0 -123 -71.5 -185.5t-210.5 -62.5h-306q-61 0 -110 10.5t-83 23.5t-54.5 26.5t-26.5 17.5v76h530q74 0 102.5 26.5t28.5 94.5v182q-23 -25 -53 -45q-27 -16 -66.5 -29.5
t-93.5 -13.5h-210q-76 0 -128.5 19.5t-84 54.5t-46 80t-14.5 98z" />
    <glyph glyph-name="afii10086" unicode="&#x444;" horiz-adv-x="1628" 
d="M133 252v496q0 111 68.5 177t204.5 66h116q55 0 104.5 -23.5t84.5 -58.5v533l200 35v-572q35 37 85.5 61.5t107.5 24.5h119q135 0 203.5 -66.5t68.5 -176.5v-496q0 -117 -71.5 -184.5t-206.5 -67.5h-93q-45 0 -80.5 9t-62.5 22.5t-44 29t-26 25.5v-455h-200v455
q-8 -10 -24.5 -25.5t-42.5 -29t-61.5 -22.5t-80.5 -9h-90q-135 0 -207 67.5t-72 184.5zM334 272q0 -59 29.5 -88.5t103.5 -29.5h86q47 0 76.5 4t48.5 8q23 6 33 14v631q-14 6 -37 12q-18 4 -49 9.5t-72 5.5h-96q-66 0 -94.5 -28t-28.5 -87v-451zM911 180q12 -8 35 -14
q18 -4 49 -8t78 -4h88q74 0 103.5 29.5t29.5 88.5v451q0 59 -28.5 87t-94.5 28h-98q-43 0 -72.5 -5.5t-50.5 -9.5q-23 -6 -39 -12v-631z" />
    <glyph glyph-name="afii10087" unicode="&#x445;" horiz-adv-x="989" 
d="M0 0l379 510l-359 481h246l230 -327l225 327h223l-344 -461l389 -530h-248l-256 369l-264 -369h-221z" />
    <glyph glyph-name="afii10088" unicode="&#x446;" horiz-adv-x="1132" 
d="M137 0v991h203v-837h453v837h202v-837h117v-461h-203v307h-772z" />
    <glyph glyph-name="afii10089" unicode="&#x447;" horiz-adv-x="1050" 
d="M102 600v391h203v-368q0 -119 127 -119h98q94 0 131 10t50 16v461h202v-991h-202v436q-29 -35 -82.5 -60.5t-130.5 -25.5h-117q-74 0 -127 19.5t-87 53.5t-49.5 79t-15.5 98z" />
    <glyph glyph-name="afii10090" unicode="&#x448;" horiz-adv-x="1648" 
d="M137 0v991h203v-837h383v837h203v-837h383v837h202v-991h-1374z" />
    <glyph glyph-name="afii10091" unicode="&#x449;" horiz-adv-x="1648" 
d="M137 0v991h203v-837h383v837h203v-837h383v837h202v-837h117v-461h-203v307h-1288z" />
    <glyph glyph-name="afii10092" unicode="&#x44a;" horiz-adv-x="1153" 
d="M0 838v153h434v-373h412q123 0 175 -45t52 -147v-223q0 -119 -58.5 -161t-168.5 -42h-615v838h-231zM434 154h361q43 0 58 14t15 51v174q0 35 -13 52.5t-67 17.5h-354v-309z" />
    <glyph glyph-name="afii10093" unicode="&#x44b;" horiz-adv-x="1533" 
d="M137 0v991h203v-377h412q123 0 175 -45t52 -147v-219q0 -119 -58.5 -161t-168.5 -42h-615zM340 154h360q43 0 58.5 14t15.5 51v170q0 35 -13 52.5t-67 17.5h-354v-305zM1194 0v991h203v-991h-203z" />
    <glyph glyph-name="afii10094" unicode="&#x44c;" horiz-adv-x="1058" 
d="M137 0v991h203v-377h412q123 0 175 -45t52 -147v-219q0 -119 -58.5 -161t-168.5 -42h-615zM340 154h360q43 0 58.5 14t15.5 51v170q0 35 -13 52.5t-67 17.5h-354v-305z" />
    <glyph glyph-name="afii10095" unicode="&#x44d;" horiz-adv-x="983" 
d="M63 78v76h455q80 0 105.5 30.5t25.5 91.5v164h-422v154h422v121q0 66 -28.5 94.5t-102.5 28.5h-448v75q53 37 110.5 57.5t138.5 20.5h252q135 0 207 -66.5t72 -176.5v-506q0 -111 -67.5 -176.5t-202.5 -65.5h-226q-74 0 -125 10t-85.5 23.5t-54 27t-26.5 17.5z" />
    <glyph glyph-name="afii10096" unicode="&#x44e;" horiz-adv-x="1642" 
d="M137 0v991h203v-397h285v149q0 123 76.5 185.5t199.5 62.5h332q137 0 206.5 -67.5t69.5 -180.5v-495q0 -117 -67.5 -182.5t-206.5 -65.5h-336q-137 0 -205.5 65.5t-68.5 182.5v192h-285v-440h-203zM825 281q0 -72 27 -99.5t109 -27.5h213q45 0 72.5 8t40.5 23.5t17.5 40
t4.5 55.5v430q0 66 -27 96.5t-108 30.5h-213q-82 0 -109 -31t-27 -96v-430z" />
    <glyph glyph-name="afii10097" unicode="&#x44f;" horiz-adv-x="1114" 
d="M61 0l310 397h-39q-121 0 -168 45t-47 125v185q0 51 5 95t29.5 76.5t73.5 50t137 17.5h601v-991h-203v395h-154l-299 -395h-246zM317 604q0 -41 22.5 -48t76.5 -7h344v289h-359q-49 0 -66.5 -9.5t-17.5 -44.5v-180z" />
    <glyph glyph-name="afii10071" unicode="&#x451;" horiz-adv-x="1112" 
d="M133 250v489q0 68 21.5 116t60.5 78t92 44t117 14h291q141 0 212.5 -64.5t71.5 -185.5v-301h-665v-172q0 -63 24.5 -88.5t106.5 -25.5h526v-76q-31 -23 -69 -39q-35 -16 -84.5 -27.5t-114.5 -11.5h-309q-143 0 -212 65.5t-69 184.5zM285 1212v189h213v-189h-213zM334 594
h465v121q0 61 -22.5 92t-104.5 31h-207q-86 0 -108.5 -33t-22.5 -86v-125zM653 1212v189h213v-189h-213z" />
    <glyph glyph-name="afii10099" unicode="&#x452;" horiz-adv-x="1157" 
d="M0 1171v154h143v152h203v-152h436v-151l-436 -3v-266q29 35 82 60.5t131 25.5h178q74 0 127.5 -19.5t87 -53t49 -79.5t15.5 -98v-860q0 -250 -287 -250h-172v156h123q74 0 103.5 26.5t29.5 92.5v813q0 119 -127 119h-160q-94 0 -131 -10.5t-49 -16.5v-811h-203v1171h-143
z" />
    <glyph glyph-name="afii10100" unicode="&#x453;" horiz-adv-x="831" 
d="M137 0v991h674v-153h-471v-838h-203zM334 1163l213 297h231l-284 -297h-160z" />
    <glyph glyph-name="afii10101" unicode="&#x454;" horiz-adv-x="983" 
d="M133 242v506q0 111 71.5 177t207.5 66h252q82 0 139 -20.5t110 -57.5v-75h-448q-74 0 -102.5 -29t-28.5 -94v-121h422v-154h-422v-164q0 -61 25.5 -91.5t105.5 -30.5h455v-76q-6 -4 -26 -17.5t-54.5 -27t-86 -23.5t-124.5 -10h-226q-135 0 -202.5 65.5t-67.5 176.5z" />
    <glyph glyph-name="afii10102" unicode="&#x455;" horiz-adv-x="1028" 
d="M109 78v76h497q66 0 91.5 25.5t25.5 82.5v70q0 47 -19.5 70.5t-91.5 23.5h-268q-109 0 -169 50t-60 147v129q0 117 76.5 178t205.5 61h230q160 0 268 -73v-80h-455q-43 0 -68.5 -8.5t-37.5 -21.5t-15.5 -33.5t-3.5 -45.5v-65q0 -45 20.5 -63.5t82.5 -18.5h264
q129 0 185.5 -56.5t56.5 -152.5v-133q0 -115 -72 -177.5t-215 -62.5h-283q-76 0 -132 15.5t-113 62.5z" />
    <glyph glyph-name="afii10103" unicode="&#x456;" horiz-adv-x="499" 
d="M143 1212v189h213v-189h-213zM150 0v991h202v-991h-202z" />
    <glyph glyph-name="afii10104" unicode="&#x457;" horiz-adv-x="477" 
d="M31 1212v189h170v-189h-170zM137 0v991h203v-991h-203zM276 1212v189h170v-189h-170z" />
    <glyph glyph-name="afii10105" unicode="&#x458;" horiz-adv-x="489" 
d="M-41 -213h51q74 0 103.5 26.5t29.5 92.5v1085h205l-2 -1110q0 -250 -287 -250h-100v156zM139 1212v189h213v-189h-213z" />
    <glyph glyph-name="afii10106" unicode="&#x459;" horiz-adv-x="1644" 
d="M10 0v156h10q37 0 58.5 6t34 20.5t17.5 37t9 54.5l60 467q16 121 89.5 185.5t219.5 64.5h430v-375h399q123 0 175.5 -45t52.5 -147v-221q0 -119 -58.5 -161t-169.5 -42h-604v838h-201q-72 0 -101.5 -35t-39.5 -103l-57 -450q-8 -61 -23.5 -108.5t-45 -78t-77 -47
t-118.5 -16.5h-60zM938 154h348q43 0 58.5 14t15.5 51v174q0 35 -13.5 52.5t-66.5 17.5h-342v-309z" />
    <glyph glyph-name="afii10107" unicode="&#x45a;" horiz-adv-x="1652" 
d="M137 0v991h203v-377h412v377h202v-377h392q123 0 175 -45t52 -147v-219q0 -119 -58.5 -161t-168.5 -42h-594v461h-412v-461h-203zM954 154h340q43 0 58.5 14t15.5 51v172q0 35 -13.5 52.5t-66.5 17.5h-334v-307z" />
    <glyph glyph-name="afii10108" unicode="&#x45b;" horiz-adv-x="1157" 
d="M0 1171v154h143v152h203v-152h436v-151l-436 -3v-266q29 35 82 60.5t131 25.5h178q74 0 127.5 -19.5t87 -53t49 -79.5t15.5 -98v-741h-203v719q0 119 -127 119h-160q-94 0 -131 -10.5t-49 -16.5v-811h-203v1171h-143z" />
    <glyph glyph-name="afii10109" unicode="&#x45c;" horiz-adv-x="1110" 
d="M137 0v991h203v-397h154l299 397h245l-321 -397h51q121 0 168 -45t47 -125v-424h-201v385q0 41 -22.5 48t-75.5 7h-344v-440h-203zM420 1163l213 297h231l-284 -297h-160z" />
    <glyph glyph-name="afii10110" unicode="&#x45e;" horiz-adv-x="1167" 
d="M133 252v739h201v-723q0 -68 31.5 -91t101.5 -23h238q27 0 49 2t39 6q20 4 36 8v821h201v-1112q0 -123 -71.5 -185.5t-210.5 -62.5h-306q-61 0 -110 10.5t-83 23.5t-54.5 26.5t-26.5 17.5v76h530q74 0 102.5 26.5t28.5 94.5v182q-23 -25 -53 -45q-27 -16 -66.5 -29.5
t-93.5 -13.5h-210q-76 0 -128.5 19.5t-84 54.5t-46 80t-14.5 98zM262 1442v28h199v-22q0 -55 18.5 -88t98.5 -33q41 0 64.5 8t35.5 24.5t15 38t3 50.5v22h199v-28q0 -55 -9 -104.5t-42 -85t-96.5 -57t-169.5 -21.5t-169 20t-95.5 57t-42 86t-9.5 105z" />
    <glyph glyph-name="afii10193" unicode="&#x45f;" horiz-adv-x="1132" 
d="M137 0v991h203v-837h453v837h202v-991h-325v-307h-203v307h-330z" />
    <glyph glyph-name="afii10050" unicode="&#x490;" horiz-adv-x="1107" 
d="M152 0v1366h718v330h203v-488h-715v-1208h-206z" />
    <glyph glyph-name="afii10098" unicode="&#x491;" horiz-adv-x="880" 
d="M137 0v991h494v307h203v-460h-494v-838h-203z" />
    <glyph glyph-name="Wgrave" unicode="&#x1e80;" horiz-adv-x="1746" 
d="M-6 1366h235l258 -1092l263 1092h243l279 -1100l254 1100h225l-352 -1366h-262l-267 1073l-270 -1073h-258zM543 1784h250l184 -283h-160z" />
    <glyph glyph-name="wgrave" unicode="&#x1e81;" horiz-adv-x="1464" 
d="M39 991h225l178 -721l197 721h199l198 -723l181 723h208l-290 -991h-207l-199 692l-203 -692h-196zM473 1444h238l161 -299h-159z" />
    <glyph glyph-name="Wacute" unicode="&#x1e82;" horiz-adv-x="1746" 
d="M-6 1366h235l258 -1092l263 1092h243l279 -1100l254 1100h225l-352 -1366h-262l-267 1073l-270 -1073h-258zM756 1501l184 283h250l-275 -283h-159z" />
    <glyph glyph-name="wacute" unicode="&#x1e83;" horiz-adv-x="1464" 
d="M39 991h225l178 -721l197 721h199l198 -723l181 723h208l-290 -991h-207l-199 692l-203 -692h-196zM598 1145l162 299h237l-239 -299h-160z" />
    <glyph glyph-name="Wdieresis" unicode="&#x1e84;" horiz-adv-x="1746" 
d="M-6 1366h235l258 -1092l263 1092h243l279 -1100l254 1100h225l-352 -1366h-262l-267 1073l-270 -1073h-258zM571 1579v186h209v-186h-209zM965 1579v186h209v-186h-209z" />
    <glyph glyph-name="wdieresis" unicode="&#x1e85;" horiz-adv-x="1464" 
d="M39 991h225l178 -721l197 721h199l198 -723l181 723h208l-290 -991h-207l-199 692l-203 -692h-196zM440 1225v188h209v-188h-209zM813 1225v188h209v-188h-209z" />
    <glyph glyph-name="Ygrave" unicode="&#x1ef2;" horiz-adv-x="1171" 
d="M-27 1366h246l369 -580l381 580h229l-508 -735v-631h-213v625zM287 1784h250l184 -283h-160z" />
    <glyph glyph-name="ygrave" unicode="&#x1ef3;" horiz-adv-x="993" 
d="M33 991h217l256 -682l250 682h209l-523 -1360h-200l157 426zM219 1444h238l161 -299h-159z" />
    <glyph glyph-name="uni2000" unicode="&#x2000;" horiz-adv-x="941" 
 />
    <glyph glyph-name="uni2001" unicode="&#x2001;" horiz-adv-x="1882" 
 />
    <glyph glyph-name="uni2002" unicode="&#x2002;" horiz-adv-x="941" 
 />
    <glyph glyph-name="uni2003" unicode="&#x2003;" horiz-adv-x="1882" 
 />
    <glyph glyph-name="uni2004" unicode="&#x2004;" horiz-adv-x="627" 
 />
    <glyph glyph-name="uni2005" unicode="&#x2005;" horiz-adv-x="470" 
 />
    <glyph glyph-name="uni2006" unicode="&#x2006;" horiz-adv-x="313" 
 />
    <glyph glyph-name="uni2007" unicode="&#x2007;" horiz-adv-x="313" 
 />
    <glyph glyph-name="uni2008" unicode="&#x2008;" horiz-adv-x="235" 
 />
    <glyph glyph-name="uni2009" unicode="&#x2009;" horiz-adv-x="376" 
 />
    <glyph glyph-name="uni200A" unicode="&#x200a;" horiz-adv-x="104" 
 />
    <glyph glyph-name="uni2010" unicode="&#x2010;" horiz-adv-x="768" 
d="M72 420v164h622v-164h-622z" />
    <glyph glyph-name="uni2011" unicode="&#x2011;" horiz-adv-x="768" 
d="M72 420v164h622v-164h-622z" />
    <glyph glyph-name="figuredash" unicode="&#x2012;" horiz-adv-x="768" 
d="M72 420v164h622v-164h-622z" />
    <glyph glyph-name="endash" unicode="&#x2013;" horiz-adv-x="872" 
d="M0 420v164h872v-164h-872z" />
    <glyph glyph-name="emdash" unicode="&#x2014;" horiz-adv-x="1277" 
d="M0 420v164h1278v-164h-1278z" />
    <glyph glyph-name="quoteleft" unicode="&#x2018;" horiz-adv-x="403" 
d="M90 997v105q0 68 16.5 129t39 109.5t43 80t30.5 41.5h82v-465h-211z" />
    <glyph glyph-name="quoteright" unicode="&#x2019;" horiz-adv-x="403" 
d="M96 997v465h211v-106q0 -68 -17.5 -128.5t-39 -108.5t-43 -79.5t-29.5 -42.5h-82z" />
    <glyph glyph-name="quotesinglbase" unicode="&#x201a;" horiz-adv-x="403" 
d="M96 201h211v-105q0 -68 -17.5 -128t-39 -108t-43 -80t-29.5 -42h-82v463z" />
    <glyph glyph-name="quotedblleft" unicode="&#x201c;" horiz-adv-x="739" 
d="M96 1071v105q0 68 16.5 128t39 108t43 81t30.5 43h80v-465h-209zM428 1071v105q0 68 17.5 128t39 108t43 81t29.5 43h82v-465h-211z" />
    <glyph glyph-name="quotedblright" unicode="&#x201d;" horiz-adv-x="739" 
d="M102 1071v465h211v-106q0 -66 -17 -126.5t-40 -109.5t-43 -82t-29 -41h-82zM436 1071v465h211v-106q0 -68 -17.5 -128.5t-39 -108.5t-43 -80t-29.5 -42h-82z" />
    <glyph glyph-name="quotedblbase" unicode="&#x201e;" horiz-adv-x="739" 
d="M102 201h211v-105q0 -68 -17 -128t-38.5 -108t-43 -80t-30.5 -42h-82v463zM436 201h211v-105q0 -68 -17.5 -128t-39 -108t-43 -80t-29.5 -42h-82v463z" />
    <glyph glyph-name="dagger" unicode="&#x2020;" 
d="M193 829v156h374v381h201v-381h385v-156h-385v-829h-201v829h-374z" />
    <glyph glyph-name="daggerdbl" unicode="&#x2021;" 
d="M193 391v156h374v282h-374v156h374v381h201v-381h385v-156h-385v-282h385v-156h-385v-391h-201v391h-374z" />
    <glyph glyph-name="bullet" unicode="&#x2022;" horiz-adv-x="514" 
d="M0 592v239q0 61 38 100.5t116 39.5h208q78 0 115 -39t37 -101v-239q0 -63 -37 -101t-115 -38h-208q-78 0 -116 37.5t-38 101.5z" />
    <glyph glyph-name="ellipsis" unicode="&#x2026;" horiz-adv-x="1210" 
d="M98 0v203h209v-203h-209zM498 0v203h211v-203h-211zM903 0v203h211v-203h-211z" />
    <glyph glyph-name="uni202F" unicode="&#x202f;" horiz-adv-x="376" 
 />
    <glyph glyph-name="perthousand" unicode="&#x2030;" horiz-adv-x="2588" 
d="M117 803v350q0 100 45 156.5t145 56.5h248q92 0 137 -48t45 -126v-350q0 -96 -35.5 -151.5t-144.5 -55.5h-252q-94 0 -141 44t-47 124zM289 -41l1081 1448h178l-1079 -1448h-180zM293 825q0 -27 9 -38t42 -11h166q33 0 43 11.5t10 37.5v346q0 27 -10 39.5t-43 12.5h-166
q-33 0 -42 -12.5t-9 -39.5v-346zM1100 166v350q0 98 44 155.5t146 57.5h248q92 0 137 -47t45 -125v-350q0 -98 -34.5 -152.5t-145.5 -54.5h-252q-94 0 -141 44t-47 122zM1276 188q0 -25 10 -36t41 -11h166q33 0 43 11.5t10 35.5v349q0 27 -10 38t-43 11h-166
q-31 0 -41 -12.5t-10 -36.5v-349zM1849 166v350q0 100 43 156.5t148 56.5h246q94 0 139 -47t45 -125v-350q0 -49 -7 -87t-27.5 -64.5t-56.5 -41t-91 -14.5h-250q-94 0 -141.5 44t-47.5 122zM2025 188q0 -25 9.5 -36t42.5 -11h166q31 0 42 11.5t11 35.5v349q0 27 -10.5 38
t-42.5 11h-166q-33 0 -42.5 -12.5t-9.5 -36.5v-349z" />
    <glyph glyph-name="minute" unicode="&#x2032;" horiz-adv-x="403" 
d="M96 997v500h211v-256q0 -49 -15.5 -90t-35.5 -72.5t-41.5 -52t-32.5 -29.5h-86z" />
    <glyph glyph-name="second" unicode="&#x2033;" horiz-adv-x="737" 
d="M102 997v500h211v-256q0 -49 -15 -90t-35.5 -72.5t-42 -52t-32.5 -29.5h-86zM434 997v500h211v-256q0 -49 -15.5 -90t-36 -72.5t-41 -52t-32.5 -29.5h-86z" />
    <glyph glyph-name="guilsinglleft" unicode="&#x2039;" horiz-adv-x="587" 
d="M86 449v98l315 385l121 -88l-237 -346l237 -344l-121 -88z" />
    <glyph glyph-name="guilsinglright" unicode="&#x203a;" horiz-adv-x="587" 
d="M66 154l237 346l-237 344l120 88l316 -383v-98l-316 -385z" />
    <glyph glyph-name="fraction" unicode="&#x2044;" horiz-adv-x="264" 
d="M-479 -41l1046 1448h178l-1044 -1448h-180z" />
    <glyph glyph-name="uni205F" unicode="&#x205f;" horiz-adv-x="470" 
 />
    <glyph glyph-name="Euro" unicode="&#x20ac;" 
d="M53 459v147h180v170h-180v148h180v196q0 109 73 177.5t202 68.5h442q117 0 178.5 -24.5t77.5 -41.5v-94h-635q-74 0 -102.5 -28.5t-28.5 -94.5v-159h541v-148h-541v-170h541v-147h-541v-180q0 -61 23.5 -91t101.5 -30h672v-95q-12 -14 -72.5 -38.5t-187.5 -24.5h-477
q-135 0 -201 67.5t-66 174.5v217h-180z" />
    <glyph glyph-name="trademark" unicode="&#x2122;" horiz-adv-x="1718" 
d="M70 1411v125h618v-125h-223v-627h-170v627h-225zM791 784v752h161l230 -381l225 381h172v-752h-170v467l-170 -274h-115l-176 276v-469h-157z" />
    <glyph glyph-name="approxequal" unicode="&#x2248;" 
d="M164 229q10 18 35.5 53t65.5 70t92.5 60.5t113.5 25.5q53 0 105.5 -18.5t102.5 -40t99 -38.5t99 -17q37 0 68.5 13t57 31.5t45 39t29.5 34.5l105 -67q-12 -25 -39 -59.5t-67 -67.5t-91 -55.5t-115 -22.5q-55 0 -106 18.5t-102.5 41t-100.5 41t-98 18.5q-37 0 -67.5 -15.5
t-55.5 -37t-43 -44t-27 -36.5zM164 606q10 18 35.5 53t65.5 71t92.5 61.5t113.5 25.5q53 0 105.5 -18.5t103.5 -40t100 -39t97 -17.5q37 0 68.5 13.5t57 32t45 39t29.5 34.5l105 -71q-12 -23 -39 -58t-67 -66.5t-91 -54t-115 -22.5q-55 0 -107 17.5t-102.5 39t-99.5 40
t-98 18.5q-37 0 -69 -15.5t-56.5 -36t-41.5 -42t-26 -35.5z" />
    <glyph glyph-name="notequal" unicode="&#x2260;" 
d="M178 227v162h342l129 209h-471v162h570l143 231h178l-141 -231h237v-162h-336l-129 -209h465v-162h-563l-139 -227h-180l139 227h-244z" />
    <glyph glyph-name="lessequal" unicode="&#x2264;" 
d="M178 524v176l996 293v-170l-791 -209l791 -206v-172zM184 0v170h987v-170h-987z" />
    <glyph glyph-name="greaterequal" unicode="&#x2265;" 
d="M178 236v172l791 208l-791 207v172l996 -286v-179zM180 0v170h987v-170h-987z" />
    <glyph glyph-name="uniE000" unicode="&#xe000;" horiz-adv-x="993" 
d="M0 0v993h993v-993h-993z" />
    <glyph glyph-name="uniFB01" unicode="&#xfb01;" horiz-adv-x="1175" 
d="M20 838v153h175v250q0 123 56 171t179 48h72q133 0 235 -78v-75h-245q-53 0 -75 -26t-22 -75v-215h277v-153h-277v-838h-200v838h-175zM819 1212v189h213v-189h-213zM825 0v991h203v-991h-203z" />
    <glyph glyph-name="uniFB02" unicode="&#xfb02;" horiz-adv-x="1183" 
d="M20 838v153h175v250q0 123 56 171t179 48h72q133 0 235 -78v-75h-245q-53 0 -75 -26t-22 -75v-215h277v-153h-277v-838h-200v838h-175zM840 0v1442l200 35v-1477h-200z" />
    </font>
</defs>
</svg>
