<svg xmlns="http://www.w3.org/2000/svg">
<defs>
<font id="EagleSans-Bold" horiz-adv-x="1378" >
  <font-face 
    font-family="EagleSans-Bold"
    font-weight="700"
    font-stretch="normal"
    units-per-em="2048"
    panose-1="2 0 5 4 3 0 0 2 0 4"
    ascent="1638"
    descent="-410"
    x-height="1014"
    cap-height="1366"
    bbox="-471 -553 2560 1968"
    underline-thickness="40"
    underline-position="-204"
    unicode-range="U+0020-FB02"
  />
<missing-glyph horiz-adv-x="2048" 
 />
    <glyph glyph-name=".notdef" horiz-adv-x="2048" 
 />
    <glyph glyph-name="glyph1" horiz-adv-x="0" 
 />
    <glyph glyph-name="glyph2" horiz-adv-x="2048" 
 />
    <glyph glyph-name="space" unicode=" " horiz-adv-x="557" 
 />
    <glyph glyph-name="exclam" unicode="!" horiz-adv-x="593" 
d="M188 0v256h283v-256h-283zM195 1366h272l-23 -950h-227z" />
    <glyph glyph-name="quotedbl" unicode="&#x22;" horiz-adv-x="933" 
d="M135 954v582h281v-311q0 -66 -24.5 -116t-53.5 -85q-35 -41 -76 -70h-127zM539 954v582h280v-311q0 -66 -24.5 -116t-53.5 -85q-35 -41 -75 -70h-127z" />
    <glyph glyph-name="numbersign" unicode="#" 
d="M82 373v196h203l39 236h-174v196h194l59 365h275l-62 -365h250l60 365h264l-62 -365h168v-196h-200l-37 -236h172v-196h-207l-59 -373h-263l62 373h-250l-61 -373h-260l61 373h-172zM547 569h250l37 236h-250z" />
    <glyph glyph-name="dollar" unicode="$" 
d="M137 860v221q0 141 86 213t234 72h145v252h162v-252h162q70 0 120 -11.5t80 -25.5q37 -16 60 -37v-139h-422v-356h162q156 0 237.5 -76t81.5 -205v-225q0 -135 -73.5 -213t-245.5 -78h-162v-317h-162v317h-199q-72 0 -119.5 11.5t-80.5 25.5q-37 16 -62 37v139h461v371
h-151q-162 0 -238 74.5t-76 201.5zM418 897q0 -100 108 -100h76v356h-70q-53 0 -83.5 -25.5t-30.5 -74.5v-156zM764 213h84q61 0 88 23.5t27 74.5v168q0 104 -121 105h-78v-371z" />
    <glyph glyph-name="percent" unicode="%" horiz-adv-x="2019" 
d="M113 829v338q0 100 62.5 149.5t154.5 49.5h260q104 0 156.5 -53t52.5 -146v-338q0 -92 -49.5 -140t-155.5 -48h-266q-215 0 -215 188zM340 -41l1108 1448h231l-1106 -1448h-233zM342 856q0 -35 39 -35h147q41 0 41 35v289q0 39 -41 39h-147q-39 0 -39 -39v-289zM1221 188
v338q0 100 62.5 149.5t154.5 49.5h260q104 0 156.5 -53.5t52.5 -145.5v-338q0 -92 -49.5 -140t-155.5 -48h-266q-215 0 -215 188zM1450 215q0 -35 39 -35h147q41 0 41 35v289q0 39 -41 39h-147q-39 0 -39 -39v-289z" />
    <glyph glyph-name="ampersand" unicode="&#x26;" horiz-adv-x="1523" 
d="M158 289v178q0 59 21.5 97t66.5 79l192 172l-39 49q-39 45 -55 84t-16 86v82q0 70 22.5 117t62.5 76.5t93 43t115 13.5h274q72 0 122 -13.5t83 -29.5q37 -18 63 -41v-121h-471q-53 0 -70.5 -16.5t-17.5 -52.5v-39q2 -37 15.5 -54.5t23.5 -31.5l371 -443l194 219l183 -147
l-226 -248l295 -348h-350l-125 152q-39 -41 -68.5 -70t-60.5 -47.5t-66.5 -26.5t-84.5 -8h-232q-160 0 -237.5 63.5t-77.5 225.5zM432 287q0 -45 22.5 -63.5t71.5 -18.5h95q43 0 61 6t45 33l96 98l-235 289l-125 -117q-20 -18 -25.5 -43t-5.5 -49v-135z" />
    <glyph glyph-name="quotesingle" unicode="'" horiz-adv-x="528" 
d="M125 954v582h281v-311q0 -66 -25 -116t-53 -85q-35 -41 -76 -70h-127z" />
    <glyph glyph-name="parenleft" unicode="(" horiz-adv-x="679" 
d="M121 379v610q0 139 28.5 244.5t87 182.5t147.5 131.5t212 92.5l82 -157q-86 -29 -143.5 -74t-92 -106.5t-49 -140.5t-14.5 -173v-610q0 -94 14.5 -173t49 -140.5t92 -107.5t143.5 -73l-82 -157q-123 37 -212 91t-147.5 132t-87 183.5t-28.5 244.5z" />
    <glyph glyph-name="parenright" unicode=")" horiz-adv-x="679" 
d="M4 -115q170 55 234.5 180t64.5 314v610q0 188 -64.5 313t-234.5 181l78 157q123 -39 213 -93t148.5 -131t87 -182.5t28.5 -244.5v-610q0 -139 -28.5 -244.5t-87 -183.5t-148.5 -132.5t-213 -90.5z" />
    <glyph glyph-name="asterisk" unicode="*" horiz-adv-x="1036" 
d="M88 1184l66 180l276 -94l-16 266h211l-15 -266l273 94l63 -180l-287 -72l191 -207l-172 -110l-162 223l-158 -223l-172 110l187 211z" />
    <glyph glyph-name="plus" unicode="+" 
d="M182 399v215h389v400h234v-400h389v-215h-389v-399h-234v399h-389z" />
    <glyph glyph-name="comma" unicode="," horiz-adv-x="528" 
d="M135 256h281v-106q0 -80 -24.5 -155t-53.5 -132q-35 -68 -76 -127h-127v520z" />
    <glyph glyph-name="hyphen" unicode="-" horiz-adv-x="831" 
d="M92 410v219h647v-219h-647z" />
    <glyph glyph-name="period" unicode="." horiz-adv-x="528" 
d="M125 0v256h281v-256h-281z" />
    <glyph glyph-name="slash" unicode="/" horiz-adv-x="985" 
d="M18 -102l674 1570h277l-674 -1570h-277z" />
    <glyph glyph-name="zero" unicode="0" horiz-adv-x="1398" 
d="M131 281v804q0 72 24.5 125.5t67.5 88t99.5 51t121.5 16.5h506q154 0 236 -74.5t82 -204.5v-806q0 -133 -78 -207t-234 -74h-514q-158 0 -234.5 72.5t-76.5 208.5zM412 324q0 -66 27.5 -88.5t92.5 -22.5h334q41 0 64.5 8t36 22.5t16.5 35t4 45.5v720q0 53 -29.5 81
t-95.5 28h-327q-68 0 -95.5 -27.5t-27.5 -81.5v-720z" />
    <glyph glyph-name="one" unicode="1" horiz-adv-x="1155" 
d="M170 0v213h297v920l-289 -37v166l322 104h250v-1153h292v-213h-872z" />
    <glyph glyph-name="two" unicode="2" horiz-adv-x="1304" 
d="M111 0v330q0 59 26.5 110.5t104.5 98.5l649 397v100q0 61 -28.5 89t-106.5 28h-606v139q23 20 61 37q33 14 86 25.5t131 11.5h422q145 0 234.5 -68.5t89.5 -197.5v-146q0 -86 -24 -136t-89 -87l-670 -395v-123h803v-213h-1083z" />
    <glyph glyph-name="three" unicode="3" horiz-adv-x="1280" 
d="M111 1153v139q25 20 63 37q35 14 87 25.5t130 11.5h432q141 0 228.5 -70.5t87.5 -216.5v-172q0 -55 -21.5 -93t-48.5 -60.5t-51.5 -31.5t-32.5 -11q4 -2 33 -9.5t60.5 -27t58 -56t26.5 -98.5v-235q0 -61 -16.5 -112.5t-53 -90.5t-96 -60.5t-145.5 -21.5h-453
q-78 0 -131 11.5t-86 25.5q-39 16 -61 37v139h639q74 0 98.5 25.5t24.5 89.5v145q0 57 -29 86t-94 29h-393v213h376q66 0 90.5 25.5t24.5 78.5v139q0 109 -123 109h-624z" />
    <glyph glyph-name="four" unicode="4" horiz-adv-x="1351" 
d="M86 315v201l702 850h281v-838h221v-213h-221v-315h-281v315h-702zM369 528h419v502z" />
    <glyph glyph-name="five" unicode="5" horiz-adv-x="1300" 
d="M131 74v139h625q78 0 104.5 23.5t26.5 85.5v188q0 109 -127 108h-608v748h950v-213h-699v-322h449q160 0 238.5 -78.5t78.5 -201.5v-262q0 -55 -14 -107.5t-50 -92.5t-97.5 -64.5t-157.5 -24.5h-381q-74 0 -129 8t-95 19.5t-67.5 23.5t-46.5 23z" />
    <glyph glyph-name="six" unicode="6" horiz-adv-x="1345" 
d="M131 272v822q0 121 83 196.5t226 75.5h406q70 0 124 -11.5t91 -25.5q43 -16 76 -37v-139h-596q-66 0 -97.5 -22.5t-31.5 -94.5v-301q41 41 98 60.5t129 19.5h256q166 0 248 -70.5t82 -205.5v-271q0 -127 -83 -197.5t-218 -70.5h-492q-141 0 -221 71.5t-80 200.5zM412 328
q0 -39 6 -61.5t21.5 -35t40 -15.5t59.5 -3h284q66 0 93.5 25.5t27.5 80.5v168q0 115 -119 115h-186q-47 0 -80 -2t-58.5 -6t-47 -11.5t-41.5 -17.5v-237z" />
    <glyph glyph-name="seven" unicode="7" horiz-adv-x="1161" 
d="M45 1153v213h1055v-192l-590 -1174h-309l594 1153h-750z" />
    <glyph glyph-name="eight" unicode="8" 
d="M131 291v229q0 57 21.5 92t49 55.5t55.5 29t42 12.5q-12 2 -36.5 11t-48.5 29.5t-42 57.5t-18 94v186q0 123 78.5 201t242.5 78h428q88 0 149.5 -21.5t100.5 -59.5t57.5 -89t18.5 -109v-186q0 -55 -17.5 -92t-42 -58.5t-50 -30.5t-40.5 -11q14 -4 43 -12.5t56.5 -29
t48 -55t20.5 -92.5v-233q0 -61 -16.5 -113.5t-53 -90.5t-98 -60.5t-149.5 -22.5h-481q-90 0 -151.5 21.5t-98.5 60.5t-52.5 92t-15.5 117zM412 326q0 -59 22.5 -86t91.5 -27h324q63 0 90 23.5t27 80.5v170q0 109 -117 109h-322q-66 0 -91 -29.5t-25 -83.5v-157zM434 909
q0 -100 107 -100h290q66 0 91.5 24.5t25.5 79.5v134q0 106 -117 106h-278q-63 0 -91 -27.5t-28 -85.5v-131z" />
    <glyph glyph-name="nine" unicode="9" horiz-adv-x="1335" 
d="M111 829v269q0 127 82.5 197.5t218.5 70.5h491q141 0 221 -71.5t80 -200.5v-822q0 -121 -83 -196.5t-226 -75.5h-446q-72 0 -125.5 11.5t-90.5 25.5q-43 16 -75 37v139h637q66 0 97.5 22.5t31.5 94.5v303q-41 -41 -98.5 -60.5t-129.5 -19.5h-256q-166 0 -247.5 70.5
t-81.5 205.5zM391 881q0 -115 119 -115h186q47 0 80 2t58.5 6t46 11.5t43.5 17.5v235q0 78 -29 96.5t-98 18.5h-285q-66 0 -93.5 -25.5t-27.5 -80.5v-166z" />
    <glyph glyph-name="colon" unicode=":" horiz-adv-x="528" 
d="M168 0v256h283v-256h-283zM168 635v256h283v-256h-283z" />
    <glyph glyph-name="semicolon" unicode=";" horiz-adv-x="528" 
d="M168 256h283v-106q0 -80 -25 -155t-53 -132q-35 -68 -76 -127h-129v520zM168 635v256h283v-256h-283z" />
    <glyph glyph-name="less" unicode="&#x3c;" 
d="M182 391v232l1022 372v-227l-749 -252l749 -264v-225z" />
    <glyph glyph-name="equal" unicode="=" 
d="M182 205v215h1012v-215h-1012zM182 594v215h1012v-215h-1012z" />
    <glyph glyph-name="greater" unicode="&#x3e;" 
d="M182 27v227l750 252l-750 264v225l1022 -364v-232z" />
    <glyph glyph-name="question" unicode="?" horiz-adv-x="972" 
d="M96 1161v123q14 23 51 41q31 16 85.5 28.5t140.5 12.5h217q158 0 240.5 -76t82.5 -194v-90q0 -63 -11 -100.5t-58 -74.5l-269 -221v-194h-272v188q0 49 18.5 78t55.5 61l262 228v92q0 98 -133 98h-410zM297 0v256h283v-256h-283z" />
    <glyph glyph-name="at" unicode="@" horiz-adv-x="2342" 
d="M215 129v748q0 121 41 223t118 176t188.5 116t250.5 42h784q283 0 407 -129t124 -371v-645q0 -131 -73 -210t-234 -79h-484l-14 102q-25 -29 -57 -51q-29 -20 -67 -35.5t-85 -15.5h-92q-160 0 -228.5 70.5t-68.5 212.5v456q0 57 16.5 107.5t51 87.5t90 58.5t133.5 21.5
h575v-809h121q84 0 112.5 21.5t28.5 86.5v602q0 84 -14 143.5t-51 97.5t-100.5 55.5t-161.5 17.5h-621q-104 0 -182 -18.5t-130 -62.5t-78 -117t-26 -181v-690q0 -98 21.5 -172t72 -123t132.5 -73.5t203 -24.5h677v-205h-755q-324 0 -474.5 149.5t-150.5 417.5zM999 293
q0 -49 18.5 -68.5t88.5 -19.5h74q63 0 94 8t41 16v580h-193q-49 0 -73.5 -9t-36 -24.5t-12.5 -37t-1 -46.5v-399z" />
    <glyph glyph-name="A" unicode="A" horiz-adv-x="1331" 
d="M-20 0l512 1366h352l508 -1366h-318l-123 362h-497l-121 -362h-313zM489 590h345l-172 518z" />
    <glyph glyph-name="B" unicode="B" horiz-adv-x="1370" 
d="M145 0v1366h752q172 0 249 -79t77 -208v-178q0 -59 -19.5 -96t-44 -58.5t-48.5 -29.5t-32 -8q6 -2 35 -9.5t60.5 -28t57 -59.5t25.5 -102v-225q0 -59 -16 -111.5t-54 -91.5t-97.5 -60.5t-145.5 -21.5h-799zM428 213h428q68 0 93.5 24.5t25.5 77.5v168q0 106 -119 107
h-428v-377zM428 803h395q63 0 91 22.5t28 77.5v139q0 49 -25.5 80t-91.5 31h-397v-350z" />
    <glyph glyph-name="C" unicode="C" horiz-adv-x="1224" 
d="M135 272v818q0 127 83 201.5t231 74.5h436q70 0 120 -11.5t82 -25.5q37 -16 64 -37v-139h-619q-53 0 -83.5 -24.5t-30.5 -77.5v-740q0 -47 23.5 -72.5t82.5 -25.5h650v-139q-27 -20 -64 -37q-35 -14 -86 -25.5t-129 -11.5h-459q-154 0 -227.5 77t-73.5 195z" />
    <glyph glyph-name="D" unicode="D" horiz-adv-x="1468" 
d="M145 0v1366h875q154 0 233.5 -79t79.5 -202v-798q0 -147 -82 -217t-233 -70h-873zM430 213h498q74 0 99.5 24.5t25.5 86.5v714q0 59 -17.5 87t-89.5 28h-516v-940z" />
    <glyph glyph-name="E" unicode="E" horiz-adv-x="1236" 
d="M145 0v1366h1031v-213h-748v-338h621v-215h-621v-387h768v-213h-1051z" />
    <glyph glyph-name="F" unicode="F" horiz-adv-x="1171" 
d="M145 0v1366h1031v-213h-750v-350h623v-213h-623v-590h-281z" />
    <glyph glyph-name="G" unicode="G" horiz-adv-x="1409" 
d="M135 272v822q0 121 83 196.5t226 75.5h496q70 0 119 -11.5t82 -25.5q37 -16 61 -37v-139h-655q-66 0 -97.5 -22.5t-31.5 -94.5v-706q0 -72 27.5 -94.5t99.5 -22.5h338q66 0 93.5 22.5t27.5 77.5v279h-349v217h629v-541q0 -127 -83 -197.5t-218 -70.5h-547
q-141 0 -221 71.5t-80 200.5z" />
    <glyph glyph-name="H" unicode="H" horiz-adv-x="1443" 
d="M145 0v1366h283v-551h588v551h282v-1366h-282v600h-588v-600h-283z" />
    <glyph glyph-name="I" unicode="I" horiz-adv-x="573" 
d="M145 0v1366h283v-1366h-283z" />
    <glyph glyph-name="J" unicode="J" horiz-adv-x="1249" 
d="M94 285v219l283 47v-229q0 -59 25.5 -84t91.5 -25h217q59 0 86.5 22.5t27.5 81.5v1049h281v-1090q0 -133 -81 -204.5t-224 -71.5h-402q-147 0 -226 75t-79 210z" />
    <glyph glyph-name="K" unicode="K" horiz-adv-x="1261" 
d="M145 0v1366h285v-602l512 602h330l-541 -639l572 -727h-340l-418 537l-115 -123v-414h-285z" />
    <glyph glyph-name="L" unicode="L" horiz-adv-x="1179" 
d="M145 0v1366h283v-1153h719v-213h-1002z" />
    <glyph glyph-name="M" unicode="M" horiz-adv-x="1673" 
d="M145 0v1366h289l408 -750l401 750h285v-1366h-283v836l-287 -531h-233l-295 526v-831h-285z" />
    <glyph glyph-name="N" unicode="N" horiz-adv-x="1454" 
d="M145 0v1366h306l577 -920v920h281v-1366h-320l-561 899v-899h-283z" />
    <glyph glyph-name="O" unicode="O" horiz-adv-x="1478" 
d="M135 281v804q0 72 24.5 125.5t67.5 88t99.5 51t122.5 16.5h577q152 0 234.5 -74.5t82.5 -204.5v-806q0 -133 -78.5 -207t-234.5 -74h-584q-156 0 -233.5 72.5t-77.5 208.5zM418 324q0 -66 26.5 -88.5t92.5 -22.5h403q41 0 65.5 8t37 22.5t15.5 35t3 45.5v720
q0 53 -28.5 81t-94.5 28h-399q-68 0 -94.5 -27.5t-26.5 -81.5v-720z" />
    <glyph glyph-name="P" unicode="P" horiz-adv-x="1316" 
d="M145 0v1366h783q166 0 243.5 -79t77.5 -208v-309q0 -139 -83 -207.5t-224 -68.5h-514v-494h-283zM428 707h424q66 0 91.5 24.5t25.5 77.5v229q0 55 -27 85t-92 30h-422v-446z" />
    <glyph glyph-name="Q" unicode="Q" horiz-adv-x="1478" 
d="M135 281v804q0 72 24.5 125.5t67.5 88t99.5 51t122.5 16.5h577q152 0 234.5 -74.5t82.5 -204.5v-806q0 -133 -78.5 -207t-234.5 -74h-153v-80v-11q0 -50 17 -65q19 -18 79 -18h155v-219h-243q-141 0 -215 64.5t-74 199.5v129h-150q-156 0 -233.5 72.5t-77.5 208.5z
M418 324q0 -66 26.5 -88.5t92.5 -22.5h403q41 0 65.5 8t37 22.5t15.5 35t3 45.5v720q0 53 -28.5 81t-94.5 28h-399q-68 0 -94.5 -27.5t-26.5 -81.5v-720z" />
    <glyph glyph-name="R" unicode="R" horiz-adv-x="1351" 
d="M145 0v1366h770q166 0 244 -79t78 -208v-268q0 -139 -84 -207.5t-225 -68.5h-54l478 -535h-355l-460 535h-107v-535h-285zM430 748h408q66 0 91 24.5t25 77.5v188q0 55 -26.5 85t-91.5 30h-406v-405z" />
    <glyph glyph-name="S" unicode="S" horiz-adv-x="1288" 
d="M102 860v221q0 141 86 213t234 72h444q70 0 120 -11.5t81 -25.5q37 -16 59 -37v-139h-628q-53 0 -84 -25.5t-31 -74.5v-156q0 -100 109 -100h374q156 0 238 -76t82 -205v-225q0 -135 -74 -213t-246 -78h-497q-72 0 -120 11.5t-81 25.5q-37 16 -62 37v139h682
q61 0 88 23.5t27 74.5v168q0 104 -121 105h-366q-162 0 -238 74.5t-76 201.5z" />
    <glyph glyph-name="T" unicode="T" horiz-adv-x="1257" 
d="M0 1153v213h1257v-213h-483v-1153h-285v1153h-489z" />
    <glyph glyph-name="U" unicode="U" horiz-adv-x="1454" 
d="M141 270v1096h283v-1053q0 -47 23.5 -73.5t84.5 -26.5h369q74 0 102.5 21.5t28.5 91.5v1040h281v-1092q0 -123 -76 -198.5t-229 -75.5h-564q-135 0 -219 67.5t-84 202.5z" />
    <glyph glyph-name="V" unicode="V" horiz-adv-x="1341" 
d="M0 1366h322l354 -1051l358 1051h307l-512 -1366h-321z" />
    <glyph glyph-name="W" unicode="W" horiz-adv-x="1759" 
d="M-12 1366h325l205 -971l209 971h315l228 -981l192 981h310l-336 -1366h-346l-209 954l-219 -954h-340z" />
    <glyph glyph-name="X" unicode="X" horiz-adv-x="1310" 
d="M-20 0l507 711l-479 655h357l294 -444l295 444h314l-465 -641l528 -725h-352l-340 516l-344 -516h-315z" />
    <glyph glyph-name="Y" unicode="Y" horiz-adv-x="1261" 
d="M-29 1366h328l334 -530l348 530h309l-520 -743v-623h-285v614z" />
    <glyph glyph-name="Z" unicode="Z" horiz-adv-x="1261" 
d="M59 0v170l750 983h-721v213h1098v-166l-762 -987h770v-213h-1135z" />
    <glyph glyph-name="bracketleft" unicode="[" horiz-adv-x="679" 
d="M121 -231v1828h526v-204h-268v-1420h268v-204h-526z" />
    <glyph glyph-name="backslash" unicode="\" horiz-adv-x="985" 
d="M18 1468h277l674 -1570h-277z" />
    <glyph glyph-name="bracketright" unicode="]" horiz-adv-x="679" 
d="M33 -27h268v1420h-268v204h526v-1828h-526v204z" />
    <glyph glyph-name="asciicircum" unicode="^" 
d="M106 979l476 625h215l481 -625l-238 -90l-352 485l-358 -485z" />
    <glyph glyph-name="underscore" unicode="_" horiz-adv-x="1024" 
d="M-10 -279h1044v-233h-1044v233z" />
    <glyph glyph-name="grave" unicode="`" horiz-adv-x="962" 
d="M256 1468h305l144 -313h-209z" />
    <glyph glyph-name="a" unicode="a" horiz-adv-x="1134" 
d="M113 229v168q0 111 74.5 167.5t211.5 56.5h330v77q0 53 -27.5 82t-111.5 29h-430v123q18 23 55 41q31 16 82 28.5t131 12.5h252q147 0 235.5 -66.5t88.5 -202.5v-745h-244l-21 115q-16 -33 -43 -58q-23 -23 -59.5 -40t-89.5 -17h-150q-158 0 -221 55.5t-63 173.5z
M387 274q0 -39 19.5 -54t58.5 -15h264v211h-260q-82 0 -82 -74v-68z" />
    <glyph glyph-name="b" unicode="b" horiz-adv-x="1241" 
d="M141 0v1458l273 47v-592q27 35 78 68t143 33h166q147 0 232 -74t85 -215v-446q0 -133 -80 -206t-227 -73h-186q-129 0 -215 102l-17 -102h-252zM414 227q41 -22 142 -22h9h164q113 0 113 91v9v404q0 100 -115 100h-186q-41 0 -64.5 -4t-38.5 -8q-16 -6 -24 -13v-557z" />
    <glyph glyph-name="c" unicode="c" horiz-adv-x="1042" 
d="M125 268v471q0 127 83 201t236 74h244q80 0 131 -13.5t82 -29.5q35 -18 53 -41v-121h-442q-53 0 -83 -24.5t-30 -77.5v-402q0 -47 25 -73.5t86 -26.5h459v-121q-16 -25 -51 -43q-31 -16 -84.5 -28.5t-143.5 -12.5h-264q-150 0 -225.5 73.5t-75.5 194.5z" />
    <glyph glyph-name="d" unicode="d" horiz-adv-x="1241" 
d="M123 279v446q0 141 85 215t232 74h166q92 0 143.5 -33t77.5 -68v543l273 47v-1503h-252l-17 102q-86 -102 -215 -102h-186q-147 0 -227 72.5t-80 206.5zM399 305v-9q0 -91 113 -91h164q109 0 151 22v557q-8 6 -24 13q-14 4 -39 8t-64 4h-186q-115 0 -115 -100v-404z" />
    <glyph glyph-name="e" unicode="e" horiz-adv-x="1179" 
d="M125 281v444q0 78 24.5 132t68.5 89t105.5 51.5t135.5 16.5h262q162 0 245 -75t83 -204v-319h-650v-115q0 -51 20.5 -73.5t90.5 -22.5h530v-121q-16 -25 -49 -43q-29 -16 -79 -28.5t-130 -12.5h-338q-319 0 -319 281zM399 621h373v88q0 55 -23.5 77.5t-86.5 22.5h-152
q-68 0 -89.5 -27.5t-21.5 -70.5v-90z" />
    <glyph glyph-name="f" unicode="f" horiz-adv-x="804" 
d="M51 809v205h146v174q0 53 9 106.5t36.5 95.5t78 67.5t134.5 25.5h123q72 0 122 -15.5t82 -33.5q37 -23 64 -48v-108h-266q-53 0 -80 -21.5t-27 -76.5v-166h299v-205h-299v-809h-276v809h-146z" />
    <glyph glyph-name="g" unicode="g" horiz-adv-x="1241" 
d="M123 274v447q0 129 75.5 211t247.5 82h170q63 0 116.5 -23.5t94.5 -75.5l21 99h252v-1123q0 -143 -84 -210.5t-236 -67.5h-305q-68 0 -124 12.5t-97 28.5q-49 18 -86 41v123h541q63 0 90.5 22.5t27.5 83.5v174q0 -2 -14 -17t-39.5 -33.5t-64.5 -33t-91 -14.5h-196
q-139 0 -219 72.5t-80 201.5zM399 307q0 -57 26 -79.5t89 -22.5h193q63 0 94 10q16 6 26 12v559q-29 16 -62.5 19.5t-74.5 3.5h-176q-115 0 -115 -96v-406z" />
    <glyph glyph-name="h" unicode="h" horiz-adv-x="1220" 
d="M141 0v1450l277 47v-584q4 6 20.5 22.5t44 34t65.5 31t85 13.5h137q162 0 239.5 -79t77.5 -206v-729h-274v705q0 49 -30.5 76.5t-80.5 27.5h-120q-47 0 -79 -7t-50 -16q-23 -10 -35 -22v-764h-277z" />
    <glyph glyph-name="i" unicode="i" horiz-adv-x="563" 
d="M143 0v1014h277v-1014h-277zM143 1217v231h277v-231h-277z" />
    <glyph glyph-name="j" unicode="j" horiz-adv-x="555" 
d="M-41 -182h74q37 0 58.5 4t33.5 15t15 31.5t3 53.5v1092h275v-1143q0 -123 -74 -190.5t-217 -67.5h-168v205zM143 1217v231h275v-231h-275z" />
    <glyph glyph-name="k" unicode="k" horiz-adv-x="1103" 
d="M141 0v1456l269 47v-889l340 400h331l-387 -434l439 -580h-330l-289 387l-104 -113v-274h-269z" />
    <glyph glyph-name="l" unicode="l" horiz-adv-x="555" 
d="M141 0v1458l273 47v-1505h-273z" />
    <glyph glyph-name="m" unicode="m" horiz-adv-x="1685" 
d="M141 0v1014h262l11 -105q18 29 43 52q23 20 56.5 36.5t80.5 16.5h123q100 0 145 -28t68 -77q16 29 41 52q23 20 56.5 36.5t80.5 16.5h123q164 0 242.5 -78t78.5 -207v-729h-274v705q0 51 -30.5 77.5t-84.5 26.5h-82q-31 0 -51 -4t-33 -8q-14 -6 -22 -13q2 -8 4 -18
t4 -25.5t2 -38.5v-702h-276v702q0 55 -22.5 81t-84.5 26h-59q-35 0 -57.5 -5t-39.5 -9q-18 -6 -28 -13v-782h-277z" />
    <glyph glyph-name="n" unicode="n" horiz-adv-x="1220" 
d="M141 0v1014h256l13 -105q25 29 59 52q29 20 70 36.5t94 16.5h137q162 0 239.5 -77t77.5 -204v-733h-272v723q0 49 -30.5 67.5t-79.5 18.5h-123q-47 0 -79 -7t-52 -16q-23 -10 -37 -22v-764h-273z" />
    <glyph glyph-name="o" unicode="o" horiz-adv-x="1222" 
d="M125 281v452q0 72 24.5 125t67.5 88t99.5 51.5t119.5 16.5h346q154 0 236 -76t82 -205v-452q0 -133 -79 -207t-235 -74h-352q-156 0 -232.5 72.5t-76.5 208.5zM399 315q0 -66 27 -88t92 -22h184q41 0 66 8t37 22.5t16 35t4 44.5v385q0 53 -29.5 81t-95.5 28h-180
q-68 0 -94.5 -27.5t-26.5 -81.5v-385z" />
    <glyph glyph-name="p" unicode="p" horiz-adv-x="1241" 
d="M141 -387v1401h252l17 -103q86 102 215 103h186q147 0 227 -73t80 -206v-446q0 -141 -85 -215t-232 -74h-166q-92 0 -143.5 33t-77.5 67v-487h-273zM414 229q8 -6 24 -12q14 -4 38 -8t65 -4h186q115 0 115 100v404q0 53 -27 76.5t-86 23.5h-164q-109 0 -151 -23v-557z
" />
    <glyph glyph-name="q" unicode="q" horiz-adv-x="1241" 
d="M123 289v446q0 133 80 206t227 73h186q129 0 215 -103l17 103h252v-1401h-273v487q-27 -35 -78 -67.5t-143 -32.5h-166q-147 0 -232 73.5t-85 215.5zM399 305q0 -100 115 -100h186q39 0 63.5 4t39.5 8q16 6 24 12v557q-43 23 -151 23h-164q-113 0 -113 -91v-9v-404z" />
    <glyph glyph-name="r" unicode="r" horiz-adv-x="829" 
d="M141 0v1014h265l10 -94q12 25 33 47q16 16 41.5 31.5t60.5 15.5h299l-68 -226h-254q-27 0 -47 -5t-35 -11q-18 -8 -30 -14v-758h-275z" />
    <glyph glyph-name="s" unicode="s" horiz-adv-x="1085" 
d="M109 84v121h503q59 0 82 20.5t23 67.5v37q0 39 -17.5 60.5t-76.5 21.5h-269q-113 0 -179 58t-66 159v112q0 135 91 204t236 69h203q80 0 133 -13.5t88 -29.5q39 -18 64 -41v-121h-443q-70 0 -84 -23.5t-14 -62.5v-41q0 -31 17.5 -48.5t64.5 -17.5h262q141 0 202.5 -65.5
t61.5 -169.5v-111q0 -131 -83 -200.5t-253 -69.5h-260q-80 0 -134 12.5t-89 28.5q-39 18 -63 43z" />
    <glyph glyph-name="t" unicode="t" horiz-adv-x="817" 
d="M23 809v205h145v319l276 43v-362h318v-205h-318v-506q0 -55 27 -76.5t80 -22.5h246v-108q-31 -27 -74 -49q-37 -18 -90 -32.5t-125 -14.5h-82q-84 0 -134 25.5t-78 67.5t-37 95.5t-9 106.5v514h-145z" />
    <glyph glyph-name="u" unicode="u" horiz-adv-x="1220" 
d="M133 281v733h275v-715q0 -49 28.5 -71.5t81.5 -22.5h121q47 0 78 6t51 16q23 8 37 23v764h274v-1014h-254l-14 104q-25 -31 -59 -53q-29 -20 -70 -35.5t-94 -15.5h-137q-170 0 -244 77t-74 204z" />
    <glyph glyph-name="v" unicode="v" horiz-adv-x="1101" 
d="M23 1014h299l233 -713l233 713h291l-387 -1014h-289z" />
    <glyph glyph-name="w" unicode="w" horiz-adv-x="1601" 
d="M33 1014h303l166 -637l180 637h256l184 -639l164 639h283l-324 -1014h-262l-188 610l-191 -610h-248z" />
    <glyph glyph-name="x" unicode="x" horiz-adv-x="1089" 
d="M0 0l391 516l-371 498h328l199 -305l201 305h296l-354 -471l400 -543h-328l-230 340l-233 -340h-299z" />
    <glyph glyph-name="y" unicode="y" horiz-adv-x="1062" 
d="M10 1014h307l232 -647l209 647h295l-512 -1401h-277l150 418z" />
    <glyph glyph-name="z" unicode="z" horiz-adv-x="1056" 
d="M74 0v162l540 647h-501v205h870v-156l-563 -653h563v-205h-909z" />
    <glyph glyph-name="braceleft" unicode="{" horiz-adv-x="679" 
d="M0 588v190q51 0 82 8.5t48 25.5t23.5 45t6.5 69v299q0 115 25.5 187.5t73.5 113.5t114.5 56t146.5 15h160v-184h-51q-74 0 -116 -3t-63.5 -25.5t-26.5 -72.5t-5 -145v-321q0 -45 -21.5 -76t-48 -49.5t-51.5 -26.5t-33 -10q6 -2 30.5 -10t52.5 -26.5t49.5 -49.5t21.5 -76
v-329q0 -92 6 -141.5t27.5 -71t63.5 -24.5t114 -3h51v-184h-160q-84 0 -150.5 16t-112.5 58t-71.5 113t-25.5 181v312q0 41 -7.5 67.5t-24.5 42.5t-48 22.5t-80 6.5z" />
    <glyph glyph-name="bar" unicode="|" 
d="M571 -297v1864h232v-1864h-232z" />
    <glyph glyph-name="braceright" unicode="}" horiz-adv-x="679" 
d="M0 -47h51q72 0 114 3t63.5 24.5t27.5 70.5t6 142v329q0 45 21.5 76t48 49.5t51.5 26.5t31 10q-6 2 -31 10t-51.5 26.5t-48 49.5t-21.5 76v321q0 94 -5 144.5t-26.5 73t-63.5 25.5t-116 3h-51v184h160q80 0 146.5 -15t114.5 -56t73.5 -114t25.5 -187v-299q0 -41 6 -69
t23.5 -45t48.5 -25.5t82 -8.5v-190q-49 0 -80 -6.5t-48 -22.5t-24.5 -43t-7.5 -67v-312q0 -111 -25.5 -181.5t-71.5 -112.5t-113.5 -58t-149.5 -16h-160v184z" />
    <glyph glyph-name="asciitilde" unicode="~" 
d="M160 424q18 33 47 75t70.5 79.5t95 63.5t121.5 26q53 0 103 -16.5t99 -37t97.5 -37t97.5 -16.5q35 0 64.5 12.5t53 31t41 38t27.5 33.5l142 -84q-14 -31 -43 -72t-71 -76.5t-98.5 -61.5t-123.5 -26q-53 0 -103.5 17.5t-99.5 37t-98.5 37t-98.5 17.5q-35 0 -63.5 -14.5
t-51 -35t-39 -43t-24.5 -36.5z" />
    <glyph glyph-name="uni00A0" unicode="&#xa0;" horiz-adv-x="505" 
 />
    <glyph glyph-name="exclamdown" unicode="&#xa1;" horiz-adv-x="593" 
d="M123 1110v256h283v-256h-283zM125 0l22 950h230l20 -950h-272z" />
    <glyph glyph-name="cent" unicode="&#xa2;" 
d="M176 268v471q0 127 83 201t237 74h186v317h162v-317h100q80 0 131 -13.5t82 -29.5q35 -18 53 -41v-121h-366v-604h381v-121q-16 -25 -51 -43q-31 -16 -84.5 -28.5t-143.5 -12.5h-102v-317h-162v317h-205q-150 0 -225.5 73.5t-75.5 194.5zM451 305q0 -47 24.5 -73.5
t85.5 -26.5h121v604h-119q-53 0 -82.5 -24.5t-29.5 -77.5v-402z" />
    <glyph glyph-name="sterling" unicode="&#xa3;" 
d="M63 590v192h197v308q0 117 79 196.5t230 79.5h392q76 0 128 -11.5t85 -25.5q37 -16 61 -37v-139h-580q-113 0 -112 -111v-260h491v-192h-491v-377h735v-141q-25 -20 -66 -37q-35 -14 -91 -24.5t-140 -10.5h-887v213h166v377h-197z" />
    <glyph glyph-name="currency" unicode="&#xa4;" 
d="M90 242l186 194q-47 57 -64 117.5t-17 130.5q0 66 17 126t64 120l-186 192l154 144l186 -185q53 41 120.5 57.5t139.5 16.5q70 0 137.5 -18.5t120.5 -59.5l189 189l153 -144l-188 -184q47 -57 63.5 -121.5t16.5 -130.5q0 -70 -17.5 -136.5t-64.5 -123.5l182 -186
l-152 -144l-188 189q-53 -41 -118.5 -59.5t-135.5 -18.5q-72 0 -138.5 17.5t-121.5 56.5l-186 -185zM451 682q0 -51 14 -95t45 -78t77 -53.5t109 -19.5q57 0 100.5 21.5t72 56.5t43 79t14.5 89q0 47 -14.5 92t-44 79t-74.5 54.5t-105 20.5q-59 0 -104 -20.5t-75 -54.5
t-44 -79t-14 -92z" />
    <glyph glyph-name="yen" unicode="&#xa5;" 
d="M29 1366h327l334 -489l348 489h310l-347 -467h250v-192h-393l-31 -43v-93h424v-192h-424v-379h-284v379h-418v192h418v84l-37 52h-381v192h242z" />
    <glyph glyph-name="brokenbar" unicode="&#xa6;" 
d="M571 -297v635h232v-635h-232zM571 932v635h232v-635h-232z" />
    <glyph glyph-name="section" unicode="&#xa7;" horiz-adv-x="1306" 
d="M178 -143h545q59 0 81.5 20.5t22.5 67.5v98q0 39 -18 53.5t-76 28.5l-291 70q-53 12 -101 30.5t-84 47t-56.5 71.5t-20.5 109v165q0 45 16.5 78t37 53.5t39 31t22.5 12.5l-11 6q-10 6 -22 20.5t-22.5 40t-10.5 64.5v200q0 127 74 184.5t211 57.5h311q80 0 133.5 -13.5
t88.5 -29.5q39 -18 63 -41v-121h-508q-70 0 -84 -23.5t-14 -62.5v-88q0 -31 18.5 -42t63.5 -23l286 -72q68 -16 118 -36.5t84 -52.5t50.5 -79t16.5 -119v-119q0 -59 -16.5 -98t-37.5 -61q-23 -27 -53 -39q18 -10 33 -33q12 -18 23.5 -48t11.5 -71v-213q0 -131 -75 -180
t-208 -49h-356q-80 0 -134.5 12t-88.5 29q-39 18 -62 43v121zM465 494q0 -31 11 -62t71 -45l270 -65q10 4 19 16q8 10 14 30.5t6 55.5v111v36.5t-7 34t-23.5 28.5t-49.5 21l-274 70q-10 -8 -19 -20q-8 -10 -13 -29t-5 -47v-135z" />
    <glyph glyph-name="dieresis" unicode="&#xa8;" horiz-adv-x="962" 
d="M139 1217v231h277v-231h-277zM547 1217v231h276v-231h-276z" />
    <glyph glyph-name="copyright" unicode="&#xa9;" horiz-adv-x="1402" 
d="M0 281v804q0 72 24.5 125.5t67.5 88t99.5 51t121.5 16.5h772q154 0 236 -74.5t82 -204.5v-806q0 -133 -78 -207t-233 -74h-781q-158 0 -234.5 72.5t-76.5 208.5zM217 305q0 -68 28.5 -91.5t98.5 -23.5h715q84 0 105.5 32t21.5 83v758q0 57 -31 85t-100 28h-709
q-72 0 -100.5 -29t-28.5 -84v-758zM381 518v340q0 92 60.5 144.5t170.5 52.5h195q57 0 94 -10.5t60 -20.5q25 -12 38 -29v-88h-319q-37 0 -58.5 -17.5t-21.5 -55.5v-287q0 -35 18.5 -54.5t61.5 -19.5h330v-88q-12 -18 -37 -31q-23 -10 -61 -19t-103 -9h-209q-111 0 -165 53
t-54 139z" />
    <glyph glyph-name="ordfeminine" unicode="&#xaa;" horiz-adv-x="757" 
d="M94 897v70q0 156 180 155h164v58q0 16 -9 23t-38 7h-270v88q14 18 39 33q23 12 56.5 23.5t84.5 11.5h141q96 0 153.5 -44t57.5 -136v-449h-196v68q-37 -68 -109 -68h-74q-106 0 -143 39t-37 121zM100 426v174h562v-174h-562zM309 905q0 -12 13 -12h116v94h-114
q-14 0 -15 -12v-70z" />
    <glyph glyph-name="guillemotleft" unicode="&#xab;" horiz-adv-x="1112" 
d="M104 442v133l312 394l170 -119l-211 -342l211 -340l-170 -119zM555 442v133l311 394l170 -119l-211 -342l211 -340l-170 -119z" />
    <glyph glyph-name="logicalnot" unicode="&#xac;" 
d="M182 399v215h1012v-614h-233v399h-779z" />
    <glyph glyph-name="uni00AD" unicode="&#xad;" horiz-adv-x="831" 
d="M92 410v219h647v-219h-647z" />
    <glyph glyph-name="registered" unicode="&#xae;" horiz-adv-x="897" 
d="M0 903v475q0 92 56.5 148.5t170.5 56.5h445q115 0 170 -56.5t55 -148.5v-475q0 -92 -55.5 -148.5t-169.5 -56.5h-445q-115 0 -171 56.5t-56 148.5zM123 954q0 -41 5 -69.5t21.5 -47t47 -26.5t82.5 -8h339q51 0 82 8t47.5 26.5t21.5 47t5 69.5v373q0 41 -5 69.5t-21.5 47
t-47 27t-82.5 8.5h-339q-51 0 -82 -8.5t-47.5 -27t-21.5 -47t-5 -69.5v-373zM248 915v461h301q55 0 78.5 -25.5t23.5 -68.5v-106q0 -43 -26.5 -69t-77.5 -26h-10l135 -166h-142l-131 166h-37v-166h-114zM362 1184h138q23 0 29 11t6 28v22q0 16 -6.5 24.5t-28.5 8.5h-138v-94
z" />
    <glyph glyph-name="macron" unicode="&#xaf;" horiz-adv-x="962" 
d="M125 1223v196h713v-196h-713z" />
    <glyph glyph-name="degree" unicode="&#xb0;" horiz-adv-x="911" 
d="M113 1061v235q0 100 62.5 149.5t154.5 49.5h260q104 0 156.5 -53t52.5 -146v-235q0 -92 -49.5 -140.5t-155.5 -48.5h-266q-215 0 -215 189zM317 1108q0 -35 11.5 -50.5t56.5 -15.5h141q45 0 56.5 15.5t11.5 50.5v149q0 35 -11.5 51.5t-56.5 16.5h-141q-45 0 -56.5 -16.5
t-11.5 -51.5v-149z" />
    <glyph glyph-name="plusminus" unicode="&#xb1;" 
d="M182 0v233l1012 -2v-231h-1012zM182 543v215h389v254h234v-254h389v-215h-389l-2 -256h-232v256h-389z" />
    <glyph glyph-name="uni00B2" unicode="&#xb2;" horiz-adv-x="1017" 
d="M131 825v185q0 66 24.5 119t84.5 81l401 203v25q0 33 -35 32h-452v136q20 18 49 32q25 12 60.5 23.5t86.5 11.5h322q98 0 153.5 -48t55.5 -138v-86q0 -61 -17.5 -99t-66.5 -61l-426 -205v-10h522v-201h-762z" />
    <glyph glyph-name="uni00B3" unicode="&#xb3;" horiz-adv-x="1017" 
d="M152 1470v136q20 18 49 32q25 12 62.5 23.5t86.5 11.5h307q98 0 155.5 -45t57.5 -147v-95q0 -35 -10 -56t-23.5 -34.5t-26.5 -18.5t-17 -5q4 0 18 -6t30.5 -19.5t30 -36t13.5 -59.5v-135q0 -86 -42 -138.5t-159 -52.5h-330q-49 0 -86 10.5t-61 22.5q-29 14 -49 33v135
h454q33 0 33 35v67q0 33 -35 33h-315v189h301q23 0 29 8t6 26v52q0 18 -6.5 26t-28.5 8h-444z" />
    <glyph glyph-name="acute" unicode="&#xb4;" horiz-adv-x="962" 
d="M256 1155l143 313h306l-240 -313h-209z" />
    <glyph glyph-name="paragraph" unicode="&#xb6;" horiz-adv-x="1306" 
d="M147 868v336q0 66 50.5 114t115.5 48h846v-170h-131v-1196h-188v1196h-146v-1196h-190v709h-191q-33 0 -62.5 12t-53 33.5t-37 51.5t-13.5 62z" />
    <glyph glyph-name="periodcentered" unicode="&#xb7;" horiz-adv-x="528" 
d="M125 379v256h281v-256h-281z" />
    <glyph glyph-name="cedilla" unicode="&#xb8;" horiz-adv-x="962" 
d="M221 -457l49 121q23 -10 45 -18q20 -6 46 -11.5t55 -5.5q55 0 81.5 24.5t26.5 53.5q0 33 -23.5 53.5t-88.5 20.5q-12 0 -27.5 -2t-30.5 -4l-32 -4l104 229h152l-52 -111q117 0 165 -49t48 -127q0 -96 -77.5 -157.5t-206.5 -61.5q-43 0 -84 7t-76 18q-39 10 -74 24z" />
    <glyph glyph-name="uni00B9" unicode="&#xb9;" horiz-adv-x="1017" 
d="M199 825v201h219v430l-203 -20v168l256 69h186v-647h199v-201h-657z" />
    <glyph glyph-name="ordmasculine" unicode="&#xba;" horiz-adv-x="808" 
d="M100 426v174h611v-174h-611zM100 915v273q0 96 60.5 137t144.5 41h195q98 0 153.5 -46t55.5 -132v-273q0 -178 -207 -178h-197q-205 0 -205 178zM315 944q0 -18 8.5 -24.5t28.5 -6.5h103q27 0 33 8.5t6 22.5v217q0 29 -39 29h-103q-37 0 -37 -29v-217z" />
    <glyph glyph-name="guillemotright" unicode="&#xbb;" horiz-adv-x="1112" 
d="M76 168l211 342l-211 340l170 119l311 -394v-133l-311 -393zM526 168l211 342l-211 340l170 119l312 -394v-133l-312 -393z" />
    <glyph glyph-name="onequarter" unicode="&#xbc;" horiz-adv-x="2371" 
d="M178 518v201h219v430l-202 -21v168l256 70h186v-647h199v-201h-658zM547 -41l1046 1448h232l-1045 -1448h-233zM1358 176v168l467 504h225v-471h125v-201h-125v-176h-238v176h-454zM1632 367h180v208z" />
    <glyph glyph-name="onehalf" unicode="&#xbd;" horiz-adv-x="2371" 
d="M137 518v201h219v430l-202 -21v168l256 70h186v-647h199v-201h-658zM485 -41l1047 1448h231l-1044 -1448h-234zM1444 0v184q0 66 24.5 119t83.5 82l402 203v24q0 33 -35 33h-453v135q20 18 50 33q25 12 60.5 23.5t86.5 11.5h322q98 0 153 -48t55 -138v-87q0 -61 -17 -99
t-67 -60l-426 -205v-10h523v-201h-762z" />
    <glyph glyph-name="threequarters" unicode="&#xbe;" horiz-adv-x="2371" 
d="M152 1163v135q20 18 49 33q25 12 62.5 23.5t86.5 11.5h307q98 0 155.5 -45t57.5 -147v-95q0 -35 -10 -56.5t-23.5 -34.5t-26.5 -18t-17 -5q4 0 18 -6.5t30.5 -19.5t30 -35.5t13.5 -59.5v-135q0 -86 -42 -138.5t-159 -52.5h-330q-49 0 -86 10.5t-61 22.5q-29 14 -49 33
v135h454q33 0 33 35v67q0 33 -35 33h-315v188h301q23 0 29 8.5t6 26.5v51q0 18 -6.5 26.5t-28.5 8.5h-444zM588 -41l1046 1448h232l-1045 -1448h-233zM1391 176v168l467 504h225v-471h125v-201h-125v-176h-238v176h-454zM1665 367h180v208z" />
    <glyph glyph-name="questiondown" unicode="&#xbf;" horiz-adv-x="972" 
d="M59 270v90q0 63 11.5 100.5t58.5 74.5l268 221v194h273v-188q0 -49 -18.5 -78t-55.5 -61l-262 -228v-92q0 -98 133 -98h410v-123q-16 -23 -54 -41q-31 -16 -84 -28.5t-139 -12.5h-217q-158 0 -241 76t-83 194zM389 1110v256h283v-256h-283z" />
    <glyph glyph-name="Agrave" unicode="&#xc0;" horiz-adv-x="1331" 
d="M-20 0l512 1366h352l508 -1366h-318l-123 362h-497l-121 -362h-313zM287 1817h325l185 -314h-209zM489 590h345l-172 518z" />
    <glyph glyph-name="Aacute" unicode="&#xc1;" horiz-adv-x="1331" 
d="M-20 0l512 1366h352l508 -1366h-318l-123 362h-497l-121 -362h-313zM489 590h345l-172 518zM512 1503l184 314h326l-301 -314h-209z" />
    <glyph glyph-name="Acircumflex" unicode="&#xc2;" horiz-adv-x="1331" 
d="M-20 0l512 1366h352l508 -1366h-318l-123 362h-497l-121 -362h-313zM291 1583l276 232h195l276 -230l-110 -131l-262 172l-267 -166zM489 590h345l-172 518z" />
    <glyph glyph-name="Atilde" unicode="&#xc3;" horiz-adv-x="1331" 
d="M-20 0l512 1366h352l508 -1366h-318l-123 362h-497l-121 -362h-313zM252 1653q35 41 78 73q37 29 88 51.5t114 20.5q43 0 79 -12t70 -25.5t64.5 -26t61.5 -12.5q29 -2 59.5 10.5t53.5 28.5q27 18 51 41l106 -139q-33 -41 -76 -74q-37 -29 -88 -52.5t-110 -20.5
q-41 0 -78 12t-70.5 26.5t-64.5 26.5t-60 12q-35 0 -64.5 -11t-53.5 -28q-29 -18 -54 -41zM489 590h345l-172 518z" />
    <glyph glyph-name="Adieresis" unicode="&#xc4;" horiz-adv-x="1331" 
d="M-20 0l512 1366h352l508 -1366h-318l-123 362h-497l-121 -362h-313zM324 1554v252h276v-252h-276zM489 590h345l-172 518zM731 1554v252h277v-252h-277z" />
    <glyph glyph-name="Aring" unicode="&#xc5;" horiz-adv-x="1331" 
d="M-20 0l512 1366h352l508 -1366h-318l-123 362h-497l-121 -362h-313zM426 1632v133q0 82 33 119t125 37h161q92 0 125 -37t33 -115v-137q0 -84 -32.5 -120.5t-125.5 -36.5h-161q-92 0 -125 36.5t-33 120.5zM489 590h345l-172 518zM575 1612h179v174h-179v-174z" />
    <glyph glyph-name="AE" unicode="&#xc6;" horiz-adv-x="1912" 
d="M-41 0l758 1366h1134v-213h-665v-338h538v-215h-538v-387h686v-213h-969v385h-407l-203 -385h-334zM602 614h301v555z" />
    <glyph glyph-name="Ccedilla" unicode="&#xc7;" horiz-adv-x="1224" 
d="M135 272v818q0 127 83 201.5t231 74.5h436q70 0 120 -11.5t82 -25.5q37 -16 64 -37v-139h-619q-53 0 -83.5 -24.5t-30.5 -77.5v-740q0 -47 23.5 -72.5t82.5 -25.5h650v-139q-27 -20 -64 -37q-35 -14 -86 -25.5t-129 -11.5h-139l-51 -111q117 0 165 -49t48 -127
q0 -96 -78 -157.5t-207 -61.5q-43 0 -84 7t-76 18q-39 10 -74 24l50 121q23 -10 45 -18q20 -6 45.5 -11.5t54.5 -5.5q55 0 81.5 24.5t26.5 53.5q0 33 -23.5 53.5t-88.5 20.5q-12 0 -27.5 -2t-30.5 -4l-32 -4l104 229h-168q-154 0 -227.5 77t-73.5 195z" />
    <glyph glyph-name="Egrave" unicode="&#xc8;" horiz-adv-x="1236" 
d="M145 0v1366h1031v-213h-748v-338h621v-215h-621v-387h768v-213h-1051zM324 1817h325l185 -314h-209z" />
    <glyph glyph-name="Eacute" unicode="&#xc9;" horiz-adv-x="1236" 
d="M145 0v1366h1031v-213h-748v-338h621v-215h-621v-387h768v-213h-1051zM489 1503l185 314h325l-301 -314h-209z" />
    <glyph glyph-name="Ecircumflex" unicode="&#xca;" horiz-adv-x="1236" 
d="M145 0v1366h1031v-213h-748v-338h621v-215h-621v-387h768v-213h-1051zM264 1604l297 251h195l297 -249l-111 -131l-283 192l-286 -186z" />
    <glyph glyph-name="Edieresis" unicode="&#xcb;" horiz-adv-x="1236" 
d="M145 0v1366h1031v-213h-748v-338h621v-215h-621v-387h768v-213h-1051zM326 1554v252h276v-252h-276zM733 1554v252h277v-252h-277z" />
    <glyph glyph-name="Igrave" unicode="&#xcc;" horiz-adv-x="573" 
d="M-68 1817h326l184 -314h-209zM145 0v1366h283v-1366h-283z" />
    <glyph glyph-name="Iacute" unicode="&#xcd;" horiz-adv-x="573" 
d="M135 1503l184 314h326l-301 -314h-209zM145 0v1366h283v-1366h-283z" />
    <glyph glyph-name="Icircumflex" unicode="&#xce;" horiz-adv-x="573" 
d="M-66 1604l256 251h195l256 -249l-111 -131l-241 192l-246 -186zM145 0v1366h283v-1366h-283z" />
    <glyph glyph-name="Idieresis" unicode="&#xcf;" horiz-adv-x="573" 
d="M-35 1554v252h256v-252h-256zM145 0v1366h283v-1366h-283zM352 1554v252h256v-252h-256z" />
    <glyph glyph-name="Eth" unicode="&#xd0;" horiz-adv-x="1468" 
d="M0 600v215h145v551h875q154 0 233.5 -79t79.5 -202v-798q0 -147 -82 -217t-233 -70h-873v600h-145zM430 213h498q74 0 99.5 24.5t25.5 86.5v714q0 59 -17.5 87t-89.5 28h-516v-338h324v-215h-324v-387z" />
    <glyph glyph-name="Ntilde" unicode="&#xd1;" horiz-adv-x="1454" 
d="M145 0v1366h306l577 -920v920h281v-1366h-320l-561 899v-899h-283zM313 1653q35 41 78 73q37 29 88 51.5t115 20.5q43 0 79 -12t69.5 -25.5t64.5 -26t61 -12.5q29 -2 59.5 10.5t53.5 28.5q27 18 51 41l107 -139q-33 -41 -76 -74q-37 -29 -88 -52.5t-111 -20.5
q-41 0 -77.5 12t-70.5 26.5t-64.5 26.5t-59.5 12q-35 0 -64.5 -11t-54.5 -28q-29 -18 -53 -41z" />
    <glyph glyph-name="Ograve" unicode="&#xd2;" horiz-adv-x="1478" 
d="M135 281v804q0 72 24.5 125.5t67.5 88t99.5 51t122.5 16.5h577q152 0 234.5 -74.5t82.5 -204.5v-806q0 -133 -78.5 -207t-234.5 -74h-584q-156 0 -233.5 72.5t-77.5 208.5zM408 1817h325l185 -314h-209zM418 324q0 -66 26.5 -88.5t92.5 -22.5h403q41 0 65.5 8t37 22.5
t15.5 35t3 45.5v720q0 53 -28.5 81t-94.5 28h-399q-68 0 -94.5 -27.5t-26.5 -81.5v-720z" />
    <glyph glyph-name="Oacute" unicode="&#xd3;" horiz-adv-x="1478" 
d="M135 281v804q0 72 24.5 125.5t67.5 88t99.5 51t122.5 16.5h577q152 0 234.5 -74.5t82.5 -204.5v-806q0 -133 -78.5 -207t-234.5 -74h-584q-156 0 -233.5 72.5t-77.5 208.5zM418 324q0 -66 26.5 -88.5t92.5 -22.5h403q41 0 65.5 8t37 22.5t15.5 35t3 45.5v720
q0 53 -28.5 81t-94.5 28h-399q-68 0 -94.5 -27.5t-26.5 -81.5v-720zM594 1503l184 314h326l-301 -314h-209z" />
    <glyph glyph-name="Ocircumflex" unicode="&#xd4;" horiz-adv-x="1478" 
d="M135 281v804q0 72 24.5 125.5t67.5 88t99.5 51t122.5 16.5h577q152 0 234.5 -74.5t82.5 -204.5v-806q0 -133 -78.5 -207t-234.5 -74h-584q-156 0 -233.5 72.5t-77.5 208.5zM344 1604l297 251h195l297 -249l-111 -131l-283 192l-286 -186zM418 324q0 -66 26.5 -88.5
t92.5 -22.5h403q41 0 65.5 8t37 22.5t15.5 35t3 45.5v720q0 53 -28.5 81t-94.5 28h-399q-68 0 -94.5 -27.5t-26.5 -81.5v-720z" />
    <glyph glyph-name="Otilde" unicode="&#xd5;" horiz-adv-x="1478" 
d="M135 281v804q0 72 24.5 125.5t67.5 88t99.5 51t122.5 16.5h577q152 0 234.5 -74.5t82.5 -204.5v-806q0 -133 -78.5 -207t-234.5 -74h-584q-156 0 -233.5 72.5t-77.5 208.5zM326 1653q35 41 77 73q37 29 88.5 51.5t114.5 20.5q43 0 79 -12t69.5 -25.5t64.5 -26t62 -12.5
q29 -2 59.5 10.5t52.5 28.5q27 18 51 41l107 -139q-33 -41 -76 -74q-37 -29 -88 -52.5t-110 -20.5q-41 0 -78 12t-71 26.5t-64.5 26.5t-59.5 12q-35 0 -64.5 -11t-54.5 -28q-29 -18 -53 -41zM418 324q0 -66 26.5 -88.5t92.5 -22.5h403q41 0 65.5 8t37 22.5t15.5 35t3 45.5
v720q0 53 -28.5 81t-94.5 28h-399q-68 0 -94.5 -27.5t-26.5 -81.5v-720z" />
    <glyph glyph-name="Odieresis" unicode="&#xd6;" horiz-adv-x="1478" 
d="M135 281v804q0 72 24.5 125.5t67.5 88t99.5 51t122.5 16.5h577q152 0 234.5 -74.5t82.5 -204.5v-806q0 -133 -78.5 -207t-234.5 -74h-584q-156 0 -233.5 72.5t-77.5 208.5zM397 1554v252h277v-252h-277zM418 324q0 -66 26.5 -88.5t92.5 -22.5h403q41 0 65.5 8t37 22.5
t15.5 35t3 45.5v720q0 53 -28.5 81t-94.5 28h-399q-68 0 -94.5 -27.5t-26.5 -81.5v-720zM805 1554v252h276v-252h-276z" />
    <glyph glyph-name="multiply" unicode="&#xd7;" 
d="M219 203l303 303l-303 303l166 166l301 -303l305 305l166 -168l-303 -303l301 -305l-164 -164l-303 303l-303 -303z" />
    <glyph glyph-name="Oslash" unicode="&#xd8;" horiz-adv-x="1478" 
d="M94 -184l142 239q-100 70 -101 226v804q0 72 24.5 125.5t67.5 88t99.5 51t122.5 16.5h561l108 184h266l-145 -243q104 -76 104 -220v-806q0 -133 -78.5 -207t-234.5 -74h-561l-109 -184h-266zM418 362l465 791h-344q-68 0 -94.5 -27.5t-26.5 -81.5v-682zM594 213h346
q41 0 65.5 8t37 22.5t15.5 35t3 45.5v677z" />
    <glyph glyph-name="Ugrave" unicode="&#xd9;" horiz-adv-x="1454" 
d="M141 270v1096h283v-1053q0 -47 23.5 -73.5t84.5 -26.5h369q74 0 102.5 21.5t28.5 91.5v1040h281v-1092q0 -123 -76 -198.5t-229 -75.5h-564q-135 0 -219 67.5t-84 202.5zM373 1817h325l185 -314h-209z" />
    <glyph glyph-name="Uacute" unicode="&#xda;" horiz-adv-x="1454" 
d="M141 270v1096h283v-1053q0 -47 23.5 -73.5t84.5 -26.5h369q74 0 102.5 21.5t28.5 91.5v1040h281v-1092q0 -123 -76 -198.5t-229 -75.5h-564q-135 0 -219 67.5t-84 202.5zM588 1503l184 314h326l-301 -314h-209z" />
    <glyph glyph-name="Ucircumflex" unicode="&#xdb;" horiz-adv-x="1454" 
d="M141 270v1096h283v-1053q0 -47 23.5 -73.5t84.5 -26.5h369q74 0 102.5 21.5t28.5 91.5v1040h281v-1092q0 -123 -76 -198.5t-229 -75.5h-564q-135 0 -219 67.5t-84 202.5zM332 1604l297 251h194l297 -249l-110 -131l-283 192l-287 -186z" />
    <glyph glyph-name="Udieresis" unicode="&#xdc;" horiz-adv-x="1454" 
d="M141 270v1096h283v-1053q0 -47 23.5 -73.5t84.5 -26.5h369q74 0 102.5 21.5t28.5 91.5v1040h281v-1092q0 -123 -76 -198.5t-229 -75.5h-564q-135 0 -219 67.5t-84 202.5zM385 1554v252h277v-252h-277zM793 1554v252h276v-252h-276z" />
    <glyph glyph-name="Yacute" unicode="&#xdd;" horiz-adv-x="1261" 
d="M-29 1366h328l334 -530l348 530h309l-520 -743v-623h-285v614zM494 1503l184 314h326l-302 -314h-208z" />
    <glyph glyph-name="Thorn" unicode="&#xde;" horiz-adv-x="1316" 
d="M145 0v1366h283v-231h500q166 0 243.5 -79t77.5 -208v-309q0 -139 -83 -208t-224 -69h-514v-262h-283zM428 475h424q66 0 91.5 24.5t25.5 78.5v229q0 55 -27 85t-92 30h-422v-447z" />
    <glyph glyph-name="germandbls" unicode="&#xdf;" horiz-adv-x="1325" 
d="M141 0v1202q0 125 79 203t226 78h377q141 0 227.5 -73t86.5 -198v-157q0 -61 -16.5 -100.5t-37 -63t-39 -32.5t-22.5 -11q2 0 30.5 -6t61.5 -28.5t60.5 -70t27.5 -127.5v-346q0 -125 -80 -197.5t-221 -72.5h-98q-92 0 -150.5 27.5t-87.5 56.5v121h236q72 0 99.5 22.5
t27.5 91.5v269q0 59 -29 86.5t-102 27.5h-172v205h94q37 0 64.5 3t45 14.5t25.5 35t8 64.5v133q0 68 -28.5 94.5t-94.5 26.5h-196q-72 0 -98.5 -23.5t-26.5 -91.5v-1163h-277z" />
    <glyph glyph-name="agrave" unicode="&#xe0;" horiz-adv-x="1134" 
d="M113 229v168q0 111 74.5 167.5t211.5 56.5h330v77q0 53 -27.5 82t-111.5 29h-430v123q18 23 55 41q31 16 82 28.5t131 12.5h252q147 0 235.5 -66.5t88.5 -202.5v-745h-244l-21 115q-16 -33 -43 -58q-23 -23 -59.5 -40t-89.5 -17h-150q-158 0 -221 55.5t-63 173.5z
M287 1468h305l143 -313h-209zM387 274q0 -39 19.5 -54t58.5 -15h264v211h-260q-82 0 -82 -74v-68z" />
    <glyph glyph-name="aacute" unicode="&#xe1;" horiz-adv-x="1134" 
d="M113 229v168q0 111 74.5 167.5t211.5 56.5h330v77q0 53 -27.5 82t-111.5 29h-430v123q18 23 55 41q31 16 82 28.5t131 12.5h252q147 0 235.5 -66.5t88.5 -202.5v-745h-244l-21 115q-16 -33 -43 -58q-23 -23 -59.5 -40t-89.5 -17h-150q-158 0 -221 55.5t-63 173.5z
M387 274q0 -39 19.5 -54t58.5 -15h264v211h-260q-82 0 -82 -74v-68zM451 1155l143 313h305l-240 -313h-208z" />
    <glyph glyph-name="acircumflex" unicode="&#xe2;" horiz-adv-x="1134" 
d="M113 229v168q0 111 74.5 167.5t211.5 56.5h330v77q0 53 -27.5 82t-111.5 29h-430v123q18 23 55 41q31 16 82 28.5t131 12.5h252q147 0 235.5 -66.5t88.5 -202.5v-745h-244l-21 115q-16 -33 -43 -58q-23 -23 -59.5 -40t-89.5 -17h-150q-158 0 -221 55.5t-63 173.5z
M225 1223l256 293h195l256 -291l-131 -111l-221 213l-226 -207zM387 274q0 -39 19.5 -54t58.5 -15h264v211h-260q-82 0 -82 -74v-68z" />
    <glyph glyph-name="atilde" unicode="&#xe3;" horiz-adv-x="1134" 
d="M113 229v168q0 111 74.5 167.5t211.5 56.5h330v77q0 53 -27.5 82t-111.5 29h-430v123q18 23 55 41q31 16 82 28.5t131 12.5h252q147 0 235.5 -66.5t88.5 -202.5v-745h-244l-21 115q-16 -33 -43 -58q-23 -23 -59.5 -40t-89.5 -17h-150q-158 0 -221 55.5t-63 173.5z
M180 1315q35 41 76 71q35 27 85 48.5t112 21.5q41 0 76.5 -11t67.5 -25.5t62.5 -26t59.5 -11.5q29 -2 57.5 10.5t50.5 26.5q27 16 52 39l102 -133q-33 -41 -74 -72q-35 -29 -84 -50t-108 -21q-41 0 -77 12t-68.5 25.5t-62.5 25.5t-56 12q-33 0 -64 -11t-53 -25
q-27 -16 -51 -39zM387 274q0 -39 19.5 -54t58.5 -15h264v211h-260q-82 0 -82 -74v-68z" />
    <glyph glyph-name="adieresis" unicode="&#xe4;" horiz-adv-x="1134" 
d="M113 229v168q0 111 74.5 167.5t211.5 56.5h330v77q0 53 -27.5 82t-111.5 29h-430v123q18 23 55 41q31 16 82 28.5t131 12.5h252q147 0 235.5 -66.5t88.5 -202.5v-745h-244l-21 115q-16 -33 -43 -58q-23 -23 -59.5 -40t-89.5 -17h-150q-158 0 -221 55.5t-63 173.5z
M246 1217v231h276v-231h-276zM387 274q0 -39 19.5 -54t58.5 -15h264v211h-260q-82 0 -82 -74v-68zM653 1217v231h277v-231h-277z" />
    <glyph glyph-name="aring" unicode="&#xe5;" horiz-adv-x="1134" 
d="M113 229v168q0 111 74.5 167.5t211.5 56.5h330v77q0 53 -27.5 82t-111.5 29h-430v123q18 23 55 41q31 16 82 28.5t131 12.5h252q147 0 235.5 -66.5t88.5 -202.5v-745h-244l-21 115q-16 -33 -43 -58q-23 -23 -59.5 -40t-89.5 -17h-150q-158 0 -221 55.5t-63 173.5z
M342 1286v133q0 82 33 119t125 37h162q92 0 124.5 -37t32.5 -115v-137q0 -84 -32.5 -121t-124.5 -37h-162q-92 0 -125 37t-33 121zM387 274q0 -39 19.5 -54t58.5 -15h264v211h-260q-82 0 -82 -74v-68zM492 1266h178v174h-178v-174z" />
    <glyph glyph-name="ae" unicode="&#xe6;" horiz-adv-x="1783" 
d="M113 229v168q0 111 74.5 167.5t211.5 56.5h330v92q0 47 -23.5 71.5t-101.5 24.5h-444v123q18 23 55 41q31 16 82 28.5t131 12.5h252q55 0 91 -14.5t56.5 -32t28.5 -33.5t10 -21q0 2 8.5 18.5t29 35t56 33t91.5 14.5h274q162 0 245 -75t83 -204v-319h-649v-115
q0 -51 20 -73.5t90 -22.5h531v-121q-16 -25 -50 -43q-29 -16 -79 -28.5t-130 -12.5h-337q-55 0 -90 13.5t-54.5 28.5t-28 29.5t-8.5 18.5q0 -2 -8 -16.5t-28.5 -30.5t-57.5 -29.5t-94 -13.5h-283q-158 0 -221 55.5t-63 173.5zM387 274q0 -39 19.5 -54t58.5 -15h264v211h-260
q-82 0 -82 -74v-68zM1004 621h372v88q0 55 -23.5 77.5t-86.5 22.5h-156q-61 0 -83.5 -24.5t-22.5 -61.5v-102z" />
    <glyph glyph-name="ccedilla" unicode="&#xe7;" horiz-adv-x="1042" 
d="M125 268v471q0 127 83 201t236 74h244q80 0 131 -13.5t82 -29.5q35 -18 53 -41v-121h-442q-53 0 -83 -24.5t-30 -77.5v-402q0 -47 25 -73.5t86 -26.5h459v-121q-16 -25 -51 -43q-31 -16 -84.5 -28.5t-143.5 -12.5h-43l-51 -111q117 0 165 -49t48 -127q0 -96 -78 -157.5
t-207 -61.5q-43 0 -84 7t-75 18q-39 10 -74 24l49 121q23 -10 45 -18q20 -6 46 -11.5t54 -5.5q55 0 82 24.5t27 53.5q0 33 -23.5 53.5t-89.5 20.5q-12 0 -27.5 -2t-29.5 -4q-16 -2 -33 -4l105 229h-70q-150 0 -225.5 73.5t-75.5 194.5z" />
    <glyph glyph-name="egrave" unicode="&#xe8;" horiz-adv-x="1179" 
d="M125 281v444q0 78 24.5 132t68.5 89t105.5 51.5t135.5 16.5h262q162 0 245 -75t83 -204v-319h-650v-115q0 -51 20.5 -73.5t90.5 -22.5h530v-121q-16 -25 -49 -43q-29 -16 -79 -28.5t-130 -12.5h-338q-319 0 -319 281zM305 1468h305l144 -313h-209zM399 621h373v88
q0 55 -23.5 77.5t-86.5 22.5h-152q-68 0 -89.5 -27.5t-21.5 -70.5v-90z" />
    <glyph glyph-name="eacute" unicode="&#xe9;" horiz-adv-x="1179" 
d="M125 281v444q0 78 24.5 132t68.5 89t105.5 51.5t135.5 16.5h262q162 0 245 -75t83 -204v-319h-650v-115q0 -51 20.5 -73.5t90.5 -22.5h530v-121q-16 -25 -49 -43q-29 -16 -79 -28.5t-130 -12.5h-338q-319 0 -319 281zM399 621h373v88q0 55 -23.5 77.5t-86.5 22.5h-152
q-68 0 -89.5 -27.5t-21.5 -70.5v-90zM449 1155l143 313h305l-240 -313h-208z" />
    <glyph glyph-name="ecircumflex" unicode="&#xea;" horiz-adv-x="1179" 
d="M125 281v444q0 78 24.5 132t68.5 89t105.5 51.5t135.5 16.5h262q162 0 245 -75t83 -204v-319h-650v-115q0 -51 20.5 -73.5t90.5 -22.5h530v-121q-16 -25 -49 -43q-29 -16 -79 -28.5t-130 -12.5h-338q-319 0 -319 281zM236 1223l256 293h194l256 -291l-131 -111l-221 213
l-225 -207zM399 621h373v88q0 55 -23.5 77.5t-86.5 22.5h-152q-68 0 -89.5 -27.5t-21.5 -70.5v-90z" />
    <glyph glyph-name="edieresis" unicode="&#xeb;" horiz-adv-x="1179" 
d="M125 281v444q0 78 24.5 132t68.5 89t105.5 51.5t135.5 16.5h262q162 0 245 -75t83 -204v-319h-650v-115q0 -51 20.5 -73.5t90.5 -22.5h530v-121q-16 -25 -49 -43q-29 -16 -79 -28.5t-130 -12.5h-338q-319 0 -319 281zM248 1217v231h276v-231h-276zM399 621h373v88
q0 55 -23.5 77.5t-86.5 22.5h-152q-68 0 -89.5 -27.5t-21.5 -70.5v-90zM655 1217v231h277v-231h-277z" />
    <glyph glyph-name="igrave" unicode="&#xec;" horiz-adv-x="563" 
d="M-25 1468h306l143 -313h-209zM143 0v1014h277v-1014h-277z" />
    <glyph glyph-name="iacute" unicode="&#xed;" horiz-adv-x="563" 
d="M141 1155l144 313h305l-240 -313h-209zM143 0v1014h277v-1014h-277z" />
    <glyph glyph-name="icircumflex" unicode="&#xee;" horiz-adv-x="563" 
d="M-72 1223l256 293h195l256 -291l-131 -111l-221 213l-226 -207zM143 0v1014h277v-1014h-277z" />
    <glyph glyph-name="idieresis" unicode="&#xef;" horiz-adv-x="563" 
d="M-18 1217v231h245v-231h-245zM143 0v1014h277v-1014h-277zM338 1217v231h246v-231h-246z" />
    <glyph glyph-name="eth" unicode="&#xf0;" horiz-adv-x="1202" 
d="M125 281v411q0 72 24.5 125t67.5 88t99.5 51.5t119.5 16.5h148q61 0 102 -14.5t66.5 -32t38 -32.5t14.5 -20q0 117 -22.5 177.5t-53.5 89.5l-168 -99l-43 68l141 82q-47 23 -118.5 34t-188.5 11h-102v207h104q176 0 308.5 -30t203.5 -87l170 105l45 -68l-151 -98
q86 -78 117.5 -220.5t31.5 -353.5v-411q0 -133 -78.5 -207t-234.5 -74h-332q-156 0 -232.5 72.5t-76.5 208.5zM399 315q0 -66 27 -88t92 -22h164q41 0 65.5 8t37 22.5t16.5 35t4 44.5v433q-10 4 -29 10q-16 4 -39.5 7t-56.5 3h-160q-68 0 -94.5 -27.5t-26.5 -81.5v-344z" />
    <glyph glyph-name="ntilde" unicode="&#xf1;" horiz-adv-x="1220" 
d="M141 0v1014h256l13 -105q25 29 59 52q29 20 70 36.5t94 16.5h137q162 0 239.5 -77t77.5 -204v-733h-272v723q0 49 -30.5 67.5t-79.5 18.5h-123q-47 0 -79 -7t-52 -16q-23 -10 -37 -22v-764h-273zM209 1315q35 41 76 71q35 27 85 48.5t111 21.5q41 0 77 -11t67.5 -25.5
t62.5 -26t60 -11.5q29 -2 57.5 10.5t50.5 26.5q27 16 51 39l103 -133q-33 -41 -74 -72q-35 -29 -84 -50t-109 -21q-41 0 -76.5 12t-68.5 25.5t-62.5 25.5t-56.5 12q-33 0 -63.5 -11t-53.5 -25q-27 -16 -51 -39z" />
    <glyph glyph-name="ograve" unicode="&#xf2;" horiz-adv-x="1222" 
d="M125 281v452q0 72 24.5 125t67.5 88t99.5 51.5t119.5 16.5h346q154 0 236 -76t82 -205v-452q0 -133 -79 -207t-235 -74h-352q-156 0 -232.5 72.5t-76.5 208.5zM301 1468h305l144 -313h-209zM399 315q0 -66 27 -88t92 -22h184q41 0 66 8t37 22.5t16 35t4 44.5v385
q0 53 -29.5 81t-95.5 28h-180q-68 0 -94.5 -27.5t-26.5 -81.5v-385z" />
    <glyph glyph-name="oacute" unicode="&#xf3;" horiz-adv-x="1222" 
d="M125 281v452q0 72 24.5 125t67.5 88t99.5 51.5t119.5 16.5h346q154 0 236 -76t82 -205v-452q0 -133 -79 -207t-235 -74h-352q-156 0 -232.5 72.5t-76.5 208.5zM399 315q0 -66 27 -88t92 -22h184q41 0 66 8t37 22.5t16 35t4 44.5v385q0 53 -29.5 81t-95.5 28h-180
q-68 0 -94.5 -27.5t-26.5 -81.5v-385zM489 1155l144 313h305l-240 -313h-209z" />
    <glyph glyph-name="ocircumflex" unicode="&#xf4;" horiz-adv-x="1222" 
d="M125 281v452q0 72 24.5 125t67.5 88t99.5 51.5t119.5 16.5h346q154 0 236 -76t82 -205v-452q0 -133 -79 -207t-235 -74h-352q-156 0 -232.5 72.5t-76.5 208.5zM256 1223l256 293h195l256 -291l-132 -111l-221 213l-225 -207zM399 315q0 -66 27 -88t92 -22h184q41 0 66 8
t37 22.5t16 35t4 44.5v385q0 53 -29.5 81t-95.5 28h-180q-68 0 -94.5 -27.5t-26.5 -81.5v-385z" />
    <glyph glyph-name="otilde" unicode="&#xf5;" horiz-adv-x="1222" 
d="M125 281v452q0 72 24.5 125t67.5 88t99.5 51.5t119.5 16.5h346q154 0 236 -76t82 -205v-452q0 -133 -79 -207t-235 -74h-352q-156 0 -232.5 72.5t-76.5 208.5zM211 1315q35 41 76 71q35 27 85 48.5t111 21.5q41 0 77 -11t67.5 -25.5t62.5 -26t60 -11.5q29 -2 57.5 10.5
t50.5 26.5q27 16 51 39l103 -133q-33 -41 -74 -72q-35 -29 -84 -50t-109 -21q-41 0 -76.5 12t-68.5 25.5t-62.5 25.5t-56.5 12q-33 0 -63.5 -11t-52.5 -25q-27 -16 -52 -39zM399 315q0 -66 27 -88t92 -22h184q41 0 66 8t37 22.5t16 35t4 44.5v385q0 53 -29.5 81t-95.5 28
h-180q-68 0 -94.5 -27.5t-26.5 -81.5v-385z" />
    <glyph glyph-name="odieresis" unicode="&#xf6;" horiz-adv-x="1222" 
d="M125 281v452q0 72 24.5 125t67.5 88t99.5 51.5t119.5 16.5h346q154 0 236 -76t82 -205v-452q0 -133 -79 -207t-235 -74h-352q-156 0 -232.5 72.5t-76.5 208.5zM268 1217v231h277v-231h-277zM399 315q0 -66 27 -88t92 -22h184q41 0 66 8t37 22.5t16 35t4 44.5v385
q0 53 -29.5 81t-95.5 28h-180q-68 0 -94.5 -27.5t-26.5 -81.5v-385zM676 1217v231h276v-231h-276z" />
    <glyph glyph-name="divide" unicode="&#xf7;" 
d="M182 389v234l1012 -2v-232h-1012zM549 0v256h282v-256h-282zM549 758v256h282v-256h-282z" />
    <glyph glyph-name="oslash" unicode="&#xf8;" horiz-adv-x="1222" 
d="M68 -184l151 241q-94 74 -94 224v452q0 72 24.5 125t67.5 88t99.5 51.5t119.5 16.5h346q20 0 31 -2l109 176h225l-148 -238q100 -76 101 -217v-452q0 -133 -79 -207t-235 -74h-352h-26l-115 -184h-225zM399 348l287 461h-166q-68 0 -94.5 -27.5t-26.5 -81.5v-352z
M535 205h167q41 0 66 8t37 22.5t16 35t4 44.5v357z" />
    <glyph glyph-name="ugrave" unicode="&#xf9;" horiz-adv-x="1220" 
d="M133 281v733h275v-715q0 -49 28.5 -71.5t81.5 -22.5h121q47 0 78 6t51 16q23 8 37 23v764h274v-1014h-254l-14 104q-25 -31 -59 -53q-29 -20 -70 -35.5t-94 -15.5h-137q-170 0 -244 77t-74 204zM324 1468h305l143 -313h-209z" />
    <glyph glyph-name="uacute" unicode="&#xfa;" horiz-adv-x="1220" 
d="M133 281v733h275v-715q0 -49 28.5 -71.5t81.5 -22.5h121q47 0 78 6t51 16q23 8 37 23v764h274v-1014h-254l-14 104q-25 -31 -59 -53q-29 -20 -70 -35.5t-94 -15.5h-137q-170 0 -244 77t-74 204zM469 1155l143 313h306l-240 -313h-209z" />
    <glyph glyph-name="ucircumflex" unicode="&#xfb;" horiz-adv-x="1220" 
d="M133 281v733h275v-715q0 -49 28.5 -71.5t81.5 -22.5h121q47 0 78 6t51 16q23 8 37 23v764h274v-1014h-254l-14 104q-25 -31 -59 -53q-29 -20 -70 -35.5t-94 -15.5h-137q-170 0 -244 77t-74 204zM256 1223l256 293h195l256 -291l-132 -111l-221 213l-225 -207z" />
    <glyph glyph-name="udieresis" unicode="&#xfc;" horiz-adv-x="1220" 
d="M133 281v733h275v-715q0 -49 28.5 -71.5t81.5 -22.5h121q47 0 78 6t51 16q23 8 37 23v764h274v-1014h-254l-14 104q-25 -31 -59 -53q-29 -20 -70 -35.5t-94 -15.5h-137q-170 0 -244 77t-74 204zM268 1217v231h277v-231h-277zM676 1217v231h276v-231h-276z" />
    <glyph glyph-name="yacute" unicode="&#xfd;" horiz-adv-x="1062" 
d="M10 1014h307l232 -647l209 647h295l-512 -1401h-277l150 418zM379 1155l143 313h305l-239 -313h-209z" />
    <glyph glyph-name="thorn" unicode="&#xfe;" horiz-adv-x="1234" 
d="M135 -387v1845l273 47v-590q86 98 210 99h187q147 0 227 -73t80 -206v-446q0 -141 -85 -215t-232 -74h-166q-92 0 -143.5 33t-77.5 67v-487h-273zM408 229q8 -6 24 -12q14 -4 38 -8t65 -4h186q115 0 115 100v404q6 100 -113 100h-164q-109 0 -151 -23v-557z" />
    <glyph glyph-name="ydieresis" unicode="&#xff;" horiz-adv-x="1062" 
d="M10 1014h307l232 -647l209 647h295l-512 -1401h-277l150 418zM188 1217v231h277v-231h-277zM596 1217v231h276v-231h-276z" />
    <glyph glyph-name="Amacron" unicode="&#x100;" horiz-adv-x="1331" 
d="M-20 0l512 1366h352l508 -1366h-318l-123 362h-497l-121 -362h-313zM328 1569v196h673v-196h-673zM489 590h345l-172 518z" />
    <glyph glyph-name="amacron" unicode="&#x101;" horiz-adv-x="1134" 
d="M113 229v168q0 111 74.5 167.5t211.5 56.5h330v77q0 53 -27.5 82t-111.5 29h-430v123q18 23 55 41q31 16 82 28.5t131 12.5h252q147 0 235.5 -66.5t88.5 -202.5v-745h-244l-21 115q-16 -33 -43 -58q-23 -23 -59.5 -40t-89.5 -17h-150q-158 0 -221 55.5t-63 173.5z
M215 1223v196h713v-196h-713zM387 274q0 -39 19.5 -54t58.5 -15h264v211h-260q-82 0 -82 -74v-68z" />
    <glyph glyph-name="Abreve" unicode="&#x102;" horiz-adv-x="1331" 
d="M-20 0l512 1366h352l508 -1366h-318l-123 362h-497l-121 -362h-313zM313 1784v41h222v-19q0 -31 3 -53t16 -35.5t38.5 -20.5t71.5 -7q45 0 71.5 7t39.5 20.5t16.5 36t3.5 52.5v19h221v-41q0 -61 -11.5 -113.5t-48 -90.5t-106.5 -59.5t-186 -21.5q-111 0 -179.5 21.5
t-106.5 59.5t-51.5 90t-13.5 114zM489 590h345l-172 518z" />
    <glyph glyph-name="abreve" unicode="&#x103;" horiz-adv-x="1134" 
d="M113 229v168q0 111 74.5 167.5t211.5 56.5h330v77q0 53 -27.5 82t-111.5 29h-430v123q18 23 55 41q31 16 82 28.5t131 12.5h252q147 0 235.5 -66.5t88.5 -202.5v-745h-244l-21 115q-16 -33 -43 -58q-23 -23 -59.5 -40t-89.5 -17h-150q-158 0 -221 55.5t-63 173.5z
M260 1425v62h195v-41q0 -29 5 -54.5t19.5 -44t40 -29.5t66.5 -11q84 0 108.5 39.5t24.5 99.5v41h194v-62q0 -59 -10 -112t-45 -93t-99.5 -65t-172.5 -25q-104 0 -168 25t-98.5 65t-47 93t-12.5 112zM387 274q0 -39 19.5 -54t58.5 -15h264v211h-260q-82 0 -82 -74v-68z" />
    <glyph glyph-name="Aogonek" unicode="&#x104;" horiz-adv-x="1331" 
d="M-20 0l512 1366h352l508 -1366q-55 -27 -97 -63q-37 -31 -66.5 -75t-29.5 -100q0 -55 30 -79.5t101 -24.5q49 0 94 10q23 4 46 10l28 -129q-29 -12 -65 -20q-31 -8 -75 -14.5t-97 -6.5q-63 0 -116.5 9.5t-93.5 34t-62.5 64.5t-22.5 101q0 66 36.5 119t81.5 90
q53 43 121 74h-131l-123 362h-497l-121 -362h-313zM489 590h345l-172 518z" />
    <glyph glyph-name="aogonek" unicode="&#x105;" horiz-adv-x="1134" 
d="M113 229v168q0 111 74.5 167.5t211.5 56.5h330v77q0 53 -27.5 82t-111.5 29h-430v123q18 23 55 41q31 16 82 28.5t131 12.5h252q147 0 235.5 -66.5t88.5 -202.5v-745q-55 -27 -97 -63q-37 -31 -66.5 -75t-29.5 -100q0 -55 29.5 -79.5t101.5 -24.5q49 0 94 10q23 4 45 10
l29 -129q-29 -12 -66 -20q-31 -8 -74.5 -14.5t-97.5 -6.5q-63 0 -116.5 9.5t-93 34t-62 64.5t-22.5 101q0 66 36.5 119t81.5 90q53 43 121 74h-57l-21 115q-16 -33 -43 -58q-23 -23 -59.5 -40t-89.5 -17h-150q-158 0 -221 55.5t-63 173.5zM387 274q0 -39 19.5 -54t58.5 -15
h264v211h-260q-82 0 -82 -74v-68z" />
    <glyph glyph-name="Cacute" unicode="&#x106;" horiz-adv-x="1224" 
d="M135 272v818q0 127 83 201.5t231 74.5h436q70 0 120 -11.5t82 -25.5q37 -16 64 -37v-139h-619q-53 0 -83.5 -24.5t-30.5 -77.5v-740q0 -47 23.5 -72.5t82.5 -25.5h650v-139q-27 -20 -64 -37q-35 -14 -86 -25.5t-129 -11.5h-459q-154 0 -227.5 77t-73.5 195zM498 1503
l184 314h326l-301 -314h-209z" />
    <glyph glyph-name="cacute" unicode="&#x107;" horiz-adv-x="1042" 
d="M125 268v471q0 127 83 201t236 74h244q80 0 131 -13.5t82 -29.5q35 -18 53 -41v-121h-442q-53 0 -83 -24.5t-30 -77.5v-402q0 -47 25 -73.5t86 -26.5h459v-121q-16 -25 -51 -43q-31 -16 -84.5 -28.5t-143.5 -12.5h-264q-150 0 -225.5 73.5t-75.5 194.5zM401 1155l144 313
h305l-240 -313h-209z" />
    <glyph glyph-name="Ccircumflex" unicode="&#x108;" horiz-adv-x="1224" 
d="M135 272v818q0 127 83 201.5t231 74.5h436q70 0 120 -11.5t82 -25.5q37 -16 64 -37v-139h-619q-53 0 -83.5 -24.5t-30.5 -77.5v-740q0 -47 23.5 -72.5t82.5 -25.5h650v-139q-27 -20 -64 -37q-35 -14 -86 -25.5t-129 -11.5h-459q-154 0 -227.5 77t-73.5 195zM272 1604
l297 251h195l297 -249l-111 -131l-282 192l-287 -186z" />
    <glyph glyph-name="ccircumflex" unicode="&#x109;" horiz-adv-x="1042" 
d="M125 268v471q0 127 83 201t236 74h244q80 0 131 -13.5t82 -29.5q35 -18 53 -41v-121h-442q-53 0 -83 -24.5t-30 -77.5v-402q0 -47 25 -73.5t86 -26.5h459v-121q-16 -25 -51 -43q-31 -16 -84.5 -28.5t-143.5 -12.5h-264q-150 0 -225.5 73.5t-75.5 194.5zM213 1223l256 293
h195l256 -291l-132 -111l-221 213l-225 -207z" />
    <glyph glyph-name="Cdotaccent" unicode="&#x10a;" horiz-adv-x="1224" 
d="M135 272v818q0 127 83 201.5t231 74.5h436q70 0 120 -11.5t82 -25.5q37 -16 64 -37v-139h-619q-53 0 -83.5 -24.5t-30.5 -77.5v-740q0 -47 23.5 -72.5t82.5 -25.5h650v-139q-27 -20 -64 -37q-35 -14 -86 -25.5t-129 -11.5h-459q-154 0 -227.5 77t-73.5 195zM547 1554v252
h276v-252h-276z" />
    <glyph glyph-name="cdotaccent" unicode="&#x10b;" horiz-adv-x="1042" 
d="M125 268v471q0 127 83 201t236 74h244q80 0 131 -13.5t82 -29.5q35 -18 53 -41v-121h-442q-53 0 -83 -24.5t-30 -77.5v-402q0 -47 25 -73.5t86 -26.5h459v-121q-16 -25 -51 -43q-31 -16 -84.5 -28.5t-143.5 -12.5h-264q-150 0 -225.5 73.5t-75.5 194.5zM424 1217v231h276
v-231h-276z" />
    <glyph glyph-name="Ccaron" unicode="&#x10c;" horiz-adv-x="1224" 
d="M135 272v818q0 127 83 201.5t231 74.5h436q70 0 120 -11.5t82 -25.5q37 -16 64 -37v-139h-619q-53 0 -83.5 -24.5t-30.5 -77.5v-740q0 -47 23.5 -72.5t82.5 -25.5h650v-139q-27 -20 -64 -37q-35 -14 -86 -25.5t-129 -11.5h-459q-154 0 -227.5 77t-73.5 195zM268 1724
l111 131l283 -192l286 186l109 -123l-297 -251h-195z" />
    <glyph glyph-name="ccaron" unicode="&#x10d;" horiz-adv-x="1042" 
d="M125 268v471q0 127 83 201t236 74h244q80 0 131 -13.5t82 -29.5q35 -18 53 -41v-121h-442q-53 0 -83 -24.5t-30 -77.5v-402q0 -47 25 -73.5t86 -26.5h459v-121q-16 -25 -51 -43q-31 -16 -84.5 -28.5t-143.5 -12.5h-264q-150 0 -225.5 73.5t-75.5 194.5zM211 1425l131 111
l221 -213l225 207l130 -103l-256 -292h-195z" />
    <glyph glyph-name="Dcaron" unicode="&#x10e;" horiz-adv-x="1468" 
d="M145 0v1366h875q154 0 233.5 -79t79.5 -202v-798q0 -147 -82 -217t-233 -70h-873zM303 1724l111 131l282 -192l287 186l109 -123l-297 -251h-195zM430 213h498q74 0 99.5 24.5t25.5 86.5v714q0 59 -17.5 87t-89.5 28h-516v-940z" />
    <glyph glyph-name="dcaron" unicode="&#x10f;" horiz-adv-x="1482" 
d="M123 279v446q0 141 85 215t232 74h166q92 0 143.5 -33t77.5 -68v543l273 47v-1503h-252l-17 102q-86 -102 -215 -102h-186q-147 0 -227 72.5t-80 206.5zM399 305q-6 -100 113 -100h164q109 0 151 22v557q-8 6 -24 13q-14 4 -39 8t-64 4h-186q-115 0 -115 -100v-404z
M1241 1073v426h252v-117q0 -80 -21.5 -137t-48.5 -96q-31 -45 -67 -76h-115z" />
    <glyph glyph-name="Dcroat" unicode="&#x110;" horiz-adv-x="1468" 
d="M0 600v215h145v551h875q154 0 233.5 -79t79.5 -202v-798q0 -147 -82 -217t-233 -70h-873v600h-145zM430 213h498q74 0 99.5 24.5t25.5 86.5v714q0 59 -17.5 87t-89.5 28h-516v-338h324v-215h-324v-387z" />
    <glyph glyph-name="dcroat" unicode="&#x111;" horiz-adv-x="1241" 
d="M123 279v446q0 141 85 215t232 74h166q92 0 143.5 -33t77.5 -68v258h-389v195h389v90l273 47v-137h182v-195h-182v-1171h-252l-17 102q-86 -102 -215 -102h-186q-147 0 -227 72.5t-80 206.5zM399 305q-6 -100 113 -100h164q109 0 151 22v557q-8 6 -24 13q-14 4 -39 8
t-64 4h-186q-115 0 -115 -100v-404z" />
    <glyph glyph-name="Emacron" unicode="&#x112;" horiz-adv-x="1236" 
d="M145 0v1366h1031v-213h-748v-338h621v-215h-621v-387h768v-213h-1051zM326 1569v196h673v-196h-673z" />
    <glyph glyph-name="emacron" unicode="&#x113;" horiz-adv-x="1179" 
d="M125 281v444q0 78 24.5 132t68.5 89t105.5 51.5t135.5 16.5h262q162 0 245 -75t83 -204v-319h-650v-115q0 -51 20.5 -73.5t90.5 -22.5h530v-121q-16 -25 -49 -43q-29 -16 -79 -28.5t-130 -12.5h-338q-319 0 -319 281zM233 1223v196h713v-196h-713zM399 621h373v88
q0 55 -23.5 77.5t-86.5 22.5h-152q-68 0 -89.5 -27.5t-21.5 -70.5v-90z" />
    <glyph glyph-name="Ebreve" unicode="&#x114;" horiz-adv-x="1236" 
d="M145 0v1366h1031v-213h-748v-338h621v-215h-621v-387h768v-213h-1051zM309 1784v41h221v-19q0 -31 3.5 -53t16.5 -35.5t38.5 -20.5t70.5 -7t72 7t40 20.5t16.5 36t3.5 52.5v19h221v-41q0 -61 -11.5 -113.5t-48.5 -90.5t-106.5 -59.5t-186.5 -21.5q-111 0 -179 21.5
t-106 59.5t-51.5 90t-13.5 114z" />
    <glyph glyph-name="ebreve" unicode="&#x115;" horiz-adv-x="1179" 
d="M125 281v444q0 78 24.5 132t68.5 89t105.5 51.5t135.5 16.5h262q162 0 245 -75t83 -204v-319h-650v-115q0 -51 20.5 -73.5t90.5 -22.5h530v-121q-16 -25 -49 -43q-29 -16 -79 -28.5t-130 -12.5h-338q-319 0 -319 281zM266 1425v62h195v-41q0 -29 5 -54.5t19.5 -44
t40 -29.5t66.5 -11q84 0 108.5 39.5t24.5 99.5v41h195v-62q0 -59 -10.5 -112t-45.5 -93t-99.5 -65t-172.5 -25q-104 0 -168 25t-98.5 65t-47 93t-12.5 112zM399 621h373v88q0 55 -23.5 77.5t-86.5 22.5h-152q-68 0 -89.5 -27.5t-21.5 -70.5v-90z" />
    <glyph glyph-name="Edotaccent" unicode="&#x116;" horiz-adv-x="1236" 
d="M145 0v1366h1031v-213h-748v-338h621v-215h-621v-387h768v-213h-1051zM541 1554v252h276v-252h-276z" />
    <glyph glyph-name="edotaccent" unicode="&#x117;" horiz-adv-x="1179" 
d="M125 281v444q0 78 24.5 132t68.5 89t105.5 51.5t135.5 16.5h262q162 0 245 -75t83 -204v-319h-650v-115q0 -51 20.5 -73.5t90.5 -22.5h530v-121q-16 -25 -49 -43q-29 -16 -79 -28.5t-130 -12.5h-338q-319 0 -319 281zM399 621h373v88q0 55 -23.5 77.5t-86.5 22.5h-152
q-68 0 -89.5 -27.5t-21.5 -70.5v-90zM461 1217v231h276v-231h-276z" />
    <glyph glyph-name="Eogonek" unicode="&#x118;" horiz-adv-x="1236" 
d="M145 0v1366h1031v-213h-748v-338h621v-215h-621v-387h768v-213q-55 -27 -96 -63q-37 -31 -66.5 -75t-29.5 -100q0 -55 29.5 -79.5t101.5 -24.5q49 0 94 10q23 4 45 10l29 -129q-29 -12 -66 -20q-31 -8 -75 -14.5t-97 -6.5q-63 0 -116.5 9.5t-93.5 34t-62.5 64.5
t-22.5 101q0 66 37 119t82 90q53 43 121 74h-865z" />
    <glyph glyph-name="eogonek" unicode="&#x119;" horiz-adv-x="1179" 
d="M125 281v444q0 78 24.5 132t68.5 89t105.5 51.5t135.5 16.5h262q162 0 245 -75t83 -204v-319h-650v-115q0 -51 20.5 -73.5t90.5 -22.5h530v-121q-10 -10 -22 -18q-23 -20 -70 -43q-23 -12 -55.5 -33t-62 -49.5t-50 -67.5t-20.5 -86q0 -55 29.5 -79.5t101.5 -24.5
q49 0 94 10q23 4 45 10l29 -129q-29 -12 -66 -20q-31 -8 -75 -14.5t-97 -6.5q-63 0 -116.5 9t-93.5 34t-62.5 65t-22.5 101q0 49 20.5 89t50.5 73t62.5 56.5t59.5 39.5h-275q-319 0 -319 281zM399 621h373v88q0 55 -23.5 77.5t-86.5 22.5h-152q-68 0 -89.5 -27.5
t-21.5 -70.5v-90z" />
    <glyph glyph-name="Ecaron" unicode="&#x11a;" horiz-adv-x="1236" 
d="M145 0v1366h1031v-213h-748v-338h621v-215h-621v-387h768v-213h-1051zM274 1724l111 131l283 -192l286 186l109 -123l-297 -251h-195z" />
    <glyph glyph-name="ecaron" unicode="&#x11b;" horiz-adv-x="1179" 
d="M125 281v444q0 78 24.5 132t68.5 89t105.5 51.5t135.5 16.5h262q162 0 245 -75t83 -204v-319h-650v-115q0 -51 20.5 -73.5t90.5 -22.5h530v-121q-16 -25 -49 -43q-29 -16 -79 -28.5t-130 -12.5h-338q-319 0 -319 281zM244 1425l131 111l221 -213l225 207l129 -103
l-256 -292h-194zM399 621h373v88q0 55 -23.5 77.5t-86.5 22.5h-152q-68 0 -89.5 -27.5t-21.5 -70.5v-90z" />
    <glyph glyph-name="Gcircumflex" unicode="&#x11c;" horiz-adv-x="1409" 
d="M135 272v822q0 121 83 196.5t226 75.5h496q70 0 119 -11.5t82 -25.5q37 -16 61 -37v-139h-655q-66 0 -97.5 -22.5t-31.5 -94.5v-706q0 -72 27.5 -94.5t99.5 -22.5h338q66 0 93.5 22.5t27.5 77.5v279h-349v217h629v-541q0 -127 -83 -197.5t-218 -70.5h-547
q-141 0 -221 71.5t-80 200.5zM309 1604l297 251h195l297 -249l-111 -131l-282 192l-287 -186z" />
    <glyph glyph-name="gcircumflex" unicode="&#x11d;" horiz-adv-x="1241" 
d="M123 274v447q0 129 75.5 211t247.5 82h170q63 0 116.5 -23.5t94.5 -75.5l21 99h252v-1123q0 -143 -84 -210.5t-236 -67.5h-305q-68 0 -124 12.5t-97 28.5q-49 18 -86 41v123h541q63 0 90.5 22.5t27.5 83.5v174q0 -2 -14 -17t-39.5 -33.5t-64.5 -33t-91 -14.5h-196
q-139 0 -219 72.5t-80 201.5zM276 1223l256 293h195l256 -291l-131 -111l-221 213l-225 -207zM399 307q0 -57 26 -79.5t89 -22.5h193q63 0 94 10q16 6 26 12v559q-29 16 -62.5 19.5t-74.5 3.5h-176q-115 0 -115 -96v-406z" />
    <glyph glyph-name="Gbreve" unicode="&#x11e;" horiz-adv-x="1409" 
d="M135 272v822q0 121 83 196.5t226 75.5h496q70 0 119 -11.5t82 -25.5q37 -16 61 -37v-139h-655q-66 0 -97.5 -22.5t-31.5 -94.5v-706q0 -72 27.5 -94.5t99.5 -22.5h338q66 0 93.5 22.5t27.5 77.5v279h-349v217h629v-541q0 -127 -83 -197.5t-218 -70.5h-547
q-141 0 -221 71.5t-80 200.5zM352 1784v41h221v-19q0 -31 3.5 -53t16.5 -35.5t38.5 -20.5t70.5 -7t72 7t40 20.5t16.5 36t3.5 52.5v19h221v-41q0 -61 -11.5 -113.5t-48.5 -90.5t-106.5 -59.5t-186.5 -21.5q-111 0 -179 21.5t-106 59.5t-51.5 90t-13.5 114z" />
    <glyph glyph-name="gbreve" unicode="&#x11f;" horiz-adv-x="1241" 
d="M123 274v447q0 129 75.5 211t247.5 82h170q63 0 116.5 -23.5t94.5 -75.5l21 99h252v-1123q0 -143 -84 -210.5t-236 -67.5h-305q-68 0 -124 12.5t-97 28.5q-49 18 -86 41v123h541q63 0 90.5 22.5t27.5 83.5v174q0 -2 -14 -17t-39.5 -33.5t-64.5 -33t-91 -14.5h-196
q-139 0 -219 72.5t-80 201.5zM293 1425v62h194v-41q0 -29 5.5 -54.5t19.5 -44t40 -29.5t66 -11q84 0 109 39.5t25 99.5v41h194v-62q0 -59 -10 -112t-45 -93t-99.5 -65t-173.5 -25q-104 0 -167.5 25t-98.5 65t-47 93t-12 112zM399 307q0 -57 26 -79.5t89 -22.5h193
q63 0 94 10q16 6 26 12v559q-29 16 -62.5 19.5t-74.5 3.5h-176q-115 0 -115 -96v-406z" />
    <glyph glyph-name="Gdotaccent" unicode="&#x120;" horiz-adv-x="1409" 
d="M135 272v822q0 121 83 196.5t226 75.5h496q70 0 119 -11.5t82 -25.5q37 -16 61 -37v-139h-655q-66 0 -97.5 -22.5t-31.5 -94.5v-706q0 -72 27.5 -94.5t99.5 -22.5h338q66 0 93.5 22.5t27.5 77.5v279h-349v217h629v-541q0 -127 -83 -197.5t-218 -70.5h-547
q-141 0 -221 71.5t-80 200.5zM565 1554v252h277v-252h-277z" />
    <glyph glyph-name="gdotaccent" unicode="&#x121;" horiz-adv-x="1241" 
d="M123 274v447q0 129 75.5 211t247.5 82h170q63 0 116.5 -23.5t94.5 -75.5l21 99h252v-1123q0 -143 -84 -210.5t-236 -67.5h-305q-68 0 -124 12.5t-97 28.5q-49 18 -86 41v123h541q63 0 90.5 22.5t27.5 83.5v174q0 -2 -14 -17t-39.5 -33.5t-64.5 -33t-91 -14.5h-196
q-139 0 -219 72.5t-80 201.5zM399 307q0 -57 26 -79.5t89 -22.5h193q63 0 94 10q16 6 26 12v559q-29 16 -62.5 19.5t-74.5 3.5h-176q-115 0 -115 -96v-406zM481 1217v231h277v-231h-277z" />
    <glyph glyph-name="Gcommaaccent" unicode="&#x122;" horiz-adv-x="1409" 
d="M135 272v822q0 121 83 196.5t226 75.5h496q70 0 119 -11.5t82 -25.5q37 -16 61 -37v-139h-655q-66 0 -97.5 -22.5t-31.5 -94.5v-706q0 -72 27.5 -94.5t99.5 -22.5h338q66 0 93.5 22.5t27.5 77.5v279h-349v217h629v-541q0 -127 -83 -197.5t-218 -70.5h-547
q-141 0 -221 71.5t-80 200.5zM578 -127h251v-117q0 -80 -21.5 -137t-47.5 -96q-31 -45 -68 -76h-114v426z" />
    <glyph glyph-name="gcommaaccent" unicode="&#x123;" horiz-adv-x="1241" 
d="M123 274v447q0 129 75.5 211t247.5 82h170q63 0 116.5 -23.5t94.5 -75.5l21 99h252v-1123q0 -143 -84 -210.5t-236 -67.5h-305q-68 0 -124 12.5t-97 28.5q-49 18 -86 41v123h541q63 0 90.5 22.5t27.5 83.5v174q0 -2 -14 -17t-39.5 -33.5t-64.5 -33t-91 -14.5h-196
q-139 0 -219 72.5t-80 201.5zM399 307q0 -57 26 -79.5t89 -22.5h193q63 0 94 10q16 6 26 12v559q-29 16 -62.5 19.5t-74.5 3.5h-176q-115 0 -115 -96v-406zM494 1165v117q0 78 20.5 136.5t46.5 97.5q31 45 70 75h114v-426h-251z" />
    <glyph glyph-name="Hcircumflex" unicode="&#x124;" horiz-adv-x="1443" 
d="M145 0v1366h283v-551h588v551h282v-1366h-282v600h-588v-600h-283zM328 1604l297 251h194l297 -249l-110 -131l-283 192l-287 -186z" />
    <glyph glyph-name="hcircumflex" unicode="&#x125;" horiz-adv-x="1220" 
d="M-72 1675l256 293h195l256 -291l-131 -110l-221 213l-226 -207zM141 0v1450l277 47v-584q4 6 20.5 22.5t44 34t65.5 31t85 13.5h137q162 0 239.5 -79t77.5 -206v-729h-274v705q0 49 -30.5 76.5t-80.5 27.5h-120q-47 0 -79 -7t-50 -16q-23 -10 -35 -22v-764h-277z" />
    <glyph glyph-name="Hbar" unicode="&#x126;" horiz-adv-x="1443" 
d="M-41 1024v160h186v182h283v-182h588v182h282v-182h187v-160h-187v-1024h-282v600h-588v-600h-283v1024h-186zM428 815h588v209h-588v-209z" />
    <glyph glyph-name="hbar" unicode="&#x127;" horiz-adv-x="1220" 
d="M-41 1171v195h182v84l277 47v-131h385v-195h-385v-258q4 6 20.5 22.5t44 34t65.5 31t85 13.5h137q162 0 239.5 -79t77.5 -206v-729h-274v705q0 49 -30.5 76.5t-80.5 27.5h-120q-47 0 -79 -7t-50 -16q-23 -10 -35 -22v-764h-277v1171h-182z" />
    <glyph glyph-name="Itilde" unicode="&#x128;" horiz-adv-x="573" 
d="M-125 1653q35 41 78 73q37 29 88 51.5t115 20.5q43 0 78.5 -12t69.5 -25.5t64.5 -26t61.5 -12.5q29 -2 59.5 10.5t53.5 28.5q27 18 51 41l106 -139q-33 -41 -75 -74q-37 -29 -88.5 -52.5t-110.5 -20.5q-41 0 -78 12t-70.5 26.5t-64.5 26.5t-59 12q-35 0 -65 -11t-54 -28
q-29 -18 -53 -41zM145 0v1366h283v-1366h-283z" />
    <glyph glyph-name="itilde" unicode="&#x129;" horiz-adv-x="563" 
d="M-80 1315q31 41 68 71q33 27 78 48.5t100 21.5q37 0 68.5 -12t61.5 -25.5t57.5 -25t54.5 -11.5q29 0 52 11.5t42 25.5q23 16 39 39l102 -133q-31 -41 -68 -72q-33 -29 -75.5 -50t-96.5 -21q-37 0 -70.5 12t-62 25.5t-55.5 25.5t-51 12q-29 0 -55.5 -11t-45.5 -25
q-23 -16 -40 -39zM143 0v1014h277v-1014h-277z" />
    <glyph glyph-name="Imacron" unicode="&#x12a;" horiz-adv-x="573" 
d="M-8 1569v196h592v-196h-592zM145 0v1366h283v-1366h-283z" />
    <glyph glyph-name="imacron" unicode="&#x12b;" horiz-adv-x="563" 
d="M-12 1223v196h590v-196h-590zM143 0v1014h277v-1014h-277z" />
    <glyph glyph-name="Ibreve" unicode="&#x12c;" horiz-adv-x="573" 
d="M-33 1804v21h211v-19q0 -61 21.5 -88.5t87.5 -27.5q68 0 89 27.5t21 88.5v19h211v-21q0 -61 -8 -117.5t-40 -97.5t-96.5 -65.5t-176.5 -24.5q-111 0 -175.5 24.5t-96 65.5t-40 97.5t-8.5 117.5zM145 0v1366h283v-1366h-283z" />
    <glyph glyph-name="ibreve" unicode="&#x12d;" horiz-adv-x="563" 
d="M-45 1425v62h195v-41q0 -29 5 -54.5t19 -44t40 -29.5t67 -11q84 0 108.5 39.5t24.5 99.5v41h194v-62q0 -59 -10 -112t-45 -93t-99.5 -65t-172.5 -25q-104 0 -168 25t-98.5 65t-47 93t-12.5 112zM143 0v1014h277v-1014h-277z" />
    <glyph glyph-name="Iogonek" unicode="&#x12e;" horiz-adv-x="573" 
d="M23 -283q0 59 33.5 110.5t74.5 90.5q49 45 111 82h-97v1366h283v-1366q-49 -31 -86 -68q-33 -33 -59.5 -75.5t-26.5 -94.5q0 -55 29.5 -79.5t101.5 -24.5q49 0 94 10q23 4 45 10l29 -129q-29 -12 -66 -20q-31 -8 -74.5 -14.5t-97.5 -6.5q-63 0 -116.5 9.5t-93 34
t-62 64.5t-22.5 101z" />
    <glyph glyph-name="iogonek" unicode="&#x12f;" horiz-adv-x="563" 
d="M4 -283q0 66 36 119t79 90q51 43 114 74h-90v1014h277v-1014q-53 -27 -92 -63q-35 -31 -62.5 -75t-27.5 -100q0 -55 29.5 -79.5t101.5 -24.5q49 0 94 10q23 4 45 10l29 -129q-29 -12 -66 -20q-31 -8 -75 -14.5t-97 -6.5q-63 0 -116.5 9.5t-93.5 34t-62.5 64.5t-22.5 101z
M143 1217v231h277v-231h-277z" />
    <glyph glyph-name="Idotaccent" unicode="&#x130;" horiz-adv-x="573" 
d="M145 0v1366h283v-1366h-283zM150 1554v252h276v-252h-276z" />
    <glyph glyph-name="dotlessi" unicode="&#x131;" horiz-adv-x="563" 
d="M143 0v1014h277v-1014h-277z" />
    <glyph glyph-name="IJ" unicode="&#x132;" horiz-adv-x="1632" 
d="M145 0v1366h283v-1366h-283zM578 285v219l282 47v-229q0 -59 25.5 -84t91.5 -25h115q59 0 86.5 22.5t27.5 81.5v1049h281v-1090q0 -133 -81 -204.5t-224 -71.5h-299q-147 0 -226 75t-79 210z" />
    <glyph glyph-name="ij" unicode="&#x133;" horiz-adv-x="1118" 
d="M143 0v1014h277v-1014h-277zM143 1217v231h277v-231h-277zM522 -182h74q37 0 58.5 4t33.5 15t15.5 31.5t3.5 53.5v1092h274v-1143q0 -123 -73.5 -190.5t-217.5 -67.5h-168v205zM707 1217v231h274v-231h-274z" />
    <glyph glyph-name="Jcircumflex" unicode="&#x134;" horiz-adv-x="1249" 
d="M94 285v219l283 47v-229q0 -59 25.5 -84t91.5 -25h217q59 0 86.5 22.5t27.5 81.5v1049h281v-1090q0 -133 -81 -204.5t-224 -71.5h-402q-147 0 -226 75t-79 210zM610 1604l256 251h195l256 -249l-111 -131l-241 192l-246 -186z" />
    <glyph glyph-name="jcircumflex" unicode="&#x135;" horiz-adv-x="555" 
d="M-72 1223l256 293h195l256 -291l-131 -111l-221 213l-226 -207zM-41 -182h74q37 0 58.5 4t33.5 15t15 31.5t3 53.5v1092h275v-1143q0 -123 -74 -190.5t-217 -67.5h-168v205z" />
    <glyph glyph-name="Kcommaaccent" unicode="&#x136;" horiz-adv-x="1261" 
d="M145 0v1366h285v-602l512 602h330l-541 -639l572 -727h-340l-418 537l-115 -123v-414h-285zM524 -127h252v-117q0 -80 -21.5 -137t-47.5 -96q-31 -45 -68 -76h-115v426z" />
    <glyph glyph-name="kcommaaccent" unicode="&#x137;" horiz-adv-x="1103" 
d="M141 0v1456l269 47v-889l340 398h331l-387 -432l439 -580h-330l-289 387l-104 -113v-274h-269zM426 -127h252v-117q0 -80 -21.5 -137t-48.5 -96q-31 -45 -67 -76h-115v426z" />
    <glyph glyph-name="kgreenlandic" unicode="&#x138;" horiz-adv-x="1103" 
d="M141 0v1014h269v-400l340 398h331l-387 -432l439 -580h-330l-289 387l-104 -113v-274h-269z" />
    <glyph glyph-name="Lacute" unicode="&#x139;" horiz-adv-x="1179" 
d="M145 0v1366h283v-1153h719v-213h-1002zM174 1503l184 314h326l-301 -314h-209z" />
    <glyph glyph-name="lacute" unicode="&#x13a;" horiz-adv-x="555" 
d="M141 0v1458l273 47v-1505h-273zM174 1626l143 313h306l-240 -313h-209z" />
    <glyph glyph-name="Lcommaaccent" unicode="&#x13b;" horiz-adv-x="1179" 
d="M145 0v1366h283v-1153h719v-213h-1002zM463 -127h252v-117q0 -80 -21.5 -137t-48.5 -96q-31 -45 -67 -76h-115v426z" />
    <glyph glyph-name="lcommaaccent" unicode="&#x13c;" horiz-adv-x="555" 
d="M141 0v1458l273 47v-1505h-273zM152 -127h251v-117q0 -80 -21.5 -137t-47.5 -96q-31 -45 -68 -76h-114v426z" />
    <glyph glyph-name="Lcaron" unicode="&#x13d;" horiz-adv-x="1179" 
d="M145 0v1366h283v-1153h719v-213h-1002zM668 940v426h252v-117q0 -80 -21.5 -137t-48.5 -96q-31 -45 -68 -76h-114z" />
    <glyph glyph-name="lcaron" unicode="&#x13e;" horiz-adv-x="796" 
d="M141 0v1458l273 47v-1505h-273zM555 1079v426h252v-116q0 -80 -21.5 -137.5t-48.5 -96.5q-31 -45 -67 -76h-115z" />
    <glyph glyph-name="Ldot" unicode="&#x13f;" horiz-adv-x="1179" 
d="M145 0v1366h283v-1153h719v-213h-1002zM754 674v231h235v-231h-235z" />
    <glyph glyph-name="ldot" unicode="&#x140;" horiz-adv-x="790" 
d="M141 0v1458l273 47v-1505h-273zM555 322v231h236v-231h-236z" />
    <glyph glyph-name="Lslash" unicode="&#x141;" horiz-adv-x="1179" 
d="M-20 395v240l165 94v637h283v-522l414 237v-239l-414 -238v-391h719v-213h-1002v489z" />
    <glyph glyph-name="lslash" unicode="&#x142;" horiz-adv-x="555" 
d="M-8 487v261l149 81v629l273 47v-575l166 92v-260l-166 -92v-670h-273v569z" />
    <glyph glyph-name="Nacute" unicode="&#x143;" horiz-adv-x="1454" 
d="M145 0v1366h306l577 -920v920h281v-1366h-320l-561 899v-899h-283zM588 1503l184 314h326l-301 -314h-209z" />
    <glyph glyph-name="nacute" unicode="&#x144;" horiz-adv-x="1220" 
d="M141 0v1014h256l13 -105q25 29 59 52q29 20 70 36.5t94 16.5h137q162 0 239.5 -77t77.5 -204v-733h-272v723q0 49 -30.5 67.5t-79.5 18.5h-123q-47 0 -79 -7t-52 -16q-23 -10 -37 -22v-764h-273zM475 1155l143 313h306l-240 -313h-209z" />
    <glyph glyph-name="Ncommaaccent" unicode="&#x145;" horiz-adv-x="1454" 
d="M145 0v1366h306l577 -920v920h281v-1366h-320l-561 899v-899h-283zM600 -127h252v-117q0 -80 -21.5 -137t-48.5 -96q-31 -45 -67 -76h-115v426z" />
    <glyph glyph-name="ncommaaccent" unicode="&#x146;" horiz-adv-x="1220" 
d="M141 0v1014h256l13 -105q25 29 59 52q29 20 70 36.5t94 16.5h137q162 0 239.5 -77t77.5 -204v-733h-272v723q0 49 -30.5 67.5t-79.5 18.5h-123q-47 0 -79 -7t-52 -16q-23 -10 -37 -22v-764h-273zM483 -127h252v-117q0 -80 -21.5 -137t-47.5 -96q-31 -45 -68 -76h-115v426
z" />
    <glyph glyph-name="Ncaron" unicode="&#x147;" horiz-adv-x="1454" 
d="M145 0v1366h306l577 -920v920h281v-1366h-320l-561 899v-899h-283zM332 1724l110 131l283 -192l287 186l108 -123l-297 -251h-194z" />
    <glyph glyph-name="ncaron" unicode="&#x148;" horiz-adv-x="1220" 
d="M141 0v1014h256l13 -105q25 29 59 52q29 20 70 36.5t94 16.5h137q162 0 239.5 -77t77.5 -204v-733h-272v723q0 49 -30.5 67.5t-79.5 18.5h-123q-47 0 -79 -7t-52 -16q-23 -10 -37 -22v-764h-273zM252 1425l131 111l221 -213l225 207l129 -103l-256 -292h-194z" />
    <glyph glyph-name="napostrophe" unicode="&#x149;" horiz-adv-x="1220" 
d="M0 1112v426h252v-117q0 -80 -21.5 -137t-48.5 -96q-31 -45 -67 -76h-115zM141 0v1014h256l13 -105q25 29 59 52q29 20 70 36.5t94 16.5h137q162 0 239.5 -77t77.5 -204v-733h-272v723q0 49 -30.5 67.5t-79.5 18.5h-123q-47 0 -79 -7t-52 -16q-23 -10 -37 -22v-764h-273z
" />
    <glyph glyph-name="Eng" unicode="&#x14a;" horiz-adv-x="1454" 
d="M145 0v1366h306l577 -827v827h281v-1538q0 -133 -81 -205t-224 -72h-205q-147 0 -226 65t-79 200v96l282 47v-86q0 -59 25.5 -84t91.5 -25h20q59 0 87 23t28 82v207l-600 823v-899h-283z" />
    <glyph glyph-name="eng" unicode="&#x14b;" horiz-adv-x="1220" 
d="M141 0v1014h256l13 -105q25 29 59 52q29 20 70 36.5t94 16.5h137q162 0 239.5 -77t77.5 -204v-862q0 -123 -73.5 -190.5t-216.5 -67.5h-213v205h118q37 0 59.5 4t34 15t15.5 31.5t4 53.5v801q0 49 -30.5 67.5t-79.5 18.5h-123q-47 0 -79 -7t-52 -16q-23 -10 -37 -22v-764
h-273z" />
    <glyph glyph-name="Omacron" unicode="&#x14c;" horiz-adv-x="1478" 
d="M135 281v804q0 72 24.5 125.5t67.5 88t99.5 51t122.5 16.5h577q152 0 234.5 -74.5t82.5 -204.5v-806q0 -133 -78.5 -207t-234.5 -74h-584q-156 0 -233.5 72.5t-77.5 208.5zM401 1569v196h674v-196h-674zM418 324q0 -66 26.5 -88.5t92.5 -22.5h403q41 0 65.5 8t37 22.5
t15.5 35t3 45.5v720q0 53 -28.5 81t-94.5 28h-399q-68 0 -94.5 -27.5t-26.5 -81.5v-720z" />
    <glyph glyph-name="omacron" unicode="&#x14d;" horiz-adv-x="1222" 
d="M125 281v452q0 72 24.5 125t67.5 88t99.5 51.5t119.5 16.5h346q154 0 236 -76t82 -205v-452q0 -133 -79 -207t-235 -74h-352q-156 0 -232.5 72.5t-76.5 208.5zM254 1223v196h713v-196h-713zM399 315q0 -66 27 -88t92 -22h184q41 0 66 8t37 22.5t16 35t4 44.5v385
q0 53 -29.5 81t-95.5 28h-180q-68 0 -94.5 -27.5t-26.5 -81.5v-385z" />
    <glyph glyph-name="Obreve" unicode="&#x14e;" horiz-adv-x="1478" 
d="M135 281v804q0 72 24.5 125.5t67.5 88t99.5 51t122.5 16.5h577q152 0 234.5 -74.5t82.5 -204.5v-806q0 -133 -78.5 -207t-234.5 -74h-584q-156 0 -233.5 72.5t-77.5 208.5zM387 1784v41h221v-19q0 -31 3 -53t16.5 -35.5t39 -20.5t70.5 -7t72 7t40 20.5t16 36t3 52.5v19
h222v-41q0 -61 -11.5 -113.5t-48.5 -90.5t-106.5 -59.5t-186.5 -21.5q-111 0 -179.5 21.5t-106 59.5t-51 90t-13.5 114zM418 324q0 -66 26.5 -88.5t92.5 -22.5h403q41 0 65.5 8t37 22.5t15.5 35t3 45.5v720q0 53 -28.5 81t-94.5 28h-399q-68 0 -94.5 -27.5t-26.5 -81.5v-720
z" />
    <glyph glyph-name="obreve" unicode="&#x14f;" horiz-adv-x="1222" 
d="M125 281v452q0 72 24.5 125t67.5 88t99.5 51.5t119.5 16.5h346q154 0 236 -76t82 -205v-452q0 -133 -79 -207t-235 -74h-352q-156 0 -232.5 72.5t-76.5 208.5zM285 1425v62h194v-41q0 -29 5 -54.5t19.5 -44t40 -29.5t66.5 -11q84 0 108.5 39.5t24.5 99.5v41h195v-62
q0 -59 -10 -112t-45 -93t-99.5 -65t-173.5 -25q-104 0 -167.5 25t-98.5 65t-47 93t-12 112zM399 315q0 -66 27 -88t92 -22h184q41 0 66 8t37 22.5t16 35t4 44.5v385q0 53 -29.5 81t-95.5 28h-180q-68 0 -94.5 -27.5t-26.5 -81.5v-385z" />
    <glyph glyph-name="Ohungarumlaut" unicode="&#x150;" horiz-adv-x="1478" 
d="M135 281v804q0 72 24.5 125.5t67.5 88t99.5 51t122.5 16.5h577q152 0 234.5 -74.5t82.5 -204.5v-806q0 -133 -78.5 -207t-234.5 -74h-584q-156 0 -233.5 72.5t-77.5 208.5zM365 1501l143 314h326l-240 -314h-229zM418 324q0 -66 26.5 -88.5t92.5 -22.5h403q41 0 65.5 8
t37 22.5t15.5 35t3 45.5v720q0 53 -28.5 81t-94.5 28h-399q-68 0 -94.5 -27.5t-26.5 -81.5v-720zM795 1501l143 314h326l-240 -314h-229z" />
    <glyph glyph-name="ohungarumlaut" unicode="&#x151;" horiz-adv-x="1222" 
d="M125 281v452q0 72 24.5 125t67.5 88t99.5 51.5t119.5 16.5h346q154 0 236 -76t82 -205v-452q0 -133 -79 -207t-235 -74h-352q-156 0 -232.5 72.5t-76.5 208.5zM313 1155l123 313h285l-219 -313h-189zM399 315q0 -66 27 -88t92 -22h184q41 0 66 8t37 22.5t16 35t4 44.5
v385q0 53 -29.5 81t-95.5 28h-180q-68 0 -94.5 -27.5t-26.5 -81.5v-385zM682 1155l123 313h285l-220 -313h-188z" />
    <glyph glyph-name="OE" unicode="&#x152;" horiz-adv-x="2070" 
d="M135 281v804q0 72 24.5 125.5t67.5 88t99.5 51t122.5 16.5h1560v-213h-706v-338h579v-215h-579v-387h727v-213h-1584q-156 0 -233.5 72.5t-77.5 208.5zM418 324q0 -66 26.5 -88.5t92.5 -22.5h483v940h-481q-68 0 -94.5 -27.5t-26.5 -81.5v-720z" />
    <glyph glyph-name="oe" unicode="&#x153;" horiz-adv-x="1880" 
d="M125 281v452q0 72 24.5 125t67.5 88t99.5 51.5t119.5 16.5h346q55 0 89 -14.5t53.5 -33t28 -35t8.5 -18.5q0 2 10 18.5t32.5 35t60.5 33t95 14.5h262q162 0 245 -75t83 -204v-319h-649v-115q0 -51 20.5 -73.5t89.5 -22.5h531v-121q-16 -25 -49 -43q-29 -16 -79 -28.5
t-130 -12.5h-338q-55 0 -91 13.5t-56.5 29.5t-28.5 30.5t-8 18.5q0 -2 -10.5 -16.5t-31 -31.5t-53 -30.5t-80.5 -13.5h-352q-156 0 -232.5 72.5t-76.5 208.5zM399 315q0 -66 27 -88t92 -22h184q41 0 66 8t37 22.5t16 35t4 44.5v396q0 98 -125 98h-180q-68 0 -94.5 -27.5
t-26.5 -81.5v-385zM1100 621h373v88q0 55 -24 77.5t-87 22.5h-152q-61 0 -85.5 -24.5t-24.5 -61.5v-102z" />
    <glyph glyph-name="Racute" unicode="&#x154;" horiz-adv-x="1351" 
d="M145 0v1366h770q166 0 244 -79t78 -208v-268q0 -139 -84 -207.5t-225 -68.5h-54l478 -535h-355l-460 535h-107v-535h-285zM430 748h408q66 0 91 24.5t25 77.5v188q0 55 -26.5 85t-91.5 30h-406v-405zM479 1503l185 314h325l-301 -314h-209z" />
    <glyph glyph-name="racute" unicode="&#x155;" horiz-adv-x="829" 
d="M141 0v1014h265l10 -94q12 25 33 47q16 16 41.5 31.5t60.5 15.5h299l-68 -226h-254q-27 0 -47 -5t-35 -11q-18 -8 -30 -14v-758h-275zM190 1155l144 313h305l-240 -313h-209z" />
    <glyph glyph-name="Rcommaaccent" unicode="&#x156;" horiz-adv-x="1351" 
d="M145 0v1366h770q166 0 244 -79t78 -208v-268q0 -139 -84 -207.5t-225 -68.5h-54l478 -535h-355l-460 535h-107v-535h-285zM430 748h408q66 0 91 24.5t25 77.5v188q0 55 -26.5 85t-91.5 30h-406v-405zM549 -127h252v-117q0 -80 -21.5 -137t-48.5 -96q-31 -45 -67 -76h-115
v426z" />
    <glyph glyph-name="rcommaaccent" unicode="&#x157;" horiz-adv-x="829" 
d="M141 0v1014h265l10 -94q12 25 33 47q16 16 41.5 31.5t60.5 15.5h299l-68 -226h-254q-27 0 -47 -5t-35 -11q-18 -8 -30 -14v-758h-275zM152 -127h251v-117q0 -80 -21.5 -137t-47.5 -96q-31 -45 -68 -76h-114v426z" />
    <glyph glyph-name="Rcaron" unicode="&#x158;" horiz-adv-x="1351" 
d="M145 0v1366h770q166 0 244 -79t78 -208v-268q0 -139 -84 -207.5t-225 -68.5h-54l478 -535h-355l-460 535h-107v-535h-285zM281 1724l110 131l283 -192l287 186l108 -123l-297 -251h-194zM430 748h408q66 0 91 24.5t25 77.5v188q0 55 -26.5 85t-91.5 30h-406v-405z" />
    <glyph glyph-name="rcaron" unicode="&#x159;" horiz-adv-x="829" 
d="M61 1425l132 111l221 -213l225 207l129 -103l-256 -292h-195zM141 0v1014h265l10 -94q12 25 33 47q16 16 41.5 31.5t60.5 15.5h299l-68 -226h-254q-27 0 -47 -5t-35 -11q-18 -8 -30 -14v-758h-275z" />
    <glyph glyph-name="Sacute" unicode="&#x15a;" horiz-adv-x="1288" 
d="M102 860v221q0 141 86 213t234 72h444q70 0 120 -11.5t81 -25.5q37 -16 59 -37v-139h-628q-53 0 -84 -25.5t-31 -74.5v-156q0 -100 109 -100h374q156 0 238 -76t82 -205v-225q0 -135 -74 -213t-246 -78h-497q-72 0 -120 11.5t-81 25.5q-37 16 -62 37v139h682
q61 0 88 23.5t27 74.5v168q0 104 -121 105h-366q-162 0 -238 74.5t-76 201.5zM479 1503l185 314h325l-301 -314h-209z" />
    <glyph glyph-name="sacute" unicode="&#x15b;" horiz-adv-x="1085" 
d="M109 629v112q0 135 91 204t236 69h203q80 0 133 -13.5t88 -29.5q39 -18 64 -41v-121h-443q-70 0 -84 -23.5t-14 -62.5v-41q0 -31 17.5 -48.5t64.5 -17.5h262q141 0 202.5 -65.5t61.5 -169.5v-111q0 -131 -83 -200.5t-253 -69.5h-260q-80 0 -134 12.5t-89 28.5
q-39 18 -61 43v121h501q59 0 82 20.5t23 67.5v37q0 39 -17.5 60.5t-76.5 21.5h-269q-113 0 -179 58t-66 159zM403 1155l144 313h305l-240 -313h-209z" />
    <glyph glyph-name="Scircumflex" unicode="&#x15c;" horiz-adv-x="1288" 
d="M102 860v221q0 141 86 213t234 72h444q70 0 120 -11.5t81 -25.5q37 -16 59 -37v-139h-628q-53 0 -84 -25.5t-31 -74.5v-156q0 -100 109 -100h374q156 0 238 -76t82 -205v-225q0 -135 -74 -213t-246 -78h-497q-72 0 -120 11.5t-81 25.5q-37 16 -62 37v139h682
q61 0 88 23.5t27 74.5v168q0 104 -121 105h-366q-162 0 -238 74.5t-76 201.5zM236 1604l296 251h195l297 -249l-111 -131l-282 192l-287 -186z" />
    <glyph glyph-name="scircumflex" unicode="&#x15d;" horiz-adv-x="1085" 
d="M109 629v112q0 135 91 204t236 69h203q80 0 133 -13.5t88 -29.5q39 -18 64 -41v-121h-443q-70 0 -84 -23.5t-14 -62.5v-41q0 -31 17.5 -48.5t64.5 -17.5h262q141 0 202.5 -65.5t61.5 -169.5v-111q0 -131 -83 -200.5t-253 -69.5h-260q-80 0 -134 12.5t-89 28.5
q-39 18 -61 43v121h501q59 0 82 20.5t23 67.5v37q0 39 -17.5 60.5t-76.5 21.5h-269q-113 0 -179 58t-66 159zM188 1223l256 293h195l256 -291l-131 -111l-221 213l-226 -207z" />
    <glyph glyph-name="Scedilla" unicode="&#x15e;" horiz-adv-x="1288" 
d="M102 860v221q0 141 86 213t234 72h444q70 0 120 -11.5t81 -25.5q37 -16 59 -37v-139h-628q-53 0 -84 -25.5t-31 -74.5v-156q0 -100 109 -100h374q156 0 238 -76t82 -205v-225q0 -135 -74 -213t-246 -78h-145l-51 -111q117 0 165 -49t48 -127q0 -96 -78 -157.5t-207 -61.5
q-43 0 -84 7t-76 18q-39 10 -73 24l49 121q23 -10 45 -18q20 -6 45.5 -11.5t54.5 -5.5q55 0 82 24.5t27 53.5q0 33 -23.5 53.5t-89.5 20.5q-12 0 -27.5 -2t-29.5 -4q-16 -2 -33 -4l104 229h-200q-72 0 -120 11.5t-81 25.5q-37 16 -62 37v139h682q61 0 88 23.5t27 74.5v168
q0 104 -121 105h-366q-162 0 -238 74.5t-76 201.5z" />
    <glyph glyph-name="scedilla" unicode="&#x15f;" horiz-adv-x="1085" 
d="M109 629v112q0 135 91 204t236 69h203q80 0 133 -13.5t88 -29.5q39 -18 64 -41v-121h-443q-70 0 -84 -23.5t-14 -62.5v-41q0 -31 17.5 -48.5t64.5 -17.5h262q141 0 202.5 -65.5t61.5 -169.5v-111q0 -131 -83 -200.5t-253 -69.5h-24l-51 -111q117 0 165 -49t48 -127
q0 -96 -78 -157.5t-207 -61.5q-43 0 -84 7t-76 18q-39 10 -74 24l50 121q23 -10 45 -18q20 -6 45.5 -11.5t54.5 -5.5q55 0 82 24.5t27 53.5q0 33 -24 53.5t-89 20.5q-12 0 -27.5 -2t-29.5 -4q-16 -2 -33 -4l104 229h-84q-80 0 -134 12.5t-89 28.5q-39 18 -61 43v121h501
q59 0 82 20.5t23 67.5v37q0 39 -17.5 60.5t-76.5 21.5h-269q-113 0 -179 58t-66 159z" />
    <glyph glyph-name="Scaron" unicode="&#x160;" horiz-adv-x="1288" 
d="M102 860v221q0 141 86 213t234 72h444q70 0 120 -11.5t81 -25.5q37 -16 59 -37v-139h-628q-53 0 -84 -25.5t-31 -74.5v-156q0 -100 109 -100h374q156 0 238 -76t82 -205v-225q0 -135 -74 -213t-246 -78h-497q-72 0 -120 11.5t-81 25.5q-37 16 -62 37v139h682
q61 0 88 23.5t27 74.5v168q0 104 -121 105h-366q-162 0 -238 74.5t-76 201.5zM256 1724l111 131l282 -192l287 186l108 -123l-296 -251h-195z" />
    <glyph glyph-name="scaron" unicode="&#x161;" horiz-adv-x="1085" 
d="M109 629v112q0 135 91 204t236 69h203q80 0 133 -13.5t88 -29.5q39 -18 64 -41v-121h-443q-70 0 -84 -23.5t-14 -62.5v-41q0 -31 17.5 -48.5t64.5 -17.5h262q141 0 202.5 -65.5t61.5 -169.5v-111q0 -131 -83 -200.5t-253 -69.5h-260q-80 0 -134 12.5t-89 28.5
q-39 18 -61 43v121h501q59 0 82 20.5t23 67.5v37q0 39 -17.5 60.5t-76.5 21.5h-269q-113 0 -179 58t-66 159zM176 1425l131 111l221 -213l226 207l129 -103l-256 -292h-195z" />
    <glyph glyph-name="Tcommaaccent" unicode="&#x162;" horiz-adv-x="1257" 
d="M0 1153v213h1257v-213h-483v-1153h-59l-51 -111q117 0 165 -49t48 -127q0 -96 -78 -157.5t-207 -61.5q-43 0 -84 7t-76 18q-39 10 -74 24l50 121q23 -10 45 -18q20 -6 45.5 -11.5t54.5 -5.5q55 0 82 24.5t27 53.5q0 33 -24 53.5t-89 20.5q-12 0 -27.5 -2t-29.5 -4
q-16 -2 -33 -4l104 229h-74v1153h-489z" />
    <glyph glyph-name="tcommaaccent" unicode="&#x163;" horiz-adv-x="817" 
d="M23 809v205h145v319l276 43v-362h318v-205h-318v-506q0 -55 27 -76.5t80 -21.5h246v-109q-31 -27 -74 -49q-37 -18 -90 -32.5t-125 -14.5h-59l-41 -90q117 0 165 -49t48 -127q0 -96 -78 -157.5t-207 -61.5q-43 0 -84 7t-76 17q-39 10 -74 25l50 121q23 -10 45 -19
q20 -6 45.5 -11t54.5 -5q55 0 82 24.5t27 53.5q0 33 -24 53t-89 20q-12 0 -27.5 -2t-29.5 -4q-16 -2 -33 -4l104 227q-45 16 -71.5 46t-42 67t-20.5 79t-5 85v514h-145z" />
    <glyph glyph-name="Tcaron" unicode="&#x164;" horiz-adv-x="1257" 
d="M0 1153v213h1257v-213h-483v-1153h-285v1153h-489zM233 1724l111 131l283 -192l286 186l109 -123l-297 -251h-195z" />
    <glyph glyph-name="tcaron" unicode="&#x165;" horiz-adv-x="815" 
d="M23 809v205h145v319l276 43v-362h318v-205h-318v-506q0 -55 27 -76.5t80 -21.5h246v-109q-31 -27 -74 -49q-37 -18 -90 -32.5t-125 -14.5h-82q-84 0 -134 25.5t-78 67.5t-37 95.5t-9 106.5v514h-145zM563 1110v426h252v-117q0 -80 -21.5 -137t-48.5 -96q-31 -45 -67 -76
h-115z" />
    <glyph glyph-name="Tbar" unicode="&#x166;" horiz-adv-x="1257" 
d="M0 1153v213h1257v-213h-483v-338h324v-215h-324v-600h-285v600h-327v215h327v338h-489z" />
    <glyph glyph-name="tbar" unicode="&#x167;" horiz-adv-x="817" 
d="M23 809v205h145v319l276 43v-362h318v-205h-318v-174h172v-195h-172v-137q0 -55 27 -76.5t80 -21.5h246v-109q-31 -27 -74 -49q-37 -18 -90 -32.5t-125 -14.5h-82q-84 0 -134 25.5t-78 67.5t-37 95.5t-9 106.5v145h-143v195h143v174h-145z" />
    <glyph glyph-name="Utilde" unicode="&#x168;" horiz-adv-x="1454" 
d="M141 270v1096h283v-1053q0 -47 23.5 -73.5t84.5 -26.5h369q74 0 102.5 21.5t28.5 91.5v1040h281v-1092q0 -123 -76 -198.5t-229 -75.5h-564q-135 0 -219 67.5t-84 202.5zM313 1653q35 41 78 73q37 29 88 51.5t115 20.5q43 0 79 -12t69.5 -25.5t64.5 -26t61 -12.5
q29 -2 59.5 10.5t53.5 28.5q27 18 51 41l107 -139q-33 -41 -76 -74q-37 -29 -88 -52.5t-111 -20.5q-41 0 -77.5 12t-70.5 26.5t-64.5 26.5t-59.5 12q-35 0 -64.5 -11t-54.5 -28q-29 -18 -53 -41z" />
    <glyph glyph-name="utilde" unicode="&#x169;" horiz-adv-x="1220" 
d="M133 281v733h275v-715q0 -49 28.5 -71.5t81.5 -22.5h121q47 0 78 6t51 16q23 8 37 23v764h274v-1014h-254l-14 104q-25 -31 -59 -53q-29 -20 -70 -35.5t-94 -15.5h-137q-170 0 -244 77t-74 204zM209 1315q35 41 76 71q35 27 85 48.5t111 21.5q41 0 77 -11t67.5 -25.5
t62.5 -26t60 -11.5q29 -2 57.5 10.5t50.5 26.5q27 16 51 39l103 -133q-33 -41 -74 -72q-35 -29 -84 -50t-109 -21q-41 0 -76.5 12t-68.5 25.5t-62.5 25.5t-56.5 12q-33 0 -63.5 -11t-53.5 -25q-27 -16 -51 -39z" />
    <glyph glyph-name="Umacron" unicode="&#x16a;" horiz-adv-x="1454" 
d="M141 270v1096h283v-1053q0 -47 23.5 -73.5t84.5 -26.5h369q74 0 102.5 21.5t28.5 91.5v1040h281v-1092q0 -123 -76 -198.5t-229 -75.5h-564q-135 0 -219 67.5t-84 202.5zM389 1569v196h674v-196h-674z" />
    <glyph glyph-name="umacron" unicode="&#x16b;" horiz-adv-x="1220" 
d="M133 281v733h275v-715q0 -49 28.5 -71.5t81.5 -22.5h121q47 0 78 6t51 16q23 8 37 23v764h274v-1014h-254l-14 104q-25 -31 -59 -53q-29 -20 -70 -35.5t-94 -15.5h-137q-170 0 -244 77t-74 204zM254 1223v196h713v-196h-713z" />
    <glyph glyph-name="Ubreve" unicode="&#x16c;" horiz-adv-x="1454" 
d="M141 270v1096h283v-1053q0 -47 23.5 -73.5t84.5 -26.5h369q74 0 102.5 21.5t28.5 91.5v1040h281v-1092q0 -123 -76 -198.5t-229 -75.5h-564q-135 0 -219 67.5t-84 202.5zM375 1784v41h221v-19q0 -31 3 -53t16.5 -35.5t39 -20.5t70.5 -7t71.5 7t40 20.5t16.5 36t3 52.5v19
h221v-41q0 -61 -11 -113.5t-48 -90.5t-106.5 -59.5t-186.5 -21.5q-111 0 -179.5 21.5t-106.5 59.5t-51 90t-13 114z" />
    <glyph glyph-name="ubreve" unicode="&#x16d;" horiz-adv-x="1220" 
d="M133 281v733h275v-715q0 -49 28.5 -71.5t81.5 -22.5h121q47 0 78 6t51 16q23 8 37 23v764h274v-1014h-254l-14 104q-25 -31 -59 -53q-29 -20 -70 -35.5t-94 -15.5h-137q-170 0 -244 77t-74 204zM283 1425v62h194v-41q0 -29 5 -54.5t19.5 -44t40 -29.5t66.5 -11
q84 0 108.5 39.5t24.5 99.5v41h195v-62q0 -59 -10.5 -112t-45 -93t-99 -65t-173.5 -25q-104 0 -167.5 25t-98.5 65t-47 93t-12 112z" />
    <glyph glyph-name="Uring" unicode="&#x16e;" horiz-adv-x="1454" 
d="M141 270v1096h283v-1053q0 -47 23.5 -73.5t84.5 -26.5h369q74 0 102.5 21.5t28.5 91.5v1040h281v-1092q0 -123 -76 -198.5t-229 -75.5h-564q-135 0 -219 67.5t-84 202.5zM487 1632v133q0 82 33 119t125 37h162q92 0 125 -37t33 -115v-137q0 -84 -33 -120.5t-125 -36.5
h-162q-92 0 -125 36.5t-33 120.5zM637 1612h178v174h-178v-174z" />
    <glyph glyph-name="uring" unicode="&#x16f;" horiz-adv-x="1220" 
d="M133 281v733h275v-715q0 -49 28.5 -71.5t81.5 -22.5h121q47 0 78 6t51 16q23 8 37 23v764h274v-1014h-254l-14 104q-25 -31 -59 -53q-29 -20 -70 -35.5t-94 -15.5h-137q-170 0 -244 77t-74 204zM371 1286v133q0 82 32.5 119t124.5 37h162q92 0 125 -37t33 -115v-137
q0 -84 -33 -121t-125 -37h-162q-92 0 -124.5 37t-32.5 121zM520 1266h178v174h-178v-174z" />
    <glyph glyph-name="Uhungarumlaut" unicode="&#x170;" horiz-adv-x="1454" 
d="M141 270v1096h283v-1053q0 -47 23.5 -73.5t84.5 -26.5h369q74 0 102.5 21.5t28.5 91.5v1040h281v-1092q0 -123 -76 -198.5t-229 -75.5h-564q-135 0 -219 67.5t-84 202.5zM381 1501l143 314h326l-240 -314h-229zM811 1501l143 314h326l-240 -314h-229z" />
    <glyph glyph-name="uhungarumlaut" unicode="&#x171;" horiz-adv-x="1220" 
d="M133 281v733h275v-715q0 -49 28.5 -71.5t81.5 -22.5h121q47 0 78 6t51 16q23 8 37 23v764h274v-1014h-254l-14 104q-25 -31 -59 -53q-29 -20 -70 -35.5t-94 -15.5h-137q-170 0 -244 77t-74 204zM289 1155l123 313h284l-219 -313h-188zM657 1155l123 313h285l-219 -313
h-189z" />
    <glyph glyph-name="Uogonek" unicode="&#x172;" horiz-adv-x="1454" 
d="M141 270v1096h283v-1053q0 -47 23.5 -73.5t84.5 -26.5h369q74 0 102.5 21.5t28.5 91.5v1040h281v-1092q0 -123 -76 -198.5t-229 -75.5h-72q-55 -27 -96 -63q-37 -31 -67 -75t-30 -100q0 -55 30 -79.5t101 -24.5q49 0 95 10q23 4 45 10l28 -129q-29 -12 -65 -20
q-31 -8 -75 -14.5t-97 -6.5q-63 0 -116.5 9.5t-93.5 34t-62.5 64.5t-22.5 101q0 66 37 119t82 90q53 43 121 74h-306q-135 0 -219 67.5t-84 202.5z" />
    <glyph glyph-name="uogonek" unicode="&#x173;" horiz-adv-x="1220" 
d="M133 281v733h275v-715q0 -49 28.5 -71.5t81.5 -22.5h121q47 0 78 6t51 16q23 8 37 23v764h274v-1014h-254l-14 104q-25 -31 -59 -53q-29 -20 -70 -35.5t-94 -15.5h-137q-170 0 -244 77t-74 204z" />
    <glyph glyph-name="Wcircumflex" unicode="&#x174;" horiz-adv-x="1759" 
d="M-12 1366h325l205 -971l209 971h315l228 -981l192 981h310l-336 -1366h-346l-209 954l-219 -954h-340zM485 1604l297 251h195l297 -249l-111 -131l-282 192l-287 -186z" />
    <glyph glyph-name="wcircumflex" unicode="&#x175;" horiz-adv-x="1601" 
d="M33 1014h303l166 -637l180 637h256l184 -639l164 639h283l-324 -1014h-262l-188 610l-191 -610h-248zM446 1223l256 293h195l256 -291l-131 -111l-221 213l-226 -207z" />
    <glyph glyph-name="Ycircumflex" unicode="&#x176;" horiz-adv-x="1261" 
d="M-29 1366h328l334 -530l348 530h309l-520 -743v-623h-285v614zM236 1604l296 251h195l297 -249l-111 -131l-282 192l-287 -186z" />
    <glyph glyph-name="ycircumflex" unicode="&#x177;" horiz-adv-x="1062" 
d="M10 1014h307l232 -647l209 647h295l-512 -1401h-277l150 418zM178 1223l256 293h195l256 -291l-131 -111l-222 213l-225 -207z" />
    <glyph glyph-name="Ydieresis" unicode="&#x178;" horiz-adv-x="1261" 
d="M-29 1366h328l334 -530l348 530h309l-520 -743v-623h-285v614zM289 1554v252h276v-252h-276zM696 1554v252h277v-252h-277z" />
    <glyph glyph-name="Zacute" unicode="&#x179;" horiz-adv-x="1261" 
d="M59 0v170l750 983h-721v213h1098v-166l-762 -987h770v-213h-1135zM455 1503l184 314h326l-301 -314h-209z" />
    <glyph glyph-name="zacute" unicode="&#x17a;" horiz-adv-x="1056" 
d="M74 0v162l540 647h-501v205h870v-156l-563 -653h563v-205h-909zM385 1155l143 313h306l-240 -313h-209z" />
    <glyph glyph-name="Zdotaccent" unicode="&#x17b;" horiz-adv-x="1261" 
d="M59 0v170l750 983h-721v213h1098v-166l-762 -987h770v-213h-1135zM502 1554v252h276v-252h-276z" />
    <glyph glyph-name="zdotaccent" unicode="&#x17c;" horiz-adv-x="1056" 
d="M74 0v162l540 647h-501v205h870v-156l-563 -653h563v-205h-909zM412 1217v231h276v-231h-276z" />
    <glyph glyph-name="Zcaron" unicode="&#x17d;" horiz-adv-x="1261" 
d="M59 0v170l750 983h-721v213h1098v-166l-762 -987h770v-213h-1135zM240 1724l110 131l283 -192l287 186l108 -123l-297 -251h-194z" />
    <glyph glyph-name="zcaron" unicode="&#x17e;" horiz-adv-x="1056" 
d="M74 0v162l540 647h-501v205h870v-156l-563 -653h563v-205h-909zM188 1425l131 111l222 -213l225 207l129 -103l-256 -292h-195z" />
    <glyph glyph-name="uni01CD" unicode="&#x1cd;" horiz-adv-x="1331" 
d="M-20 0l512 1366h352l508 -1366h-318l-123 362h-497l-121 -362h-313zM291 1683l110 132l263 -173l266 166l108 -122l-276 -232h-195zM489 590h345l-172 518z" />
    <glyph glyph-name="uni01CE" unicode="&#x1ce;" horiz-adv-x="1134" 
d="M113 229v168q0 111 74.5 167.5t211.5 56.5h330v77q0 53 -27.5 82t-111.5 29h-430v123q18 23 55 41q31 16 82 28.5t131 12.5h252q147 0 235.5 -66.5t88.5 -202.5v-745h-244l-21 115q-16 -33 -43 -58q-23 -23 -59.5 -40t-89.5 -17h-150q-158 0 -221 55.5t-63 173.5z
M233 1425l132 111l221 -213l225 207l129 -103l-256 -292h-195zM387 274q0 -39 19.5 -54t58.5 -15h264v211h-260q-82 0 -82 -74v-68z" />
    <glyph glyph-name="Scommaaccent" unicode="&#x218;" horiz-adv-x="1288" 
d="M102 860v221q0 141 86 213t234 72h444q70 0 120 -11.5t81 -25.5q37 -16 59 -37v-139h-628q-53 0 -84 -25.5t-31 -74.5v-156q0 -100 109 -100h374q156 0 238 -76t82 -205v-225q0 -135 -74 -213t-246 -78h-497q-72 0 -120 11.5t-81 25.5q-37 16 -62 37v139h682
q61 0 88 23.5t27 74.5v168q0 104 -121 105h-366q-162 0 -238 74.5t-76 201.5zM526 -127h252v-117q0 -80 -21.5 -137t-47.5 -96q-31 -45 -68 -76h-115v426z" />
    <glyph glyph-name="scommaaccent" unicode="&#x219;" horiz-adv-x="1085" 
d="M109 629v112q0 135 91 204t236 69h203q80 0 133 -13.5t88 -29.5q39 -18 64 -41v-121h-443q-70 0 -84 -23.5t-14 -62.5v-41q0 -31 17.5 -48.5t64.5 -17.5h262q141 0 202.5 -65.5t61.5 -169.5v-111q0 -131 -83 -200.5t-253 -69.5h-260q-80 0 -134 12.5t-89 28.5
q-39 18 -61 43v121h501q59 0 82 20.5t23 67.5v37q0 39 -17.5 60.5t-76.5 21.5h-269q-113 0 -179 58t-66 159zM416 -127h252v-117q0 -80 -21.5 -137t-48.5 -96q-31 -45 -68 -76h-114v426z" />
    <glyph glyph-name="uni021A" unicode="&#x21a;" horiz-adv-x="1257" 
d="M0 1153v213h1257v-213h-483v-1153h-285v1153h-489zM502 -127h252v-117q0 -80 -21.5 -137t-48.5 -96q-31 -45 -68 -76h-114v426z" />
    <glyph glyph-name="uni021B" unicode="&#x21b;" horiz-adv-x="817" 
d="M23 809v205h145v319l276 43v-362h318v-205h-318v-506q0 -55 27 -76.5t80 -21.5h246v-109q-31 -27 -74 -49q-37 -18 -90 -32.5t-125 -14.5h-82q-84 0 -134 25.5t-78 67.5t-37 95.5t-9 106.5v514h-145zM283 -127h252v-117q0 -80 -21.5 -137t-48.5 -96q-31 -45 -68 -76h-114
v426z" />
    <glyph glyph-name="uni0226" unicode="&#x226;" horiz-adv-x="1331" 
d="M-20 0l512 1366h352l508 -1366h-318l-123 362h-497l-121 -362h-313zM489 590h345l-172 518zM526 1554v252h277v-252h-277z" />
    <glyph glyph-name="uni0227" unicode="&#x227;" horiz-adv-x="1134" 
d="M113 229v168q0 111 74.5 167.5t211.5 56.5h330v77q0 53 -27.5 82t-111.5 29h-430v123q18 23 55 41q31 16 82 28.5t131 12.5h252q147 0 235.5 -66.5t88.5 -202.5v-745h-244l-21 115q-16 -33 -43 -58q-23 -23 -59.5 -40t-89.5 -17h-150q-158 0 -221 55.5t-63 173.5z
M387 274q0 -39 19.5 -54t58.5 -15h264v211h-260q-82 0 -82 -74v-68zM449 1217v231h276v-231h-276z" />
    <glyph glyph-name="uni022E" unicode="&#x22e;" horiz-adv-x="1478" 
d="M135 281v804q0 72 24.5 125.5t67.5 88t99.5 51t122.5 16.5h577q152 0 234.5 -74.5t82.5 -204.5v-806q0 -133 -78.5 -207t-234.5 -74h-584q-156 0 -233.5 72.5t-77.5 208.5zM418 324q0 -66 26.5 -88.5t92.5 -22.5h403q41 0 65.5 8t37 22.5t15.5 35t3 45.5v720
q0 53 -28.5 81t-94.5 28h-399q-68 0 -94.5 -27.5t-26.5 -81.5v-720zM600 1554v252h277v-252h-277z" />
    <glyph glyph-name="uni022F" unicode="&#x22f;" horiz-adv-x="1222" 
d="M125 281v452q0 72 24.5 125t67.5 88t99.5 51.5t119.5 16.5h346q154 0 236 -76t82 -205v-452q0 -133 -79 -207t-235 -74h-352q-156 0 -232.5 72.5t-76.5 208.5zM399 315q0 -66 27 -88t92 -22h184q41 0 66 8t37 22.5t16 35t4 44.5v385q0 53 -29.5 81t-95.5 28h-180
q-68 0 -94.5 -27.5t-26.5 -81.5v-385zM473 1217v231h277v-231h-277z" />
    <glyph glyph-name="circumflex" unicode="&#x2c6;" horiz-adv-x="962" 
d="M127 1223l256 293h195l256 -291l-132 -111l-221 213l-225 -207z" />
    <glyph glyph-name="caron" unicode="&#x2c7;" horiz-adv-x="962" 
d="M127 1425l131 111l221 -213l226 207l129 -103l-256 -292h-195z" />
    <glyph glyph-name="breve" unicode="&#x2d8;" horiz-adv-x="962" 
d="M154 1425v62h194v-41q0 -29 5 -54.5t19.5 -44t40 -29.5t66.5 -11q84 0 108.5 39.5t24.5 99.5v41h195v-62q0 -59 -10.5 -112t-45 -93t-99 -65t-173.5 -25q-104 0 -167.5 25t-98.5 65t-47 93t-12 112z" />
    <glyph glyph-name="dotaccent" unicode="&#x2d9;" horiz-adv-x="962" 
d="M342 1217v231h276v-231h-276z" />
    <glyph glyph-name="ring" unicode="&#x2da;" horiz-adv-x="962" 
d="M242 1286v133q0 82 32.5 119t124.5 37h162q92 0 125 -37t33 -115v-137q0 -84 -33 -121t-125 -37h-162q-92 0 -124.5 37t-32.5 121zM391 1266h178v174h-178v-174z" />
    <glyph glyph-name="ogonek" unicode="&#x2db;" horiz-adv-x="962" 
d="M215 -283q0 66 37 119t82 90q53 43 121 74h186q-55 -27 -96 -63q-37 -31 -66.5 -75t-29.5 -100q0 -55 29.5 -79.5t101.5 -24.5q49 0 94 10q23 4 45 10l29 -129q-29 -12 -66 -20q-31 -8 -75 -14.5t-97 -6.5q-63 0 -116.5 9.5t-93.5 34t-62.5 64.5t-22.5 101z" />
    <glyph glyph-name="tilde" unicode="&#x2dc;" horiz-adv-x="962" 
d="M80 1315q35 41 76 71q35 27 85 48.5t111 21.5q41 0 77 -11t67.5 -25.5t62.5 -26t59 -11.5q29 -2 58 10.5t51 26.5q27 16 51 39l103 -133q-33 -41 -74 -72q-35 -29 -84 -50t-109 -21q-41 0 -76.5 12t-68.5 25.5t-62.5 25.5t-56.5 12q-33 0 -63.5 -11t-53.5 -25
q-27 -16 -51 -39z" />
    <glyph glyph-name="hungarumlaut" unicode="&#x2dd;" horiz-adv-x="962" 
d="M92 1155l123 313h285l-219 -313h-189zM461 1155l123 313h284l-219 -313h-188z" />
    <glyph glyph-name="afii10023" unicode="&#x401;" horiz-adv-x="1236" 
d="M145 0v1366h1010v-213h-727v-350h621v-213h-621v-377h748v-213h-1031zM301 1554v232h285v-232h-285zM731 1554v232h285v-232h-285z" />
    <glyph glyph-name="afii10051" unicode="&#x402;" horiz-adv-x="1572" 
d="M0 1153v213h1083v-213h-462v-322h546q135 0 219 -67.5t84 -202.5v-289q0 -119 -73.5 -195.5t-227.5 -76.5h-90q-78 0 -131 11.5t-86 25.5q-39 16 -61 37v139h280q59 0 83 25.5t24 72.5v207q0 47 -23.5 73.5t-85.5 26.5h-458v-618h-283v1153h-338z" />
    <glyph glyph-name="afii10052" unicode="&#x403;" horiz-adv-x="1138" 
d="M145 0v1366h961v-213h-678v-1153h-283zM424 1503l205 314h325l-321 -314h-209z" />
    <glyph glyph-name="afii10053" unicode="&#x404;" horiz-adv-x="1224" 
d="M135 272v818q0 127 83 201.5t231 74.5h436q70 0 120 -11.5t82 -25.5q37 -16 64 -37v-139h-619q-53 0 -83.5 -24.5t-30.5 -77.5v-248h579v-213h-579v-279q0 -47 23.5 -72.5t82.5 -25.5h650v-139q-27 -20 -64 -37q-35 -14 -86 -25.5t-129 -11.5h-459q-154 0 -227.5 77
t-73.5 195z" />
    <glyph glyph-name="afii10054" unicode="&#x405;" horiz-adv-x="1288" 
d="M102 860v221q0 141 86 213t234 72h444q70 0 120 -11.5t81 -25.5q37 -16 59 -37v-139h-628q-53 0 -84 -25.5t-31 -74.5v-156q0 -100 109 -100h374q156 0 238 -76t82 -205v-225q0 -135 -74 -213t-246 -78h-497q-72 0 -120 11.5t-81 25.5q-37 16 -62 37v139h682
q61 0 88 23.5t27 74.5v168q0 104 -121 105h-366q-162 0 -238 74.5t-76 201.5z" />
    <glyph glyph-name="afii10055" unicode="&#x406;" horiz-adv-x="573" 
d="M145 0v1366h283v-1366h-283z" />
    <glyph glyph-name="afii10056" unicode="&#x407;" horiz-adv-x="573" 
d="M41 1534v231h195v-231h-195zM145 0v1366h283v-1366h-283zM328 1534v231h194v-231h-194z" />
    <glyph glyph-name="afii10057" unicode="&#x408;" horiz-adv-x="1249" 
d="M94 285v219l283 47v-229q0 -59 25.5 -84t91.5 -25h217q59 0 86.5 22.5t27.5 81.5v1049h281v-1090q0 -133 -81 -204.5t-224 -71.5h-402q-147 0 -226 75t-79 210z" />
    <glyph glyph-name="afii10058" unicode="&#x409;" horiz-adv-x="2105" 
d="M20 0v217h43q37 0 59.5 4t35 15.5t17.5 32t9 53.5l64 751q12 150 102 221.5t250 71.5h637v-535h494q141 0 224 -68.5t83 -207.5v-268q0 -129 -78 -208t-244 -79h-762v1151h-311q-59 0 -88 -29.5t-35 -101.5l-65 -748q-6 -61 -23.5 -111t-56.5 -86t-99.5 -55.5
t-152.5 -19.5h-103zM1237 213h401q66 0 92.5 29.5t26.5 85.5v188q0 53 -25.5 77.5t-91.5 24.5h-403v-405z" />
    <glyph glyph-name="afii10059" unicode="&#x40a;" horiz-adv-x="2146" 
d="M145 0v1366h283v-535h567v535h283v-535h494q141 0 224 -68.5t83 -207.5v-268q0 -129 -78 -208t-244 -79h-762v616h-567v-616h-283zM1278 213h401q66 0 92.5 29.5t26.5 85.5v188q0 53 -25.5 77.5t-91.5 24.5h-403v-405z" />
    <glyph glyph-name="afii10060" unicode="&#x40b;" horiz-adv-x="1572" 
d="M0 1153v213h1083v-213h-462v-322h546q135 0 219 -67.5t84 -202.5v-561h-282v518q0 47 -23.5 73.5t-85.5 26.5h-458v-618h-283v1153h-338z" />
    <glyph glyph-name="afii10061" unicode="&#x40c;" horiz-adv-x="1353" 
d="M145 0v1366h285v-524h121l377 524h344l-426 -524h110q68 0 123.5 -25.5t95 -68.5t62.5 -101.5t23 -126.5v-520h-283v530q0 47 -23.5 74t-85.5 27h-438v-631h-285zM483 1503l205 314h326l-322 -314h-209z" />
    <glyph glyph-name="afii10062" unicode="&#x40e;" horiz-adv-x="1409" 
d="M111 823v543h282v-500q0 -47 23.5 -73.5t85.5 -26.5h479v600h283v-1094q0 -119 -74 -195.5t-227 -76.5h-541q-78 0 -131 11.5t-86 25.5q-39 16 -62 37v139h731q59 0 83 25.5t24 72.5v242h-567q-135 0 -219 67.5t-84 202.5zM358 1772v30h222v-24q0 -31 3 -52.5t16 -34
t39 -18.5t71 -6t71.5 6t40 18.5t16.5 34t3 52.5v24h221v-30q0 -61 -10.5 -111.5t-47 -87.5t-106.5 -56.5t-188 -19.5q-119 0 -188.5 19.5t-105.5 55.5t-46.5 87t-10.5 113z" />
    <glyph glyph-name="afii10145" unicode="&#x40f;" horiz-adv-x="1443" 
d="M145 0v1366h283v-1149h588v1149h282v-1366h-436v-305h-276v305h-441z" />
    <glyph glyph-name="afii10017" unicode="&#x410;" horiz-adv-x="1331" 
d="M-20 0l512 1366h352l508 -1366h-318l-123 362h-497l-121 -362h-313zM489 590h345l-172 518z" />
    <glyph glyph-name="afii10018" unicode="&#x411;" horiz-adv-x="1351" 
d="M145 0v1366h1002v-213h-719v-322h514q141 0 224 -68.5t83 -207.5v-268q0 -129 -77.5 -208t-243.5 -79h-783zM428 213h422q66 0 92.5 29.5t26.5 85.5v188q0 53 -25.5 77.5t-91.5 24.5h-424v-405z" />
    <glyph glyph-name="afii10019" unicode="&#x412;" horiz-adv-x="1370" 
d="M145 0v1366h752q172 0 249 -79t77 -208v-172q0 -59 -19.5 -96t-44 -58.5t-48.5 -29.5t-32 -8q6 -2 35 -9.5t60.5 -28t57 -59t25.5 -102.5v-231q0 -59 -16 -111.5t-54 -91.5t-97.5 -60.5t-145.5 -21.5h-799zM428 213h428q68 0 93.5 24.5t25.5 77.5v174q0 106 -119 107
h-428v-383zM428 809h395q63 0 91 22.5t28 77.5v133q0 49 -25.5 80t-91.5 31h-397v-344z" />
    <glyph glyph-name="afii10020" unicode="&#x413;" horiz-adv-x="1105" 
d="M145 0v1366h961v-213h-678v-1153h-283z" />
    <glyph glyph-name="afii10021" unicode="&#x414;" horiz-adv-x="1443" 
d="M0 215h20q59 0 98.5 33t49.5 135l70 690q31 293 352 293h688v-1151h125v-520h-277v305h-850v-305h-276v520zM322 215l673 2v934h-358q-59 0 -89 -29.5t-38 -101.5l-59 -559q-8 -68 -26.5 -114t-40.5 -74.5t-39 -42t-23 -15.5z" />
    <glyph glyph-name="afii10022" unicode="&#x415;" horiz-adv-x="1247" 
d="M145 0v1366h1010v-213h-727v-350h621v-213h-621v-377h748v-213h-1031z" />
    <glyph glyph-name="afii10024" unicode="&#x416;" horiz-adv-x="1966" 
d="M82 1366h317l336 -555h107v555h282v-555h107l336 555h317l-364 -555h8q135 0 219 -78t84 -213v-520h-283v518q0 47 -23.5 73.5t-84.5 26.5h-316v-618h-282v618h-316q-61 0 -84.5 -26.5t-23.5 -73.5v-518h-283v520q0 135 84 213t219 78h8z" />
    <glyph glyph-name="afii10025" unicode="&#x417;" horiz-adv-x="1210" 
d="M51 74v139h633q74 0 98.5 25.5t24.5 89.5v145q0 57 -28.5 86t-94.5 29h-455v213h463q66 0 90.5 25.5t24.5 78.5v139q0 109 -123 109h-610v139q25 20 63 37q35 14 87 25.5t130 11.5h418q141 0 228 -70.5t87 -216.5v-192q0 -55 -24.5 -90t-56 -53.5t-60 -24.5t-37.5 -8
q4 -2 33 -9.5t60.5 -27t58 -56t26.5 -98.5v-235q0 -61 -16 -112.5t-53 -90.5t-96.5 -60.5t-145.5 -21.5h-446q-78 0 -131.5 11.5t-85.5 25.5q-39 16 -62 37z" />
    <glyph glyph-name="afii10026" unicode="&#x418;" horiz-adv-x="1443" 
d="M145 0v1366h283v-934l588 934h282v-1366h-282v934l-588 -934h-283z" />
    <glyph glyph-name="afii10027" unicode="&#x419;" horiz-adv-x="1443" 
d="M145 0v1366h283v-934l588 934h282v-1366h-282v934l-588 -934h-283zM375 1772v30h221v-24q0 -31 3 -52.5t16.5 -34t39 -18.5t70.5 -6t71.5 6t40 18.5t16.5 34t3 52.5v24h221v-30q0 -61 -10 -111.5t-47 -87.5t-106.5 -56.5t-188.5 -19.5t-188.5 19.5t-105.5 55.5t-46 87
t-10 113z" />
    <glyph glyph-name="afii10028" unicode="&#x41a;" horiz-adv-x="1353" 
d="M145 0v1366h285v-524h121l377 524h344l-426 -524h110q68 0 123.5 -25.5t95 -68.5t62.5 -101.5t23 -126.5v-520h-283v530q0 47 -23.5 74t-85.5 27h-438v-631h-285z" />
    <glyph glyph-name="afii10029" unicode="&#x41b;" horiz-adv-x="1423" 
d="M0 0v217h43q74 0 101.5 19.5t31.5 85.5l51 751q10 150 101.5 221.5t251.5 71.5h698v-1366h-283v1151h-372q-59 0 -95 -29.5t-41 -101.5l-53 -748q-4 -61 -22.5 -111t-56.5 -86t-99 -55.5t-154 -19.5h-102z" />
    <glyph glyph-name="afii10030" unicode="&#x41c;" horiz-adv-x="1673" 
d="M145 0v1366h289l408 -750l401 750h285v-1366h-283v836l-287 -531h-233l-295 526v-831h-285z" />
    <glyph glyph-name="afii10031" unicode="&#x41d;" horiz-adv-x="1443" 
d="M145 0v1366h283v-530h588v530h282v-1366h-282v621h-588v-621h-283z" />
    <glyph glyph-name="afii10032" unicode="&#x41e;" horiz-adv-x="1478" 
d="M135 281v804q0 72 24.5 125.5t67.5 88t99.5 51t122.5 16.5h577q152 0 234.5 -74.5t82.5 -204.5v-806q0 -133 -78.5 -207t-234.5 -74h-584q-156 0 -233.5 72.5t-77.5 208.5zM418 324q0 -66 26.5 -88.5t92.5 -22.5h403q41 0 65.5 8t37 22.5t15.5 35t3 45.5v720
q0 53 -28.5 81t-94.5 28h-399q-68 0 -94.5 -27.5t-26.5 -81.5v-720z" />
    <glyph glyph-name="afii10033" unicode="&#x41f;" horiz-adv-x="1443" 
d="M145 0v1366h1153v-1366h-282v1151h-588v-1151h-283z" />
    <glyph glyph-name="afii10034" unicode="&#x420;" horiz-adv-x="1316" 
d="M145 0v1366h783q166 0 243.5 -79t77.5 -208v-288q0 -139 -83 -208t-224 -69h-514v-514h-283zM428 727h424q66 0 91.5 24.5t25.5 77.5v209q0 55 -27 85t-92 30h-422v-426z" />
    <glyph glyph-name="afii10035" unicode="&#x421;" horiz-adv-x="1224" 
d="M135 272v818q0 127 83 201.5t231 74.5h436q70 0 120 -11.5t82 -25.5q37 -16 64 -37v-139h-619q-53 0 -83.5 -24.5t-30.5 -77.5v-740q0 -47 23.5 -72.5t82.5 -25.5h650v-139q-27 -20 -64 -37q-35 -14 -86 -25.5t-129 -11.5h-459q-154 0 -227.5 77t-73.5 195z" />
    <glyph glyph-name="afii10036" unicode="&#x422;" horiz-adv-x="1257" 
d="M20 1153v213h1217v-213h-463v-1153h-285v1153h-469z" />
    <glyph glyph-name="afii10037" unicode="&#x423;" horiz-adv-x="1409" 
d="M111 823v543h282v-500q0 -47 23.5 -73.5t85.5 -26.5h479v600h283v-1094q0 -119 -74 -195.5t-227 -76.5h-541q-78 0 -131 11.5t-86 25.5q-39 16 -62 37v139h731q59 0 83 25.5t24 72.5v242h-567q-135 0 -219 67.5t-84 202.5z" />
    <glyph glyph-name="afii10038" unicode="&#x424;" horiz-adv-x="1699" 
d="M102 424v518q0 72 25 125t68 88t99 51.5t122 16.5h291v184h282v-184h291q152 0 234.5 -75t82.5 -204v-520q0 -133 -78.5 -207t-234.5 -74h-295v-184h-282v184h-293q-156 0 -234 73t-78 208zM385 467q0 -66 26.5 -88.5t92.5 -22.5h203v654h-201q-68 0 -94.5 -28t-26.5 -81
v-434zM989 356h205q41 0 65.5 8.5t37 22.5t15.5 34.5t3 45.5v434q0 53 -29 81t-94 28h-203v-654z" />
    <glyph glyph-name="afii10039" unicode="&#x425;" horiz-adv-x="1310" 
d="M-20 0l507 711l-479 655h357l294 -444l295 444h314l-465 -641l528 -725h-352l-340 516l-344 -516h-315z" />
    <glyph glyph-name="afii10040" unicode="&#x426;" horiz-adv-x="1464" 
d="M145 0v1366h283v-1149h588v1149h282v-1151h146v-520h-277v305h-1022z" />
    <glyph glyph-name="afii10041" unicode="&#x427;" horiz-adv-x="1380" 
d="M82 782v584h283v-541q0 -47 23.5 -73.5t84.5 -26.5h479v641h283v-1366h-283v512h-567q-135 0 -219 67.5t-84 202.5z" />
    <glyph glyph-name="afii10042" unicode="&#x428;" horiz-adv-x="2027" 
d="M145 0v1366h283v-1149h444v1149h283v-1149h444v1149h283v-1366h-1737z" />
    <glyph glyph-name="afii10043" unicode="&#x429;" horiz-adv-x="2048" 
d="M145 0v1366h283v-1149h444v1149h283v-1149h444v1149h283v-1151h146v-520h-277v305h-1606z" />
    <glyph glyph-name="afii10044" unicode="&#x42a;" horiz-adv-x="1509" 
d="M0 1153v213h621v-535h514q141 0 224 -68.5t83 -207.5v-268q0 -129 -78 -208t-244 -79h-782v1153h-338zM621 213h421q66 0 92.5 29.5t26.5 85.5v188q0 53 -25.5 77.5t-91.5 24.5h-423v-405z" />
    <glyph glyph-name="afii10045" unicode="&#x42b;" horiz-adv-x="1873" 
d="M145 0v1366h283v-535h514q141 0 224 -68.5t83 -207.5v-268q0 -129 -77.5 -208t-243.5 -79h-783zM428 213h422q66 0 92.5 29.5t26.5 85.5v188q0 53 -25.5 77.5t-91.5 24.5h-424v-405zM1446 0v1366h283v-1366h-283z" />
    <glyph glyph-name="afii10046" unicode="&#x42c;" horiz-adv-x="1316" 
d="M145 0v1366h283v-535h514q141 0 224 -68.5t83 -207.5v-268q0 -129 -77.5 -208t-243.5 -79h-783zM428 213h422q66 0 92.5 29.5t26.5 85.5v188q0 53 -25.5 77.5t-91.5 24.5h-424v-405z" />
    <glyph glyph-name="afii10047" unicode="&#x42d;" horiz-adv-x="1224" 
d="M51 74v139h649q59 0 83 25.5t24 72.5v279h-580v213h580v248q0 53 -31 77.5t-84 24.5h-618v139q27 20 63 37q33 14 82 25.5t121 11.5h436q147 0 230.5 -74.5t83.5 -201.5v-818q0 -119 -74 -195.5t-228 -76.5h-458q-78 0 -131.5 11.5t-85.5 25.5q-39 16 -62 37z" />
    <glyph glyph-name="afii10048" unicode="&#x42e;" horiz-adv-x="2019" 
d="M145 0v1366h283v-530h309v249q0 72 24.5 125.5t67.5 88t99.5 51t122.5 16.5h516q152 0 234.5 -74.5t82.5 -204.5v-806q0 -133 -79 -207t-234 -74h-522q-156 0 -234 72.5t-78 208.5v340h-309v-621h-283zM1020 324q0 -66 26.5 -88.5t92.5 -22.5h342q41 0 65.5 8t36.5 22.5
t15.5 35t3.5 45.5v720q0 53 -29 81t-94 28h-338q-68 0 -94.5 -27.5t-26.5 -81.5v-720z" />
    <glyph glyph-name="afii10049" unicode="&#x42f;" horiz-adv-x="1351" 
d="M41 0l436 535h-53q-141 0 -225 68.5t-84 207.5v268q0 129 77.5 208t243.5 79h770v-1366h-284v535h-138l-409 -535h-334zM397 850q0 -53 26 -77.5t91 -24.5h408v405h-406q-66 0 -92.5 -29.5t-26.5 -85.5v-188z" />
    <glyph glyph-name="afii10065" unicode="&#x430;" horiz-adv-x="1124" 
d="M102 229v162q0 111 75 167t212 56h330v84q0 53 -27.5 82t-111.5 29h-430v123q18 23 55 41q31 16 82 28.5t131 12.5h252q147 0 235 -66.5t88 -202.5v-745h-243l-21 115q-16 -33 -43 -58q-23 -23 -59.5 -40t-89.5 -17h-150q-158 0 -221.5 55.5t-63.5 173.5zM377 274
q0 -39 19.5 -54t58.5 -15h264v205h-260q-82 0 -82 -74v-62z" />
    <glyph glyph-name="afii10066" unicode="&#x431;" horiz-adv-x="1220" 
d="M123 281l2 811q0 127 83 200.5t236 73.5h598v-123q-27 -35 -89 -56.5t-167 -25.5h-274q-53 0 -83 -24.5t-30 -77.5v-187q29 35 83.5 68t135.5 33h162q154 0 236 -76t82 -205v-411q0 -133 -79 -207t-235 -74h-352q-156 0 -232.5 72.5t-76.5 208.5zM397 315q0 -66 27 -88
t92 -22h184q41 0 66 8t37 22.5t16 35t4 44.5v344q0 53 -29.5 81t-95.5 28h-139q-63 0 -102 -14.5t-58 -30.5z" />
    <glyph glyph-name="afii10067" unicode="&#x432;" horiz-adv-x="1163" 
d="M135 0v1014h590q166 0 238.5 -56.5t72.5 -179.5v-78q0 -61 -22.5 -94t-48.5 -49q-33 -18 -72 -22v-13q47 -4 84 -22q31 -16 57.5 -50t26.5 -100v-106q0 -59 -12.5 -105.5t-43 -77t-86 -46t-141.5 -15.5h-643zM410 205h299q39 0 58 15.5t19 53.5v62q0 74 -81 74h-295v-205
zM410 614h274q39 0 58.5 15.5t19.5 54.5v51q0 74 -82 74h-270v-195z" />
    <glyph glyph-name="afii10068" unicode="&#x433;" horiz-adv-x="868" 
d="M133 0v1014h705v-205h-428v-809h-277z" />
    <glyph glyph-name="afii10069" unicode="&#x434;" horiz-adv-x="1189" 
d="M20 205h31q43 0 68.5 19.5t32.5 84.5l43 412q31 293 352 293h489v-809h133v-451h-276v246h-596v-246h-277v451zM416 205h344v602h-170q-59 0 -87 -29.5t-36 -101.5l-45 -404z" />
    <glyph glyph-name="afii10070" unicode="&#x435;" horiz-adv-x="1169" 
d="M123 281v444q0 78 24.5 132t68.5 89t105.5 51.5t135.5 16.5h262q162 0 245 -75t83 -204v-313h-650v-121q0 -51 20.5 -73.5t90.5 -22.5h530v-121q-16 -25 -49 -43q-29 -16 -79 -28.5t-130 -12.5h-338q-319 0 -319 281zM397 627h373v82q0 55 -23.5 77.5t-87.5 22.5h-151
q-68 0 -89.5 -27.5t-21.5 -70.5v-84z" />
    <glyph glyph-name="afii10072" unicode="&#x436;" horiz-adv-x="1648" 
d="M82 1014h317l207 -396h80v396h277v-396h79l207 396h318l-262 -396q66 0 111.5 -24.5t75.5 -65.5t44 -96t14 -119v-313h-274v309q0 49 -31 83t-80 34h-202v-426h-277v426h-203q-49 0 -79.5 -34t-30.5 -83v-309h-275v313q0 63 14.5 118.5t44 96.5t77 65.5t114.5 24.5z" />
    <glyph glyph-name="afii10073" unicode="&#x437;" horiz-adv-x="1017" 
d="M61 84v121h488q53 0 67.5 19.5t14.5 66.5v39q0 43 -17.5 61.5t-64.5 18.5h-334v204h334q47 0 64.5 15.5t17.5 64.5v41q0 41 -17.5 57.5t-64.5 16.5h-473v121q16 23 53 41q29 16 81 29.5t132 13.5h244q154 0 236.5 -49.5t82.5 -176.5v-114q0 -47 -19.5 -75t-41.5 -42
q-27 -16 -62 -22v-11q35 -6 62 -26q23 -16 42 -50t19 -94v-131q0 -121 -66.5 -172t-215.5 -51h-283q-90 0 -145.5 12.5t-83.5 28.5q-37 18 -50 43z" />
    <glyph glyph-name="afii10074" unicode="&#x438;" horiz-adv-x="1204" 
d="M135 0v1014h275v-611l387 611h272v-1014h-272v608l-387 -608h-275z" />
    <glyph glyph-name="afii10075" unicode="&#x439;" horiz-adv-x="1204" 
d="M135 0v1014h275v-611l387 611h272v-1014h-272v608l-387 -608h-275zM256 1444v31h221v-25q0 -31 3 -52.5t16.5 -33.5t39 -18.5t70.5 -6.5t72 6.5t40 18.5t16 33.5t3 52.5v25h221v-31q0 -61 -10 -111.5t-47 -87.5t-106.5 -56.5t-188.5 -19.5t-188.5 19.5t-105.5 55.5
t-46 87t-10 113z" />
    <glyph glyph-name="afii10076" unicode="&#x43a;" horiz-adv-x="1148" 
d="M135 0v1014h277v-416h69l279 416h307l-313 -416q80 0 137 -20.5t92 -58.5t51.5 -90t16.5 -116v-313h-275v309q0 49 -30.5 77t-79.5 28h-254v-414h-277z" />
    <glyph glyph-name="afii10077" unicode="&#x43b;" horiz-adv-x="1153" 
d="M20 0v207q37 0 59.5 4t36 15.5t18.5 32t9 52.5l43 410q31 293 353 293h479v-1014h-279v807h-157q-59 0 -87 -29.5t-36 -101.5l-45 -404q-6 -61 -18.5 -111t-42 -86t-84 -55.5t-146.5 -19.5h-103z" />
    <glyph glyph-name="afii10078" unicode="&#x43c;" horiz-adv-x="1388" 
d="M135 0v1014h275l292 -447l279 447h272v-1014h-276v571l-240 -360h-82l-243 360v-571h-277z" />
    <glyph glyph-name="afii10079" unicode="&#x43d;" horiz-adv-x="1204" 
d="M135 0v1014h277v-396h381v396h276v-1014h-276v414h-381v-414h-277z" />
    <glyph glyph-name="afii10080" unicode="&#x43e;" horiz-adv-x="1220" 
d="M123 281v452q0 72 24.5 125t67.5 88t99.5 51.5t119.5 16.5h346q154 0 236 -76t82 -205v-452q0 -133 -79 -207t-235 -74h-352q-156 0 -232.5 72.5t-76.5 208.5zM397 315q0 -66 27 -88t92 -22h184q41 0 66 8t37 22.5t16 35t4 44.5v385q0 53 -29.5 81t-95.5 28h-180
q-68 0 -94.5 -27.5t-26.5 -81.5v-385z" />
    <glyph glyph-name="afii10081" unicode="&#x43f;" horiz-adv-x="1204" 
d="M135 0v1014h934v-1014h-272v809h-387v-809h-275z" />
    <glyph glyph-name="afii10082" unicode="&#x440;" horiz-adv-x="1234" 
d="M135 -387v1401h252l16 -103q86 102 215 103h187q147 0 227 -73t80 -206v-446q0 -141 -85 -215t-232 -74h-166q-92 0 -143.5 33t-77.5 67v-487h-273zM408 229q8 -6 24 -12q14 -4 38 -8t65 -4h186q115 0 115 100v404q6 100 -113 100h-164q-109 0 -151 -23v-557z" />
    <glyph glyph-name="afii10083" unicode="&#x441;" horiz-adv-x="1017" 
d="M123 268v471q0 127 83 201t236 74h244q80 0 131 -13.5t82 -29.5q35 -18 53 -41v-121h-442q-53 0 -83 -24.5t-30 -77.5v-402q0 -47 24.5 -73.5t86.5 -26.5h459v-121q-16 -25 -52 -43q-31 -16 -84 -28.5t-143 -12.5h-264q-150 0 -225.5 73.5t-75.5 194.5z" />
    <glyph glyph-name="afii10084" unicode="&#x442;" horiz-adv-x="876" 
d="M10 809v205h856v-205h-291v-809h-274v809h-291z" />
    <glyph glyph-name="afii10085" unicode="&#x443;" horiz-adv-x="1222" 
d="M133 285v729h275v-705q0 -49 30.5 -76.5t79.5 -27.5h121q47 0 79 6t50 16q23 8 35 23v764h276v-740l2 -383q0 -143 -84 -210.5t-235 -67.5h-305q-68 0 -124.5 12.5t-96.5 28.5q-49 18 -86 41v123h534q63 0 91 22.5t28 83.5v176q-4 -6 -20.5 -22.5t-44 -33.5t-65.5 -30.5
t-85 -13.5h-137q-162 0 -240 79t-78 206z" />
    <glyph glyph-name="afii10086" unicode="&#x444;" horiz-adv-x="1701" 
d="M123 289v446q0 133 80 206t227 73h74q125 0 211 -99v543l272 47v-590q86 98 211 99h74q147 0 227 -73t80 -206v-446q0 -141 -85 -215t-232 -74h-54q-92 0 -143 33t-78 67v-487h-272v487q-27 -35 -78 -67.5t-143 -32.5h-54q-147 0 -232 73.5t-85 215.5zM399 305
q0 -100 115 -100h74q39 0 63.5 4t38.5 8q16 6 23 12l2 557q-43 23 -152 23h-51q-119 0 -113 -100v-404zM987 229q8 -6 25 -12q14 -4 37.5 -8t64.5 -4h74q115 0 115 100v404q0 53 -27 76.5t-86 23.5h-51q-109 0 -152 -23v-557z" />
    <glyph glyph-name="afii10087" unicode="&#x445;" horiz-adv-x="1048" 
d="M-20 0l391 516l-371 498h328l198 -305l201 305h297l-354 -471l399 -543h-328l-229 340l-233 -340h-299z" />
    <glyph glyph-name="afii10088" unicode="&#x446;" horiz-adv-x="1222" 
d="M135 0v1014h275v-809h387v809h272v-809h133v-451h-276v246h-791z" />
    <glyph glyph-name="afii10089" unicode="&#x447;" horiz-adv-x="1132" 
d="M82 606v408h274v-383q0 -49 31 -77t80 -28h90q47 0 79 6.5t50 16.5q23 8 35 22v443h276v-1014h-276v422q-4 -6 -20.5 -22.5t-44 -34t-65.5 -30.5t-85 -13h-127q-80 0 -137.5 20t-92 58t-51 90.5t-16.5 115.5z" />
    <glyph glyph-name="afii10090" unicode="&#x448;" horiz-adv-x="1716" 
d="M135 0v1014h275v-809h311v809h274v-809h314v809h272v-1014h-1446z" />
    <glyph glyph-name="afii10091" unicode="&#x449;" horiz-adv-x="1734" 
d="M135 0v1014h275v-809h311v809h274v-809h314v809h272v-809h133v-451h-276v246h-1303z" />
    <glyph glyph-name="afii10092" unicode="&#x44a;" horiz-adv-x="1183" 
d="M0 809v205h524v-369h363q104 0 165.5 -50t61.5 -167v-209q0 -111 -57.5 -165t-190.5 -54h-618v809h-248zM524 221h250q35 0 50.5 11.5t15.5 43.5v103q0 35 -16.5 48t-61.5 13h-238v-219z" />
    <glyph glyph-name="afii10093" unicode="&#x44b;" horiz-adv-x="1605" 
d="M135 0v1014h277v-369h362q104 0 165.5 -50t61.5 -167v-209q0 -111 -57 -165t-190 -54h-619zM412 221h250q35 0 50 11.5t15 43.5v103q0 35 -16.5 48t-61.5 13h-237v-219zM1194 0v1014h276v-1014h-276z" />
    <glyph glyph-name="afii10094" unicode="&#x44c;" horiz-adv-x="1083" 
d="M135 0v1014h277v-369h362q104 0 165.5 -50t61.5 -167v-209q0 -111 -57 -165t-190 -54h-619zM412 221h250q35 0 50 11.5t15 43.5v103q0 35 -16.5 48t-61.5 13h-237v-219z" />
    <glyph glyph-name="afii10095" unicode="&#x44d;" horiz-adv-x="1028" 
d="M61 84v121h459q61 0 86 26.5t25 73.5v107h-416v204h416v91q0 53 -30 77.5t-83 24.5h-442v121q16 23 53 41q29 16 81 29.5t132 13.5h244q154 0 236.5 -74t82.5 -201v-471q0 -121 -75.5 -194.5t-225.5 -73.5h-264q-90 0 -145.5 12.5t-83.5 28.5q-37 18 -50 43z" />
    <glyph glyph-name="afii10096" unicode="&#x44e;" horiz-adv-x="1712" 
d="M135 0v1014h275v-396h245v115q0 72 25 125t68 88t99 51.5t120 16.5h305q154 0 235.5 -76t81.5 -205v-452q0 -133 -78.5 -207t-234.5 -74h-311q-156 0 -233 72.5t-77 208.5v133h-245v-414h-275zM930 315q0 -66 26.5 -88t92.5 -22h143q41 0 65.5 8t37 22.5t16.5 35t4 44.5
v385q0 53 -30 81t-95 28h-139q-68 0 -94.5 -27.5t-26.5 -81.5v-385z" />
    <glyph glyph-name="afii10097" unicode="&#x44f;" horiz-adv-x="1103" 
d="M61 0l252 410q-96 4 -152.5 54t-56.5 163v168q0 111 57.5 165t190.5 54h619v-1014h-277v399h-112l-226 -399h-295zM379 655q0 -35 16.5 -48t61.5 -13h237v199h-250q-35 0 -50 -11.5t-15 -44.5v-82z" />
    <glyph glyph-name="afii10071" unicode="&#x451;" horiz-adv-x="1171" 
d="M125 281v444q0 78 24.5 132t68.5 89t105.5 51.5t135.5 16.5h262q162 0 245 -75t83 -204v-313h-650v-121q0 -51 20.5 -73.5t90.5 -22.5h530v-121q-16 -25 -49 -43q-29 -16 -79 -28.5t-130 -12.5h-338q-319 0 -319 281zM258 1217v231h277v-231h-277zM399 627h373v82
q0 55 -23.5 77.5t-86.5 22.5h-152q-68 0 -89.5 -27.5t-21.5 -70.5v-84zM647 1217v231h277v-231h-277z" />
    <glyph glyph-name="afii10099" unicode="&#x452;" horiz-adv-x="1220" 
d="M-20 1184v157h161v156h277v-156h391v-157h-391v-271q4 6 20.5 22.5t44 34t65.5 31t85 13.5h137q162 0 239.5 -79t77.5 -206v-858q0 -123 -73.5 -190.5t-216.5 -67.5h-209v205h114q37 0 58.5 4t34 15t15.5 31.5t3 53.5v783q0 49 -30.5 76.5t-80.5 27.5h-120q-47 0 -79 -7
t-50 -16q-23 -10 -35 -22v-764h-277v1184h-161z" />
    <glyph glyph-name="afii10100" unicode="&#x453;" horiz-adv-x="868" 
d="M133 0v1014h705v-205h-428v-809h-277zM338 1155l143 313h305l-239 -313h-209z" />
    <glyph glyph-name="afii10101" unicode="&#x454;" horiz-adv-x="1042" 
d="M125 268v471q0 127 83 201t236 74h244q80 0 131 -13.5t82 -29.5q35 -18 53 -41v-121h-442q-53 0 -83 -24.5t-30 -77.5v-91h416v-204h-416v-107q0 -47 25 -73.5t86 -26.5h459v-121q-16 -25 -51 -43q-31 -16 -84.5 -28.5t-143.5 -12.5h-264q-150 0 -225.5 73.5t-75.5 194.5
z" />
    <glyph glyph-name="afii10102" unicode="&#x455;" horiz-adv-x="1085" 
d="M109 629v112q0 135 91 204t236 69h203q80 0 133 -13.5t88 -29.5q39 -18 64 -41v-121h-443q-70 0 -84 -23.5t-14 -62.5v-41q0 -31 17.5 -48.5t64.5 -17.5h262q141 0 202.5 -65.5t61.5 -169.5v-111q0 -131 -83 -200.5t-253 -69.5h-260q-80 0 -134 12.5t-89 28.5
q-39 18 -61 43v121h501q59 0 82 20.5t23 67.5v37q0 39 -17.5 60.5t-76.5 21.5h-269q-113 0 -179 58t-66 159z" />
    <glyph glyph-name="afii10103" unicode="&#x456;" horiz-adv-x="563" 
d="M143 0v1014h277v-1014h-277zM143 1217v231h277v-231h-277z" />
    <glyph glyph-name="afii10104" unicode="&#x457;" horiz-adv-x="563" 
d="M41 1217v231h195v-231h-195zM143 0v1014h277v-1014h-277zM328 1217v231h194v-231h-194z" />
    <glyph glyph-name="afii10105" unicode="&#x458;" horiz-adv-x="555" 
d="M-41 -182h74q37 0 58.5 4t33.5 15t15 31.5t3 53.5v1090h275v-1141q0 -123 -74 -190.5t-217 -67.5h-168v205zM137 1196v231h285v-231h-285z" />
    <glyph glyph-name="afii10106" unicode="&#x459;" horiz-adv-x="1656" 
d="M20 0v217q37 0 59.5 4t35 15.5t17.5 32t9 53.5l43 399q31 293 353 293h479v-369h342q104 0 165.5 -50t61.5 -167v-209q0 -111 -57.5 -165t-190.5 -54h-594v807h-163q-59 0 -87 -29.5t-36 -101.5l-45 -404q-6 -61 -18.5 -111t-42 -86t-84 -55.5t-146.5 -19.5h-101z
M1016 221h229q35 0 50.5 11.5t15.5 43.5v103q0 35 -16.5 48t-61.5 13h-217v-219z" />
    <glyph glyph-name="afii10107" unicode="&#x45a;" horiz-adv-x="1669" 
d="M135 0v1014h275v-369h344v369h276v-369h342q104 0 165.5 -50t61.5 -167v-209q0 -111 -57 -165t-190 -54h-598v440h-344v-440h-275zM1030 221h230q35 0 50 11.5t15 43.5v103q0 35 -16.5 48t-61.5 13h-217v-219z" />
    <glyph glyph-name="afii10108" unicode="&#x45b;" horiz-adv-x="1220" 
d="M-20 1184v157h161v156h277v-156h391v-157h-391v-271q4 6 20.5 22.5t44 34t65.5 31t85 13.5h137q162 0 239.5 -79t77.5 -206v-729h-274v705q0 49 -30.5 76.5t-80.5 27.5h-120q-47 0 -79 -7t-50 -16q-23 -10 -35 -22v-764h-277v1184h-161z" />
    <glyph glyph-name="afii10109" unicode="&#x45c;" horiz-adv-x="1148" 
d="M135 0v1014h277v-416h69l279 416h307l-313 -416q80 0 137 -20.5t92 -58.5t51.5 -90t16.5 -116v-313h-275v309q0 49 -30.5 77t-79.5 28h-254v-414h-277zM395 1155l144 313h305l-240 -313h-209z" />
    <glyph glyph-name="afii10110" unicode="&#x45e;" horiz-adv-x="1222" 
d="M133 285v729h275v-705q0 -49 30.5 -76.5t79.5 -27.5h121q47 0 79 6t50 16q23 8 35 23v764h276v-740l2 -383q0 -143 -84 -210.5t-235 -67.5h-305q-68 0 -124.5 12.5t-96.5 28.5q-49 18 -86 41v123h534q63 0 91 22.5t28 83.5v176q-4 -6 -20.5 -22.5t-44 -33.5t-65.5 -30.5
t-85 -13.5h-137q-162 0 -240 79t-78 206zM256 1444v31h221v-25q0 -31 3 -52.5t16.5 -33.5t39 -18.5t70.5 -6.5t72 6.5t40 18.5t16 33.5t3 52.5v25h221v-31q0 -61 -10 -111.5t-47 -87.5t-106.5 -56.5t-188.5 -19.5t-188.5 19.5t-105.5 55.5t-46 87t-10 113z" />
    <glyph glyph-name="afii10193" unicode="&#x45f;" horiz-adv-x="1204" 
d="M135 0v1014h275v-809h387v809h272v-1014h-326v-246h-276v246h-332z" />
    <glyph glyph-name="afii10050" unicode="&#x490;" horiz-adv-x="1179" 
d="M145 0v1366h684v348h277v-561h-678v-1153h-283z" />
    <glyph glyph-name="afii10098" unicode="&#x491;" horiz-adv-x="919" 
d="M135 0v1014h447v309h276v-514h-448v-809h-275z" />
    <glyph glyph-name="Wgrave" unicode="&#x1e80;" horiz-adv-x="1759" 
d="M-12 1366h325l205 -971l209 971h315l228 -981l192 981h310l-336 -1366h-346l-209 954l-219 -954h-340zM537 1817h325l185 -314h-209z" />
    <glyph glyph-name="wgrave" unicode="&#x1e81;" horiz-adv-x="1601" 
d="M33 1014h303l166 -637l180 637h256l184 -639l164 639h283l-324 -1014h-262l-188 610l-191 -610h-248zM494 1468h305l143 -313h-209z" />
    <glyph glyph-name="Wacute" unicode="&#x1e82;" horiz-adv-x="1759" 
d="M-12 1366h325l205 -971l209 971h315l228 -981l192 981h310l-336 -1366h-346l-209 954l-219 -954h-340zM707 1503l184 314h326l-302 -314h-208z" />
    <glyph glyph-name="wacute" unicode="&#x1e83;" horiz-adv-x="1601" 
d="M33 1014h303l166 -637l180 637h256l184 -639l164 639h283l-324 -1014h-262l-188 610l-191 -610h-248zM684 1155l143 313h306l-240 -313h-209z" />
    <glyph glyph-name="Wdieresis" unicode="&#x1e84;" horiz-adv-x="1759" 
d="M-12 1366h325l205 -971l209 971h315l228 -981l192 981h310l-336 -1366h-346l-209 954l-219 -954h-340zM537 1554v252h276v-252h-276zM944 1554v252h277v-252h-277z" />
    <glyph glyph-name="wdieresis" unicode="&#x1e85;" horiz-adv-x="1601" 
d="M33 1014h303l166 -637l180 637h256l184 -639l164 639h283l-324 -1014h-262l-188 610l-191 -610h-248zM459 1217v231h276v-231h-276zM866 1217v231h277v-231h-277z" />
    <glyph glyph-name="Ygrave" unicode="&#x1ef2;" horiz-adv-x="1261" 
d="M-29 1366h328l334 -530l348 530h309l-520 -743v-623h-285v614zM274 1817h326l184 -314h-209z" />
    <glyph glyph-name="ygrave" unicode="&#x1ef3;" horiz-adv-x="1062" 
d="M10 1014h307l232 -647l209 647h295l-512 -1401h-277l150 418zM246 1468h305l143 -313h-209z" />
    <glyph glyph-name="uni2000" unicode="&#x2000;" horiz-adv-x="984" 
 />
    <glyph glyph-name="uni2001" unicode="&#x2001;" horiz-adv-x="1968" 
 />
    <glyph glyph-name="uni2002" unicode="&#x2002;" horiz-adv-x="984" 
 />
    <glyph glyph-name="uni2003" unicode="&#x2003;" horiz-adv-x="1968" 
 />
    <glyph glyph-name="uni2004" unicode="&#x2004;" horiz-adv-x="656" 
 />
    <glyph glyph-name="uni2005" unicode="&#x2005;" horiz-adv-x="492" 
 />
    <glyph glyph-name="uni2006" unicode="&#x2006;" horiz-adv-x="328" 
 />
    <glyph glyph-name="uni2007" unicode="&#x2007;" horiz-adv-x="328" 
 />
    <glyph glyph-name="uni2008" unicode="&#x2008;" horiz-adv-x="246" 
 />
    <glyph glyph-name="uni2009" unicode="&#x2009;" horiz-adv-x="393" 
 />
    <glyph glyph-name="uni200A" unicode="&#x200a;" horiz-adv-x="109" 
 />
    <glyph glyph-name="uni2010" unicode="&#x2010;" horiz-adv-x="831" 
d="M92 410v219h647v-219h-647z" />
    <glyph glyph-name="uni2011" unicode="&#x2011;" horiz-adv-x="831" 
d="M92 410v219h647v-219h-647z" />
    <glyph glyph-name="figuredash" unicode="&#x2012;" horiz-adv-x="831" 
d="M92 410v219h647v-219h-647z" />
    <glyph glyph-name="endash" unicode="&#x2013;" horiz-adv-x="946" 
d="M0 410v219h946v-219h-946z" />
    <glyph glyph-name="emdash" unicode="&#x2014;" horiz-adv-x="1277" 
d="M0 410v219h1278v-219h-1278z" />
    <glyph glyph-name="quoteleft" unicode="&#x2018;" horiz-adv-x="528" 
d="M115 1016v106q0 80 23.5 154t51.5 133q35 68 78 127h127v-520h-280z" />
    <glyph glyph-name="quoteright" unicode="&#x2019;" horiz-adv-x="528" 
d="M125 1016v520h281v-106q0 -80 -25 -155t-53 -132q-35 -68 -76 -127h-127z" />
    <glyph glyph-name="quotesinglbase" unicode="&#x201a;" horiz-adv-x="528" 
d="M125 256h281v-106q0 -80 -25 -155t-53 -132q-35 -68 -76 -127h-127v520z" />
    <glyph glyph-name="quotedblleft" unicode="&#x201c;" horiz-adv-x="933" 
d="M125 1016v106q0 80 23.5 154t52.5 133q35 68 78 127h127v-520h-281zM528 1016v106q0 80 23.5 154t52.5 133q35 68 78 127h127v-520h-281z" />
    <glyph glyph-name="quotedblright" unicode="&#x201d;" horiz-adv-x="933" 
d="M135 1016v520h281v-106q0 -80 -24.5 -155t-53.5 -132q-35 -68 -76 -127h-127zM539 1016v520h280v-106q0 -80 -24.5 -155t-53.5 -132q-35 -68 -75 -127h-127z" />
    <glyph glyph-name="quotedblbase" unicode="&#x201e;" horiz-adv-x="933" 
d="M135 256h281v-106q0 -80 -24.5 -155t-53.5 -132q-35 -68 -76 -127h-127v520zM539 256h280v-106q0 -80 -24.5 -155t-53.5 -132q-35 -68 -75 -127h-127v520z" />
    <glyph glyph-name="dagger" unicode="&#x2020;" 
d="M205 809v205h340v352h276v-352h350v-205h-350v-809h-276v809h-340z" />
    <glyph glyph-name="daggerdbl" unicode="&#x2021;" 
d="M205 362v205h340v242h-340v205h340v352h276v-352h350v-203h-350v-244h350v-202l-350 -3v-362h-276v362h-340z" />
    <glyph glyph-name="bullet" unicode="&#x2022;" horiz-adv-x="514" 
d="M0 592v239q0 61 38 100.5t116 39.5h208q78 0 115 -39t37 -101v-239q0 -63 -37 -101t-115 -38h-208q-78 0 -116 37.5t-38 101.5z" />
    <glyph glyph-name="ellipsis" unicode="&#x2026;" horiz-adv-x="1585" 
d="M125 0v256h281v-256h-281zM647 0v256h281v-256h-281zM1180 0v256h280v-256h-280z" />
    <glyph glyph-name="uni202F" unicode="&#x202f;" horiz-adv-x="393" 
 />
    <glyph glyph-name="perthousand" unicode="&#x2030;" horiz-adv-x="2672" 
d="M113 829v338q0 100 62.5 149.5t154.5 49.5h219q104 0 156.5 -53t52.5 -146v-338q0 -92 -49.5 -140t-155.5 -48h-225q-215 0 -215 188zM279 -41l1107 1448h232l-1106 -1448h-233zM342 856q0 -35 39 -35h106q41 0 41 35v289q0 39 -41 39h-106q-39 0 -39 -39v-289zM1139 188
v338q0 100 62.5 149.5t154.5 49.5h219q104 0 156.5 -53.5t52.5 -145.5v-338q0 -92 -49 -140t-156 -48h-225q-215 0 -215 188zM1368 215q0 -35 39 -35h106q41 0 41 35v289q0 39 -41 39h-106q-39 0 -39 -39v-289zM1915 188v338q0 100 62.5 149.5t154.5 49.5h219
q104 0 156.5 -53.5t52.5 -145.5v-338q0 -92 -49 -140t-156 -48h-225q-215 0 -215 188zM2144 215q0 -35 39 -35h107q41 0 41 35v289q0 39 -41 39h-107q-39 0 -39 -39v-289z" />
    <glyph glyph-name="minute" unicode="&#x2032;" horiz-adv-x="528" 
d="M125 954v582h281v-311q0 -66 -25 -116t-53 -85q-35 -41 -76 -70h-127z" />
    <glyph glyph-name="second" unicode="&#x2033;" horiz-adv-x="933" 
d="M135 954v582h281v-311q0 -66 -24.5 -116t-53.5 -85q-35 -41 -76 -70h-127zM539 954v582h280v-311q0 -66 -24.5 -116t-53.5 -85q-35 -41 -75 -70h-127z" />
    <glyph glyph-name="guilsinglleft" unicode="&#x2039;" horiz-adv-x="661" 
d="M104 442v133l312 394l170 -119l-211 -342l211 -340l-170 -119z" />
    <glyph glyph-name="guilsinglright" unicode="&#x203a;" horiz-adv-x="661" 
d="M76 168l211 342l-211 340l170 119l311 -394v-133l-311 -393z" />
    <glyph glyph-name="fraction" unicode="&#x2044;" horiz-adv-x="335" 
d="M-471 -41l1046 1448h232l-1045 -1448h-233z" />
    <glyph glyph-name="uni205F" unicode="&#x205f;" horiz-adv-x="492" 
 />
    <glyph glyph-name="Euro" unicode="&#x20ac;" 
d="M63 430v193h170v135h-170v192h170v140q0 127 83 201.5t231 74.5h436q70 0 120 -11.5t83 -25.5q37 -16 63 -37v-139h-618q-53 0 -84 -24.5t-31 -77.5v-101h498v-192h-498v-135h498v-193h-498v-119q0 -47 23.5 -72.5t83.5 -25.5h649v-139q-27 -20 -64 -37
q-35 -14 -86 -25.5t-129 -11.5h-458q-154 0 -228 77t-74 195v158h-170z" />
    <glyph glyph-name="trademark" unicode="&#x2122;" horiz-adv-x="1812" 
d="M61 1386v150h641v-150h-208v-614h-220v614h-213zM805 772v764h203l227 -379l225 379h221v-764h-219v426l-162 -256h-131l-163 254v-424h-201z" />
    <glyph glyph-name="approxequal" unicode="&#x2248;" 
d="M160 215q18 33 47 75t70.5 80t95 63.5t121.5 25.5q53 0 103 -16.5t99 -37t97.5 -37t97.5 -16.5q35 0 64.5 12.5t53 31t41 38t27.5 31.5l142 -82q-14 -31 -43 -72t-71 -76.5t-98.5 -61.5t-123.5 -26q-53 0 -103.5 17.5t-99.5 37t-98.5 37t-98.5 17.5q-35 0 -63.5 -14.5
t-51 -35t-39 -43t-24.5 -36.5zM160 623q18 33 47 74.5t70.5 79.5t95 63.5t121.5 25.5q53 0 103 -16t99 -36.5t97.5 -37t97.5 -16.5q35 0 64.5 12t53 30.5t41 38t27.5 33.5l142 -83q-14 -31 -43 -72t-71 -77t-98.5 -61.5t-123.5 -25.5q-53 0 -103.5 17.5t-99.5 37t-98.5 37
t-98.5 17.5q-35 0 -63.5 -14.5t-51 -35t-39 -43t-24.5 -36.5z" />
    <glyph glyph-name="notequal" unicode="&#x2260;" 
d="M182 205v215h350l95 174h-445v215h559l111 205h231l-108 -205h219v-215h-334l-94 -174h428v-215h-543l-108 -205h-234l109 205h-236z" />
    <glyph glyph-name="lessequal" unicode="&#x2264;" 
d="M182 539v231l1022 266v-225l-749 -156l749 -155v-228zM193 0v231l1011 2v-233h-1011z" />
    <glyph glyph-name="greaterequal" unicode="&#x2265;" 
d="M182 0v233l1012 -2v-231h-1012zM182 272v228l750 155l-750 156v225l1022 -262v-231z" />
    <glyph glyph-name="uniE000" unicode="&#xe000;" horiz-adv-x="1013" 
d="M0 0v1014h1014v-1014h-1014z" />
    <glyph glyph-name="uniFB01" unicode="&#xfb01;" horiz-adv-x="1347" 
d="M51 809v205h146v174q0 53 9 106.5t36.5 95.5t78 67.5t134.5 25.5h123q72 0 122 -15.5t82 -33.5q37 -23 64 -48v-108h-266q-53 0 -80 -21.5t-27 -76.5v-166h299v-205h-299v-809h-276v809h-146zM928 0v1014h276v-1014h-276zM928 1217v231h276v-231h-276z" />
    <glyph glyph-name="uniFB02" unicode="&#xfb02;" horiz-adv-x="1363" 
d="M51 809v205h146v174q0 53 9 106.5t36.5 95.5t78 67.5t134.5 25.5h123q72 0 122 -15.5t82 -33.5q37 -23 64 -48v-108h-266q-53 0 -80 -21.5t-27 -76.5v-166h299v-205h-299v-809h-276v809h-146zM948 0v1458l273 47v-1505h-273z" />
    </font>
</defs>
</svg>
