<?xml version="1.0" standalone="no"?>
<!DOCTYPE svg PUBLIC "-//W3C//DTD SVG 1.1//EN" "http://www.w3.org/Graphics/SVG/1.1/DTD/svg11.dtd" >
<svg xmlns="http://www.w3.org/2000/svg" xmlns:xlink="http://www.w3.org/1999/xlink" version="1.1">
<metadata>
Created by FontForge 20160407 at Mon Jul  4 16:07:35 2016
 By Jimmy Wärting
Copyright (c) 2014 by (c) 2009 Designed by Svetoslav Simov (c) Fontfabric, Inc. All rights reserved.
</metadata>
<defs>
<font id="UniSansBold" horiz-adv-x="484" >
  <font-face 
    font-family="Uni Sans Bold"
    font-weight="700"
    font-stretch="normal"
    units-per-em="1000"
    panose-1="0 0 5 0 0 0 0 0 0 0"
    ascent="756"
    descent="-244"
    x-height="518"
    cap-height="708"
    bbox="-85 -254 1040 972"
    underline-thickness="50"
    underline-position="-100"
    unicode-range="U+0020-FB02"
  />
<missing-glyph horiz-adv-x="601" 
d="M540 0h-529v700h529v-700zM276 458q9 14 17 26l16 24t16.5 25t19.5 29h-139zM221 363l-80 121v-262l88 127zM327 349l88 -127v262l-80 -121zM344 139q-9 12 -25 36l-44 66l-70 -102h139z" />
    <glyph glyph-name="fi" unicode="fi" horiz-adv-x="560" 
d="M353 645q0 35 23.5 59t58.5 24q38 0 61 -24t23 -59t-23 -59.5t-61 -24.5q-35 0 -58.5 24.5t-23.5 59.5zM368 0v519h139v-519h-139zM291 580q-47 9 -72.5 -10.5t-25.5 -50.5v-25h92v-127h-92v-367h-139v527q0 46 17 82.5t48 60.5t74.5 34.5t97.5 5.5v-130z" />
    <glyph glyph-name="fl" unicode="fl" horiz-adv-x="598" 
d="M591 2q-57 -9 -99 4t-69 40t-40.5 65.5t-13.5 80.5v516h139v-516q0 -29 20 -50t63 -21v-119zM290 580q-47 9 -72.5 -10.5t-25.5 -50.5v-25h92v-127h-92v-367h-139v527q0 46 17 82.5t48 60.5t74.5 34.5t97.5 5.5v-130z" />
    <glyph glyph-name=".notdef" horiz-adv-x="601" 
d="M540 0h-529v700h529v-700zM276 458q9 14 17 26l16 24t16.5 25t19.5 29h-139zM221 363l-80 121v-262l88 127zM327 349l88 -127v262l-80 -121zM344 139q-9 12 -25 36l-44 66l-70 -102h139z" />
    <glyph glyph-name="A" unicode="A" horiz-adv-x="634" 
d="M640 0h-154l-62 162h-211l-59 -162h-157l248 708h141zM250 297h136l-45 154l-22 101h-7l-22 -102z" />
    <glyph glyph-name="Aacute" unicode="&#xc1;" horiz-adv-x="634" 
d="M365 756h-136l95 142h170zM640 0h-154l-62 162h-211l-59 -162h-157l248 708h141zM250 297h136l-45 154l-22 101h-7l-22 -102z" />
    <glyph glyph-name="Abreve" unicode="&#x102;" horiz-adv-x="634" 
d="M475 898q0 -49 -23.5 -82.5t-59 -49.5t-77 -16.5t-77 16.5t-59 49.5t-23.5 82.5h121q0 -20 13 -29.5t28 -9.5t28 9.5t13 29.5h116zM640 0h-154l-62 162h-211l-59 -162h-157l248 708h141zM250 297h136l-45 154l-22 101h-7l-22 -102z" />
    <glyph glyph-name="Acircumflex" unicode="&#xc2;" horiz-adv-x="634" 
d="M351 756l-36 41l-36 -41h-157l136 142h116l138 -142h-161zM640 0h-154l-62 162h-211l-59 -162h-157l248 708h141zM250 297h136l-45 154l-22 101h-7l-22 -102z" />
    <glyph glyph-name="Adieresis" unicode="&#xc4;" horiz-adv-x="634" 
d="M130 830q0 33 22.5 55t54.5 22q31 0 54 -22t23 -55q0 -32 -23 -53.5t-54 -21.5q-32 0 -54.5 21.5t-22.5 53.5zM347 830q0 33 22 55t55 22t55.5 -22t22.5 -55q0 -32 -22.5 -53.5t-55.5 -21.5t-55 21.5t-22 53.5zM640 0h-154l-62 162h-211l-59 -162h-157l248 708h141z
M250 297h136l-45 154l-22 101h-7l-22 -102z" />
    <glyph glyph-name="Agrave" unicode="&#xc0;" horiz-adv-x="634" 
d="M277 756l-117 142h164l83 -142h-130zM640 0h-154l-62 162h-211l-59 -162h-157l248 708h141zM250 297h136l-45 154l-22 101h-7l-22 -102z" />
    <glyph glyph-name="Amacron" unicode="&#x100;" horiz-adv-x="634" 
d="M181 879h269v-103h-269v103zM640 0h-154l-62 162h-211l-59 -162h-157l248 708h141zM250 297h136l-45 154l-22 101h-7l-22 -102z" />
    <glyph glyph-name="Aogonek" unicode="&#x104;" horiz-adv-x="634" 
d="M707 -176q-30 -32 -61 -46t-60 -14q-53 0 -80.5 24t-31.5 59.5t13.5 76.5t55.5 76h-57l-62 162h-211l-59 -162h-157l248 708h141l254 -708q-51 -58 -49 -91.5t38 -33.5q20 0 36 13zM319 552h-7l-22 -102l-40 -153h136l-45 154z" />
    <glyph glyph-name="Aring" unicode="&#xc5;" horiz-adv-x="634" 
d="M424 162h-211l-59 -162h-157l242 691q-22 17 -34.5 42t-12.5 54q0 25 10 47.5t27 39.5t39.5 27t48.5 10t48 -10.5t38.5 -28t25.5 -40t9 -46.5q0 -28 -12.5 -53t-33.5 -42l248 -691h-154zM317 837q-23 0 -38 -14t-15 -37q0 -17 15 -33t38 -16q20 0 34.5 14t14.5 35
q0 23 -14.5 37t-34.5 14zM319 552h-7l-22 -102l-40 -153h136l-45 154z" />
    <glyph glyph-name="Atilde" unicode="&#xc3;" horiz-adv-x="634" 
d="M149 800q10 51 41.5 79.5t65.5 28.5q25 0 47 -11t41 -19t34.5 -6.5t26.5 27.5l72 -36q-18 -54 -42 -79t-61 -25q-23 0 -44 11.5t-40 19.5t-36 5t-32 -32zM640 0h-154l-62 162h-211l-59 -162h-157l248 708h141zM250 297h136l-45 154l-22 101h-7l-22 -102z" />
    <glyph glyph-name="AE" unicode="&#xc6;" horiz-adv-x="826" 
d="M525 560v-133h234v-147h-234v-134h260v-146h-397v204h-132l-94 -204h-176l363 708h436v-148h-260zM396 345l1 174l-11 1l-69 -175h79z" />
    <glyph glyph-name="B" unicode="B" horiz-adv-x="624" 
d="M564 501q0 -15 -3.5 -32.5t-12 -34.5t-21 -32t-30.5 -25q33 -16 53.5 -39t31 -49t12.5 -54t-2 -55q-5 -36 -21 -68.5t-45.5 -57t-73.5 -39.5t-105 -15h-285v709h280q46 0 86.5 -13t70.5 -39.5t47.5 -65.5t17.5 -90zM342 431q37 0 57.5 21t22 46t-18 46t-61.5 21h-133
v-134h133zM342 143q34 0 57.5 12t35 30t11.5 39t-11.5 39t-34.5 30t-58 12h-133v-162h133z" />
    <glyph glyph-name="C" unicode="C" horiz-adv-x="584" 
d="M574 138q-46 -75 -113.5 -111.5t-138.5 -36.5q-51 0 -101 15t-89.5 44t-63.5 73t-24 103v258q0 58 23.5 102t62.5 73.5t89 44.5t103 15q35 0 71 -9t69 -28t60.5 -47.5t45.5 -67.5l-118 -64q-21 40 -59.5 58.5t-79.5 17.5q-24 0 -45.5 -7t-38.5 -19t-27 -29.5t-10 -39.5
v-258q0 -22 9.5 -39t26 -29t38 -18.5t44.5 -6.5q40 -1 79 17.5t60 59.5z" />
    <glyph glyph-name="Cacute" unicode="&#x106;" horiz-adv-x="584" 
d="M362 756h-136l95 142h170zM574 138q-46 -75 -113.5 -111.5t-138.5 -36.5q-51 0 -101 15t-89.5 44t-63.5 73t-24 103v258q0 58 23.5 102t62.5 73.5t89 44.5t103 15q35 0 71 -9t69 -28t60.5 -47.5t45.5 -67.5l-118 -64q-21 40 -59.5 58.5t-79.5 17.5q-24 0 -45.5 -7
t-38.5 -19t-27 -29.5t-10 -39.5v-258q0 -22 9.5 -39t26 -29t38 -18.5t44.5 -6.5q40 -1 79 17.5t60 59.5z" />
    <glyph glyph-name="Ccaron" unicode="&#x10c;" horiz-adv-x="584" 
d="M122 898h157l36 -41l36 41h161l-138 -142h-116zM574 138q-46 -75 -113.5 -111.5t-138.5 -36.5q-51 0 -101 15t-89.5 44t-63.5 73t-24 103v258q0 58 23.5 102t62.5 73.5t89 44.5t103 15q35 0 71 -9t69 -28t60.5 -47.5t45.5 -67.5l-118 -64q-21 40 -59.5 58.5t-79.5 17.5
q-24 0 -45.5 -7t-38.5 -19t-27 -29.5t-10 -39.5v-258q0 -22 9.5 -39t26 -29t38 -18.5t44.5 -6.5q40 -1 79 17.5t60 59.5z" />
    <glyph glyph-name="Ccedilla" unicode="&#xc7;" horiz-adv-x="584" 
d="M574 138q-38 -63 -92.5 -98.5t-114.5 -45.5l-21 -45q24 -2 41 -13.5t25.5 -28.5t8.5 -38.5t-8 -43.5q-10 -26 -34 -44.5t-56 -24.5t-70 2.5t-75 37.5l28 64q34 -23 60.5 -19.5t33.5 24.5q3 8 0.5 16.5t-10.5 16t-24 12t-40 4.5l41 80q-44 7 -84.5 25t-71.5 47t-49 68.5
t-18 90.5v258q0 58 23.5 102t62.5 73.5t89 44.5t103 15q35 0 71 -9t69 -28t60.5 -47.5t45.5 -67.5l-118 -64q-21 40 -59.5 58.5t-79.5 17.5q-24 0 -45.5 -7t-38.5 -19t-27 -29.5t-10 -39.5v-258q0 -22 9.5 -39t26 -29t38 -18.5t44.5 -6.5q40 -1 79 17.5t60 59.5z" />
    <glyph glyph-name="Cdotaccent" unicode="&#x10a;" horiz-adv-x="584" 
d="M227 837q0 35 25 59t61 24t60 -24t24 -59q0 -36 -24 -59t-60 -23t-61 23t-25 59zM574 138q-46 -75 -113.5 -111.5t-138.5 -36.5q-51 0 -101 15t-89.5 44t-63.5 73t-24 103v258q0 58 23.5 102t62.5 73.5t89 44.5t103 15q35 0 71 -9t69 -28t60.5 -47.5t45.5 -67.5l-118 -64
q-21 40 -59.5 58.5t-79.5 17.5q-24 0 -45.5 -7t-38.5 -19t-27 -29.5t-10 -39.5v-258q0 -22 9.5 -39t26 -29t38 -18.5t44.5 -6.5q40 -1 79 17.5t60 59.5z" />
    <glyph glyph-name="D" unicode="D" horiz-adv-x="636" 
d="M322 708q52 0 101 -13.5t86.5 -41.5t60 -71.5t22.5 -103.5v-252q0 -60 -22.5 -102.5t-60 -70t-86.5 -40.5t-101 -13h-260v708h260zM322 148q24 0 46 4t39 13.5t27 24.5t10 36v252q0 22 -10 37.5t-27 25.5t-39 14.5t-46 4.5h-113v-412h113z" />
    <glyph glyph-name="Eth" unicode="&#xd0;" horiz-adv-x="644" 
d="M70 708h282q52 0 97 -13t78.5 -40.5t52.5 -70.5t19 -103v-255q0 -60 -19 -102.5t-52.5 -70t-78.5 -40.5t-97 -13h-282v286h-56v128h56v294zM352 148q48 0 74 17.5t26 60.5v255q0 44 -26 61.5t-74 17.5h-134v-146h118v-128h-118v-138h134z" />
    <glyph glyph-name="Dcaron" unicode="&#x10e;" horiz-adv-x="636" 
d="M113 898h157l36 -41l36 41h161l-138 -142h-116zM322 708q52 0 101 -13.5t86.5 -41.5t60 -71.5t22.5 -103.5v-252q0 -60 -22.5 -102.5t-60 -70t-86.5 -40.5t-101 -13h-260v708h260zM322 148q24 0 46 4t39 13.5t27 24.5t10 36v252q0 22 -10 37.5t-27 25.5t-39 14.5t-46 4.5
h-113v-412h113z" />
    <glyph glyph-name="Dcroat" unicode="&#x110;" horiz-adv-x="644" 
d="M70 708h282q52 0 97 -13t78.5 -40.5t52.5 -70.5t19 -103v-255q0 -60 -19 -102.5t-52.5 -70t-78.5 -40.5t-97 -13h-282v286h-56v128h56v294zM352 148q48 0 74 17.5t26 60.5v255q0 44 -26 61.5t-74 17.5h-134v-146h118v-128h-118v-138h134z" />
    <glyph glyph-name="E" unicode="E" horiz-adv-x="583" 
d="M210 426h305v-143h-305v-140h332v-143h-480v709h480v-144h-332v-139z" />
    <glyph glyph-name="Eacute" unicode="&#xc9;" horiz-adv-x="583" 
d="M351 756h-136l95 142h170zM210 426h305v-143h-305v-140h332v-143h-480v709h480v-144h-332v-139z" />
    <glyph glyph-name="Ecaron" unicode="&#x11a;" horiz-adv-x="583" 
d="M111 898h157l36 -41l36 41h161l-138 -142h-116zM210 426h305v-143h-305v-140h332v-143h-480v709h480v-144h-332v-139z" />
    <glyph glyph-name="Ecircumflex" unicode="&#xca;" horiz-adv-x="583" 
d="M337 756l-36 41l-36 -41h-157l136 142h116l138 -142h-161zM210 426h305v-143h-305v-140h332v-143h-480v709h480v-144h-332v-139z" />
    <glyph glyph-name="Edieresis" unicode="&#xcb;" horiz-adv-x="583" 
d="M116 830q0 33 22.5 55t54.5 22q31 0 54 -22t23 -55q0 -32 -23 -53.5t-54 -21.5q-32 0 -54.5 21.5t-22.5 53.5zM333 830q0 33 22 55t55 22t55.5 -22t22.5 -55q0 -32 -22.5 -53.5t-55.5 -21.5t-55 21.5t-22 53.5zM210 426h305v-143h-305v-140h332v-143h-480v709h480v-144
h-332v-139z" />
    <glyph glyph-name="Edotaccent" unicode="&#x116;" horiz-adv-x="583" 
d="M213 842q0 37 25.5 61.5t63.5 24.5t63 -24.5t25 -61.5q0 -38 -25 -61.5t-63 -23.5t-63.5 23.5t-25.5 61.5zM210 426h305v-143h-305v-140h332v-143h-480v709h480v-144h-332v-139z" />
    <glyph glyph-name="Egrave" unicode="&#xc8;" horiz-adv-x="583" 
d="M263 756l-117 142h164l83 -142h-130zM210 426h305v-143h-305v-140h332v-143h-480v709h480v-144h-332v-139z" />
    <glyph glyph-name="Emacron" unicode="&#x112;" horiz-adv-x="583" 
d="M167 879h269v-103h-269v103zM210 426h305v-143h-305v-140h332v-143h-480v709h480v-144h-332v-139z" />
    <glyph glyph-name="Eogonek" unicode="&#x118;" horiz-adv-x="582" 
d="M606 -176q-30 -32 -61 -46t-60 -14q-53 0 -80.5 24t-31.5 59.5t13.5 76.5t55.5 76h-381v709h480v-144h-332v-139h305v-143h-305v-140h332v-143q-51 -58 -50 -91.5t37 -33.5q20 0 36 13z" />
    <glyph glyph-name="F" unicode="F" horiz-adv-x="569" 
d="M210 409h290v-145h-290v-264h-148v708h479v-143h-331v-156z" />
    <glyph glyph-name="G" unicode="G" horiz-adv-x="628" 
d="M450 505q-17 40 -55 59t-79 19q-24 0 -46.5 -6.5t-40.5 -19t-28.5 -30.5t-10.5 -42v-258q0 -24 11 -41.5t29.5 -29t42 -17.5t48.5 -6t48.5 6t42.5 17.5t30.5 29t11.5 41.5v34h-161v143h305v-177q0 -59 -23.5 -103t-62.5 -74t-88.5 -45t-101.5 -15t-102 14.5t-89 44
t-63 74t-24 104.5v258q0 58 23.5 101.5t62.5 73t88.5 44t101.5 14.5q36 0 72 -8t68.5 -25.5t60.5 -46t48 -70.5z" />
    <glyph glyph-name="Gbreve" unicode="&#x11e;" horiz-adv-x="628" 
d="M479 898q0 -49 -23.5 -82.5t-59 -49.5t-77 -16.5t-77 16.5t-59 49.5t-23.5 82.5h121q0 -20 13 -29.5t28 -9.5t28 9.5t13 29.5h116zM450 505q-17 40 -55 59t-79 19q-24 0 -46.5 -6.5t-40.5 -19t-28.5 -30.5t-10.5 -42v-258q0 -24 11 -41.5t29.5 -29t42 -17.5t48.5 -6
t48.5 6t42.5 17.5t30.5 29t11.5 41.5v34h-161v143h305v-177q0 -59 -23.5 -103t-62.5 -74t-88.5 -45t-101.5 -15t-102 14.5t-89 44t-63 74t-24 104.5v258q0 58 23.5 101.5t62.5 73t88.5 44t101.5 14.5q36 0 72 -8t68.5 -25.5t60.5 -46t48 -70.5z" />
    <glyph glyph-name="Gcommaaccent" unicode="&#x122;" horiz-adv-x="628" 
d="M450 505q-17 40 -55 59t-79 19q-24 0 -46.5 -6.5t-40.5 -19t-28.5 -30.5t-10.5 -42v-258q0 -24 11 -41.5t29.5 -29t42 -17.5t48.5 -6t48.5 6t42.5 17.5t30.5 29t11.5 41.5v34h-161v143h305v-177q0 -59 -23.5 -103t-62.5 -74t-88.5 -45t-101.5 -15t-102 14.5t-89 44
t-63 74t-24 104.5v258q0 58 23.5 101.5t62.5 73t88.5 44t101.5 14.5q36 0 72 -8t68.5 -25.5t60.5 -46t48 -70.5zM331 -254h-129l52 175h145z" />
    <glyph glyph-name="Gdotaccent" unicode="&#x120;" horiz-adv-x="628" 
d="M231 842q0 37 25.5 61.5t63.5 24.5t63 -24.5t25 -61.5q0 -38 -25 -61.5t-63 -23.5t-63.5 23.5t-25.5 61.5zM450 505q-17 40 -55 59t-79 19q-24 0 -46.5 -6.5t-40.5 -19t-28.5 -30.5t-10.5 -42v-258q0 -24 11 -41.5t29.5 -29t42 -17.5t48.5 -6t48.5 6t42.5 17.5t30.5 29
t11.5 41.5v34h-161v143h305v-177q0 -59 -23.5 -103t-62.5 -74t-88.5 -45t-101.5 -15t-102 14.5t-89 44t-63 74t-24 104.5v258q0 58 23.5 101.5t62.5 73t88.5 44t101.5 14.5q36 0 72 -8t68.5 -25.5t60.5 -46t48 -70.5z" />
    <glyph glyph-name="H" unicode="H" horiz-adv-x="679" 
d="M209 0h-147v708h147v-281h261v281h147v-708h-147v290h-261v-290z" />
    <glyph glyph-name="Hbar" unicode="&#x126;" horiz-adv-x="685" 
d="M620 519v-519h-147v280h-261v-280h-147v519h-51v94h51v95h147v-95h261v95h147v-95h51v-94h-51zM212 519v-92h261v92h-261z" />
    <glyph glyph-name="I" unicode="I" horiz-adv-x="271" 
d="M209 0h-147v708h147v-708z" />
    <glyph glyph-name="IJ" unicode="&#x132;" horiz-adv-x="869" 
d="M209 0h-147v708h147v-708zM812 708v-486q0 -58 -23.5 -101.5t-61.5 -72.5t-86 -43.5t-98 -14.5q-44 0 -88.5 14t-81 43.5t-62.5 73.5t-33 104l142 28q11 -60 47.5 -89.5t78.5 -29.5q22 0 43 5.5t37.5 16.5t27 27.5t10.5 38.5v347h-167v139h315z" />
    <glyph glyph-name="Iacute" unicode="&#xcd;" horiz-adv-x="271" 
d="M185 756h-136l95 142h170zM209 0h-147v708h147v-708z" />
    <glyph glyph-name="Icircumflex" unicode="&#xce;" horiz-adv-x="271" 
d="M171 756l-36 41l-36 -41h-157l136 142h116l138 -142h-161zM209 0h-147v708h147v-708z" />
    <glyph glyph-name="Idieresis" unicode="&#xcf;" horiz-adv-x="271" 
d="M-50 830q0 33 22.5 55t54.5 22q31 0 54 -22t23 -55q0 -32 -23 -53.5t-54 -21.5q-32 0 -54.5 21.5t-22.5 53.5zM167 830q0 33 22 55t55 22t55.5 -22t22.5 -55q0 -32 -22.5 -53.5t-55.5 -21.5t-55 21.5t-22 53.5zM209 0h-147v708h147v-708z" />
    <glyph glyph-name="Idotaccent" unicode="&#x130;" horiz-adv-x="271" 
d="M47 842q0 37 25.5 61.5t63.5 24.5t63 -24.5t25 -61.5q0 -38 -25 -61.5t-63 -23.5t-63.5 23.5t-25.5 61.5zM209 0h-147v708h147v-708z" />
    <glyph glyph-name="Igrave" unicode="&#xcc;" horiz-adv-x="271" 
d="M97 756l-117 142h164l83 -142h-130zM209 0h-147v708h147v-708z" />
    <glyph glyph-name="Imacron" unicode="&#x12a;" horiz-adv-x="271" 
d="M1 879h269v-103h-269v103zM209 0h-147v708h147v-708z" />
    <glyph glyph-name="Iogonek" unicode="&#x12e;" horiz-adv-x="271" 
d="M259 -176q-30 -32 -61 -46t-60 -14q-53 0 -80.5 24t-32 59.5t12.5 76.5t55 76h-31v708h147v-708q-30 -23 -45 -45.5t-17 -40t7 -28.5t27 -11q20 0 36 13z" />
    <glyph glyph-name="J" unicode="J" horiz-adv-x="598" 
d="M541 708v-486q0 -58 -23.5 -101.5t-61.5 -72.5t-86 -43.5t-98 -14.5q-44 0 -88.5 14t-81 43.5t-62.5 73.5t-33 104l142 28q11 -60 47.5 -89.5t78.5 -29.5q22 0 43 5.5t37.5 16.5t27 27.5t10.5 38.5v347h-167v139h315z" />
    <glyph glyph-name="K" unicode="K" horiz-adv-x="633" 
d="M461 708h179l-304 -347l304 -361h-182l-221 263l-28 -27v-236h-147v708h147v-295z" />
    <glyph glyph-name="Kcommaaccent" unicode="&#x136;" horiz-adv-x="633" 
d="M461 708h179l-304 -347l304 -361h-182l-221 263l-28 -27v-236h-147v708h147v-295zM324 -244h-129l52 175h145z" />
    <glyph glyph-name="L" unicode="L" horiz-adv-x="530" 
d="M62 708h147v-560h306v-148h-453v708z" />
    <glyph glyph-name="Lacute" unicode="&#x139;" horiz-adv-x="530" 
d="M185 756h-136l95 142h170zM62 708h147v-560h306v-148h-453v708z" />
    <glyph glyph-name="Lcaron" unicode="&#x13d;" horiz-adv-x="532" 
d="M62 708h147v-560h306v-148h-453v708zM426 533h-127l52 175h142z" />
    <glyph glyph-name="Lcommaaccent" unicode="&#x13b;" horiz-adv-x="530" 
d="M62 708h147v-560h306v-148h-453v708zM298 -244h-129l52 175h145z" />
    <glyph glyph-name="Ldot" unicode="&#x13f;" horiz-adv-x="537" 
d="M62 708h147v-560h306v-148h-453v708zM283 390q0 37 24.5 62t62.5 25q37 0 60.5 -25t23.5 -62q0 -36 -23.5 -60.5t-60.5 -24.5q-38 0 -62.5 24.5t-24.5 60.5z" />
    <glyph glyph-name="Lslash" unicode="&#x141;" horiz-adv-x="556" 
d="M528 0h-439v246l-48 -25l-45 83l93 51v353h148v-272l87 47l45 -91l-132 -69v-174h291v-149z" />
    <glyph glyph-name="M" unicode="M" horiz-adv-x="778" 
d="M445 93h-110l-98 228l-34 97h-10l16 -137v-281h-147v708h154l172 -407l174 407h154v-708h-147v282l18 137h-11l-34 -99z" />
    <glyph glyph-name="N" unicode="N" horiz-adv-x="679" 
d="M491 196q-3 17 -6.5 40.5t-6.5 46t-5.5 40t-2.5 23.5v362h147v-708h-157l-216 372l-43 96l-10 -2l19 -121v-345h-148v708h145l224 -386l50 -128z" />
    <glyph glyph-name="Nacute" unicode="&#x143;" horiz-adv-x="679" 
d="M389 756h-136l95 142h170zM491 196q-3 17 -6.5 40.5t-6.5 46t-5.5 40t-2.5 23.5v362h147v-708h-157l-216 372l-43 96l-10 -2l19 -121v-345h-148v708h145l224 -386l50 -128z" />
    <glyph glyph-name="Ncaron" unicode="&#x147;" horiz-adv-x="679" 
d="M149 898h157l36 -41l36 41h161l-138 -142h-116zM491 196q-3 17 -6.5 40.5t-6.5 46t-5.5 40t-2.5 23.5v362h147v-708h-157l-216 372l-43 96l-10 -2l19 -121v-345h-148v708h145l224 -386l50 -128z" />
    <glyph glyph-name="Ncommaaccent" unicode="&#x145;" horiz-adv-x="679" 
d="M491 196q-3 17 -6.5 40.5t-6.5 46t-5.5 40t-2.5 23.5v362h147v-708h-157l-216 372l-43 96l-10 -2l19 -121v-345h-148v708h145l224 -386l50 -128zM349 -244h-129l52 175h145z" />
    <glyph glyph-name="Eng" unicode="&#x14a;" horiz-adv-x="679" 
d="M617 -9q0 -42 -12 -79t-37.5 -61.5t-65 -34.5t-94.5 1v107q24 -2 37.5 4t21 16.5t9.5 23t2 23.5v9h-18l-216 372l-43 96l-10 -2l19 -121v-345h-148v708h145l224 -386l50 -128l10 2q-3 17 -6.5 40.5t-6.5 46t-5.5 40t-2.5 23.5v362h147v-717z" />
    <glyph glyph-name="Ntilde" unicode="&#xd1;" horiz-adv-x="679" 
d="M173 800q10 51 41.5 79.5t65.5 28.5q25 0 47 -11t41 -19t34.5 -6.5t26.5 27.5l72 -36q-18 -54 -42 -79t-61 -25q-23 0 -44 11.5t-40 19.5t-36 5t-32 -32zM491 196q-3 17 -6.5 40.5t-6.5 46t-5.5 40t-2.5 23.5v362h147v-708h-157l-216 372l-43 96l-10 -2l19 -121v-345
h-148v708h145l224 -386l50 -128z" />
    <glyph glyph-name="O" unicode="O" horiz-adv-x="666" 
d="M43 482q0 59 25 103.5t65.5 74t93 44t106.5 14.5t106.5 -15t93 -44.5t65.5 -73.5t25 -103v-257q0 -59 -25 -103t-65.5 -73.5t-93 -44.5t-106.5 -15t-106.5 14.5t-93 44t-65.5 74t-25 103.5v257zM189 225q0 -23 12.5 -39.5t32.5 -27.5t46 -16.5t53 -5.5t52.5 6t46 17
t32.5 27.5t12 38.5v257q0 23 -12.5 40t-32.5 28t-46 16.5t-53 5.5t-52.5 -6t-45.5 -17t-32.5 -28t-12.5 -39v-257z" />
    <glyph glyph-name="Oacute" unicode="&#xd3;" horiz-adv-x="666" 
d="M382 766h-136l95 142h170zM43 482q0 59 25 103.5t65.5 74t93 44t106.5 14.5t106.5 -15t93 -44.5t65.5 -73.5t25 -103v-257q0 -59 -25 -103t-65.5 -73.5t-93 -44.5t-106.5 -15t-106.5 14.5t-93 44t-65.5 74t-25 103.5v257zM189 225q0 -23 12.5 -39.5t32.5 -27.5t46 -16.5
t53 -5.5t52.5 6t46 17t32.5 27.5t12 38.5v257q0 23 -12.5 40t-32.5 28t-46 16.5t-53 5.5t-52.5 -6t-45.5 -17t-32.5 -28t-12.5 -39v-257z" />
    <glyph glyph-name="Ocircumflex" unicode="&#xd4;" horiz-adv-x="666" 
d="M368 766l-36 41l-36 -41h-157l136 142h116l138 -142h-161zM43 482q0 59 25 103.5t65.5 74t93 44t106.5 14.5t106.5 -15t93 -44.5t65.5 -73.5t25 -103v-257q0 -59 -25 -103t-65.5 -73.5t-93 -44.5t-106.5 -15t-106.5 14.5t-93 44t-65.5 74t-25 103.5v257zM189 225
q0 -23 12.5 -39.5t32.5 -27.5t46 -16.5t53 -5.5t52.5 6t46 17t32.5 27.5t12 38.5v257q0 23 -12.5 40t-32.5 28t-46 16.5t-53 5.5t-52.5 -6t-45.5 -17t-32.5 -28t-12.5 -39v-257z" />
    <glyph glyph-name="Odieresis" unicode="&#xd6;" horiz-adv-x="666" 
d="M147 840q0 33 22.5 55t54.5 22q31 0 54 -22t23 -55q0 -32 -23 -53.5t-54 -21.5q-32 0 -54.5 21.5t-22.5 53.5zM364 840q0 33 22 55t55 22t55.5 -22t22.5 -55q0 -32 -22.5 -53.5t-55.5 -21.5t-55 21.5t-22 53.5zM43 482q0 59 25 103.5t65.5 74t93 44t106.5 14.5t106.5 -15
t93 -44.5t65.5 -73.5t25 -103v-257q0 -59 -25 -103t-65.5 -73.5t-93 -44.5t-106.5 -15t-106.5 14.5t-93 44t-65.5 74t-25 103.5v257zM189 225q0 -23 12.5 -39.5t32.5 -27.5t46 -16.5t53 -5.5t52.5 6t46 17t32.5 27.5t12 38.5v257q0 23 -12.5 40t-32.5 28t-46 16.5t-53 5.5
t-52.5 -6t-45.5 -17t-32.5 -28t-12.5 -39v-257z" />
    <glyph glyph-name="Ograve" unicode="&#xd2;" horiz-adv-x="666" 
d="M294 766l-117 142h164l83 -142h-130zM43 482q0 59 25 103.5t65.5 74t93 44t106.5 14.5t106.5 -15t93 -44.5t65.5 -73.5t25 -103v-257q0 -59 -25 -103t-65.5 -73.5t-93 -44.5t-106.5 -15t-106.5 14.5t-93 44t-65.5 74t-25 103.5v257zM189 225q0 -23 12.5 -39.5t32.5 -27.5
t46 -16.5t53 -5.5t52.5 6t46 17t32.5 27.5t12 38.5v257q0 23 -12.5 40t-32.5 28t-46 16.5t-53 5.5t-52.5 -6t-45.5 -17t-32.5 -28t-12.5 -39v-257z" />
    <glyph glyph-name="Ohungarumlaut" unicode="&#x150;" horiz-adv-x="666" 
d="M265 767h-132l96 149h162zM479 767h-133l96 149h162zM43 482q0 59 25 103.5t65.5 74t93 44t106.5 14.5t106.5 -15t93 -44.5t65.5 -73.5t25 -103v-257q0 -59 -25 -103t-65.5 -73.5t-93 -44.5t-106.5 -15t-106.5 14.5t-93 44t-65.5 74t-25 103.5v257zM189 225
q0 -23 12.5 -39.5t32.5 -27.5t46 -16.5t53 -5.5t52.5 6t46 17t32.5 27.5t12 38.5v257q0 23 -12.5 40t-32.5 28t-46 16.5t-53 5.5t-52.5 -6t-45.5 -17t-32.5 -28t-12.5 -39v-257z" />
    <glyph glyph-name="Omacron" unicode="&#x14c;" horiz-adv-x="666" 
d="M198 889h269v-103h-269v103zM43 482q0 59 25 103.5t65.5 74t93 44t106.5 14.5t106.5 -15t93 -44.5t65.5 -73.5t25 -103v-257q0 -59 -25 -103t-65.5 -73.5t-93 -44.5t-106.5 -15t-106.5 14.5t-93 44t-65.5 74t-25 103.5v257zM189 225q0 -23 12.5 -39.5t32.5 -27.5
t46 -16.5t53 -5.5t52.5 6t46 17t32.5 27.5t12 38.5v257q0 23 -12.5 40t-32.5 28t-46 16.5t-53 5.5t-52.5 -6t-45.5 -17t-32.5 -28t-12.5 -39v-257z" />
    <glyph glyph-name="Oslash" unicode="&#xd8;" horiz-adv-x="666" 
d="M511 673q50 -29 81 -76.5t31 -114.5v-257q0 -59 -25 -103t-65.5 -73.5t-93 -44.5t-106.5 -15q-24 0 -47.5 3t-46.5 8l-34 -85l-78 31l34 84q-52 29 -85 77.5t-33 117.5v257q0 59 25 103.5t65.5 74t93 44t106.5 14.5q53 0 99 -13l36 89l80 -28zM189 225q0 -17 7.5 -31
t20.5 -25l160 399q-11 2 -22.5 3t-22.5 1q-27 0 -52.5 -6t-45.5 -17t-32.5 -28t-12.5 -39v-257zM476 482q0 31 -22 51l-159 -394q18 -3 38 -3q27 0 52.5 6t46 17t32.5 27.5t12 38.5v257z" />
    <glyph glyph-name="Otilde" unicode="&#xd5;" horiz-adv-x="666" 
d="M166 810q10 51 41.5 79.5t65.5 28.5q25 0 47 -11t41 -19t34.5 -6.5t26.5 27.5l72 -36q-18 -54 -42 -79t-61 -25q-23 0 -44 11.5t-40 19.5t-36 5t-32 -32zM43 482q0 59 25 103.5t65.5 74t93 44t106.5 14.5t106.5 -15t93 -44.5t65.5 -73.5t25 -103v-257q0 -59 -25 -103
t-65.5 -73.5t-93 -44.5t-106.5 -15t-106.5 14.5t-93 44t-65.5 74t-25 103.5v257zM189 225q0 -23 12.5 -39.5t32.5 -27.5t46 -16.5t53 -5.5t52.5 6t46 17t32.5 27.5t12 38.5v257q0 23 -12.5 40t-32.5 28t-46 16.5t-53 5.5t-52.5 -6t-45.5 -17t-32.5 -28t-12.5 -39v-257z" />
    <glyph glyph-name="OE" unicode="&#x152;" horiz-adv-x="855" 
d="M543 426h244v-147h-244v-132h271v-147h-407v34q-37 -25 -78.5 -34t-82 -5t-77.5 20.5t-65 44t-44 64.5t-14 82v289q0 47 18.5 85.5t48 66.5t68 44t78.5 19.5t78.5 -6t69.5 -34.5v37h407v-148h-271v-133zM335 121q18 0 37.5 5t34.5 22v399q-18 16 -44 26t-54 10
q-22 0 -43 -6.5t-37.5 -18t-26 -28t-9.5 -36.5v-286q0 -23 12 -39.5t32 -27t45.5 -15.5t52.5 -5z" />
    <glyph glyph-name="P" unicode="P" horiz-adv-x="617" 
d="M62 708h279q85 0 141 -36.5t84 -91t28 -117.5t-28.5 -117.5t-84.5 -90.5t-139 -36h-134v-219h-146v708zM341 357q36 0 60 15t36 37.5t12 49t-12 49t-36 37.5t-60 15h-133v-203h133z" />
    <glyph glyph-name="Thorn" unicode="&#xde;" horiz-adv-x="614" 
d="M62 709h146v-101h133q85 0 141 -36.5t84 -91t28 -117.5t-28.5 -117.5t-84.5 -90.5t-139 -36h-134v-118h-146v708zM341 257q36 0 60 15t36 37.5t12 49t-12 49t-36 37.5t-60 15h-133v-203h133z" />
    <glyph glyph-name="Q" unicode="Q" horiz-adv-x="666" 
d="M511 34q-39 -23 -84.5 -34t-93.5 -11q-54 0 -106.5 14.5t-93 44t-65.5 74t-25 103.5v257q0 59 25 103.5t65.5 74t93 44t106.5 14.5t106.5 -15t93 -44.5t65.5 -73.5t25 -103v-257q0 -38 -10.5 -70t-30.5 -58l64 -68l-73 -62zM333 136q24 0 43.5 1.5t34.5 3.5l-63 68l73 62
l55 -59v13v257q0 23 -12.5 40t-32.5 28t-46 16.5t-53 5.5t-52.5 -6t-45.5 -17t-32.5 -28t-12.5 -39v-257q0 -23 12.5 -39.5t32.5 -28t46 -16.5t53 -5z" />
    <glyph glyph-name="R" unicode="R" horiz-adv-x="632" 
d="M262 259h-52v-259h-148v708h279q53 0 98.5 -12.5t79.5 -40t53.5 -70.5t21.5 -103q0 -98 -42 -148t-119 -65l211 -269h-181zM341 393q49 0 77.5 20.5t28.5 67.5q0 45 -29.5 63t-76.5 16h-131v-167h131z" />
    <glyph glyph-name="Racute" unicode="&#x154;" horiz-adv-x="632" 
d="M341 756h-136l95 142h170zM262 259h-52v-259h-148v708h279q53 0 98.5 -12.5t79.5 -40t53.5 -70.5t21.5 -103q0 -98 -42 -148t-119 -65l211 -269h-181zM341 393q49 0 77.5 20.5t28.5 67.5q0 45 -29.5 63t-76.5 16h-131v-167h131z" />
    <glyph glyph-name="Rcaron" unicode="&#x158;" horiz-adv-x="632" 
d="M101 898h157l36 -41l36 41h161l-138 -142h-116zM262 259h-52v-259h-148v708h279q53 0 98.5 -12.5t79.5 -40t53.5 -70.5t21.5 -103q0 -98 -42 -148t-119 -65l211 -269h-181zM341 393q49 0 77.5 20.5t28.5 67.5q0 45 -29.5 63t-76.5 16h-131v-167h131z" />
    <glyph glyph-name="Rcommaaccent" unicode="&#x156;" horiz-adv-x="632" 
d="M262 259h-52v-259h-148v708h279q53 0 98.5 -12.5t79.5 -40t53.5 -70.5t21.5 -103q0 -98 -42 -148t-119 -65l211 -269h-181zM341 393q49 0 77.5 20.5t28.5 67.5q0 45 -29.5 63t-76.5 16h-131v-167h131zM342 -244h-129l52 175h145z" />
    <glyph glyph-name="S" unicode="S" horiz-adv-x="568" 
d="M137 210q24 -38 66 -57.5t83.5 -20.5t73 17.5t33.5 55.5q1 23 -10 37.5t-29.5 24t-44 14.5t-52.5 9q-42 6 -82.5 20t-72 40t-51 66t-18.5 99q3 50 26 88.5t58.5 64t80.5 38.5t93 13q69 0 131.5 -29t107.5 -96l-121 -81q-23 35 -53 51t-65 16q-21 0 -40 -4t-34 -12.5
t-24 -22t-10 -31.5v-1q0 -22 10.5 -35t27.5 -21.5t39 -13t45 -9.5q46 -9 89.5 -23t77 -40.5t53 -67.5t16.5 -104q-5 -50 -29 -88t-61.5 -64t-84 -39.5t-94.5 -13.5q-69 0 -135 33.5t-111 101.5z" />
    <glyph glyph-name="Sacute" unicode="&#x15a;" horiz-adv-x="568" 
d="M340 758h-136l95 142h170zM137 210q24 -38 66 -57.5t83.5 -20.5t73 17.5t33.5 55.5q1 23 -10 37.5t-29.5 24t-44 14.5t-52.5 9q-42 6 -82.5 20t-72 40t-51 66t-18.5 99q3 50 26 88.5t58.5 64t80.5 38.5t93 13q69 0 131.5 -29t107.5 -96l-121 -81q-23 35 -53 51t-65 16
q-21 0 -40 -4t-34 -12.5t-24 -22t-10 -31.5v-1q0 -22 10.5 -35t27.5 -21.5t39 -13t45 -9.5q46 -9 89.5 -23t77 -40.5t53 -67.5t16.5 -104q-5 -50 -29 -88t-61.5 -64t-84 -39.5t-94.5 -13.5q-69 0 -135 33.5t-111 101.5z" />
    <glyph glyph-name="Scaron" unicode="&#x160;" horiz-adv-x="568" 
d="M100 900h157l36 -41l36 41h161l-138 -142h-116zM137 210q24 -38 66 -57.5t83.5 -20.5t73 17.5t33.5 55.5q1 23 -10 37.5t-29.5 24t-44 14.5t-52.5 9q-42 6 -82.5 20t-72 40t-51 66t-18.5 99q3 50 26 88.5t58.5 64t80.5 38.5t93 13q69 0 131.5 -29t107.5 -96l-121 -81
q-23 35 -53 51t-65 16q-21 0 -40 -4t-34 -12.5t-24 -22t-10 -31.5v-1q0 -22 10.5 -35t27.5 -21.5t39 -13t45 -9.5q46 -9 89.5 -23t77 -40.5t53 -67.5t16.5 -104q-5 -50 -29 -88t-61.5 -64t-84 -39.5t-94.5 -13.5q-69 0 -135 33.5t-111 101.5z" />
    <glyph glyph-name="Scedilla" unicode="&#x15e;" horiz-adv-x="568" 
d="M305 430q46 -9 89.5 -23t77 -40.5t53 -67.5t16.5 -104q-4 -40 -20.5 -72.5t-42.5 -57.5t-60 -41.5t-71 -25.5l-22 -48q24 -2 41 -13.5t25.5 -28.5t8.5 -38.5t-8 -43.5q-10 -26 -34 -44.5t-56 -24.5t-70 2.5t-75 37.5l28 64q34 -23 60.5 -19.5t33.5 24.5q3 8 0.5 16.5
t-10.5 16t-24 12t-40 4.5l39 76q-63 7 -120 40t-98 94l111 85q24 -38 66 -57.5t83.5 -20.5t73 17.5t33.5 55.5q1 23 -10 37.5t-29.5 24t-44 14.5t-52.5 9q-42 6 -82.5 20t-72 40t-51 66t-18.5 99q3 50 26 88.5t58.5 64t80.5 38.5t93 13q69 0 131.5 -29t107.5 -96l-121 -81
q-23 35 -53 51t-65 16q-21 0 -40 -4t-34 -12.5t-24 -22t-10 -31.5v-1q0 -22 10.5 -35t27.5 -21.5t39 -13t45 -9.5z" />
    <glyph glyph-name="Scommaaccent" unicode="&#x218;" horiz-adv-x="568" 
d="M137 210q24 -38 66 -57.5t83.5 -20.5t73 17.5t33.5 55.5q1 23 -10 37.5t-29.5 24t-44 14.5t-52.5 9q-42 6 -82.5 20t-72 40t-51 66t-18.5 99q3 50 26 88.5t58.5 64t80.5 38.5t93 13q69 0 131.5 -29t107.5 -96l-121 -81q-23 35 -53 51t-65 16q-21 0 -40 -4t-34 -12.5
t-24 -22t-10 -31.5v-1q0 -22 10.5 -35t27.5 -21.5t39 -13t45 -9.5q46 -9 89.5 -23t77 -40.5t53 -67.5t16.5 -104q-5 -50 -29 -88t-61.5 -64t-84 -39.5t-94.5 -13.5q-69 0 -135 33.5t-111 101.5zM281 -245h-129l52 175h145z" />
    <glyph glyph-name="T" unicode="T" horiz-adv-x="584" 
d="M366 561v-561h-148v561h-203v148h554v-148h-203z" />
    <glyph glyph-name="Tbar" unicode="&#x166;" horiz-adv-x="592" 
d="M370 402h120v-106h-120v-296h-148v296h-121v106h121v159h-203v148h554v-148h-203v-159z" />
    <glyph glyph-name="Tcaron" unicode="&#x164;" horiz-adv-x="584" 
d="M101 898h157l36 -41l36 41h161l-138 -142h-116zM366 561v-561h-148v561h-203v148h554v-148h-203z" />
    <glyph glyph-name="Tcommaaccent" unicode="&#x162;" horiz-adv-x="584" 
d="M15 0zM366 561v-561h-148v561h-203v148h554v-148h-203zM301 -244h-129l52 175h145z" />
    <glyph glyph-name="uni021A" unicode="&#x21a;" horiz-adv-x="584" 
d="M366 561v-561h-148v561h-203v148h554v-148h-203zM301 -244h-129l52 175h145z" />
    <glyph glyph-name="U" unicode="U" horiz-adv-x="668" 
d="M204 233q0 -25 11 -43.5t29 -31t41.5 -18.5t47.5 -6q25 0 49 6t42 18.5t29 31t11 43.5v475h148v-475q0 -61 -23.5 -106.5t-62.5 -76t-89.5 -45.5t-103.5 -15q-52 0 -102 15t-89 45.5t-62.5 76t-23.5 106.5v475h148v-475z" />
    <glyph glyph-name="Uacute" unicode="&#xda;" horiz-adv-x="668" 
d="M385 756h-136l95 142h170zM204 233q0 -25 11 -43.5t29 -31t41.5 -18.5t47.5 -6q25 0 49 6t42 18.5t29 31t11 43.5v475h148v-475q0 -61 -23.5 -106.5t-62.5 -76t-89.5 -45.5t-103.5 -15q-52 0 -102 15t-89 45.5t-62.5 76t-23.5 106.5v475h148v-475z" />
    <glyph glyph-name="Ucircumflex" unicode="&#xdb;" horiz-adv-x="668" 
d="M371 756l-36 41l-36 -41h-157l136 142h116l138 -142h-161zM204 233q0 -25 11 -43.5t29 -31t41.5 -18.5t47.5 -6q25 0 49 6t42 18.5t29 31t11 43.5v475h148v-475q0 -61 -23.5 -106.5t-62.5 -76t-89.5 -45.5t-103.5 -15q-52 0 -102 15t-89 45.5t-62.5 76t-23.5 106.5v475
h148v-475z" />
    <glyph glyph-name="Udieresis" unicode="&#xdc;" horiz-adv-x="668" 
d="M150 830q0 33 22.5 55t54.5 22q31 0 54 -22t23 -55q0 -32 -23 -53.5t-54 -21.5q-32 0 -54.5 21.5t-22.5 53.5zM367 830q0 33 22 55t55 22t55.5 -22t22.5 -55q0 -32 -22.5 -53.5t-55.5 -21.5t-55 21.5t-22 53.5zM204 233q0 -25 11 -43.5t29 -31t41.5 -18.5t47.5 -6
q25 0 49 6t42 18.5t29 31t11 43.5v475h148v-475q0 -61 -23.5 -106.5t-62.5 -76t-89.5 -45.5t-103.5 -15q-52 0 -102 15t-89 45.5t-62.5 76t-23.5 106.5v475h148v-475z" />
    <glyph glyph-name="Ugrave" unicode="&#xd9;" horiz-adv-x="668" 
d="M297 756l-117 142h164l83 -142h-130zM204 233q0 -25 11 -43.5t29 -31t41.5 -18.5t47.5 -6q25 0 49 6t42 18.5t29 31t11 43.5v475h148v-475q0 -61 -23.5 -106.5t-62.5 -76t-89.5 -45.5t-103.5 -15q-52 0 -102 15t-89 45.5t-62.5 76t-23.5 106.5v475h148v-475z" />
    <glyph glyph-name="Uhungarumlaut" unicode="&#x170;" horiz-adv-x="668" 
d="M268 757h-132l96 149h162zM482 757h-133l96 149h162zM204 233q0 -25 11 -43.5t29 -31t41.5 -18.5t47.5 -6q25 0 49 6t42 18.5t29 31t11 43.5v475h148v-475q0 -61 -23.5 -106.5t-62.5 -76t-89.5 -45.5t-103.5 -15q-52 0 -102 15t-89 45.5t-62.5 76t-23.5 106.5v475h148
v-475z" />
    <glyph glyph-name="Umacron" unicode="&#x16a;" horiz-adv-x="668" 
d="M201 879h269v-103h-269v103zM204 233q0 -25 11 -43.5t29 -31t41.5 -18.5t47.5 -6q25 0 49 6t42 18.5t29 31t11 43.5v475h148v-475q0 -61 -23.5 -106.5t-62.5 -76t-89.5 -45.5t-103.5 -15q-52 0 -102 15t-89 45.5t-62.5 76t-23.5 106.5v475h148v-475z" />
    <glyph glyph-name="Uogonek" unicode="&#x172;" horiz-adv-x="668" 
d="M391 -82q0 -18 10.5 -30.5t29.5 -12.5q20 0 36 13l42 -64q-30 -32 -61 -46t-60 -14q-51 0 -78.5 22t-33 55.5t9.5 73t48 74.5q-52 0 -102 15t-89 45.5t-63 76t-24 106.5v476h148v-476q0 -33 19.5 -55t48 -33t62.5 -11t62.5 11t48 33t19.5 55v476h148v-476
q0 -42 -16.5 -76t-41 -62.5t-53 -51.5t-53 -44t-41 -40.5t-16.5 -39.5z" />
    <glyph glyph-name="Uring" unicode="&#x16e;" horiz-adv-x="668" 
d="M338 972q39 0 65 -17t39 -42t13 -55t-13 -55t-39 -42t-65 -17q-40 0 -67 17t-40.5 42t-13.5 55t13.5 55t40.5 42t67 17zM338 906q-26 0 -38 -15t-11.5 -33t13 -33t36.5 -15t35.5 15t11.5 33t-11.5 33t-35.5 15zM204 233q0 -25 11 -43.5t29 -31t41.5 -18.5t47.5 -6
q25 0 49 6t42 18.5t29 31t11 43.5v475h148v-475q0 -61 -23.5 -106.5t-62.5 -76t-89.5 -45.5t-103.5 -15q-52 0 -102 15t-89 45.5t-62.5 76t-23.5 106.5v475h148v-475z" />
    <glyph glyph-name="V" unicode="V" horiz-adv-x="642" 
d="M491 709h157l-256 -709h-142l-256 709h157l134 -393l29 -146h11l27 146z" />
    <glyph glyph-name="W" unicode="W" horiz-adv-x="920" 
d="M3 708h152l101 -370l22 -165h9l24 166q15 48 25 78.5t19.5 57.5t20 57t25.5 78h119l86 -273l29 -171h9l19 171l103 371h151l-204 -708h-144l-91 273l-16 85h-8q-5 -24 -9 -43q-4 -17 -7 -30.5t-3 -12.5l-83 -272h-144z" />
    <glyph glyph-name="Wacute" unicode="&#x1e82;" horiz-adv-x="920" 
d="M510 756h-136l95 142h170zM3 708h152l101 -370l22 -165h9l24 166q15 48 25 78.5t19.5 57.5t20 57t25.5 78h119l86 -273l29 -171h9l19 171l103 371h151l-204 -708h-144l-91 273l-16 85h-8q-5 -24 -9 -43q-4 -17 -7 -30.5t-3 -12.5l-83 -272h-144z" />
    <glyph glyph-name="Wcircumflex" unicode="&#x174;" horiz-adv-x="920" 
d="M496 756l-36 41l-36 -41h-157l136 142h116l138 -142h-161zM3 708h152l101 -370l22 -165h9l24 166q15 48 25 78.5t19.5 57.5t20 57t25.5 78h119l86 -273l29 -171h9l19 171l103 371h151l-204 -708h-144l-91 273l-16 85h-8q-5 -24 -9 -43q-4 -17 -7 -30.5t-3 -12.5l-83 -272
h-144z" />
    <glyph glyph-name="Wdieresis" unicode="&#x1e84;" horiz-adv-x="920" 
d="M275 830q0 33 22.5 55t54.5 22q31 0 54 -22t23 -55q0 -32 -23 -53.5t-54 -21.5q-32 0 -54.5 21.5t-22.5 53.5zM492 830q0 33 22 55t55 22t55.5 -22t22.5 -55q0 -32 -22.5 -53.5t-55.5 -21.5t-55 21.5t-22 53.5zM3 708h152l101 -370l22 -165h9l24 166q15 48 25 78.5
t19.5 57.5t20 57t25.5 78h119l86 -273l29 -171h9l19 171l103 371h151l-204 -708h-144l-91 273l-16 85h-8q-5 -24 -9 -43q-4 -17 -7 -30.5t-3 -12.5l-83 -272h-144z" />
    <glyph glyph-name="Wgrave" unicode="&#x1e80;" horiz-adv-x="920" 
d="M422 756l-117 142h164l83 -142h-130zM3 708h152l101 -370l22 -165h9l24 166q15 48 25 78.5t19.5 57.5t20 57t25.5 78h119l86 -273l29 -171h9l19 171l103 371h151l-204 -708h-144l-91 273l-16 85h-8q-5 -24 -9 -43q-4 -17 -7 -30.5t-3 -12.5l-83 -272h-144z" />
    <glyph glyph-name="X" unicode="X" horiz-adv-x="631" 
d="M453 0l-142 250l-131 -250h-181l209 353l-207 355h179l131 -252l143 252h179l-224 -356l224 -352h-180z" />
    <glyph glyph-name="Y" unicode="Y" horiz-adv-x="628" 
d="M240 0v271l-246 437h169l150 -296l150 296h171l-247 -437v-271h-147z" />
    <glyph glyph-name="Yacute" unicode="&#xdd;" horiz-adv-x="628" 
d="M363 756h-136l95 142h170zM240 0v271l-246 437h169l150 -296l150 296h171l-247 -437v-271h-147z" />
    <glyph glyph-name="Ycircumflex" unicode="&#x176;" horiz-adv-x="628" 
d="M349 756l-36 41l-36 -41h-157l136 142h116l138 -142h-161zM240 0v271l-246 437h169l150 -296l150 296h171l-247 -437v-271h-147z" />
    <glyph glyph-name="Ydieresis" unicode="&#x178;" horiz-adv-x="628" 
d="M128 830q0 33 22.5 55t54.5 22q31 0 54 -22t23 -55q0 -32 -23 -53.5t-54 -21.5q-32 0 -54.5 21.5t-22.5 53.5zM345 830q0 33 22 55t55 22t55.5 -22t22.5 -55q0 -32 -22.5 -53.5t-55.5 -21.5t-55 21.5t-22 53.5zM240 0v271l-246 437h169l150 -296l150 296h171l-247 -437
v-271h-147z" />
    <glyph glyph-name="Ygrave" unicode="&#x1ef2;" horiz-adv-x="628" 
d="M275 756l-117 142h164l83 -142h-130zM240 0v271l-246 437h169l150 -296l150 296h171l-247 -437v-271h-147z" />
    <glyph glyph-name="Z" unicode="Z" horiz-adv-x="597" 
d="M536 708l41 -67l-353 -509h339v-132h-510l-35 67l353 505h-334v136h499z" />
    <glyph glyph-name="Zacute" unicode="&#x179;" horiz-adv-x="597" 
d="M349 756h-136l95 142h170zM536 708l41 -67l-353 -509h339v-132h-510l-35 67l353 505h-334v136h499z" />
    <glyph glyph-name="Zcaron" unicode="&#x17d;" horiz-adv-x="597" 
d="M109 898h157l36 -41l36 41h161l-138 -142h-116zM536 708l41 -67l-353 -509h339v-132h-510l-35 67l353 505h-334v136h499z" />
    <glyph glyph-name="Zdotaccent" unicode="&#x17b;" horiz-adv-x="597" 
d="M211 842q0 37 25.5 61.5t63.5 24.5t63 -24.5t25 -61.5q0 -38 -25 -61.5t-63 -23.5t-63.5 23.5t-25.5 61.5zM536 708l41 -67l-353 -509h339v-132h-510l-35 67l353 505h-334v136h499z" />
    <glyph glyph-name="a" unicode="a" 
d="M27 154q0 45 15.5 77t41 52.5t59 30t68.5 9.5q46 0 92 -16v37q0 41 -24 56.5t-56 15.5q-29 0 -59.5 -14t-49.5 -34l-68 73q40 46 86.5 66t100.5 21q39 0 75.5 -11t65 -34t46 -57.5t17.5 -81.5v-316q-46 -17 -96.5 -27.5t-98.5 -10.5q-110 0 -162.5 44.5t-52.5 119.5z
M299 209q-12 5 -29 8.5t-34 3.5q-40 0 -58.5 -17.5t-18.5 -45.5t19.5 -44.5t61.5 -16.5q32 0 59 7v105z" />
    <glyph glyph-name="aacute" unicode="&#xe1;" 
d="M300 576h-136l95 142h170zM27 154q0 45 15.5 77t41 52.5t59 30t68.5 9.5q46 0 92 -16v37q0 41 -24 56.5t-56 15.5q-29 0 -59.5 -14t-49.5 -34l-68 73q40 46 86.5 66t100.5 21q39 0 75.5 -11t65 -34t46 -57.5t17.5 -81.5v-316q-46 -17 -96.5 -27.5t-98.5 -10.5
q-110 0 -162.5 44.5t-52.5 119.5zM299 209q-12 5 -29 8.5t-34 3.5q-40 0 -58.5 -17.5t-18.5 -45.5t19.5 -44.5t61.5 -16.5q32 0 59 7v105z" />
    <glyph glyph-name="abreve" unicode="&#x103;" 
d="M398 718q0 -50 -23.5 -82.5t-59 -49.5t-77 -16.5t-77 16.5t-59 49t-23.5 83h121q0 -20 13 -29.5t28 -9.5t28 9.5t13 29.5h116zM27 154q0 45 15.5 77t41 52.5t59 30t68.5 9.5q46 0 92 -16v37q0 41 -24 56.5t-56 15.5q-29 0 -59.5 -14t-49.5 -34l-68 73q40 46 86.5 66
t100.5 21q39 0 75.5 -11t65 -34t46 -57.5t17.5 -81.5v-316q-46 -17 -96.5 -27.5t-98.5 -10.5q-110 0 -162.5 44.5t-52.5 119.5zM299 209q-12 5 -29 8.5t-34 3.5q-40 0 -58.5 -17.5t-18.5 -45.5t19.5 -44.5t61.5 -16.5q32 0 59 7v105z" />
    <glyph glyph-name="acircumflex" unicode="&#xe2;" 
d="M276 576l-36 41l-36 -41h-157l136 142h116l138 -142h-161zM27 154q0 45 15.5 77t41 52.5t59 30t68.5 9.5q46 0 92 -16v37q0 41 -24 56.5t-56 15.5q-29 0 -59.5 -14t-49.5 -34l-68 73q40 46 86.5 66t100.5 21q39 0 75.5 -11t65 -34t46 -57.5t17.5 -81.5v-316
q-46 -17 -96.5 -27.5t-98.5 -10.5q-110 0 -162.5 44.5t-52.5 119.5zM299 209q-12 5 -29 8.5t-34 3.5q-40 0 -58.5 -17.5t-18.5 -45.5t19.5 -44.5t61.5 -16.5q32 0 59 7v105z" />
    <glyph glyph-name="adieresis" unicode="&#xe4;" 
d="M61 650q0 33 22.5 55t54.5 22q31 0 54 -22t23 -55q0 -32 -23 -53.5t-54 -21.5q-32 0 -54.5 21.5t-22.5 53.5zM278 650q0 33 22 55t55 22t55.5 -22t22.5 -55q0 -32 -22.5 -53.5t-55.5 -21.5t-55 21.5t-22 53.5zM27 154q0 45 15.5 77t41 52.5t59 30t68.5 9.5q46 0 92 -16
v37q0 41 -24 56.5t-56 15.5q-29 0 -59.5 -14t-49.5 -34l-68 73q40 46 86.5 66t100.5 21q39 0 75.5 -11t65 -34t46 -57.5t17.5 -81.5v-316q-46 -17 -96.5 -27.5t-98.5 -10.5q-110 0 -162.5 44.5t-52.5 119.5zM299 209q-12 5 -29 8.5t-34 3.5q-40 0 -58.5 -17.5t-18.5 -45.5
t19.5 -44.5t61.5 -16.5q32 0 59 7v105z" />
    <glyph glyph-name="agrave" unicode="&#xe0;" 
d="M212 576l-117 142h164l83 -142h-130zM27 154q0 45 15.5 77t41 52.5t59 30t68.5 9.5q46 0 92 -16v37q0 41 -24 56.5t-56 15.5q-29 0 -59.5 -14t-49.5 -34l-68 73q40 46 86.5 66t100.5 21q39 0 75.5 -11t65 -34t46 -57.5t17.5 -81.5v-316q-46 -17 -96.5 -27.5t-98.5 -10.5
q-110 0 -162.5 44.5t-52.5 119.5zM299 209q-12 5 -29 8.5t-34 3.5q-40 0 -58.5 -17.5t-18.5 -45.5t19.5 -44.5t61.5 -16.5q32 0 59 7v105z" />
    <glyph glyph-name="amacron" unicode="&#x101;" 
d="M116 699h269v-103h-269v103zM27 154q0 45 15.5 77t41 52.5t59 30t68.5 9.5q46 0 92 -16v37q0 41 -24 56.5t-56 15.5q-29 0 -59.5 -14t-49.5 -34l-68 73q40 46 86.5 66t100.5 21q39 0 75.5 -11t65 -34t46 -57.5t17.5 -81.5v-316q-46 -17 -96.5 -27.5t-98.5 -10.5
q-110 0 -162.5 44.5t-52.5 119.5zM299 209q-12 5 -29 8.5t-34 3.5q-40 0 -58.5 -17.5t-18.5 -45.5t19.5 -44.5t61.5 -16.5q32 0 59 7v105z" />
    <glyph glyph-name="aogonek" unicode="&#x105;" horiz-adv-x="486" 
d="M27 154q0 45 15.5 77t41 52.5t59 30t68.5 9.5q46 0 92 -16v37q0 41 -24 56.5t-56 15.5q-29 0 -59.5 -14t-49.5 -34l-68 73q40 46 86.5 66t100.5 21q39 0 75.5 -11t65 -34t46 -57.5t17.5 -81.5v-332q-54 -60 -59.5 -98.5t31.5 -38.5q20 0 36 13l42 -64q-30 -32 -61 -46
t-60 -14q-51 0 -78.5 22.5t-33 56t9.5 73.5t49 75l-2 4q-18 -2 -35 -3.5t-34 -1.5q-110 0 -162.5 44.5t-52.5 119.5zM299 209q-12 5 -29 8.5t-34 3.5q-40 0 -58.5 -17.5t-18.5 -45.5t19.5 -44.5t61.5 -16.5q32 0 59 7v105z" />
    <glyph glyph-name="aring" unicode="&#xe5;" 
d="M240 792q39 0 65 -17t39 -42t13 -55t-13 -55t-39 -42t-65 -17q-40 0 -67 17t-40.5 42t-13.5 55t13.5 55t40.5 42t67 17zM240 726q-26 0 -38 -15t-11.5 -33t13 -33t36.5 -15t35.5 15t11.5 33t-11.5 33t-35.5 15zM27 154q0 45 15.5 77t41 52.5t59 30t68.5 9.5q46 0 92 -16
v37q0 41 -24 56.5t-56 15.5q-29 0 -59.5 -14t-49.5 -34l-68 73q40 46 86.5 66t100.5 21q39 0 75.5 -11t65 -34t46 -57.5t17.5 -81.5v-316q-46 -17 -96.5 -27.5t-98.5 -10.5q-110 0 -162.5 44.5t-52.5 119.5zM299 209q-12 5 -29 8.5t-34 3.5q-40 0 -58.5 -17.5t-18.5 -45.5
t19.5 -44.5t61.5 -16.5q32 0 59 7v105z" />
    <glyph glyph-name="atilde" unicode="&#xe3;" 
d="M74 620q10 51 41.5 79.5t65.5 28.5q25 0 47 -11t41 -19t34.5 -6.5t26.5 27.5l72 -36q-18 -54 -42 -79t-61 -25q-23 0 -44 11.5t-40 19.5t-36 5t-32 -32zM27 154q0 45 15.5 77t41 52.5t59 30t68.5 9.5q46 0 92 -16v37q0 41 -24 56.5t-56 15.5q-29 0 -59.5 -14t-49.5 -34
l-68 73q40 46 86.5 66t100.5 21q39 0 75.5 -11t65 -34t46 -57.5t17.5 -81.5v-316q-46 -17 -96.5 -27.5t-98.5 -10.5q-110 0 -162.5 44.5t-52.5 119.5zM299 209q-12 5 -29 8.5t-34 3.5q-40 0 -58.5 -17.5t-18.5 -45.5t19.5 -44.5t61.5 -16.5q32 0 59 7v105z" />
    <glyph glyph-name="ae" unicode="&#xe6;" horiz-adv-x="726" 
d="M672 83q-31 -47 -75.5 -70t-92.5 -23q-39 0 -75.5 14t-63.5 49q-35 -33 -74.5 -48t-76.5 -15t-70 11t-58 32.5t-40 53.5t-15 75q0 36 10.5 67.5t32 55t55.5 37.5t81 14q20 0 47 -3t46 -13q3 53 -23.5 75t-65.5 22q-30 0 -59.5 -12t-48.5 -32l-68 63q32 45 83.5 68.5
t106.5 23.5q39 0 76 -12t66 -35q23 23 57 35t73 12q38 0 73 -11.5t61.5 -34.5t42.5 -57.5t16 -81.5v-142h-270v-27q0 -19 7.5 -32.5t19.5 -22t27.5 -12.5t31.5 -4q23 0 44 10t33 30zM572 349q0 29 -23 44t-52 15q-28 0 -51 -15.5t-23 -44.5v-46h149v47zM301 220
q-11 5 -33.5 7.5t-40.5 1.5q-40 -1 -59 -21t-19 -44q0 -31 21 -49t62 -18q15 0 39.5 4.5t36.5 15.5q-6 27 -7 52.5t0 50.5z" />
    <glyph glyph-name="b" unicode="b" horiz-adv-x="509" 
d="M192 510q40 18 86 18q36 0 70 -12.5t61 -35t43.5 -55t16.5 -73.5v-183q-4 -50 -22.5 -84.5t-48 -55.5t-66.5 -30t-78 -9q-49 0 -101.5 10.5t-100.5 28.5v678h140v-197zM192 104q18 -9 42 -10.5t45 4.5t36 20.5t15 37.5v203q-3 22 -18.5 35.5t-36.5 19t-43.5 2.5
t-39.5 -12v-300z" />
    <glyph glyph-name="c" unicode="c" horiz-adv-x="468" 
d="M450 131q-14 -39 -36.5 -66t-50 -43.5t-57.5 -24t-58 -7.5q-39 0 -76 11.5t-66.5 34t-47.5 57t-18 80.5v171q0 46 18 80.5t47.5 57.5t66.5 34.5t76 11.5q28 0 58 -7t57.5 -23.5t49 -43t31.5 -66.5l-119 -37q-8 27 -30.5 39.5t-46.5 12.5q-26 0 -47.5 -15t-21.5 -43v-171
q0 -29 21.5 -44t47.5 -15q24 0 47 13.5t33 42.5z" />
    <glyph glyph-name="cacute" unicode="&#x107;" horiz-adv-x="468" 
d="M297 566h-136l95 142h170zM450 131q-14 -39 -36.5 -66t-50 -43.5t-57.5 -24t-58 -7.5q-39 0 -76 11.5t-66.5 34t-47.5 57t-18 80.5v171q0 46 18 80.5t47.5 57.5t66.5 34.5t76 11.5q28 0 58 -7t57.5 -23.5t49 -43t31.5 -66.5l-119 -37q-8 27 -30.5 39.5t-46.5 12.5
q-26 0 -47.5 -15t-21.5 -43v-171q0 -29 21.5 -44t47.5 -15q24 0 47 13.5t33 42.5z" />
    <glyph glyph-name="ccaron" unicode="&#x10d;" horiz-adv-x="468" 
d="M57 708h157l36 -41l36 41h161l-138 -142h-116zM450 131q-14 -39 -36.5 -66t-50 -43.5t-57.5 -24t-58 -7.5q-39 0 -76 11.5t-66.5 34t-47.5 57t-18 80.5v171q0 46 18 80.5t47.5 57.5t66.5 34.5t76 11.5q28 0 58 -7t57.5 -23.5t49 -43t31.5 -66.5l-119 -37
q-8 27 -30.5 39.5t-46.5 12.5q-26 0 -47.5 -15t-21.5 -43v-171q0 -29 21.5 -44t47.5 -15q24 0 47 13.5t33 42.5z" />
    <glyph glyph-name="ccedilla" unicode="&#xe7;" horiz-adv-x="468" 
d="M450 131q-21 -62 -63 -93.5t-88 -41.5l-22 -47q24 -2 40 -13t24 -27.5t8.5 -37t-7.5 -41.5q-9 -25 -32.5 -43t-54.5 -24t-67 2.5t-72 36.5l27 61q32 -22 58 -18.5t32 23.5q3 7 1 15.5t-10 15.5t-23 11.5t-39 4.5l40 79q-32 6 -61.5 20t-52 36.5t-35.5 53t-13 69.5v171
q0 46 18 80.5t47.5 57.5t66.5 34.5t76 11.5q28 0 58 -7t57.5 -23.5t49 -43t31.5 -66.5l-119 -37q-8 27 -30.5 39.5t-46.5 12.5q-26 0 -47.5 -15t-21.5 -43v-171q0 -29 21.5 -44t47.5 -15q24 0 47 13.5t33 42.5z" />
    <glyph glyph-name="cdotaccent" unicode="&#x10b;" horiz-adv-x="468" 
d="M159 652q0 37 25.5 61.5t63.5 24.5t63 -24.5t25 -61.5q0 -38 -25 -61.5t-63 -23.5t-63.5 23.5t-25.5 61.5zM450 131q-14 -39 -36.5 -66t-50 -43.5t-57.5 -24t-58 -7.5q-39 0 -76 11.5t-66.5 34t-47.5 57t-18 80.5v171q0 46 18 80.5t47.5 57.5t66.5 34.5t76 11.5
q28 0 58 -7t57.5 -23.5t49 -43t31.5 -66.5l-119 -37q-8 27 -30.5 39.5t-46.5 12.5q-26 0 -47.5 -15t-21.5 -43v-171q0 -29 21.5 -44t47.5 -15q24 0 47 13.5t33 42.5z" />
    <glyph glyph-name="d" unicode="d" horiz-adv-x="509" 
d="M457 29q-48 -18 -100.5 -28.5t-101.5 -10.5q-41 0 -78 9t-66.5 30t-48 55.5t-22.5 84.5v183q0 41 16.5 73.5t43.5 55t61.5 35t70.5 12.5q46 0 85 -18v197h140v-678zM317 404q-17 9 -39.5 12t-43.5 -2.5t-36.5 -19t-18.5 -35.5v-203q1 -23 16 -37.5t36 -20.5t44.5 -4.5
t41.5 10.5v300z" />
    <glyph glyph-name="eth" unicode="&#xf0;" horiz-adv-x="505" 
d="M320 701q27 -10 51.5 -28t42.5 -43t28.5 -56.5t10.5 -69.5v-467q-39 -20 -88 -33.5t-103 -13.5q-43 0 -83 9.5t-70.5 30.5t-49 54.5t-18.5 82.5v195q0 54 25.5 90.5t65 56t88 21.5t95.5 -14q0 24 -9.5 41t-24.5 28l-11 -33l-59 14l11 35q-24 0 -51 -9t-44 -29l-67 71
q35 42 88.5 63t107.5 16h3l18 55l60 -15zM313 405q-12 8 -28 11.5t-33 3.5q-29 0 -53 -14.5t-24 -45.5v-192q0 -36 25.5 -52t57.5 -16q28 0 55 11v294z" />
    <glyph glyph-name="dcaron" unicode="&#x10f;" horiz-adv-x="513" 
d="M582 533h-97l22 175h122zM457 29q-48 -18 -100.5 -28.5t-101.5 -10.5q-41 0 -78 9t-66.5 30t-48 55.5t-22.5 84.5v183q0 41 16.5 73.5t43.5 55t61.5 35t70.5 12.5q46 0 85 -18v197h140v-678zM317 404q-17 9 -39.5 12t-43.5 -2.5t-36.5 -19t-18.5 -35.5v-203
q1 -23 16 -37.5t36 -20.5t44.5 -4.5t41.5 10.5v300z" />
    <glyph glyph-name="dcroat" unicode="&#x111;" horiz-adv-x="509" 
d="M457 582v-553q-48 -18 -100.5 -28.5t-101.5 -10.5q-41 0 -78 9t-66.5 30t-48 55.5t-22.5 84.5v183q0 41 16.5 73.5t43.5 55t61.5 35t70.5 12.5q46 0 85 -18v72h-99v80h99v45h140v-45h53v-80h-53zM317 404q-17 9 -39.5 12t-43.5 -2.5t-36.5 -19t-18.5 -35.5v-203
q1 -23 16 -37.5t36 -20.5t44.5 -4.5t41.5 10.5v300z" />
    <glyph glyph-name="e" unicode="e" 
d="M430 88q-15 -28 -36.5 -46.5t-46 -30t-50 -16.5t-48.5 -5q-39 0 -76.5 11.5t-67 34.5t-47.5 57.5t-18 80.5v171q0 47 18.5 81.5t48 57t67.5 33.5t77 11q38 0 74 -10t64 -31.5t45 -55t17 -80.5v-152h-271v-23q0 -30 24 -45.5t54 -15.5q24 0 46.5 9.5t34.5 29.5zM320 349
q0 27 -21 40.5t-47 13.5q-27 0 -49.5 -13.5t-22.5 -41.5v-46h140v47z" />
    <glyph glyph-name="eacute" unicode="&#xe9;" 
d="M298 576h-136l95 142h170zM430 88q-15 -28 -36.5 -46.5t-46 -30t-50 -16.5t-48.5 -5q-39 0 -76.5 11.5t-67 34.5t-47.5 57.5t-18 80.5v171q0 47 18.5 81.5t48 57t67.5 33.5t77 11q38 0 74 -10t64 -31.5t45 -55t17 -80.5v-152h-271v-23q0 -30 24 -45.5t54 -15.5
q24 0 46.5 9.5t34.5 29.5zM320 349q0 27 -21 40.5t-47 13.5q-27 0 -49.5 -13.5t-22.5 -41.5v-46h140v47z" />
    <glyph glyph-name="ecaron" unicode="&#x11b;" 
d="M58 718h157l36 -41l36 41h161l-138 -142h-116zM430 88q-15 -28 -36.5 -46.5t-46 -30t-50 -16.5t-48.5 -5q-39 0 -76.5 11.5t-67 34.5t-47.5 57.5t-18 80.5v171q0 47 18.5 81.5t48 57t67.5 33.5t77 11q38 0 74 -10t64 -31.5t45 -55t17 -80.5v-152h-271v-23q0 -30 24 -45.5
t54 -15.5q24 0 46.5 9.5t34.5 29.5zM320 349q0 27 -21 40.5t-47 13.5q-27 0 -49.5 -13.5t-22.5 -41.5v-46h140v47z" />
    <glyph glyph-name="ecircumflex" unicode="&#xea;" 
d="M284 576l-36 41l-36 -41h-157l136 142h116l138 -142h-161zM430 88q-15 -28 -36.5 -46.5t-46 -30t-50 -16.5t-48.5 -5q-39 0 -76.5 11.5t-67 34.5t-47.5 57.5t-18 80.5v171q0 47 18.5 81.5t48 57t67.5 33.5t77 11q38 0 74 -10t64 -31.5t45 -55t17 -80.5v-152h-271v-23
q0 -30 24 -45.5t54 -15.5q24 0 46.5 9.5t34.5 29.5zM320 349q0 27 -21 40.5t-47 13.5q-27 0 -49.5 -13.5t-22.5 -41.5v-46h140v47z" />
    <glyph glyph-name="edieresis" unicode="&#xeb;" 
d="M63 650q0 33 22.5 55t54.5 22q31 0 54 -22t23 -55q0 -32 -23 -53.5t-54 -21.5q-32 0 -54.5 21.5t-22.5 53.5zM280 650q0 33 22 55t55 22t55.5 -22t22.5 -55q0 -32 -22.5 -53.5t-55.5 -21.5t-55 21.5t-22 53.5zM430 88q-15 -28 -36.5 -46.5t-46 -30t-50 -16.5t-48.5 -5
q-39 0 -76.5 11.5t-67 34.5t-47.5 57.5t-18 80.5v171q0 47 18.5 81.5t48 57t67.5 33.5t77 11q38 0 74 -10t64 -31.5t45 -55t17 -80.5v-152h-271v-23q0 -30 24 -45.5t54 -15.5q24 0 46.5 9.5t34.5 29.5zM320 349q0 27 -21 40.5t-47 13.5q-27 0 -49.5 -13.5t-22.5 -41.5v-46
h140v47z" />
    <glyph glyph-name="edotaccent" unicode="&#x117;" 
d="M160 662q0 37 25.5 61.5t63.5 24.5t63 -24.5t25 -61.5q0 -38 -25 -61.5t-63 -23.5t-63.5 23.5t-25.5 61.5zM430 88q-15 -28 -36.5 -46.5t-46 -30t-50 -16.5t-48.5 -5q-39 0 -76.5 11.5t-67 34.5t-47.5 57.5t-18 80.5v171q0 47 18.5 81.5t48 57t67.5 33.5t77 11
q38 0 74 -10t64 -31.5t45 -55t17 -80.5v-152h-271v-23q0 -30 24 -45.5t54 -15.5q24 0 46.5 9.5t34.5 29.5zM320 349q0 27 -21 40.5t-47 13.5q-27 0 -49.5 -13.5t-22.5 -41.5v-46h140v47z" />
    <glyph glyph-name="egrave" unicode="&#xe8;" 
d="M210 576l-117 142h164l83 -142h-130zM430 88q-15 -28 -36.5 -46.5t-46 -30t-50 -16.5t-48.5 -5q-39 0 -76.5 11.5t-67 34.5t-47.5 57.5t-18 80.5v171q0 47 18.5 81.5t48 57t67.5 33.5t77 11q38 0 74 -10t64 -31.5t45 -55t17 -80.5v-152h-271v-23q0 -30 24 -45.5t54 -15.5
q24 0 46.5 9.5t34.5 29.5zM320 349q0 27 -21 40.5t-47 13.5q-27 0 -49.5 -13.5t-22.5 -41.5v-46h140v47z" />
    <glyph glyph-name="emacron" unicode="&#x113;" 
d="M114 699h269v-103h-269v103zM430 88q-15 -28 -36.5 -46.5t-46 -30t-50 -16.5t-48.5 -5q-39 0 -76.5 11.5t-67 34.5t-47.5 57.5t-18 80.5v171q0 47 18.5 81.5t48 57t67.5 33.5t77 11q38 0 74 -10t64 -31.5t45 -55t17 -80.5v-152h-271v-23q0 -30 24 -45.5t54 -15.5
q24 0 46.5 9.5t34.5 29.5zM320 349q0 27 -21 40.5t-47 13.5q-27 0 -49.5 -13.5t-22.5 -41.5v-46h140v47z" />
    <glyph glyph-name="eogonek" unicode="&#x119;" horiz-adv-x="485" 
d="M180 174q0 -27 20 -42t46.5 -18t53 6.5t39.5 31.5l91 -64q-19 -35 -44.5 -55.5t-48.5 -37t-38 -35t-13 -48.5q1 -16 10 -26.5t27 -10.5q20 0 36 13l42 -64q-30 -32 -61 -46t-60 -14q-51 0 -78.5 22.5t-33 56t10 73.5t49.5 75q-36 3 -70 16t-60.5 35.5t-42 55.5t-15.5 76
v171q0 47 18 81.5t47.5 57t67 33.5t76.5 11q38 0 74.5 -11t65.5 -33.5t46.5 -57t17.5 -81.5v-146h-273v-25zM322 351q0 18 -10.5 30t-26.5 18t-34.5 6t-34.5 -6t-26.5 -18.5t-9.5 -30.5v-48h142v49z" />
    <glyph glyph-name="f" unicode="f" horiz-adv-x="305" 
d="M291 580q-47 9 -72.5 -10.5t-25.5 -50.5v-25h92v-127h-92v-367h-139v527q0 46 17 82.5t48 60.5t74.5 34.5t97.5 5.5v-130z" />
    <glyph glyph-name="g" unicode="g" horiz-adv-x="506" 
d="M125 -51q18 -17 47.5 -27t57.5 -10q40 0 63 24t23 76q-20 -12 -41.5 -17t-42.5 -5q-37 0 -71.5 10.5t-60.5 31.5t-42 52.5t-16 73.5v196q0 48 17.5 81t47 53.5t67.5 30t80 9.5q54 0 106 -12t94 -32v-483q0 -52 -17 -90.5t-46 -64t-68 -38t-83 -12.5q-49 0 -96.5 17.5
t-82.5 52.5zM314 408q-14 7 -29 10t-30 3q-31 0 -55 -16t-24 -48v-197q4 -30 29 -44t54 -14q31 0 55 13v293z" />
    <glyph glyph-name="gbreve" unicode="&#x11f;" horiz-adv-x="506" 
d="M418 718q0 -50 -23.5 -82.5t-59 -49.5t-77 -16.5t-77 16.5t-59 49t-23.5 83h121q0 -20 13 -29.5t28 -9.5t28 9.5t13 29.5h116zM125 -51q18 -17 47.5 -27t57.5 -10q40 0 63 24t23 76q-20 -12 -41.5 -17t-42.5 -5q-37 0 -71.5 10.5t-60.5 31.5t-42 52.5t-16 73.5v196
q0 48 17.5 81t47 53.5t67.5 30t80 9.5q54 0 106 -12t94 -32v-483q0 -52 -17 -90.5t-46 -64t-68 -38t-83 -12.5q-49 0 -96.5 17.5t-82.5 52.5zM314 408q-14 7 -29 10t-30 3q-31 0 -55 -16t-24 -48v-197q4 -30 29 -44t54 -14q31 0 55 13v293z" />
    <glyph glyph-name="gcommaaccent" unicode="&#x123;" horiz-adv-x="506" 
d="M325 572h-137l34 136h152zM125 -51q18 -17 47.5 -27t57.5 -10q40 0 63 24t23 76q-20 -12 -41.5 -17t-42.5 -5q-37 0 -71.5 10.5t-60.5 31.5t-42 52.5t-16 73.5v196q0 48 17.5 81t47 53.5t67.5 30t80 9.5q54 0 106 -12t94 -32v-483q0 -52 -17 -90.5t-46 -64t-68 -38
t-83 -12.5q-49 0 -96.5 17.5t-82.5 52.5zM314 408q-14 7 -29 10t-30 3q-31 0 -55 -16t-24 -48v-197q4 -30 29 -44t54 -14q31 0 55 13v293z" />
    <glyph glyph-name="gdotaccent" unicode="&#x121;" horiz-adv-x="506" 
d="M170 662q0 37 25.5 61.5t63.5 24.5t63 -24.5t25 -61.5q0 -38 -25 -61.5t-63 -23.5t-63.5 23.5t-25.5 61.5zM125 -51q18 -17 47.5 -27t57.5 -10q40 0 63 24t23 76q-20 -12 -41.5 -17t-42.5 -5q-37 0 -71.5 10.5t-60.5 31.5t-42 52.5t-16 73.5v196q0 48 17.5 81t47 53.5
t67.5 30t80 9.5q54 0 106 -12t94 -32v-483q0 -52 -17 -90.5t-46 -64t-68 -38t-83 -12.5q-49 0 -96.5 17.5t-82.5 52.5zM314 408q-14 7 -29 10t-30 3q-31 0 -55 -16t-24 -48v-197q4 -30 29 -44t54 -14q31 0 55 13v293z" />
    <glyph glyph-name="h" unicode="h" horiz-adv-x="518" 
d="M193 512q20 8 41.5 12t42.5 4q37 0 71.5 -12t61 -35t42.5 -58t16 -81v-342h-138v343q0 24 -15.5 38t-37 18.5t-45 1t-39.5 -12.5v-388h-139v708h139v-196z" />
    <glyph glyph-name="hbar" unicode="&#x127;" horiz-adv-x="518" 
d="M277 528q37 0 71.5 -12t61 -35t42.5 -58t16 -81v-342h-138v343q0 24 -15.5 38t-37 18.5t-45 1t-39.5 -12.5v-388h-139v574h-55v82h55v52h139v-52h128v-82h-128v-62q20 8 41.5 12t42.5 4z" />
    <glyph glyph-name="i" unicode="i" horiz-adv-x="247" 
d="M39 644q0 35 23.5 59t58.5 24q38 0 61 -24t23 -59t-23 -59.5t-61 -24.5q-35 0 -58.5 24.5t-23.5 59.5zM193 519v-519h-139v519h139z" />
    <glyph glyph-name="dotlessi" unicode="&#x131;" horiz-adv-x="249" 
d="M196 0h-142v517h142v-517z" />
    <glyph glyph-name="iacute" unicode="&#xed;" horiz-adv-x="250" 
d="M174 566h-136l95 142h170zM196 0h-142v517h142v-517z" />
    <glyph glyph-name="icircumflex" unicode="&#xee;" horiz-adv-x="250" 
d="M159 566l-35 45l-34 -45h-139l116 142h116l118 -142h-142zM196 0h-142v517h142v-517z" />
    <glyph glyph-name="idieresis" unicode="&#xef;" horiz-adv-x="250" 
d="M-51 631q0 33 22.5 55t54.5 22q31 0 54 -22t23 -55q0 -32 -23 -53.5t-54 -21.5q-32 0 -54.5 21.5t-22.5 53.5zM146 631q0 33 22 55t55 22t55.5 -22t22.5 -55q0 -32 -22.5 -53.5t-55.5 -21.5t-55 21.5t-22 53.5zM196 0h-142v517h142v-517z" />
    <glyph glyph-name="i.loclTRK" horiz-adv-x="249" 
d="M36 652q0 37 25.5 61.5t63.5 24.5t63 -24.5t25 -61.5q0 -38 -25 -61.5t-63 -23.5t-63.5 23.5t-25.5 61.5zM196 0h-142v517h142v-517z" />
    <glyph glyph-name="igrave" unicode="&#xec;" horiz-adv-x="249" 
d="M86 566l-117 142h164l83 -142h-130zM196 0h-142v517h142v-517z" />
    <glyph glyph-name="ij" unicode="&#x133;" horiz-adv-x="494" 
d="M39 644q0 35 23.5 59t58.5 24q38 0 61 -24t23 -59t-23 -59.5t-61 -24.5q-35 0 -58.5 24.5t-23.5 59.5zM193 519v-519h-139v519h139zM286 643q0 36 24 60t59 24t59.5 -24t24.5 -60q0 -17 -6.5 -32.5t-18 -26.5t-26.5 -17.5t-33 -6.5q-35 0 -59 24t-24 59zM231 -76
q24 -2 37.5 4t21 16.5t9.5 23t2 23.5v528h139v-528q0 -42 -12 -79t-37.5 -61.5t-65 -34.5t-94.5 1v107z" />
    <glyph glyph-name="imacron" unicode="&#x12b;" horiz-adv-x="250" 
d="M10 679h229v-103h-229v103zM196 0h-142v517h142v-517z" />
    <glyph glyph-name="iogonek" unicode="&#x12f;" horiz-adv-x="249" 
d="M123 560q-35 0 -58.5 24.5t-23.5 59.5t23.5 59t58.5 24q38 0 61 -24t23 -59t-23 -59.5t-61 -24.5zM250 -176q-30 -32 -61 -46t-60 -14q-53 0 -80.5 24t-31.5 59.5t13.5 76.5t55.5 76h-32v517h142v-517h-11q-51 -58 -50 -91.5t37 -33.5q20 0 36 13z" />
    <glyph glyph-name="j" unicode="j" horiz-adv-x="247" 
d="M39 643q0 36 24 60t59 24t59.5 -24t24.5 -60q0 -17 -6.5 -32.5t-18 -26.5t-26.5 -17.5t-33 -6.5q-35 0 -59 24t-24 59zM-16 -76q24 -2 37.5 4t21 16.5t9.5 23t2 23.5v528h139v-528q0 -42 -12 -79t-37.5 -61.5t-65 -34.5t-94.5 1v107z" />
    <glyph glyph-name="k" unicode="k" horiz-adv-x="510" 
d="M343 518h162l-206 -250q49 -65 104 -135t103 -133h-161l-143 189l-9 -8v-181h-139v707h139v-385z" />
    <glyph glyph-name="kcommaaccent" unicode="&#x137;" horiz-adv-x="510" 
d="M343 518h162l-206 -250q49 -65 104 -135t103 -133h-161l-143 189l-9 -8v-181h-139v707h139v-385zM278 -244h-129l52 175h145z" />
    <glyph glyph-name="l" unicode="l" horiz-adv-x="278" 
d="M271 -8q-8 -1 -15 -1.5t-14 -0.5q-50 0 -86.5 15t-60 41t-35 61t-11.5 75v526h139v-526q0 -29 20 -50t63 -21v-119z" />
    <glyph glyph-name="lacute" unicode="&#x13a;" horiz-adv-x="278" 
d="M168 756h-136l95 142h170zM271 -8q-8 -1 -15 -1.5t-14 -0.5q-50 0 -86.5 15t-60 41t-35 61t-11.5 75v526h139v-526q0 -29 20 -50t63 -21v-119z" />
    <glyph glyph-name="lcaron" unicode="&#x13e;" horiz-adv-x="289" 
d="M271 -8q-8 -1 -15 -1.5t-14 -0.5q-50 0 -86.5 15t-60 41t-35 61t-11.5 75v526h139v-526q0 -29 20 -50t63 -21v-119zM324 542h-106l28 166h123z" />
    <glyph glyph-name="lcommaaccent" unicode="&#x13c;" horiz-adv-x="278" 
d="M271 -8q-8 -1 -15 -1.5t-14 -0.5q-50 0 -86.5 15t-60 41t-35 61t-11.5 75v526h139v-526q0 -29 20 -50t63 -21v-119zM187 -254h-129l52 175h145z" />
    <glyph glyph-name="ldot" unicode="&#x140;" horiz-adv-x="358" 
d="M271 -8q-8 -1 -15 -1.5t-14 -0.5q-50 0 -86.5 15t-60 41t-35 61t-11.5 75v526h139v-526q0 -29 20 -50t63 -21v-119zM221 376q0 33 22 56t57 23q33 0 54.5 -23t21.5 -56q0 -32 -21.5 -54.5t-54.5 -22.5q-35 0 -57 22.5t-22 54.5z" />
    <glyph glyph-name="lslash" unicode="&#x142;" horiz-adv-x="330" 
d="M232 182q0 -29 20 -50t63 -21v-119q-8 -1 -15 -1.5t-14 -0.5q-50 0 -86.5 15t-60 41t-35 61t-11.5 75v105l-51 -27l-38 76l89 48v324h139v-250l57 31l40 -76l-97 -52v-179z" />
    <glyph glyph-name="m" unicode="m" horiz-adv-x="753" 
d="M52 464q34 29 84 47t101 17q40 -1 79 -15t60 -49q25 31 61 47.5t73 16.5q36 0 70.5 -11t61.5 -33t44 -55t17 -77v-352h-138v357q0 23 -19 34.5t-42 11.5t-42.5 -11t-19.5 -34v-358h-133v354q0 23 -22.5 36t-48.5 13q-14 -1 -27.5 -5.5t-22.5 -14.5v-383h-136v464z" />
    <glyph glyph-name="n" unicode="n" horiz-adv-x="515" 
d="M53 483q43 21 91 33t96 12q44 0 84.5 -10.5t72 -33t50.5 -58.5t19 -87v-339h-138v334q0 36 -24.5 52.5t-54.5 16.5q-32 0 -57 -14v-389h-139v483z" />
    <glyph glyph-name="nacute" unicode="&#x144;" horiz-adv-x="515" 
d="M309 576h-136l95 142h170zM53 483q43 21 91 33t96 12q44 0 84.5 -10.5t72 -33t50.5 -58.5t19 -87v-339h-138v334q0 36 -24.5 52.5t-54.5 16.5q-32 0 -57 -14v-389h-139v483z" />
    <glyph glyph-name="ncaron" unicode="&#x148;" horiz-adv-x="515" 
d="M69 718h157l36 -41l36 41h161l-138 -142h-116zM53 483q43 21 91 33t96 12q44 0 84.5 -10.5t72 -33t50.5 -58.5t19 -87v-339h-138v334q0 36 -24.5 52.5t-54.5 16.5q-32 0 -57 -14v-389h-139v483z" />
    <glyph glyph-name="ncommaaccent" unicode="&#x146;" horiz-adv-x="515" 
d="M53 483q43 21 91 33t96 12q44 0 84.5 -10.5t72 -33t50.5 -58.5t19 -87v-339h-138v334q0 36 -24.5 52.5t-54.5 16.5q-32 0 -57 -14v-389h-139v483zM269 -244h-129l52 175h145z" />
    <glyph glyph-name="eng" unicode="&#x14b;" horiz-adv-x="514" 
d="M239 528q44 0 84.5 -10.5t72 -33t50.5 -58.5t19 -87v-361q0 -42 -12 -79t-37.5 -61.5t-65 -34.5t-94.5 1v107q24 -2 38 4t21.5 16.5t9.5 23t2 23.5v356q0 36 -24.5 52.5t-54.5 16.5q-32 0 -57 -14v-389h-139v483q43 21 91 33t96 12z" />
    <glyph glyph-name="ntilde" unicode="&#xf1;" horiz-adv-x="515" 
d="M93 620q10 51 41.5 79.5t65.5 28.5q25 0 47 -11t41 -19t34.5 -6.5t26.5 27.5l72 -36q-18 -54 -42 -79t-61 -25q-23 0 -44 11.5t-40 19.5t-36 5t-32 -32zM53 483q43 21 91 33t96 12q44 0 84.5 -10.5t72 -33t50.5 -58.5t19 -87v-339h-138v334q0 36 -24.5 52.5t-54.5 16.5
q-32 0 -57 -14v-389h-139v483z" />
    <glyph glyph-name="o" unicode="o" horiz-adv-x="494" 
d="M40 343q0 46 18 80.5t47 57.5t66.5 35t76.5 12t76 -12t66 -35t47 -57.5t18 -80.5v-169q0 -47 -18 -81.5t-47 -57t-66 -34t-76 -11.5t-76.5 11.5t-66.5 34t-47 57t-18 81.5v169zM248 403q-25 0 -47 -13t-22 -38v-181q0 -25 22 -40.5t47 -15.5q24 0 46 15.5t22 40.5v181
q0 25 -22 38t-46 13z" />
    <glyph glyph-name="oacute" unicode="&#xf3;" horiz-adv-x="494" 
d="M297 566h-136l95 142h170zM40 343q0 46 18 80.5t47 57.5t66.5 35t76.5 12t76 -12t66 -35t47 -57.5t18 -80.5v-169q0 -47 -18 -81.5t-47 -57t-66 -34t-76 -11.5t-76.5 11.5t-66.5 34t-47 57t-18 81.5v169zM248 403q-25 0 -47 -13t-22 -38v-181q0 -25 22 -40.5t47 -15.5
q24 0 46 15.5t22 40.5v181q0 25 -22 38t-46 13z" />
    <glyph glyph-name="ocircumflex" unicode="&#xf4;" horiz-adv-x="494" 
d="M283 566l-36 41l-36 -41h-157l136 142h116l138 -142h-161zM40 343q0 46 18 80.5t47 57.5t66.5 35t76.5 12t76 -12t66 -35t47 -57.5t18 -80.5v-169q0 -47 -18 -81.5t-47 -57t-66 -34t-76 -11.5t-76.5 11.5t-66.5 34t-47 57t-18 81.5v169zM248 403q-25 0 -47 -13t-22 -38
v-181q0 -25 22 -40.5t47 -15.5q24 0 46 15.5t22 40.5v181q0 25 -22 38t-46 13z" />
    <glyph glyph-name="odieresis" unicode="&#xf6;" horiz-adv-x="494" 
d="M62 640q0 33 22.5 55t54.5 22q31 0 54 -22t23 -55q0 -32 -23 -53.5t-54 -21.5q-32 0 -54.5 21.5t-22.5 53.5zM279 640q0 33 22 55t55 22t55.5 -22t22.5 -55q0 -32 -22.5 -53.5t-55.5 -21.5t-55 21.5t-22 53.5zM40 343q0 46 18 80.5t47 57.5t66.5 35t76.5 12t76 -12
t66 -35t47 -57.5t18 -80.5v-169q0 -47 -18 -81.5t-47 -57t-66 -34t-76 -11.5t-76.5 11.5t-66.5 34t-47 57t-18 81.5v169zM248 403q-25 0 -47 -13t-22 -38v-181q0 -25 22 -40.5t47 -15.5q24 0 46 15.5t22 40.5v181q0 25 -22 38t-46 13z" />
    <glyph glyph-name="ograve" unicode="&#xf2;" horiz-adv-x="494" 
d="M209 566l-117 142h164l83 -142h-130zM40 343q0 46 18 80.5t47 57.5t66.5 35t76.5 12t76 -12t66 -35t47 -57.5t18 -80.5v-169q0 -47 -18 -81.5t-47 -57t-66 -34t-76 -11.5t-76.5 11.5t-66.5 34t-47 57t-18 81.5v169zM248 403q-25 0 -47 -13t-22 -38v-181q0 -25 22 -40.5
t47 -15.5q24 0 46 15.5t22 40.5v181q0 25 -22 38t-46 13z" />
    <glyph glyph-name="ohungarumlaut" unicode="&#x151;" horiz-adv-x="495" 
d="M204 567h-122l79 138h144zM391 567h-122l79 138h144zM40 343q0 46 18 80.5t47 57.5t66.5 35t76.5 12t76 -12t66 -35t47 -57.5t18 -80.5v-169q0 -47 -18 -81.5t-47 -57t-66 -34t-76 -11.5t-76.5 11.5t-66.5 34t-47 57t-18 81.5v169zM248 403q-25 0 -47 -13t-22 -38v-181
q0 -25 22 -40.5t47 -15.5q24 0 46 15.5t22 40.5v181q0 25 -22 38t-46 13z" />
    <glyph glyph-name="omacron" unicode="&#x14d;" horiz-adv-x="494" 
d="M113 689h269v-103h-269v103zM40 343q0 46 18 80.5t47 57.5t66.5 35t76.5 12t76 -12t66 -35t47 -57.5t18 -80.5v-169q0 -47 -18 -81.5t-47 -57t-66 -34t-76 -11.5t-76.5 11.5t-66.5 34t-47 57t-18 81.5v169zM248 403q-25 0 -47 -13t-22 -38v-181q0 -25 22 -40.5t47 -15.5
q24 0 46 15.5t22 40.5v181q0 25 -22 38t-46 13z" />
    <glyph glyph-name="oslash" unicode="&#xf8;" horiz-adv-x="494" 
d="M378 490q35 -23 56 -59.5t21 -87.5v-169q0 -47 -18 -81.5t-47 -57t-66 -34t-76 -11.5q-17 0 -32.5 2t-31.5 6l-27 -68l-68 28l28 69q-35 23 -56 59.5t-21 87.5v169q0 46 18 80.5t47 57.5t66.5 35t76.5 12q34 0 64 -9l25 62l67 -26zM265 401q-10 2 -17 2q-25 0 -47 -13
t-22 -38v-168zM248 115q24 0 46 15.5t22 40.5v161l-85 -215q5 -1 8.5 -1.5t8.5 -0.5z" />
    <glyph glyph-name="otilde" unicode="&#xf5;" horiz-adv-x="494" 
d="M81 610q10 51 41.5 79.5t65.5 28.5q25 0 47 -11t41 -19t34.5 -6.5t26.5 27.5l72 -36q-18 -54 -42 -79t-61 -25q-23 0 -44 11.5t-40 19.5t-36 5t-32 -32zM40 343q0 46 18 80.5t47 57.5t66.5 35t76.5 12t76 -12t66 -35t47 -57.5t18 -80.5v-169q0 -47 -18 -81.5t-47 -57
t-66 -34t-76 -11.5t-76.5 11.5t-66.5 34t-47 57t-18 81.5v169zM248 403q-25 0 -47 -13t-22 -38v-181q0 -25 22 -40.5t47 -15.5q24 0 46 15.5t22 40.5v181q0 25 -22 38t-46 13z" />
    <glyph glyph-name="oe" unicode="&#x153;" horiz-adv-x="751" 
d="M693 75q-29 -42 -75 -63.5t-95 -21.5q-41 0 -79 18t-64 51q-26 -35 -63.5 -52t-76.5 -17q-41 0 -77.5 13t-63.5 37t-43 58.5t-16 78.5v165q0 44 17.5 78.5t45.5 58.5t64 36.5t73 12.5q40 0 79 -16.5t64 -54.5q26 39 65.5 55t78.5 16q87 0 139.5 -48.5t52.5 -136.5v-139
h-269v-23q0 -35 25.5 -52.5t57.5 -17.5q25 0 48.5 9.5t34.5 23.5zM593 349q0 26 -22.5 39.5t-49 13.5t-49 -13t-22.5 -40v-42h143v42zM244 400q-25 -1 -47 -15.5t-22 -37.5v-170q1 -28 21 -43.5t48 -15.5t48.5 16t22.5 43v171q0 23 -21.5 38t-49.5 14z" />
    <glyph glyph-name="p" unicode="p" horiz-adv-x="510" 
d="M52 489q48 18 100.5 28.5t101.5 10.5q41 0 79.5 -8t68.5 -27.5t48.5 -53t18.5 -84.5v-189q0 -46 -16.5 -79t-43.5 -54.5t-62 -32t-71 -10.5q-45 0 -84 18v-198h-140v679zM192 109q11 -6 25 -9t29 -3q34 0 59 17t25 52v196q0 32 -24 46t-58 14q-32 0 -56 -12v-301z" />
    <glyph glyph-name="thorn" unicode="&#xfe;" horiz-adv-x="511" 
d="M193 511q17 9 36.5 13t39.5 4q39 0 75 -7.5t64 -27.5t45 -54t17 -87v-179q0 -47 -17.5 -81.5t-46.5 -57t-66 -33.5t-75 -11q-19 0 -35.5 3.5t-36.5 14.5v-179h-139v879h139v-197zM193 120q13 -8 28.5 -11.5t30.5 -3.5q30 0 54.5 16.5t24.5 52.5v174q0 34 -23 51t-52 17
q-16 0 -32 -3.5t-31 -11.5v-281z" />
    <glyph glyph-name="q" unicode="q" horiz-adv-x="510" 
d="M318 8q-39 -18 -82 -18q-42 0 -78 12t-62 34.5t-40.5 55t-14.5 74.5v171q0 50 18.5 86t48.5 59.5t68.5 34.5t79.5 11q49 0 101.5 -10.5t100.5 -28.5v-679h-140v198zM318 407q-23 14 -54 14q-16 0 -31 -5.5t-27 -15t-19 -22.5t-7 -29v-180q0 -20 8 -33.5t21 -22
t28.5 -12.5t30.5 -4q29 0 50 12v298z" />
    <glyph glyph-name="r" unicode="r" horiz-adv-x="340" 
d="M252 528q29 0 73 -10v-112q-22 6 -46 5t-44.5 -9t-33.5 -23t-13 -37v-342h-139v344q0 46 18.5 81t47.5 57.5t65.5 34t71.5 11.5z" />
    <glyph glyph-name="racute" unicode="&#x155;" horiz-adv-x="340" 
d="M237 576h-136l95 142h170zM252 528q29 0 73 -10v-112q-22 6 -46 5t-44.5 -9t-33.5 -23t-13 -37v-342h-139v344q0 46 18.5 81t47.5 57.5t65.5 34t71.5 11.5z" />
    <glyph glyph-name="rcaron" unicode="&#x159;" horiz-adv-x="340" 
d="M31 711h144l35 -41l35 41h148l-125 -140h-114zM252 528q29 0 73 -10v-112q-22 6 -46 5t-44.5 -9t-33.5 -23t-13 -37v-342h-139v344q0 46 18.5 81t47.5 57.5t65.5 34t71.5 11.5z" />
    <glyph glyph-name="rcommaaccent" unicode="&#x157;" horiz-adv-x="340" 
d="M252 528q29 0 73 -10v-112q-22 6 -46 5t-44.5 -9t-33.5 -23t-13 -37v-342h-139v344q0 46 18.5 81t47.5 57.5t65.5 34t71.5 11.5zM128 -244h-129l52 175h145z" />
    <glyph glyph-name="s" unicode="s" horiz-adv-x="424" 
d="M91 168q29 -28 63.5 -43t61.5 -15q31 0 42 23q10 23 -2.5 42t-47.5 24q-44 7 -75.5 24t-52.5 40t-31.5 50t-10.5 55q0 30 11.5 59t34 51.5t55.5 36t76 13.5q35 0 80 -11t85 -43l-69 -95q-13 13 -37 22.5t-47 9.5q-17 0 -31 -9.5t-16 -32.5q-1 -12 6.5 -21.5t18.5 -17
t23.5 -12.5t20.5 -6q25 -6 51 -17t48 -28.5t36 -43.5t14 -63q0 -42 -15.5 -74t-41.5 -53.5t-60 -32t-70 -10.5q-54 0 -101.5 19.5t-84.5 68.5z" />
    <glyph glyph-name="sacute" unicode="&#x15b;" horiz-adv-x="424" 
d="M264 566h-136l95 142h170zM91 168q29 -28 63.5 -43t61.5 -15q31 0 42 23q10 23 -2.5 42t-47.5 24q-44 7 -75.5 24t-52.5 40t-31.5 50t-10.5 55q0 30 11.5 59t34 51.5t55.5 36t76 13.5q35 0 80 -11t85 -43l-69 -95q-13 13 -37 22.5t-47 9.5q-17 0 -31 -9.5t-16 -32.5
q-1 -12 6.5 -21.5t18.5 -17t23.5 -12.5t20.5 -6q25 -6 51 -17t48 -28.5t36 -43.5t14 -63q0 -42 -15.5 -74t-41.5 -53.5t-60 -32t-70 -10.5q-54 0 -101.5 19.5t-84.5 68.5z" />
    <glyph glyph-name="scaron" unicode="&#x161;" horiz-adv-x="423" 
d="M249 566l-36 41l-36 -41h-157l136 142h116l138 -142h-161zM90 168q29 -28 63.5 -43t61.5 -15q31 0 42 23q10 23 -2.5 42t-47.5 24q-44 7 -75.5 24t-52.5 40t-31.5 50t-10.5 55q0 30 11.5 59t34 51.5t55.5 36t76 13.5q35 0 80 -11t85 -43l-69 -95q-13 13 -37 22.5t-47 9.5
q-17 0 -31 -9.5t-16 -32.5q-1 -12 6.5 -21.5t18.5 -17t23.5 -12.5t20.5 -6q25 -6 51 -17t48 -28.5t36 -43.5t14 -63q0 -42 -15.5 -74t-41.5 -53.5t-60 -32t-70 -10.5q-54 0 -101.5 19.5t-84.5 68.5z" />
    <glyph glyph-name="scedilla" unicode="&#x15f;" horiz-adv-x="424" 
d="M398 160q0 -34 -10 -61.5t-28 -48t-42 -34t-52 -20.5l-20 -43q24 -2 40 -13t24 -27.5t8.5 -37t-7.5 -41.5q-9 -25 -32.5 -43t-54.5 -24t-67 2.5t-72 36.5l27 61q32 -22 58 -18.5t32 23.5q3 7 1 15.5t-10 15.5t-23 11.5t-39 4.5l37 74q-42 6 -78 26t-65 59l66 90
q29 -28 63.5 -43t61.5 -15q31 0 42 23q10 23 -2.5 42t-47.5 24q-44 7 -75.5 24t-52.5 40t-31.5 50t-10.5 55q0 30 11.5 59t34 51.5t55.5 36t76 13.5q35 0 80 -11t85 -43l-69 -95q-13 13 -37 22.5t-47 9.5q-17 0 -31 -9.5t-16 -32.5q-1 -12 6.5 -21.5t18.5 -17t23.5 -12.5
t20.5 -6q25 -6 51 -17t48 -28.5t36 -43.5t14 -63z" />
    <glyph glyph-name="scommaaccent" unicode="&#x219;" horiz-adv-x="424" 
d="M91 168q29 -28 63.5 -43t61.5 -15q31 0 42 23q10 23 -2.5 42t-47.5 24q-44 7 -75.5 24t-52.5 40t-31.5 50t-10.5 55q0 30 11.5 59t34 51.5t55.5 36t76 13.5q35 0 80 -11t85 -43l-69 -95q-13 13 -37 22.5t-47 9.5q-17 0 -31 -9.5t-16 -32.5q-1 -12 6.5 -21.5t18.5 -17
t23.5 -12.5t20.5 -6q25 -6 51 -17t48 -28.5t36 -43.5t14 -63q0 -42 -15.5 -74t-41.5 -53.5t-60 -32t-70 -10.5q-54 0 -101.5 19.5t-84.5 68.5zM220 -244h-129l52 175h145z" />
    <glyph glyph-name="germandbls" unicode="&#xdf;" horiz-adv-x="578" 
d="M232 159q22 -19 51 -23t54.5 5t43.5 29t18 49q0 43 -29 61.5t-71 18.5h-70v135h70q15 0 28 7.5t23.5 19.5t16.5 27.5t6 32.5q0 25 -13.5 42t-34 24.5t-43.5 7t-43 -10t-33 -27t-12 -42.5v-515h-140v515q-1 51 18.5 89.5t52 64.5t74 39t85 14t85 -11.5t74 -37.5t52.5 -63
t20 -89q0 -17 -3 -36t-11 -38.5t-22 -38.5t-37 -35q44 -22 68.5 -55t32.5 -70.5t0.5 -76.5t-27.5 -73q-21 -33 -52.5 -56t-69.5 -33.5t-80 -8.5t-82 18v141z" />
    <glyph glyph-name="t" unicode="t" horiz-adv-x="319" 
d="M296 7q-52 -17 -97 -14.5t-78 24.5t-51.5 63.5t-18.5 101.5v451h128l10 -115h92v-127h-92v-208q0 -45 25.5 -59t81.5 -3v-114z" />
    <glyph glyph-name="tbar" unicode="&#x167;" horiz-adv-x="329" 
d="M198 183q0 -45 28 -59.5t79 -4.5v-112q-52 -17 -97 -14.5t-78 24.5t-51.5 63.5t-18.5 101.5v45h-45v83h45v323h128l10 -115h92v-127h-92v-81h65v-83h-65v-44z" />
    <glyph glyph-name="tcaron" unicode="&#x165;" horiz-adv-x="319" 
d="M337 542h-108l38 166h123zM296 7q-52 -17 -97 -14.5t-78 24.5t-51.5 63.5t-18.5 101.5v451h128l10 -115h92v-127h-92v-208q0 -45 25.5 -59t81.5 -3v-114z" />
    <glyph glyph-name="tcommaaccent" unicode="&#x163;" horiz-adv-x="319" 
d="M51 0zM192 -244h-129l52 175h145zM296 7q-52 -17 -97 -14.5t-78 24.5t-51.5 63.5t-18.5 101.5v451h128l10 -115h92v-127h-92v-208q0 -45 25.5 -59t81.5 -3v-114z" />
    <glyph glyph-name="uni021B" unicode="&#x21b;" horiz-adv-x="319" 
d="M192 -244h-129l52 175h145zM296 7q-52 -17 -97 -14.5t-78 24.5t-51.5 63.5t-18.5 101.5v451h128l10 -115h92v-127h-92v-208q0 -45 25.5 -59t81.5 -3v-114z" />
    <glyph glyph-name="u" unicode="u" horiz-adv-x="516" 
d="M464 28q-42 -15 -92 -26.5t-104 -11.5q-43 0 -82.5 9.5t-69.5 31.5t-48 59t-18 92v336h139v-328q0 -46 26 -65.5t61 -19.5q26 0 50 9v404h138v-490z" />
    <glyph glyph-name="uacute" unicode="&#xfa;" horiz-adv-x="516" 
d="M306 566h-136l95 142h170zM464 28q-42 -15 -92 -26.5t-104 -11.5q-43 0 -82.5 9.5t-69.5 31.5t-48 59t-18 92v336h139v-328q0 -46 26 -65.5t61 -19.5q26 0 50 9v404h138v-490z" />
    <glyph glyph-name="ucircumflex" unicode="&#xfb;" horiz-adv-x="516" 
d="M292 566l-36 41l-36 -41h-157l136 142h116l138 -142h-161zM464 28q-42 -15 -92 -26.5t-104 -11.5q-43 0 -82.5 9.5t-69.5 31.5t-48 59t-18 92v336h139v-328q0 -46 26 -65.5t61 -19.5q26 0 50 9v404h138v-490z" />
    <glyph glyph-name="udieresis" unicode="&#xfc;" horiz-adv-x="516" 
d="M71 640q0 33 22.5 55t54.5 22q31 0 54 -22t23 -55q0 -32 -23 -53.5t-54 -21.5q-32 0 -54.5 21.5t-22.5 53.5zM288 640q0 33 22 55t55 22t55.5 -22t22.5 -55q0 -32 -22.5 -53.5t-55.5 -21.5t-55 21.5t-22 53.5zM464 28q-42 -15 -92 -26.5t-104 -11.5q-43 0 -82.5 9.5
t-69.5 31.5t-48 59t-18 92v336h139v-328q0 -46 26 -65.5t61 -19.5q26 0 50 9v404h138v-490z" />
    <glyph glyph-name="ugrave" unicode="&#xf9;" horiz-adv-x="516" 
d="M218 566l-117 142h164l83 -142h-130zM464 28q-42 -15 -92 -26.5t-104 -11.5q-43 0 -82.5 9.5t-69.5 31.5t-48 59t-18 92v336h139v-328q0 -46 26 -65.5t61 -19.5q26 0 50 9v404h138v-490z" />
    <glyph glyph-name="uhungarumlaut" unicode="&#x171;" horiz-adv-x="516" 
d="M190 560h-129l94 146h159zM400 560h-130l94 146h159zM464 28q-42 -15 -92 -26.5t-104 -11.5q-43 0 -82.5 9.5t-69.5 31.5t-48 59t-18 92v336h139v-328q0 -46 26 -65.5t61 -19.5q26 0 50 9v404h138v-490z" />
    <glyph glyph-name="umacron" unicode="&#x16b;" horiz-adv-x="516" 
d="M116 696h280v-107h-280v107zM464 28q-42 -15 -92 -26.5t-104 -11.5q-43 0 -82.5 9.5t-69.5 31.5t-48 59t-18 92v336h139v-328q0 -46 26 -65.5t61 -19.5q26 0 50 9v404h138v-490z" />
    <glyph glyph-name="uogonek" unicode="&#x173;" horiz-adv-x="517" 
d="M325 -10q-51 -6 -100 -0.5t-88 27t-63 61.5t-24 104v336h139v-337q1 -24 13.5 -41t32 -26t43.5 -10t48 7v407h138v-496l-19 -19q-53 -59 -53 -93.5t37 -34.5q20 0 36 13l42 -64q-30 -32 -61 -46t-60 -14q-50 0 -77.5 21.5t-33.5 54t7.5 71.5t45.5 74z" />
    <glyph glyph-name="uring" unicode="&#x16f;" horiz-adv-x="516" 
d="M259 773q39 0 65 -17t39 -42t13 -55t-13 -55t-39 -42t-65 -17q-40 0 -67 17t-40.5 42t-13.5 55t13.5 55t40.5 42t67 17zM259 707q-26 0 -38 -15t-11.5 -33t13 -33t36.5 -15t35.5 15t11.5 33t-11.5 33t-35.5 15zM464 28q-42 -15 -92 -26.5t-104 -11.5q-43 0 -82.5 9.5
t-69.5 31.5t-48 59t-18 92v336h139v-328q0 -46 26 -65.5t61 -19.5q26 0 50 9v404h138v-490z" />
    <glyph glyph-name="v" unicode="v" horiz-adv-x="504" 
d="M353 518h149l-185 -518h-131l-184 518h148l78 -261l22 -134h3l22 134z" />
    <glyph glyph-name="w" unicode="w" horiz-adv-x="701" 
d="M293 0h-130l-157 518h137l58 -209l16 -135h2l15 126l66 218h101l64 -217l15 -127h2l18 136l54 208h139l-153 -518h-130l-43 187l-16 141h-2l-15 -141z" />
    <glyph glyph-name="wacute" unicode="&#x1e83;" horiz-adv-x="701" 
d="M400 566h-136l95 142h170zM293 0h-130l-157 518h137l58 -209l16 -135h2l15 126l66 218h101l64 -217l15 -127h2l18 136l54 208h139l-153 -518h-130l-43 187l-16 141h-2l-15 -141z" />
    <glyph glyph-name="wcircumflex" unicode="&#x175;" horiz-adv-x="701" 
d="M386 566l-36 41l-36 -41h-157l136 142h116l138 -142h-161zM293 0h-130l-157 518h137l58 -209l16 -135h2l15 126l66 218h101l64 -217l15 -127h2l18 136l54 208h139l-153 -518h-130l-43 187l-16 141h-2l-15 -141z" />
    <glyph glyph-name="wdieresis" unicode="&#x1e85;" horiz-adv-x="701" 
d="M165 640q0 33 22.5 55t54.5 22q31 0 54 -22t23 -55q0 -32 -23 -53.5t-54 -21.5q-32 0 -54.5 21.5t-22.5 53.5zM382 640q0 33 22 55t55 22t55.5 -22t22.5 -55q0 -32 -22.5 -53.5t-55.5 -21.5t-55 21.5t-22 53.5zM293 0h-130l-157 518h137l58 -209l16 -135h2l15 126l66 218
h101l64 -217l15 -127h2l18 136l54 208h139l-153 -518h-130l-43 187l-16 141h-2l-15 -141z" />
    <glyph glyph-name="wgrave" unicode="&#x1e81;" horiz-adv-x="701" 
d="M312 566l-117 142h164l83 -142h-130zM293 0h-130l-157 518h137l58 -209l16 -135h2l15 126l66 218h101l64 -217l15 -127h2l18 136l54 208h139l-153 -518h-130l-43 187l-16 141h-2l-15 -141z" />
    <glyph glyph-name="x" unicode="x" horiz-adv-x="519" 
d="M339 260q19 -28 42 -62.5t46 -69.5t45.5 -68.5t40.5 -59.5h-165l-67 108l-20 53h-7l-23 -55q-13 -20 -28 -44.5t-39 -61.5h-157l168 259q-11 16 -22 34.5t-29 47t-45.5 71t-71.5 106.5h157l72 -118l19 -49h6l18 49q11 17 28 47.5t41 70.5h163z" />
    <glyph glyph-name="y" unicode="y" horiz-adv-x="517" 
d="M463 4q0 -52 -16.5 -91t-45 -65t-68 -39t-85.5 -13q-48 0 -96 16t-85 53l66 87q17 -17 45 -27.5t54 -10.5q45 0 71.5 21t25.5 72q-20 -7 -43.5 -12t-44.5 -5q-85 0 -137.5 43.5t-52.5 127.5v357h134v-355q0 -31 21 -46t59 -15q16 0 31 4.5t27 11.5v400h140v-514z" />
    <glyph glyph-name="yacute" unicode="&#xfd;" horiz-adv-x="517" 
d="M306 566h-136l95 142h170zM463 4q0 -52 -16.5 -91t-45 -65t-68 -39t-85.5 -13q-48 0 -96 16t-85 53l66 87q17 -17 45 -27.5t54 -10.5q45 0 71.5 21t25.5 72q-20 -7 -43.5 -12t-44.5 -5q-85 0 -137.5 43.5t-52.5 127.5v357h134v-355q0 -31 21 -46t59 -15q16 0 31 4.5
t27 11.5v400h140v-514z" />
    <glyph glyph-name="ycircumflex" unicode="&#x177;" horiz-adv-x="517" 
d="M292 566l-36 41l-36 -41h-157l136 142h116l138 -142h-161zM463 4q0 -52 -16.5 -91t-45 -65t-68 -39t-85.5 -13q-48 0 -96 16t-85 53l66 87q17 -17 45 -27.5t54 -10.5q45 0 71.5 21t25.5 72q-20 -7 -43.5 -12t-44.5 -5q-85 0 -137.5 43.5t-52.5 127.5v357h134v-355
q0 -31 21 -46t59 -15q16 0 31 4.5t27 11.5v400h140v-514z" />
    <glyph glyph-name="ydieresis" unicode="&#xff;" horiz-adv-x="517" 
d="M71 640q0 33 22.5 55t54.5 22q31 0 54 -22t23 -55q0 -32 -23 -53.5t-54 -21.5q-32 0 -54.5 21.5t-22.5 53.5zM288 640q0 33 22 55t55 22t55.5 -22t22.5 -55q0 -32 -22.5 -53.5t-55.5 -21.5t-55 21.5t-22 53.5zM463 4q0 -52 -16.5 -91t-45 -65t-68 -39t-85.5 -13
q-48 0 -96 16t-85 53l66 87q17 -17 45 -27.5t54 -10.5q45 0 71.5 21t25.5 72q-20 -7 -43.5 -12t-44.5 -5q-85 0 -137.5 43.5t-52.5 127.5v357h134v-355q0 -31 21 -46t59 -15q16 0 31 4.5t27 11.5v400h140v-514z" />
    <glyph glyph-name="ygrave" unicode="&#x1ef3;" horiz-adv-x="517" 
d="M218 566l-117 142h164l83 -142h-130zM463 4q0 -52 -16.5 -91t-45 -65t-68 -39t-85.5 -13q-48 0 -96 16t-85 53l66 87q17 -17 45 -27.5t54 -10.5q45 0 71.5 21t25.5 72q-20 -7 -43.5 -12t-44.5 -5q-85 0 -137.5 43.5t-52.5 127.5v357h134v-355q0 -31 21 -46t59 -15
q16 0 31 4.5t27 11.5v400h140v-514z" />
    <glyph glyph-name="z" unicode="z" horiz-adv-x="453" 
d="M397 518l30 -49l-216 -350h209v-119h-369l-30 50l215 349h-196v119h357z" />
    <glyph glyph-name="zacute" unicode="&#x17a;" horiz-adv-x="453" 
d="M279 566h-136l95 142h170zM397 518l30 -49l-216 -350h209v-119h-369l-30 50l215 349h-196v119h357z" />
    <glyph glyph-name="zcaron" unicode="&#x17e;" horiz-adv-x="453" 
d="M39 708h157l36 -41l36 41h161l-138 -142h-116zM397 518l30 -49l-216 -350h209v-119h-369l-30 50l215 349h-196v119h357z" />
    <glyph glyph-name="zdotaccent" unicode="&#x17c;" horiz-adv-x="453" 
d="M141 652q0 37 25.5 61.5t63.5 24.5t63 -24.5t25 -61.5q0 -38 -25 -61.5t-63 -23.5t-63.5 23.5t-25.5 61.5zM397 518l30 -49l-216 -350h209v-119h-369l-30 50l215 349h-196v119h357z" />
    <glyph glyph-name="ordfeminine" unicode="&#xaa;" horiz-adv-x="382" 
d="M42 626q30 45 79 63.5t96.5 10.5t82 -41.5t34.5 -91.5v-233q-48 -13 -101 -19t-97 3.5t-72.5 39.5t-28.5 88q0 44 20 70.5t49.5 38.5t62.5 12t59 -8q-1 20 -15.5 30t-34.5 11.5t-41.5 -5.5t-36.5 -21zM219 471q-11 4 -23.5 5t-24 -2t-19.5 -11t-9 -20q0 -16 8 -25
t19.5 -13t24.5 -3.5t24 3.5v66z" />
    <glyph glyph-name="ordmasculine" unicode="&#xba;" horiz-adv-x="420" 
d="M210 298q-32 0 -62.5 9.5t-55 28t-39.5 46.5t-15 65v120q0 37 15 65t39.5 47t55 28t62.5 9q31 0 62 -9t55.5 -28t39.5 -47t15 -65v-120q0 -37 -15 -65t-39.5 -46.5t-55.5 -28t-62 -9.5zM173 447q0 -17 11.5 -25.5t25.5 -8.5t25.5 8t11.5 26v119q0 18 -12 26.5t-25.5 8.5
t-25 -8.5t-11.5 -25.5v-120z" />
    <glyph glyph-name="uni0410" unicode="&#x410;" horiz-adv-x="634" 
d="M640 0h-154l-62 162h-211l-59 -162h-157l248 708h141zM250 297h136l-45 154l-22 101h-7l-22 -102z" />
    <glyph glyph-name="uni0411" unicode="&#x411;" horiz-adv-x="616" 
d="M339 439q137 0 196 -53t59 -163q0 -54 -18 -96t-50.5 -70t-78.5 -42.5t-103 -14.5h-282v708h475v-128h-328v-141h130zM343 132q54 0 80 23t26 75q0 47 -26 72t-83 25h-131v-195h134z" />
    <glyph glyph-name="uni0412" unicode="&#x412;" horiz-adv-x="625" 
d="M564 501q0 -15 -3.5 -32.5t-12 -34.5t-21 -32t-30.5 -25q33 -16 53.5 -39t31 -49t12.5 -54t-2 -55q-5 -36 -21 -68.5t-45.5 -57t-73.5 -39.5t-105 -15h-285v709h280q46 0 86.5 -13t70.5 -39.5t47.5 -65.5t17.5 -90zM342 431q37 0 57.5 21t22 46t-18 46t-61.5 21h-133
v-134h133zM342 143q34 0 57.5 12t35 30t11.5 39t-11.5 39t-34.5 30t-58 12h-133v-162h133z" />
    <glyph glyph-name="uni0413" unicode="&#x413;" horiz-adv-x="514" 
d="M62 0v708h439v-140h-292v-568h-147z" />
    <glyph glyph-name="uni0414" unicode="&#x414;" horiz-adv-x="710" 
d="M534 -136v136h-368v-136h-149v270h10q45 3 68.5 26.5t35 65.5t15.5 102t9 136l17 244h443v-574h67v-270h-148zM293 349q-4 -62 -13.5 -117.5t-29.5 -97.5h218v434h-160z" />
    <glyph glyph-name="uni0415" unicode="&#x415;" horiz-adv-x="583" 
d="M210 426h305v-143h-305v-140h332v-143h-480v709h480v-144h-332v-139z" />
    <glyph glyph-name="uni0401" unicode="&#x401;" horiz-adv-x="583" 
d="M116 830q0 33 22.5 55t54.5 22q31 0 54 -22t23 -55q0 -32 -23 -53.5t-54 -21.5q-32 0 -54.5 21.5t-22.5 53.5zM333 830q0 33 22 55t55 22t55.5 -22t22.5 -55q0 -32 -22.5 -53.5t-55.5 -21.5t-55 21.5t-22 53.5zM210 426h305v-143h-305v-140h332v-143h-480v709h480v-144
h-332v-139z" />
    <glyph glyph-name="uni0416" unicode="&#x416;" horiz-adv-x="942" 
d="M571 285l-26 -29v-256h-148v256l-26 29l-192 -285h-184l265 364l-266 344h180l223 -297v297h148v-297l223 297h180l-266 -344l266 -364h-185z" />
    <glyph glyph-name="uni0417" unicode="&#x417;" horiz-adv-x="563" 
d="M273 718q113 0 172 -54.5t59 -147.5q0 -39 -18.5 -78t-55.5 -60q54 -28 77.5 -73t23.5 -96q0 -54 -19.5 -94.5t-54.5 -68.5t-85 -42t-111 -14q-83 0 -149.5 34.5t-106.5 102.5l101 76q30 -38 68.5 -58.5t80.5 -20.5q60 0 94.5 21t34.5 72q0 50 -30.5 72t-83.5 22h-103
v114h100q45 0 72 20t27 63q0 39 -27 60t-77 21q-44 0 -81 -19.5t-59 -39.5l-84 78q84 110 235 110z" />
    <glyph glyph-name="uni0418" unicode="&#x418;" horiz-adv-x="686" 
d="M489 466l-4 1l-59 -115l-218 -352h-146v708h147v-381l-11 -100l4 -1l55 111l226 371h141v-708h-147v353z" />
    <glyph glyph-name="uni0419" unicode="&#x419;" horiz-adv-x="686" 
d="M518 934q-2 -41 -17 -72t-39.5 -52t-56 -31.5t-64.5 -10.5t-64.5 10.5t-56 31.5t-39.5 52t-16 72h120q5 -52 56 -52t57 52h120zM489 466l-4 1l-58 -113l-219 -354h-146v708h147v-382l-10 -99l3 -1l56 112l225 370h141v-708h-147v357z" />
    <glyph glyph-name="uni041A" unicode="&#x41a;" horiz-adv-x="635" 
d="M343 362l299 -362h-186l-218 271l-29 -29v-242h-147v708h147v-294l250 294h185z" />
    <glyph glyph-name="uni041B" unicode="&#x41b;" horiz-adv-x="700" 
d="M321 568l-13 -219q-5 -73 -19.5 -138.5t-47.5 -114.5t-87 -75.5t-137 -20.5v138q53 -2 81.5 22t42 68t18 104.5t9.5 131.5l16 244h455v-708h-148v568h-170z" />
    <glyph glyph-name="uni041C" unicode="&#x41c;" horiz-adv-x="778" 
d="M445 93h-110l-98 228l-34 97h-10l16 -137v-281h-147v708h154l172 -407l174 407h154v-708h-147v282l18 137h-11l-34 -99z" />
    <glyph glyph-name="uni041D" unicode="&#x41d;" horiz-adv-x="679" 
d="M209 0h-147v708h147v-281h261v281h147v-708h-147v280h-261v-280z" />
    <glyph glyph-name="uni041E" unicode="&#x41e;" horiz-adv-x="665" 
d="M43 482q0 59 25 103.5t65.5 74t92.5 44t106 14.5t106.5 -15t93 -44.5t65.5 -73.5t25 -103v-256q0 -59 -25 -103t-65.5 -73.5t-92.5 -44.5t-106 -15t-106.5 15t-93 44.5t-65.5 73.5t-25 103v256zM189 226q0 -25 12.5 -43.5t32.5 -30.5t46 -18t53 -6t52.5 6t45.5 18.5
t32.5 31t12.5 42.5v256q0 26 -12.5 45t-33 31t-46.5 18t-53 6t-52.5 -6t-45.5 -18.5t-32 -31.5t-12 -44v-256z" />
    <glyph glyph-name="uni041F" unicode="&#x41f;" horiz-adv-x="673" 
d="M209 568v-568h-147v708h549v-708h-148v568h-254z" />
    <glyph glyph-name="uni0420" unicode="&#x420;" horiz-adv-x="617" 
d="M62 708h279q85 0 141 -36.5t84 -91t28 -117.5t-28.5 -117.5t-84.5 -90.5t-139 -36h-134v-219h-146v708zM341 357q36 0 60 15t36 37.5t12 49t-12 49t-36 37.5t-60 15h-133v-203h133z" />
    <glyph glyph-name="uni0421" unicode="&#x421;" horiz-adv-x="583" 
d="M573 138q-46 -75 -113.5 -111.5t-138.5 -36.5q-51 0 -101 15t-89.5 44t-63.5 73t-24 103v258q0 58 23.5 102t62.5 73.5t89 44.5t103 15q35 0 71 -9t69 -28t60.5 -47.5t45.5 -67.5l-118 -64q-21 40 -59.5 58.5t-79.5 17.5q-24 0 -45.5 -7t-38.5 -19t-27 -29.5t-10 -39.5
v-258q0 -22 9.5 -39t26 -29t38 -18.5t44.5 -6.5q40 -1 79 17.5t60 59.5z" />
    <glyph glyph-name="uni0422" unicode="&#x422;" horiz-adv-x="577" 
d="M214 0v568h-201v141h551v-141h-202v-568h-148z" />
    <glyph glyph-name="uni0423" unicode="&#x423;" horiz-adv-x="574" 
d="M-23 708h167l99 -216l39 -102h4l43 107l94 211h162l-320 -708h-158l104 228z" />
    <glyph glyph-name="uni0424" unicode="&#x424;" horiz-adv-x="777" 
d="M459 648q54 0 106 -12t92.5 -38.5t65 -68.5t24.5 -103v-144q0 -61 -24.5 -103t-65 -68.5t-92.5 -38t-106 -11.5v-61h-141v61q-54 0 -106 11.5t-92.5 38t-65 68.5t-24.5 103v144q0 61 24.5 103t65 68.5t92.5 38.5t106 12v60h141v-60zM318 515q-27 0 -52.5 -3.5t-45 -13.5
t-31.5 -27t-12 -44v-146q0 -27 12 -44t31.5 -27t45 -13.5t52.5 -3.5v322zM459 193q27 0 52.5 3.5t45 13.5t31.5 27t12 44v146q0 27 -12.5 44t-32.5 27t-45.5 13.5t-50.5 3.5v-322z" />
    <glyph glyph-name="uni0425" unicode="&#x425;" horiz-adv-x="631" 
d="M453 0l-142 250l-131 -250h-181l209 353l-207 355h179l131 -252l143 252h179l-224 -356l224 -352h-180z" />
    <glyph glyph-name="uni0427" unicode="&#x427;" horiz-adv-x="628" 
d="M419 255q-23 -20 -60.5 -34.5t-82.5 -14.5q-48 0 -91.5 14.5t-77 44t-53 73.5t-19.5 103v267h147v-267q0 -48 28 -71t76 -23q44 0 77.5 11.5t54.5 31.5l1 318h147v-708h-147v255z" />
    <glyph glyph-name="uni0426" unicode="&#x426;" horiz-adv-x="696" 
d="M527 -136v136h-466v708h147v-568h246v568h147v-568h67v-276h-141z" />
    <glyph glyph-name="uni0428" unicode="&#x428;" horiz-adv-x="953" 
d="M209 708v-568h193v568h148v-568h193v568h148v-708h-829v708h147z" />
    <glyph glyph-name="uni0429" unicode="&#x429;" horiz-adv-x="988" 
d="M819 -136v136h-758v708h147v-568h193v568h148v-568h193v568h148v-568h70v-276h-141z" />
    <glyph glyph-name="uni042F" unicode="&#x42f;" horiz-adv-x="638" 
d="M374 255l-208 -255h-185l227 268q-35 7 -66 22t-54 40.5t-36 62.5t-13 89q2 113 72 169.5t187 56.5h278v-708h-148v255h-54zM296 568q-51 0 -80.5 -22.5t-29.5 -72.5q0 -48 28 -73t82 -25h132v193h-132z" />
    <glyph glyph-name="uni042C" unicode="&#x42c;" horiz-adv-x="617" 
d="M340 458q135 0 194 -58t59 -167q0 -54 -17.5 -97t-50 -73t-78 -46.5t-102.5 -16.5h-283v708h148v-250h130zM343 132q54 0 79.5 27t25.5 76q0 50 -26.5 76.5t-80.5 26.5h-131v-206h133z" />
    <glyph glyph-name="uni042A" unicode="&#x42a;" horiz-adv-x="702" 
d="M425 458q134 0 193.5 -58t59.5 -167q0 -54 -17.5 -97t-50 -73t-78 -46.5t-102.5 -16.5h-283v569h-130v139h277v-250h131zM428 132q54 0 79.5 27t25.5 76q0 50 -26.5 76.5t-81.5 26.5h-131v-206h134z" />
    <glyph glyph-name="uni042B" unicode="&#x42b;" horiz-adv-x="888" 
d="M339 458q135 0 194 -58t59 -167q0 -54 -17.5 -97t-50 -73t-78 -46.5t-102.5 -16.5h-282v708h147v-250h130zM826 708v-708h-147v708h147zM342 132q54 0 80 27t26 76q0 50 -26.5 76.5t-81.5 26.5h-131v-206h133z" />
    <glyph glyph-name="uni042D" unicode="&#x42d;" horiz-adv-x="591" 
d="M269 718q52 0 102.5 -15t89.5 -45t63 -74.5t24 -102.5v-254q0 -59 -24 -103t-63 -73.5t-88.5 -44.5t-100.5 -15q-35 0 -71.5 9t-70 27.5t-62.5 48t-50 70.5l129 59q17 -38 53 -55.5t76 -17.5q24 0 46.5 6t40 18t28 30t10.5 41v66h-211v126h211v62q0 24 -11 42t-29 30.5
t-41.5 19t-47.5 6.5q-39 0 -75 -17.5t-55 -52.5l-122 52q20 43 48.5 73t61.5 49t68.5 27t70.5 8z" />
    <glyph glyph-name="uni042E" unicode="&#x42e;" horiz-adv-x="955" 
d="M621 718q54 0 106.5 -15t93.5 -44.5t66 -73.5t25 -103v-256q0 -59 -25 -103t-66 -73.5t-93.5 -44.5t-106.5 -15t-106.5 15t-93 44.5t-65.5 73.5t-25 103v64h-124v-290h-147v708h147v-283h124v57q0 59 25 103.5t65.5 74t92.5 44t107 14.5zM620 578q-27 0 -52.5 -6.5
t-45.5 -19t-32 -31.5t-12 -44v-248q0 -24 12 -42.5t32.5 -31t46 -19t52.5 -6.5t52.5 6t46 18.5t33 31t12.5 43.5v248q0 26 -12.5 45t-33 31.5t-46.5 18.5t-53 6z" />
    <glyph glyph-name="uni0414.loclBGR" horiz-adv-x="691" 
d="M529 -136v136h-367v-136h-148v270h56l192 574h161l197 -574h57v-270h-148zM459 134l-79 270l-35 141h-3l-32 -140l-81 -271h230z" />
    <glyph glyph-name="uni041B.loclBGR" horiz-adv-x="622" 
d="M313 545h-4l-43 -179l-111 -366h-157l240 708h144l245 -708h-157l-116 368z" />
    <glyph glyph-name="uni0430" unicode="&#x430;" 
d="M27 0zM27 154q0 45 15.5 77t41 52.5t59 30t68.5 9.5q46 0 92 -16v37q0 41 -24 56.5t-56 15.5q-29 0 -59.5 -14t-49.5 -34l-68 73q40 46 86.5 66t100.5 21q39 0 75.5 -11t65 -34t46 -57.5t17.5 -81.5v-316q-46 -17 -96.5 -27.5t-98.5 -10.5q-110 0 -162.5 44.5
t-52.5 119.5zM299 209q-12 5 -29 8.5t-34 3.5q-40 0 -58.5 -17.5t-18.5 -45.5t19.5 -44.5t61.5 -16.5q32 0 59 7v105z" />
    <glyph glyph-name="uni0431" unicode="&#x431;" horiz-adv-x="511" 
d="M445 639q-31 -22 -71 -33t-79 -16q-18 -2 -37 -4t-34.5 -9t-25 -21t-9.5 -39v-60q16 11 41.5 20.5t60.5 9.5q39 0 72 -12t57 -34.5t37.5 -56t13.5 -76.5v-138q0 -45 -18 -79t-48 -56.5t-67.5 -33.5t-76.5 -11t-77 11t-68 33.5t-48 56.5t-18 79v361q0 49 18 80.5t45.5 50
t61 26.5t64.5 12q49 6 91 16t74 29zM263 367q-20 0 -39 -5.5t-35 -17.5v-170q0 -29 22.5 -43.5t49.5 -14.5q26 0 48.5 14.5t22.5 43.5v136q0 30 -21 43.5t-48 13.5z" />
    <glyph glyph-name="uni0432" unicode="&#x432;" horiz-adv-x="513" 
d="M274 518q93 0 140.5 -33.5t47.5 -99.5q0 -39 -16.5 -66t-42.5 -43q47 -23 62 -57t15 -76q0 -74 -55 -108.5t-151 -34.5h-220v518h220zM270 309q29 0 46.5 14.5t17.5 40.5q-1 29 -19 41t-47 12h-75v-108h77zM270 101q36 0 56 13.5t21 46.5q1 35 -20 48.5t-57 13.5h-77
v-122h77z" />
    <glyph glyph-name="uni0433" unicode="&#x433;" horiz-adv-x="398" 
d="M54 0v518h330v-125h-191v-393h-139z" />
    <glyph glyph-name="uni0434" unicode="&#x434;" horiz-adv-x="589" 
d="M432 -118v118h-279v-118h-133v235h8q29 1 46 13t27 36t14.5 59t8.5 83l18 210h361v-401h61v-235h-132zM250 251q-2 -38 -9.5 -75.5t-21.5 -58.5h149v280h-108z" />
    <glyph glyph-name="uni0435" unicode="&#x435;" 
d="M430 88q-15 -28 -36.5 -46.5t-46 -30t-50 -16.5t-48.5 -5q-39 0 -76.5 11.5t-67 34.5t-47.5 57.5t-18 80.5v171q0 47 18.5 81.5t48 57t67.5 33.5t77 11q38 0 74 -10t64 -31.5t45 -55t17 -80.5v-152h-271v-23q0 -30 24 -45.5t54 -15.5q24 0 46.5 9.5t34.5 29.5zM320 349
q0 27 -21 40.5t-47 13.5q-27 0 -49.5 -13.5t-22.5 -41.5v-46h140v47z" />
    <glyph glyph-name="uni0451" unicode="&#x451;" 
d="M73 641q0 33 22.5 55t54.5 22q31 0 54 -22t23 -55q0 -32 -23 -53.5t-54 -21.5q-32 0 -54.5 21.5t-22.5 53.5zM280 641q0 33 22 55t55 22t55.5 -22t22.5 -55q0 -32 -22.5 -53.5t-55.5 -21.5t-55 21.5t-22 53.5zM430 88q-15 -28 -36.5 -46.5t-46 -30t-50 -16.5t-48.5 -5
q-39 0 -76.5 11.5t-67 34.5t-47.5 57.5t-18 80.5v171q0 47 18.5 81.5t48 57t67.5 33.5t77 11q38 0 74 -10t64 -31.5t45 -55t17 -80.5v-152h-271v-23q0 -30 24 -45.5t54 -15.5q24 0 46.5 9.5t34.5 29.5zM320 349q0 27 -21 40.5t-47 13.5q-27 0 -49.5 -13.5t-22.5 -41.5v-46
h140v47z" />
    <glyph glyph-name="uni0436" unicode="&#x436;" horiz-adv-x="748" 
d="M454 191l-12 -12v-179h-136v179l-13 13l-128 -192h-158l196 273l-199 245h161l141 -189v189h136v-189l140 189h161l-199 -245l197 -273h-159z" />
    <glyph glyph-name="uni0437" unicode="&#x437;" horiz-adv-x="451" 
d="M218 528q36 0 69 -8.5t58.5 -26t40.5 -43.5t15 -60q0 -39 -18.5 -69t-45.5 -44q38 -17 60 -49.5t22 -80.5q0 -41 -17.5 -70.5t-46 -49t-64.5 -28.5t-73 -9q-30 0 -57 3.5t-51.5 14t-48 28.5t-46.5 47l84 69q20 -23 43.5 -34t57.5 -11q32 0 56.5 12.5t24.5 39.5
q0 33 -19.5 45t-56.5 12h-67v102h64q29 0 45 11t16 40q0 21 -16.5 34.5t-47.5 13.5q-29 0 -50 -10t-40 -29l-74 62q30 46 79 67t104 21z" />
    <glyph glyph-name="uni0438" unicode="&#x438;" horiz-adv-x="550" 
d="M365 332l-3 1l-30 -83l-133 -250h-145v518h139v-246l-7 -99h3l32 82l129 263h146v-518h-140v234z" />
    <glyph glyph-name="uni0439" unicode="&#x439;" horiz-adv-x="550" 
d="M460 735q-1 -40 -15.5 -70t-38 -49.5t-52 -29.5t-58.5 -10q-29 0 -56.5 10.5t-49.5 30.5t-35.5 50t-14.5 68h116q2 -20 15 -31t29 -11t29 10.5t15 31.5h116zM365 332l-3 1l-30 -83l-133 -250h-145v518h139v-246l-7 -99h3l32 82l129 263h146v-518h-140v234z" />
    <glyph glyph-name="uni043A" unicode="&#x43a;" horiz-adv-x="516" 
d="M213 187l-20 -19v-168h-139v518h139v-188l155 188h163l-204 -246l202 -272h-161z" />
    <glyph glyph-name="uni043B" unicode="&#x43b;" horiz-adv-x="549" 
d="M264 393l-12 -151q-5 -67 -17 -113.5t-38 -75t-68.5 -41t-108.5 -12.5v117q31 0 50 8.5t29.5 29t15.5 54.5t9 86l18 223h353v-518h-139v393h-92z" />
    <glyph glyph-name="uni043C" unicode="&#x43c;" horiz-adv-x="652" 
d="M468 302h-4l-95 -229h-86l-95 229h-4l10 -96v-206h-140v518h153l119 -286l119 286h153v-518h-140v211z" />
    <glyph glyph-name="uni043D" unicode="&#x43d;" horiz-adv-x="527" 
d="M193 208v-208h-139v518h139v-185h140v185h140v-518h-140v208h-140z" />
    <glyph glyph-name="uni043E" unicode="&#x43e;" horiz-adv-x="494" 
d="M40 343q0 46 18 80.5t47 57.5t66.5 35t76.5 12t76 -12t66 -35t47 -57.5t18 -80.5v-169q0 -47 -18 -81.5t-47 -57t-66 -34t-76 -11.5t-76.5 11.5t-66.5 34t-47 57t-18 81.5v169zM248 403q-25 0 -47 -13t-22 -38v-181q0 -25 22 -40.5t47 -15.5q24 0 46 15.5t22 40.5v181
q0 25 -22 38t-46 13z" />
    <glyph glyph-name="uni043F" unicode="&#x43f;" horiz-adv-x="527" 
d="M193 393v-393h-139v518h419v-518h-140v393h-140z" />
    <glyph glyph-name="uni0440" unicode="&#x440;" horiz-adv-x="517" 
d="M57 489q48 18 100.5 28.5t101.5 10.5q41 0 79.5 -8t68.5 -27.5t48.5 -53t18.5 -84.5v-189q0 -46 -16.5 -79t-43.5 -54.5t-62 -32t-71 -10.5q-45 0 -84 18v-198h-140v679zM197 109q11 -6 25 -9t29 -3q34 0 59 17t25 52v196q0 32 -24 46t-58 14q-32 0 -56 -12v-301z" />
    <glyph glyph-name="uni0441" unicode="&#x441;" horiz-adv-x="469" 
d="M450 131q-14 -39 -36.5 -66t-50 -43.5t-57.5 -24t-58 -7.5q-39 0 -76 11.5t-66.5 34t-47.5 57t-18 80.5v171q0 46 18 80.5t47.5 57.5t66.5 34.5t76 11.5q28 0 58 -7t57.5 -23.5t49 -43t31.5 -66.5l-119 -37q-8 27 -30.5 39.5t-46.5 12.5q-26 0 -47.5 -15t-21.5 -43v-171
q0 -29 21.5 -44t47.5 -15q24 0 47 13.5t33 42.5z" />
    <glyph glyph-name="uni0442" unicode="&#x442;" horiz-adv-x="449" 
d="M154 0v399h-139v119h418v-119h-139v-399h-140z" />
    <glyph glyph-name="uni0443" unicode="&#x443;" horiz-adv-x="517" 
d="M51 0zM463 4q0 -52 -16.5 -91t-45 -65t-68 -39t-85.5 -13q-48 0 -96 16t-85 53l66 87q17 -17 45 -27.5t54 -10.5q45 0 71.5 21t25.5 72q-20 -7 -43.5 -12t-44.5 -5q-85 0 -137.5 43.5t-52.5 127.5v357h134v-355q0 -31 21 -46t59 -15q16 0 31 4.5t27 11.5v400h140v-514z
" />
    <glyph glyph-name="uni0444" unicode="&#x444;" horiz-adv-x="718" 
d="M428 515q10 5 29 9t39 4q83 0 131 -46t48 -127v-192q0 -81 -48 -127t-131 -46q-20 0 -39 4t-29 9v-187h-136v187q-10 -5 -29 -9t-39 -4q-83 0 -131.5 46t-48.5 127v192q0 81 48.5 127t131.5 46q20 0 39 -4t29 -9v193h136v-193zM253 411q-26 0 -47.5 -15t-21.5 -47v-180
q0 -32 21.5 -47t47.5 -15q21 0 39 10v284q-18 10 -39 10zM467 411q-21 0 -39 -10v-284q18 -10 39 -10q26 0 47.5 15t21.5 47v180q0 32 -21.5 47t-47.5 15z" />
    <glyph glyph-name="uni0445" unicode="&#x445;" horiz-adv-x="521" 
d="M340 260q19 -28 42 -62.5t46 -69.5t45.5 -68.5t40.5 -59.5h-165l-67 108l-20 53h-7l-23 -55q-13 -20 -28 -44.5t-39 -61.5h-157l168 259q-11 16 -22 34.5t-29 47t-45.5 71t-71.5 106.5h157l72 -118l19 -49h6l18 49q11 17 28 47.5t41 70.5h163z" />
    <glyph glyph-name="uni0447" unicode="&#x447;" horiz-adv-x="500" 
d="M306 170q-19 -12 -44.5 -19t-52.5 -7q-29 0 -60.5 9t-57.5 29t-42.5 52.5t-16.5 79.5v204h140v-183q0 -35 17.5 -50t47.5 -15q38 0 69 17v231h140v-518h-140v170z" />
    <glyph glyph-name="uni0446" unicode="&#x446;" horiz-adv-x="553" 
d="M397 -124l-7 124h-337v518h139v-401h137v401h140v-401h55v-241h-127z" />
    <glyph glyph-name="uni0448" unicode="&#x448;" horiz-adv-x="754" 
d="M307 122v396h140v-396h114v396h139v-518h-646v518h139v-396h114z" />
    <glyph glyph-name="uni0449" unicode="&#x449;" horiz-adv-x="783" 
d="M626 -124l-6 124h-567v518h139v-401h114v401h140v-401h114v401h139v-401h55v-241h-128z" />
    <glyph glyph-name="uni044F" unicode="&#x44f;" horiz-adv-x="514" 
d="M293 192l-131 -192h-159l155 205q-52 12 -86 48t-34 102q0 44 15 75t42.5 50.5t65.5 28.5t85 9h214v-518h-139l1 192h-29zM245 417q-35 0 -55 -16.5t-20 -49.5q0 -70 78 -70h73v136h-76z" />
    <glyph glyph-name="uni044C" unicode="&#x44c;" horiz-adv-x="501" 
d="M304 345q88 0 132.5 -46.5t44.5 -130.5q0 -46 -14.5 -78t-41 -52t-64.5 -29t-85 -9h-222v518h139v-173h111zM272 101q35 0 55.5 18t21.5 53q0 41 -20 58t-58 17h-78v-146h79z" />
    <glyph glyph-name="uni044A" unicode="&#x44a;" horiz-adv-x="545" 
d="M348 345q88 0 132.5 -46.5t44.5 -130.5q0 -46 -14.5 -78t-41 -52t-64.5 -29t-86 -9h-221v413h-81v105h220v-173h111zM315 101q36 0 56.5 18t20.5 53q1 41 -19 58t-58 17h-78v-146h78z" />
    <glyph glyph-name="uni044B" unicode="&#x44b;" horiz-adv-x="740" 
d="M305 345q88 0 132.5 -46.5t44.5 -130.5q0 -46 -14.5 -78t-41 -52t-64.5 -29t-86 -9h-222v518h140v-173h111zM686 518v-518h-139v518h139zM272 101q35 0 55.5 18t21.5 53q1 41 -19.5 58t-57.5 17h-78v-146h78z" />
    <glyph glyph-name="uni044D" unicode="&#x44d;" horiz-adv-x="473" 
d="M222 528q38 0 76 -11.5t68 -34.5t48.5 -58t18.5 -81v-169q0 -46 -18.5 -80.5t-48.5 -57t-68 -34t-76 -11.5q-28 0 -58 5.5t-57.5 20.5t-50 40.5t-35.5 65.5l119 47q10 -29 30.5 -45t50.5 -16q28 0 50 13t22 46v37h-124v105h124v31q0 30 -22 45.5t-48 15.5q-24 1 -45 -11
t-31 -39l-115 47q12 36 33.5 61t47.5 40t54 21.5t55 6.5z" />
    <glyph glyph-name="uni044E" unicode="&#x44e;" horiz-adv-x="734" 
d="M484 528q39 0 76.5 -11.5t67 -34.5t48 -58t18.5 -81v-173q0 -45 -18 -79t-48 -56.5t-67.5 -33.5t-76.5 -11t-77 11t-68 33.5t-48 56.5t-18 79v42h-82v-212h-139v518h139v-191h82v25q0 44 19 77t49 54.5t67.5 33t75.5 11.5zM484 402q-13 0 -25.5 -3.5t-23 -10.5t-17 -18
t-6.5 -25v-171q1 -29 23 -43.5t49 -14.5q26 0 48 14.5t23 43.5v171q0 14 -6.5 25t-16.5 18t-23 10.5t-25 3.5z" />
    <glyph glyph-name="uni0432.loclBGR" horiz-adv-x="513" 
d="M262 718q37 0 73 -9.5t64 -30.5t45 -53t17 -77q0 -30 -7.5 -55t-19.5 -44.5t-27 -33t-30 -21.5q42 -5 70 -39t28 -87v-99q0 -45 -18.5 -78t-49 -55.5t-68.5 -34t-77 -11.5q-48 0 -103.5 9.5t-106.5 29.5v510q0 43 17 76.5t45.5 56t67 34.5t80.5 12zM259 593
q-30 0 -49 -15.5t-19 -45.5v-122l64 21q34 11 50 39t16 63q0 29 -15 44.5t-47 15.5zM259 332q-20 -4 -36 -9.5t-32 -10.5v-188q15 -5 34 -7.5t37 -2.5q29 0 51.5 16.5t21.5 49.5v96q0 29 -21.5 45.5t-54.5 10.5z" />
    <glyph glyph-name="uni0433.loclBGR" horiz-adv-x="438" 
d="M222 528q39 0 71.5 -11t55.5 -30.5t36 -48t13 -62.5q0 -37 -12 -64t-33 -46.5t-50 -32.5t-63 -21q-35 -9 -57.5 -19.5t-22.5 -36.5t18 -37t48 -11q62 0 116 47l74 -82q-40 -47 -90.5 -64.5t-110.5 -17.5q-37 0 -70.5 9t-59 28t-41 48.5t-15.5 69.5q0 39 11.5 67t32 47
t47.5 31t58 21q13 3 27.5 7t26 10t19 15t7.5 23q0 21 -15 29.5t-41 8.5q-43 0 -82 -26l-77 77q37 39 84.5 55.5t94.5 16.5z" />
    <glyph glyph-name="uni0434.loclBGR" horiz-adv-x="505" 
d="M41 0zM124 -51q18 -17 47.5 -27t57.5 -10q40 0 63 24t23 76q-20 -12 -41.5 -17t-42.5 -5q-37 0 -71.5 10.5t-60.5 31.5t-42 52.5t-16 73.5v196q0 48 17.5 81t47 53.5t67.5 30t80 9.5q54 0 106 -12t94 -32v-483q0 -52 -17 -90.5t-46 -64t-68 -38t-83 -12.5
q-49 0 -96.5 17.5t-82.5 52.5zM313 408q-14 7 -29 10t-30 3q-31 0 -55 -16t-24 -48v-197q4 -30 29 -44t54 -14q31 0 55 13v293z" />
    <glyph glyph-name="uni0436.loclBGR" horiz-adv-x="746" 
d="M544 273l196 -273h-159l-125 191l-15 -14v-177h-136v177l-14 15l-127 -192h-158l196 273l-199 245h161l141 -189v379h136v-379l140 189h161z" />
    <glyph glyph-name="uni0438.loclBGR" horiz-adv-x="516" 
d="M464 31q-51 -22 -100 -31.5t-92 -9.5t-83 10t-71 32.5t-49.5 58t-18.5 86.5v341h138v-341q0 -32 23 -47.5t51 -16.5q36 0 63 10v395h139v-487z" />
    <glyph glyph-name="uni0439.loclBGR" horiz-adv-x="517" 
d="M424 735q-1 -40 -15 -70t-36.5 -50t-50.5 -30t-57 -10t-57.5 10t-51 30t-37 50t-15.5 70h116q2 -21 15.5 -31.5t29.5 -10.5q15 0 28.5 10.5t15.5 31.5h115zM465 31q-52 -22 -101.5 -31.5t-94.5 -9.5q-42 0 -81.5 10.5t-70 33.5t-49 58t-18.5 85v341h139v-340
q0 -31 22.5 -47.5t48.5 -16.5q37 0 66 10v394h139v-487z" />
    <glyph glyph-name="uni043A.loclBGR" horiz-adv-x="511" 
d="M343 518h162l-206 -250q49 -65 104 -135t103 -133h-161l-143 189l-9 -8v-181h-139v707h139v-385z" />
    <glyph glyph-name="uni043B.loclBGR" horiz-adv-x="496" 
d="M248 394h-2l-24 -131l-71 -263h-146l162 518h162l162 -518h-151l-68 263z" />
    <glyph glyph-name="uni043F.loclBGR" horiz-adv-x="515" 
d="M53 482q44 19 93.5 31t99.5 12q42 0 82 -10.5t70.5 -33t49 -58t18.5 -85.5v-338h-138v337q0 33 -22.5 48.5t-49.5 15.5q-18 0 -35 -3.5t-30 -8.5v-389h-138v482z" />
    <glyph glyph-name="uni0442.loclBGR" horiz-adv-x="753" 
d="M52 464q34 29 84 47t101 17q40 -1 79 -15t60 -49q25 31 61 47.5t73 16.5q36 0 70.5 -11t61.5 -33t44 -55t17 -77v-352h-138v357q0 23 -19 34.5t-42 11.5t-42.5 -11t-19.5 -34v-358h-133v354q0 23 -22.5 36t-48.5 13q-14 -1 -27.5 -5.5t-22.5 -14.5v-383h-136v464z" />
    <glyph glyph-name="uni0446.loclBGR" horiz-adv-x="548" 
d="M505 -131h-120l4 149q-35 -15 -62 -21.5t-59 -6.5q-42 0 -81.5 10.5t-70 33.5t-48.5 58.5t-18 85.5v340h140v-339q0 -32 20.5 -48t47.5 -17q18 0 33.5 2t30.5 7v395h139v-380h55v-141z" />
    <glyph glyph-name="uni0448.loclBGR" horiz-adv-x="780" 
d="M728 40q-32 -21 -80.5 -35.5t-99.5 -14.5q-42 0 -85 13.5t-72 42.5q-26 -27 -65.5 -41.5t-77.5 -14.5q-39 0 -75 11.5t-63 34.5t-43.5 56.5t-16.5 77.5v348h140v-350q0 -29 18.5 -41t45.5 -12q10 0 22 3.5t22 9t16.5 14t6.5 19.5v357h139v-358q0 -23 21.5 -34.5
t47.5 -11.5q20 0 35.5 3.5t24.5 11.5v389h139v-478z" />
    <glyph glyph-name="uni0449.loclBGR" horiz-adv-x="815" 
d="M771 -130l-123 -1l4 144q-29 -12 -51.5 -17.5t-52.5 -5.5q-42 0 -85 13.5t-72 42.5q-26 -27 -65.5 -41.5t-77.5 -14.5q-39 0 -75 11.5t-63 34.5t-43.5 56.5t-16.5 77.5v348h140v-350q0 -29 18.5 -41t45.5 -12q10 0 22 3.5t22 9t16.5 14t6.5 19.5v357h139v-358
q0 -23 21.5 -34.5t47.5 -11.5q20 0 35.5 3t24.5 9v392h139v-380h56v-147z" />
    <glyph glyph-name="uni044E.loclBGR" horiz-adv-x="734" 
d="M273 350q1 44 20 77.5t49 55.5t67 33.5t75 11.5q39 0 76.5 -11.5t67 -34.5t48 -58t18.5 -81v-173q0 -45 -18 -79t-48 -56.5t-67.5 -33.5t-76.5 -11t-77 11t-68 33.5t-48 56.5t-18 79v42h-82v-212h-138v708h138v-381h82v23zM484 402q-13 0 -25.5 -3.5t-23 -10.5t-17 -18
t-6.5 -25v-171q1 -29 23 -43.5t49 -14.5q26 0 48 14.5t23 43.5v171q0 14 -6.5 25t-16.5 18t-22.5 10.5t-25.5 3.5z" />
    <glyph glyph-name="Delta" unicode="&#x2206;" horiz-adv-x="587" 
d="M353 688l210 -597v-91h-539v90l210 598h119zM185 139h212l-106 328z" />
    <glyph glyph-name="Omega" unicode="&#x2126;" horiz-adv-x="779" 
d="M142 143q-50 41 -72.5 100t-22.5 132q0 84 29 147t77 104.5t109 62.5t125 21q65 0 127.5 -21t111 -63t78.5 -104t30 -143q0 -73 -25.5 -137t-75.5 -99h102v-143h-314v108q56 17 94.5 58.5t58.5 93t19 106.5t-23 100.5t-67.5 75t-115.5 29.5q-65 0 -108.5 -29.5t-66 -75.5
t-24.5 -101.5t16 -107t56 -92.5t96 -58v-107h-314v143h100z" />
    <glyph glyph-name="uni03A9" unicode="&#x3a9;" horiz-adv-x="775" 
d="M140 143q-50 41 -72.5 100t-22.5 132q0 84 29 147t77 104.5t109 62.5t125 21q65 0 127.5 -21t111 -63t78.5 -104t30 -143q0 -73 -25.5 -137t-75.5 -99h102v-143h-314v108q56 17 94.5 58.5t58.5 93t19 106.5t-23 100.5t-67.5 75t-115.5 29.5q-65 0 -108.5 -29.5t-66 -75.5
t-24.5 -101.5t16 -107t56 -92.5t96 -58v-107h-314v143h100z" />
    <glyph glyph-name="mu" unicode="&#xb5;" horiz-adv-x="521" 
d="M336 33q-11 -20 -30.5 -31t-41 -11.5t-41 10t-30.5 34.5v-222h-141v703h142v-314q0 -38 21 -55.5t46 -17t45.5 18.5t20.5 52v316h142l2 -518l-124 1z" />
    <glyph glyph-name="uni03BC" unicode="&#x3bc;" horiz-adv-x="525" 
d="M338 33q-11 -20 -30.5 -31t-41 -11.5t-41 10t-30.5 34.5v-222h-141v703h142v-314q0 -38 21 -55.5t46 -17t45.5 18.5t20.5 52v316h142l2 -518l-124 1z" />
    <glyph glyph-name="pi" unicode="&#x3c0;" horiz-adv-x="569" 
d="M513 -4q-55 3 -91 15.5t-57 34t-29.5 50.5t-8.5 65v220h-78v-381h-138v377q-25 -4 -51 -14l-23 -1l-28 109q15 9 29.5 17.5t30.5 15t35.5 10.5t45.5 4h391l-13 -137h-61v-216q0 -15 9.5 -22t35.5 -5z" />
    <glyph glyph-name="zero" unicode="0" horiz-adv-x="603" 
d="M302 -10q-45 0 -90.5 12.5t-82.5 39t-60 66.5t-23 96v299q0 56 23 96.5t60 67t82.5 39t90.5 12.5t91 -12.5t82.5 -39t59.5 -67t23 -96.5v-299q0 -56 -23 -96t-59.5 -66.5t-82.5 -39t-91 -12.5zM187 204q2 -26 19.5 -43t42 -25.5t53.5 -8.5t53.5 8.5t42 25.5t19.5 43v299
q-2 26 -19.5 43.5t-42 26.5t-53.5 9t-53.5 -9t-42 -26.5t-19.5 -43.5v-299z" />
    <glyph glyph-name="one" unicode="1" horiz-adv-x="355" 
d="M161 0v499l-67 -58l-92 78l181 191h116v-710h-138z" />
    <glyph glyph-name="two" unicode="2" horiz-adv-x="552" 
d="M32 579q20 34 47.5 60t59 43.5t66 26.5t68.5 9q63 0 109.5 -19.5t77 -51.5t43.5 -74t9 -87t-25.5 -90t-60.5 -84l-181 -177l1 -4l98 9l169 1v-141h-458l-33 86l304 328q26 28 36.5 58t3.5 55t-30.5 41t-64.5 16q-38 0 -76 -20t-58 -56z" />
    <glyph glyph-name="three" unicode="3" horiz-adv-x="567" 
d="M44 595q19 30 45.5 53t57 38.5t64.5 23.5t68 8q49 -1 90.5 -18t71.5 -45.5t46.5 -66t16.5 -78.5q0 -33 -16 -67t-53 -63q26 -14 45 -34t31 -43t17.5 -47.5t5.5 -47.5q0 -43 -18.5 -82t-51.5 -69t-79 -48t-100 -18q-23 0 -57.5 4t-71.5 19.5t-73.5 45.5t-64.5 82l109 80
q25 -42 63.5 -63.5t76.5 -21.5q59 0 89 25.5t31.5 56.5t-24.5 58t-79 30h-99v125h99q31 0 52.5 20t21.5 52q0 16 -7.5 29t-20 22t-28.5 13.5t-33 4.5q-15 0 -32.5 -2t-35.5 -8t-36 -18t-34 -31z" />
    <glyph glyph-name="four" unicode="4" horiz-adv-x="567" 
d="M532 159h-60v-159h-141v159h-260l-67 99l342 451h126v-421h60v-129zM175 278h159l3 149l16 99l-6 1l-31 -55z" />
    <glyph glyph-name="five" unicode="5" horiz-adv-x="564" 
d="M151 206q23 -37 57.5 -55.5t66.5 -18.5q39 0 65.5 16.5t40 41t13.5 53.5t-12.5 53.5t-38 41t-64.5 17.5q-20 0 -36 -2t-32.5 -7t-35.5 -14t-44 -23l-82 -2v401h442v-139h-306v-101q31 13 62.5 17t61.5 2t57 -9.5t49 -18.5q53 -26 83 -71.5t38.5 -97.5t-4 -106t-44.5 -97
t-83.5 -70.5t-119.5 -26.5q-21 0 -52.5 4.5t-65.5 19.5t-67 43.5t-57 76.5z" />
    <glyph glyph-name="six" unicode="6" horiz-adv-x="596" 
d="M427 521q-13 27 -35.5 42.5t-49 21t-54 2t-50 -14.5t-36.5 -29t-14 -41v-102q30 31 69.5 45t81.5 12.5t83 -16.5t73 -42.5t51.5 -66t19.5 -85.5v-42q0 -54 -22 -94t-58 -67t-82.5 -40.5t-95.5 -13.5q-50 0 -97 13t-83.5 40t-59 67.5t-22.5 94.5v298q0 54 22.5 94.5
t59 67.5t83.5 40t97 13q72 0 135.5 -33t107.5 -111zM425 246q0 25 -17.5 42t-44 25.5t-57 8.5t-57 -8.5t-44 -25.5t-17.5 -42v-40q0 -25 17.5 -42t44 -25.5t57 -8.5t57 8.5t44 25t17.5 42.5v40z" />
    <glyph glyph-name="seven" unicode="7" horiz-adv-x="534" 
d="M490 709l41 -82l-339 -627h-159l308 572h-311v137h460z" />
    <glyph glyph-name="eight" unicode="8" horiz-adv-x="618" 
d="M301 -10q-57 0 -105.5 16t-84 46.5t-56 75t-21.5 101.5q0 38 21 82t73 78q-29 18 -44.5 45.5t-20 57t0.5 58.5t16 50q15 29 38 51t52 37t62.5 22.5t68.5 7.5h15q45 0 88 -11.5t76.5 -36.5t53.5 -64t20 -93q0 -30 -16 -64.5t-51 -56.5q27 -13 45.5 -31.5t30 -40t16.5 -45
t5 -46.5q-1 -57 -22 -101.5t-57 -75t-84.5 -46.5t-104.5 -16h-15zM301 596q-19 0 -37 -5t-31.5 -15t-21.5 -24t-8 -32q0 -21 9 -35.5t23 -24t32.5 -13.5t36.5 -4t37.5 4t35.5 13.5t26.5 24t10.5 35.5q0 18 -8 32t-21.5 24t-31 15t-36.5 5h-16zM316 129q21 0 42.5 6t39 17.5
t28.5 29t11 40.5q0 26 -10 44.5t-26.5 30t-38.5 17t-46 5.5h-15q-24 0 -46 -5.5t-38.5 -17t-26.5 -30t-10 -44.5q0 -23 11 -40.5t28.5 -29t39 -17.5t42.5 -6h15z" />
    <glyph glyph-name="nine" unicode="9" horiz-adv-x="596" 
d="M170 187q13 -27 35.5 -42.5t49 -21t54 -2t50 14.5t36.5 29t14 41v102q-31 -30 -71 -44t-82 -13t-82.5 16.5t-72 42.5t-51 65t-19.5 86v42q0 54 21.5 94t57.5 67t82.5 40.5t96.5 13.5q49 0 96 -13t83.5 -40t59 -67.5t23.5 -94.5v-298q0 -54 -22.5 -94.5t-59 -67.5t-84 -40
t-96.5 -13q-72 0 -135.5 33t-107.5 111zM172 462q0 -26 17.5 -42.5t44 -25t57 -8.5t57 8.5t44 25.5t17.5 42v40q0 25 -17.5 42t-44 25.5t-57 8.5t-57 -8.5t-44 -25.5t-17.5 -42v-40z" />
    <glyph glyph-name="fraction" unicode="&#x2044;" horiz-adv-x="537" 
d="M116 -45l-116 71l423 693l116 -70z" />
    <glyph glyph-name="onehalf" unicode="&#xbd;" horiz-adv-x="859" 
d="M243 -45l-115 71l422 693l116 -70zM254 272h-134v262l-49 -28l-50 70l126 137h107v-441zM507 353q29 46 68 65t84 19q37 0 66.5 -12t50.5 -32.5t32 -47t11 -55.5q0 -30 -11 -57t-40 -52l-59 -54h112v-127h-291l-28 74l153 170q22 24 21.5 41.5t-13.5 23.5t-32 -1t-33 -31
z" />
    <glyph glyph-name="onequarter" unicode="&#xbc;" horiz-adv-x="831" 
d="M237 -45l-117 70l422 694l117 -70zM254 272h-134v262l-49 -28l-50 70l126 137h107v-441zM761 468v-264h36v-117h-36v-87h-134v87h-161l-58 90l240 291h113zM639 200l2 93l-4 1l-82 -94h84z" />
    <glyph glyph-name="threequarters" unicode="&#xbe;" horiz-adv-x="860" 
d="M295 -45l-113 71l422 693l113 -70zM140 438v103h53q12 0 17.5 9.5t4.5 20.5t-9.5 20t-25.5 8t-31 -8.5t-22 -17.5l-80 66q31 33 60 51.5t70 20.5q45 2 83 -17.5t58 -51t16.5 -70t-41.5 -73.5q33 -15 48.5 -38.5t18 -50t-7.5 -53t-29 -47.5q-31 -34 -74 -48t-86.5 -8.5
t-81.5 29t-58 65.5l95 58q9 -17 26 -24t34.5 -5.5t30 10.5t12.5 25q0 9 -7 18.5t-20 7.5h-54zM690 452h105v-255h35v-113h-35v-84h-118v84h-163l-56 87zM600 193h81l2 90l-4 1z" />
    <glyph glyph-name="onesuperior" unicode="&#xb9;" horiz-adv-x="300" 
d="M12 570l126 137h107v-441h-134v262l-49 -28z" />
    <glyph glyph-name="twosuperior" unicode="&#xb2;" horiz-adv-x="399" 
d="M39 611q30 48 69 67.5t85 19.5q40 0 69.5 -12t48.5 -32.5t28.5 -47.5t9.5 -57q0 -20 -9.5 -41.5t-25 -44t-36.5 -44.5t-45 -42h120v-131h-291l-28 76l157 176q22 25 21 43.5t-14 24.5t-32.5 -1.5t-34.5 -32.5z" />
    <glyph glyph-name="threesuperior" unicode="&#xb3;" horiz-adv-x="383" 
d="M186 532q11 0 17 9t5 19.5t-9.5 19.5t-24.5 8t-29.5 -8t-21.5 -17l-76 64q30 32 57 50t67 20q43 2 79 -17t55 -49.5t16 -68t-39 -71.5q31 -14 46 -37t17.5 -48.5t-7.5 -51.5t-28 -47q-29 -33 -70 -46t-82.5 -8t-78 28t-55.5 63l91 57q9 -16 25 -23t32.5 -6t28.5 10t12 25
q0 8 -7 17.5t-19 7.5h-51v100h50z" />
    <glyph glyph-name="asterisk" unicode="*" horiz-adv-x="460" 
d="M435 510l-116 -22l80 -93l-103 -78l-66 108l-62 -108l-107 77l78 93l-113 25l36 126l114 -47l-10 118h130l-12 -117l114 44z" />
    <glyph glyph-name="backslash" unicode="\" horiz-adv-x="477" 
d="M19 715l133 47l305 -774l-133 -45z" />
    <glyph glyph-name="bullet" unicode="&#x2022;" horiz-adv-x="413" 
d="M53 337q0 32 12 60t33 49t49 33t60 12t60 -12t48.5 -33t32.5 -49t12 -60t-12 -60t-32.5 -49t-48.5 -33.5t-60 -12.5t-60 12.5t-49 33.5t-33 49t-12 60z" />
    <glyph glyph-name="colon" unicode=":" horiz-adv-x="266" 
d="M47 404q0 36 25 60.5t61 24.5t61 -24.5t25 -60.5t-25 -61.5t-61 -25.5t-61 25.5t-25 61.5zM47 93q0 38 25 62t61 24t61 -24t25 -62q0 -36 -25 -61t-61 -25t-61 25t-25 61z" />
    <glyph glyph-name="comma" unicode="," horiz-adv-x="266" 
d="M133 -122h-141l77 233h156z" />
    <glyph glyph-name="ellipsis" unicode="&#x2026;" horiz-adv-x="716" 
d="M35 77q0 36 25 61t62 25q36 0 61 -25t25 -61q0 -37 -25 -62t-61 -25q-37 0 -62 25t-25 62zM272 77q0 36 24.5 61t60.5 25q37 0 62 -25t25 -61q0 -37 -25 -62t-62 -25q-36 0 -60.5 25t-24.5 62zM509 77q0 36 24.5 61t60.5 25q38 0 62.5 -25t24.5 -61q0 -37 -24.5 -62
t-62.5 -25q-36 0 -60.5 25t-24.5 62z" />
    <glyph glyph-name="exclam" unicode="!" horiz-adv-x="256" 
d="M57 711h141v-519h-141v519zM42 76q0 36 24.5 61.5t60.5 25.5q37 0 62 -25.5t25 -61.5t-25 -61t-62 -25q-36 0 -60.5 25t-24.5 61z" />
    <glyph glyph-name="exclamdown" unicode="&#xa1;" horiz-adv-x="249" 
d="M210 443q0 -38 -24.5 -62t-61.5 -24q-38 0 -61.5 24t-23.5 62q0 36 23.5 60.5t61.5 24.5q37 0 61.5 -24.5t24.5 -60.5zM195 -169h-141v496h141v-496z" />
    <glyph glyph-name="numbersign" unicode="#" horiz-adv-x="648" 
d="M557 183h-109q-22 -75 -34.5 -118.5t-18.5 -65.5h-137l52 184h-72l-53 -184h-138l54 184h-75l26 133h88q5 12 7.5 20.5t7.5 27.5h-96l29 135h107q13 41 26.5 88t24.5 86h138l-51 -174h72l51 174h140l-53 -174h81l-38 -135h-85l-13 -48h97zM360 307l18 66h-97l-17 -66h96z
" />
    <glyph glyph-name="period" unicode="." horiz-adv-x="241" 
d="M35 81q0 36 24.5 61t60.5 25t61 -25t25 -61q0 -37 -25 -62t-61 -25t-60.5 25t-24.5 62z" />
    <glyph glyph-name="periodcentered" unicode="&#xb7;" horiz-adv-x="249" 
d="M39 307q0 37 24.5 62t62.5 25q37 0 60.5 -25t23.5 -62q0 -36 -23.5 -60.5t-60.5 -24.5q-38 0 -62.5 24.5t-24.5 60.5z" />
    <glyph glyph-name="question" unicode="?" horiz-adv-x="481" 
d="M22 612q44 57 96 81.5t104 24.5q68 0 117 -27.5t77.5 -70t35 -93t-10 -96t-57 -79.5t-106.5 -44l-10 -113h-121l-9 207q21 -5 37.5 -6t24.5 -1q35 0 58.5 15t35.5 37.5t12.5 48t-11.5 46.5t-36.5 34t-61.5 10q-23 -2 -45.5 -14t-39.5 -36zM133 69q0 35 23 57t56 22
t56 -22t23 -57q0 -33 -23 -56t-56 -23t-56 23t-23 56z" />
    <glyph glyph-name="questiondown" unicode="&#xbf;" horiz-adv-x="474" 
d="M345 449q0 -35 -23 -57t-56 -22t-56 22t-23 57q0 33 23 56t56 23t56 -23t23 -56zM456 -94q-44 -57 -96 -81.5t-104 -24.5q-68 0 -117 27.5t-77.5 70t-35 93t10 96t57 79.5t106.5 44l10 113h121l9 -207q-21 5 -37.5 6t-24.5 1q-35 0 -58.5 -15t-35.5 -37.5t-12.5 -48
t11.5 -46.5t36.5 -34t61.5 -10q23 2 45.5 14t39.5 36z" />
    <glyph glyph-name="quotedbl" unicode="&#x22;" horiz-adv-x="414" 
d="M174 436h-122v271h142zM353 436h-123v271h142z" />
    <glyph glyph-name="quotesingle" unicode="'" horiz-adv-x="236" 
d="M178 436h-126v271h140z" />
    <glyph glyph-name="semicolon" unicode=";" horiz-adv-x="275" 
d="M53 392q0 36 24.5 60.5t62.5 24.5q37 0 60.5 -24.5t23.5 -60.5q0 -37 -23.5 -62t-60.5 -25q-38 0 -62.5 25t-24.5 62zM143 -95h-125l56 232h153z" />
    <glyph glyph-name="slash" unicode="/" horiz-adv-x="476" 
d="M153 -54l-133 48l305 768l131 -46z" />
    <glyph glyph-name="underscore" unicode="_" horiz-adv-x="602" 
d="M552 -131h-503v139h503v-139z" />
    <glyph glyph-name="braceleft" unicode="{" horiz-adv-x="332" 
d="M231 563v-132q0 -20 -5 -39.5t-14.5 -37t-22.5 -31.5t-28 -21q41 -17 55.5 -51.5t14.5 -76.5v-135q0 -13 -4 -15h68v-132h-76q-39 0 -64 10t-39.5 29t-20.5 46t-6 60v120q0 31 -12 55t-46 24v133q17 0 28 6.5t18 18t9.5 25.5t2.5 29v120q0 33 7 60t23 46t42.5 29.5
t66.5 10.5h67v-133h-64v-18z" />
    <glyph glyph-name="braceright" unicode="}" horiz-adv-x="326" 
d="M93 714q48 0 76.5 -10.5t43.5 -29.5t19 -46t4 -60v-120q0 -15 2.5 -29t9.5 -25.5t18 -18t29 -6.5v-133q-35 0 -47 -24t-12 -55v-120q0 -33 -6 -60t-22 -46t-44 -29t-73 -10h-51v132h50q5 0 5 15v135q-1 40 16 76t56 53q-30 19 -51.5 54t-20.5 74v132q0 18 -3 18h-52v133
h53z" />
    <glyph glyph-name="bracketleft" unicode="[" horiz-adv-x="307" 
d="M196 26h75v-135h-217v822h217v-136h-75v-551z" />
    <glyph glyph-name="bracketright" unicode="]" horiz-adv-x="307" 
d="M110 581h-73v133h216v-822h-216v132h73v557z" />
    <glyph glyph-name="parenleft" unicode="(" horiz-adv-x="307" 
d="M292 725q-65 -83 -97.5 -179t-32.5 -197.5t32 -202.5t96 -193l-104 -71q-77 108 -115 230.5t-37.5 244.5t40 235t117.5 201z" />
    <glyph glyph-name="parenright" unicode=")" horiz-adv-x="307" 
d="M115 793q78 -88 117.5 -201t40 -235t-38 -244.5t-114.5 -230.5l-104 71q64 92 96 193t32 202.5t-32.5 197.5t-97.5 179z" />
    <glyph glyph-name="emdash" unicode="&#x2014;" horiz-adv-x="899" 
d="M848 222h-798v140h798v-140z" />
    <glyph glyph-name="endash" unicode="&#x2013;" horiz-adv-x="576" 
d="M525 222h-475v140h475v-140z" />
    <glyph glyph-name="hyphen" unicode="-" horiz-adv-x="395" 
d="M345 222h-295v141h295v-141z" />
    <glyph glyph-name="uni00AD" unicode="&#xad;" horiz-adv-x="401" 
d="M348 175h-295v141h295v-141z" />
    <glyph glyph-name="guillemotleft" unicode="&#xab;" horiz-adv-x="559" 
d="M298 446l-107 -157q25 -37 53 -80t54 -79l-121 -71l-153 230l154 229zM527 446l-108 -159l7 -9q9 -14 36 -51.5t66 -94.5l-122 -73l-153 230l153 229z" />
    <glyph glyph-name="guillemotright" unicode="&#xbb;" horiz-adv-x="555" 
d="M30 130l109 158l-107 158l119 72l154 -229l-153 -229zM257 132l107 157q-25 37 -53 79.5t-54 78.5l121 71l153 -229l-154 -230z" />
    <glyph glyph-name="guilsinglleft" unicode="&#x2039;" horiz-adv-x="328" 
d="M297 446l-107 -156q25 -38 54 -81.5t53 -78.5l-120 -71l-153 230l154 229z" />
    <glyph glyph-name="guilsinglright" unicode="&#x203a;" horiz-adv-x="329" 
d="M31 130l107 159q-24 37 -53 79t-53 78l120 72l153 -229l-152 -229z" />
    <glyph glyph-name="quotedblbase" unicode="&#x201e;" horiz-adv-x="467" 
d="M123 -113h-122l67 236h162zM321 -113h-122l67 236h162z" />
    <glyph glyph-name="quotedblleft" unicode="&#x201c;" horiz-adv-x="474" 
d="M132 707h127l-62 -231h-168zM319 707h127l-48 -231h-168z" />
    <glyph glyph-name="quotedblright" unicode="&#x201d;" horiz-adv-x="466" 
d="M162 475h-127l48 231h168zM349 475h-127l62 231h168z" />
    <glyph glyph-name="quoteleft" unicode="&#x2018;" horiz-adv-x="283" 
d="M132 707h127l-62 -231h-168z" />
    <glyph glyph-name="quoteright" unicode="&#x2019;" horiz-adv-x="277" 
d="M160 475h-127l62 231h168z" />
    <glyph glyph-name="quotesinglbase" unicode="&#x201a;" horiz-adv-x="270" 
d="M123 -113h-122l67 236h162z" />
    <glyph glyph-name="space" unicode=" " horiz-adv-x="192" 
 />
    <glyph glyph-name="uni00A0" unicode="&#xa0;" horiz-adv-x="192" 
 />
    <glyph glyph-name="florin" unicode="&#x192;" horiz-adv-x="480" 
d="M33 1q28 -12 50 -1t28 49l54 281h-82v114h103l19 106v-1q5 29 16 57.5t30.5 51.5t48.5 37.5t70 14.5q19 0 44 -7t56 -24l-48 -98q-29 15 -49 2t-26 -45l-17 -94h80v-114h-100l-57 -310q-8 -46 -33 -78.5t-60.5 -48t-77 -13t-81.5 26.5z" />
    <glyph glyph-name="Euro" unicode="&#x20ac;" horiz-adv-x="650" 
d="M93 483q0 58 23.5 102t62.5 73.5t89 44.5t103 15q35 0 71 -9t69 -28t60.5 -47.5t45.5 -67.5l-118 -64q-15 29 -40.5 46.5t-54 24.5t-58 4t-53.5 -14.5t-39 -32t-15 -47.5v-17h190l-20 -100h-170v-41h190l-19 -98h-171v-2q0 -27 15 -47t38.5 -31.5t52.5 -14t57.5 5
t53.5 25t40 46.5l127 -71q-23 -37 -52.5 -65t-62.5 -46.5t-69 -27.5t-71 -9q-51 0 -100.5 15t-88.5 44t-62.5 73t-23.5 103v2h-68l20 98h48v41h-68l20 100h48v17z" />
    <glyph glyph-name="cent" unicode="&#xa2;" horiz-adv-x="474" 
d="M300 518q46 -11 86.5 -42t56.5 -92l-119 -37q-8 23 -24 35v-247q18 15 27 40l122 -40q-21 -61 -62.5 -92.5t-86.5 -42.5v-53h-90v50q-34 4 -65 17.5t-54.5 36t-37.5 54t-14 72.5v163q0 40 14 72t37.5 54.5t54.5 36t65 18.5v48h90v-51zM178 178q0 -18 9 -30.5t23 -20.5
v263q-14 -8 -23 -20t-9 -29v-163z" />
    <glyph glyph-name="currency" unicode="&#xa4;" horiz-adv-x="613" 
d="M88 213q-32 54 -32 124q0 34 9 66t24 58l-2 2l-48 46l92 100l54 -54q28 17 57 24t64 7q67 0 123 -32l54 54l91 -99l-50 -49q17 -28 25 -58.5t8 -64.5q0 -71 -33 -125l2 -2v1l48 -46l-91 -99l-54 54q-29 -17 -58.5 -24.5t-64.5 -7.5q-31 0 -62.5 7.5t-59.5 23.5l-4 -5
q-5 -5 -13 -12.5t-16 -15.5q-10 -9 -20 -19l-91 97zM193 336q0 -23 9 -43.5t24.5 -36t36 -24.5t43.5 -9t43.5 9t35.5 24.5t24 36t9 43.5q0 24 -9 45t-24 36.5t-35.5 24.5t-43.5 9t-43.5 -9t-36 -24.5t-24.5 -36.5t-9 -45z" />
    <glyph glyph-name="dollar" unicode="$" horiz-adv-x="566" 
d="M238 -8q-61 7 -117 40t-96 93l111 85q17 -28 44 -45.5t58 -25.5v154q-39 7 -76.5 22t-66.5 41t-46.5 64.5t-16.5 94.5q3 43 20.5 77.5t45 59.5t64 41t76.5 22v61h95v-60q57 -8 107.5 -36.5t88.5 -85.5l-121 -81q-30 45 -75 60v-149q42 -9 80.5 -24.5t67.5 -41.5t45 -65.5
t14 -97.5q-4 -42 -22 -75.5t-46 -58.5t-64 -41.5t-75 -23.5v-66h-95v62zM182 509q0 -27 16 -41.5t40 -22.5v127q-24 -8 -39 -23t-17 -39v-1zM392 205q2 29 -15 44.5t-44 24.5v-136q25 8 41 24.5t18 42.5z" />
    <glyph glyph-name="sterling" unicode="&#xa3;" horiz-adv-x="525" 
d="M123 303h-85v132h85v67q0 35 10 73.5t34.5 70t65 52t101.5 20.5q42 0 83.5 -20t76.5 -68l-81 -75q-21 24 -45.5 30.5t-47 -1t-38 -27.5t-18.5 -50v-72h134v-132h-134v-168h224v-135h-450v135h85v168z" />
    <glyph glyph-name="yen" unicode="&#xa5;" horiz-adv-x="678" 
d="M188 708l150 -296l150 296h171l-190 -336h70l-20 -100l-107 -1v-37h127l-19 -98h-108v-136h-147v136h-126l20 98h106l-1 38h-125l20 100h49l-189 336h169z" />
    <glyph glyph-name="approxequal" unicode="&#x2248;" horiz-adv-x="492" 
d="M453 400q-22 -41 -48.5 -62t-56.5 -26.5t-62.5 2t-66.5 23.5q-17 8 -30 12.5t-25 4t-24.5 -7.5t-29.5 -22l-70 60q28 45 61 70t67 27q21 1 42.5 -7t43.5 -18q18 -8 32.5 -15t28 -8.5t28 5.5t32.5 27zM453 225q-22 -41 -49.5 -63.5t-58 -28.5t-62.5 2t-64 27
q-17 10 -30 16t-25 5t-25 -9t-29 -25l-70 60q27 45 52 66.5t51 26.5t53 -2t58 -19q17 -7 31 -12t27.5 -5t28.5 5.5t34 20.5z" />
    <glyph glyph-name="asciitilde" unicode="~" horiz-adv-x="487" 
d="M453 305q-25 -44 -60.5 -75t-85.5 -31q-28 0 -52 11.5t-43 28.5q-23 20 -44 18.5t-47 -35.5l-87 73q13 19 28 36.5t32.5 31t37 21.5t42.5 8q35 0 61.5 -15.5t46.5 -30.5q26 -20 47 -13.5t45 38.5z" />
    <glyph glyph-name="divide" unicode="&#xf7;" horiz-adv-x="510" 
d="M167 500q0 37 26 62t62 25t62.5 -25t26.5 -62q0 -18 -7 -34.5t-19.5 -29t-28.5 -19.5t-34 -7t-34 7t-28 19.5t-19 29t-7 34.5zM480 247h-449v133h449v-133zM170 128q0 38 26 62t63 25q37 0 63 -25t26 -62q0 -19 -7 -35t-19 -28t-28 -19t-34 -7q-37 0 -63.5 25.5
t-26.5 63.5z" />
    <glyph glyph-name="equal" unicode="=" horiz-adv-x="529" 
d="M478 315h-427v137h427v-137zM478 132h-427v136h427v-136z" />
    <glyph glyph-name="greater" unicode="&#x3e;" horiz-adv-x="426" 
d="M402 249l-354 -224v162l197 108l-197 112v161l354 -227v-92z" />
    <glyph glyph-name="greaterequal" unicode="&#x2265;" horiz-adv-x="485" 
d="M442 366l-382 -200v151l113 56l70 37l-183 94v151l382 -203v-86zM446 155v-136h-403v136h403z" />
    <glyph glyph-name="infinity" unicode="&#x221e;" horiz-adv-x="688" 
d="M655 286q0 -39 -14 -70.5t-37.5 -54t-54 -34.5t-63.5 -12q-45 0 -81.5 21.5t-59.5 59.5q-9 -14 -23 -28.5t-32.5 -26t-41.5 -19t-50 -7.5q-35 0 -65 13t-52 35.5t-35 53t-13 66.5q0 37 12.5 69t35 55t54 36t68.5 13q48 0 83 -24t60 -63q12 17 27 33t33.5 28.5t40 19.5
t45.5 6q36 -1 66 -13.5t51.5 -35t33.5 -53t12 -67.5v-1zM202 337q-28 0 -40.5 -16t-12 -35.5t14 -35.5t37.5 -16q14 0 34 13.5t41 39.5q-18 20 -37.5 35t-36.5 15zM489 337q-17 0 -36.5 -15t-37.5 -35q20 -27 40.5 -40t34.5 -13q24 0 37.5 16t14 35.5t-12 35.5t-40.5 16z
" />
    <glyph glyph-name="integral" unicode="&#x222b;" horiz-adv-x="369" 
d="M334 678q-11 6 -24.5 9t-24.5 -1.5t-18.5 -18t-5.5 -39.5l6 -593q0 -60 -25 -98.5t-63.5 -55t-85 -11.5t-89.5 33l32 99q15 -8 30 -12t27 -1.5t19.5 13.5t7.5 34q0 25 -0.5 63.5t-1.5 105.5t-3 170t-5 257q0 61 24.5 101.5t62.5 58.5t82.5 12.5t85.5 -34.5z" />
    <glyph glyph-name="less" unicode="&#x3c;" horiz-adv-x="425" 
d="M377 187v-162l-354 224v92l354 227v-161l-197 -112z" />
    <glyph glyph-name="lessequal" unicode="&#x2264;" horiz-adv-x="486" 
d="M243 412q17 -9 34.5 -18t35.5 -17l113 -57v-150l-382 200v86l382 202v-150zM443 160v-137h-403v137h403z" />
    <glyph glyph-name="logicalnot" unicode="&#xac;" horiz-adv-x="584" 
d="M45 421h485v-282h-139v143h-346v139z" />
    <glyph glyph-name="minus" unicode="&#x2212;" horiz-adv-x="612" 
d="M561 229h-510v138h510v-138z" />
    <glyph glyph-name="multiply" unicode="&#xd7;" horiz-adv-x="528" 
d="M396 525l98 -99l-130 -130l129 -130l-98 -98l-130 130l-134 -135l-96 100l132 131l-135 135l98 97l134 -133z" />
    <glyph glyph-name="notequal" unicode="&#x2260;" horiz-adv-x="534" 
d="M491 301h-152l-18 -41h170v-126h-221l-45 -102l-115 57l18 45h-85v126h139l19 41h-158v126h210l41 97l120 -48l-21 -49h98v-126z" />
    <glyph glyph-name="partialdiff" unicode="&#x2202;" horiz-adv-x="512" 
d="M75 656q35 22 74 37t83 15q45 0 89 -19t78.5 -60.5t56 -106t21.5 -154.5q0 -83 -16.5 -152.5t-48.5 -119.5t-79 -78t-108 -28q-48 0 -83.5 18.5t-59 50t-35.5 71.5t-13 84q-2 57 16 104t48 80t69 51.5t78 18.5q25 0 48.5 -6.5t45.5 -21.5q2 46 -14.5 79.5t-44.5 50.5
t-65 15.5t-76 -26.5zM231 128q18 -4 35.5 9t32 37t24 57t11.5 69q-8 14 -33.5 23t-53.5 9q-15 0 -28 -9.5t-23 -25t-16 -36.5t-6 -44q0 -41 14 -65t38 -24h5z" />
    <glyph glyph-name="percent" unicode="%" horiz-adv-x="731" 
d="M540 730l94 -57l-463 -710l-93 53zM323 537q0 -42 -11.5 -75.5t-31.5 -56.5t-47 -35.5t-59 -12.5q-71 0 -109.5 46t-38.5 136q0 41 11 74t30.5 56t47 35.5t59.5 12.5q72 0 110.5 -46.5t38.5 -133.5zM219 537q0 40 -12.5 58t-34.5 18q-21 0 -34.5 -18t-13.5 -57
q0 -42 13.5 -59t34.5 -17q47 0 47 75zM706 176q0 -42 -11.5 -75.5t-31.5 -56.5t-47 -35.5t-59 -12.5q-71 0 -109.5 46t-38.5 136q0 41 11 74t30.5 56t47 35.5t59.5 12.5q72 0 110.5 -46.5t38.5 -133.5zM602 176q0 40 -12.5 58t-34.5 18q-21 0 -34.5 -18t-13.5 -57
q0 -42 13.5 -59t34.5 -17q47 0 47 75z" />
    <glyph glyph-name="perthousand" unicode="&#x2030;" horiz-adv-x="1064" 
d="M544 730l94 -57l-463 -710l-93 53zM323 537q0 -42 -11.5 -75.5t-31.5 -56.5t-47 -35.5t-59 -12.5q-71 0 -109.5 46t-38.5 136q0 41 11 74t30.5 56t47 35.5t59.5 12.5q72 0 110.5 -46.5t38.5 -133.5zM219 537q0 40 -12.5 58t-34.5 18q-21 0 -34.5 -18t-13.5 -57
q0 -42 13.5 -59t34.5 -17q47 0 47 75zM706 176q0 -42 -11.5 -75.5t-31.5 -56.5t-47 -35.5t-59 -12.5q-71 0 -109.5 46t-38.5 136q0 41 11 74t30.5 56t47 35.5t59.5 12.5q72 0 110.5 -46.5t38.5 -133.5zM1040 176q0 -42 -11.5 -75.5t-31.5 -56.5t-47 -35.5t-59 -12.5
q-71 0 -109.5 46t-38.5 136q0 41 11 74t30.5 56t47 35.5t59.5 12.5q72 0 110.5 -46.5t38.5 -133.5zM602 176q0 40 -12.5 58t-34.5 18q-21 0 -34.5 -18t-13.5 -57q0 -42 13.5 -59t34.5 -17q47 0 47 75zM936 176q0 40 -12.5 58t-34.5 18q-21 0 -34.5 -18t-13.5 -57
q0 -42 13.5 -59t34.5 -17q47 0 47 75z" />
    <glyph glyph-name="plus" unicode="+" horiz-adv-x="570" 
d="M219 581h140v-184h182v-141h-182v-186h-140v186h-190v141h190v184z" />
    <glyph glyph-name="plusminus" unicode="&#xb1;" horiz-adv-x="538" 
d="M198 624h140v-143h153v-140h-153v-142h-140v142h-150v140h150v143zM492 8h-445v139h445v-139z" />
    <glyph glyph-name="product" unicode="&#x220f;" horiz-adv-x="635" 
d="M385 -57v614h-136v-614h-140v614h-83v138h584v-138h-85v-614h-140z" />
    <glyph glyph-name="radical" unicode="&#x221a;" horiz-adv-x="534" 
d="M103 241q-9 -3 -18 -6.5t-17 -5.5l-23 -2l-45 122l192 73l79 -317q14 77 28.5 163.5t28.5 174.5t28 174t28 163h146l-190 -906h-118z" />
    <glyph glyph-name="summation" unicode="&#x2211;" horiz-adv-x="546" 
d="M238 316l-200 291v101h464v-116h-282l186 -274l-196 -265h305v-124h-487v98z" />
    <glyph glyph-name="uni2215" unicode="&#x2215;" horiz-adv-x="527" 
d="M111 -45l-116 71l422 693l116 -70z" />
    <glyph glyph-name="uni2219" unicode="&#x2219;" horiz-adv-x="249" 
d="M39 307q0 37 24.5 62t62.5 25q37 0 60.5 -25t23.5 -62q0 -36 -23.5 -60.5t-60.5 -24.5q-38 0 -62.5 24.5t-24.5 60.5z" />
    <glyph glyph-name="lozenge" unicode="&#x25ca;" horiz-adv-x="550" 
d="M20 337l206 365h101l203 -363l-206 -365h-104zM274 537q-26 -51 -51 -98t-52 -99q15 -26 27.5 -49t24.5 -46t24.5 -46.5t27.5 -51.5l102 191z" />
    <glyph glyph-name="uni2113" unicode="&#x2113;" horiz-adv-x="429" 
d="M406 54q-32 -31 -65 -47.5t-70 -16.5q-69 0 -108 35t-54 92l-2 -2l-41 -25l-48 115q17 14 40.5 34.5t41.5 37.5v210q0 70 14 116.5t37 74.5t51.5 39t57.5 11q36 0 62 -13.5t43.5 -37.5t26 -56t8.5 -69q0 -87 -45 -169t-118 -160v-17q2 -66 29 -80t63 18zM220 397
q24 23 38.5 60.5t19 73t0 61t-16.5 25.5q-6 0 -13.5 -7t-13.5 -23t-10 -43t-4 -67v-80z" />
    <glyph glyph-name="ampersand" unicode="&#x26;" horiz-adv-x="667" 
d="M599 268l-71 -83l139 -170h-171l-50 61q-38 -40 -80.5 -60t-104.5 -20q-48 0 -90 15.5t-72.5 44t-48.5 69t-18 91.5q0 34 9 62t24 50.5t35 40.5t42 33q-20 28 -34 60.5t-14 68.5q0 44 16.5 78t44 57.5t63.5 35.5t74 12q36 0 69 -12.5t58.5 -35t40.5 -54.5t15 -71
q0 -32 -8 -57.5t-22.5 -46t-33.5 -36.5t-40 -29l78 -91l61 73zM288 588q-23 0 -39 -15.5t-16 -38.5q0 -17 11 -38t27 -40q26 14 46.5 36t20.5 47q0 22 -14 35.5t-36 13.5zM235 299q-25 -17 -44.5 -37t-19.5 -46q0 -32 18 -53.5t44.5 -29t57 1.5t55.5 38z" />
    <glyph glyph-name="asciicircum" unicode="^" horiz-adv-x="616" 
d="M588 394h-167l-117 144l-114 -144h-161l234 299h85z" />
    <glyph glyph-name="at" unicode="@" horiz-adv-x="770" 
d="M542 227q36 20 59.5 50t33.5 65.5t8 74t-17 75.5q-17 43 -52 72t-83 42q-77 20 -138.5 4t-104.5 -55.5t-68 -94.5t-30.5 -113.5t10 -112.5t52 -91t95.5 -50.5t142 10.5l23 -94q-56 -18 -111.5 -18.5t-105 15t-91.5 45.5t-71.5 73t-44.5 98.5t-11 121.5q3 53 20 105.5
t46.5 98.5t70.5 83t92.5 59t112.5 26.5t131 -13.5q70 -17 123 -58t82 -98q22 -43 28 -94.5t-3 -102t-32 -96.5t-60 -79q-18 -16 -44 -29t-55 -18t-57.5 -0.5t-52.5 22.5q-21 -15 -46 -20t-50 -1t-48.5 15t-41.5 28q-31 28 -45.5 65t-15 76.5t11.5 78.5t33 72.5t49.5 57.5
t62.5 33t71 -0.5t75 -42.5l22 25l79 -19zM472 404q-15 26 -34 37t-38.5 10t-37.5 -13t-31 -31q-11 -16 -17 -37t-6 -42.5t5.5 -41.5t17.5 -34q11 -12 26 -17t31 -4t30 7.5t23 17.5z" />
    <glyph glyph-name="bar" unicode="|" horiz-adv-x="247" 
d="M54 -146v858h139v-858h-139z" />
    <glyph glyph-name="brokenbar" unicode="&#xa6;" horiz-adv-x="252" 
d="M56 324v348h140v-348h-140zM56 -119v381h140v-381h-140z" />
    <glyph glyph-name="copyright" unicode="&#xa9;" horiz-adv-x="785" 
d="M33 351q0 74 28.5 139.5t77.5 114t114.5 77t139.5 28.5t139 -28.5t114 -77t77 -114t28 -139.5t-28 -139.5t-77 -114.5t-114 -77t-139 -28t-139.5 28t-114.5 77t-77.5 114.5t-28.5 139.5zM136 351q0 -53 20 -100t55 -82t81.5 -55t100.5 -20q53 0 99.5 20t81 55t54.5 82
t20 100q0 54 -20 100.5t-54.5 81t-81 54.5t-99.5 20q-54 0 -100.5 -20t-81.5 -54.5t-55 -81t-20 -100.5zM201 404q0 42 16.5 73.5t43.5 52t61.5 30.5t70.5 10q28 0 57.5 -7t55.5 -22t46 -39t30 -59l-94 -36q-7 23 -22 37t-34.5 20.5t-41 5.5t-39.5 -9t-31 -22t-15 -34v-113
q2 -20 15 -34t31 -22t39.5 -9t41 5.5t34.5 20.5t22 37l96 -36q-10 -35 -30.5 -59t-46.5 -39t-56 -22t-58 -7q-36 0 -70.5 10t-61.5 30.5t-43.5 52t-16.5 73.5v111z" />
    <glyph glyph-name="dagger" unicode="&#x2020;" horiz-adv-x="507" 
d="M25 514h158v193h141v-193h158v-136h-158v-482h-141v482h-158v136z" />
    <glyph glyph-name="daggerdbl" unicode="&#x2021;" horiz-adv-x="549" 
d="M46 211h158v182h-158v135h158v181h141v-181h158v-135h-158v-182h158v-136h-158v-179h-141v179h-158v136z" />
    <glyph glyph-name="degree" unicode="&#xb0;" horiz-adv-x="371" 
d="M186 398q-33 0 -61.5 12.5t-49.5 33.5t-33.5 49.5t-12.5 61.5t12.5 61.5t33.5 49.5t49.5 33t61.5 12q32 0 60.5 -12t49.5 -33t33.5 -49.5t12.5 -61.5q0 -32 -12.5 -60.5t-33.5 -50t-49.5 -34t-60.5 -12.5zM186 507q20 0 34 13.5t14 33.5t-14 34.5t-34 14.5t-34 -14.5
t-14 -34.5t14 -33.5t34 -13.5z" />
    <glyph glyph-name="estimated" unicode="&#x212e;" horiz-adv-x="820" 
d="M250 282q0 -29 0.5 -56t0.5 -58q32 -31 74 -49.5t89 -18.5q27 0 58 5t61 16.5t57.5 31t47.5 48.5l133 -1q-33 -57 -76 -96.5t-90.5 -64.5t-96.5 -36t-95 -11q-78 0 -147.5 27t-121 73.5t-81.5 109.5t-30 135t30 135t81.5 110t121 74.5t147.5 27.5q79 0 148.5 -27.5
t121 -74.5t81.5 -110t30 -135v-55h-544zM578 506q-34 31 -75 49t-89 18q-45 0 -88.5 -19.5t-75.5 -49.5v-113h328v115z" />
    <glyph glyph-name="paragraph" unicode="&#xb6;" horiz-adv-x="649" 
d="M246 235q-55 3 -96.5 24.5t-69.5 54t-42 73.5t-14 84q0 45 15 87.5t45.5 75.5t76.5 53.5t107 20.5h321v-798h-141v666h-60v-666h-142v325z" />
    <glyph glyph-name="registered" unicode="&#xae;" horiz-adv-x="785" 
d="M33 351q0 74 28.5 139.5t77.5 114t114.5 77t139.5 28.5t139 -28.5t114 -77t77 -114t28 -139.5t-28 -139.5t-77 -114.5t-114 -77t-139 -28t-139.5 28t-114.5 77t-77.5 114.5t-28.5 139.5zM140 351q0 -53 20 -99t54.5 -81t81 -55t99.5 -20q52 0 98 20t80.5 55t54.5 81
t20 99t-20 99t-54.5 80.5t-80.5 54.5t-98 20q-53 0 -99.5 -20t-81 -54.5t-54.5 -80.5t-20 -99zM247 527h162q40 0 68.5 -14t45 -36.5t21.5 -49.5t-1 -53t-23.5 -48t-45.5 -33l86 -124h-116l-78 117h-21v-117h-98v358zM406 366q20 0 29.5 12t9.5 26t-10.5 26t-29.5 12h-60
v-76h61z" />
    <glyph glyph-name="section" unicode="&#xa7;" horiz-adv-x="477" 
d="M137 89q10 -20 22.5 -32.5t26 -20t26.5 -10t25 -2.5q21 0 38.5 12t17.5 35q0 12 -8 22.5t-21.5 20t-31 18t-35.5 17.5q-28 12 -55.5 26t-50 33t-36.5 45.5t-14 63.5q0 38 17 66.5t55 44.5q-28 18 -40 45t-12 53q0 42 16.5 75.5t43.5 56.5t61.5 35t71.5 12q49 0 90 -23
t76 -83l-101 -54q-14 24 -34 31t-38 2.5t-31 -19t-13 -33.5q0 -21 27 -38t63 -34q26 -12 53 -26.5t48.5 -33.5t35.5 -45t14 -61q0 -31 -16.5 -59t-46.5 -45q31 -32 43 -66.5t9 -67t-20 -62t-43 -51t-60.5 -34.5t-72.5 -13q-30 0 -60 9t-57.5 26.5t-50.5 43.5t-39 61z
M289 239q22 13 28 26t0.5 25t-19.5 23t-32 19v1l-53 30q-17 -8 -31.5 -19t-14.5 -22q0 -16 13 -26.5t29 -18.5z" />
    <glyph glyph-name="trademark" unicode="&#x2122;" horiz-adv-x="839" 
d="M126 578h-96v132h328v-132h-97v-280h-135v280zM382 710h114l87 -166l90 166h110v-410h-120l3 164l-57 -114h-49l-58 120l5 -170h-125v410z" />
    <glyph glyph-name="acute" unicode="&#xb4;" horiz-adv-x="262" 
d="M191 756h-136l95 142h170z" />
    <glyph glyph-name="breve" unicode="&#x2d8;" horiz-adv-x="287" 
d="M335 898q0 -49 -23.5 -82.5t-59 -49.5t-77 -16.5t-77 16.5t-59 49.5t-23.5 82.5h121q0 -20 13 -29.5t28 -9.5t28 9.5t13 29.5h116z" />
    <glyph glyph-name="caron" unicode="&#x2c7;" horiz-adv-x="332" 
d="M-58 898h157l36 -41l36 41h161l-138 -142h-116z" />
    <glyph glyph-name="cedilla" unicode="&#xb8;" horiz-adv-x="251" 
d="M4 -138q34 -23 60.5 -19.5t33.5 24.5q3 8 0.5 16.5t-10.5 16t-24 12t-40 4.5l46 91h100l-26 -56q24 -2 41 -13.5t25.5 -28.5t8.5 -38.5t-8 -43.5q-10 -26 -34 -44.5t-56 -24.5t-70 2.5t-75 37.5z" />
    <glyph glyph-name="circumflex" unicode="&#x2c6;" horiz-adv-x="441" 
d="M239 756l-36 41l-36 -41h-157l136 142h116l138 -142h-161z" />
    <glyph glyph-name="dieresis" unicode="&#xa8;" horiz-adv-x="393" 
d="M-14 830q0 33 22.5 55t54.5 22q31 0 54 -22t23 -55q0 -32 -23 -53.5t-54 -21.5q-32 0 -54.5 21.5t-22.5 53.5zM203 830q0 33 22 55t55 22t55.5 -22t22.5 -55q0 -32 -22.5 -53.5t-55.5 -21.5t-55 21.5t-22 53.5z" />
    <glyph glyph-name="dotaccent" unicode="&#x2d9;" horiz-adv-x="240" 
d="M23 842q0 37 25.5 61.5t63.5 24.5t63 -24.5t25 -61.5q0 -38 -25 -61.5t-63 -23.5t-63.5 23.5t-25.5 61.5z" />
    <glyph glyph-name="grave" unicode="`" horiz-adv-x="257" 
d="M32 756l-117 142h164l83 -142h-130z" />
    <glyph glyph-name="hungarumlaut" unicode="&#x2dd;" horiz-adv-x="487" 
d="M135 757h-132l96 149h162zM349 757h-133l96 149h162z" />
    <glyph glyph-name="macron" unicode="&#xaf;" horiz-adv-x="321" 
d="M9 879h269v-103h-269v103z" />
    <glyph glyph-name="ogonek" unicode="&#x2db;" horiz-adv-x="252" 
d="M166 3q-53 -59 -53 -93.5t37 -34.5q20 0 36 13l42 -64q-30 -32 -61 -46t-60 -14q-53 0 -80.5 24t-31.5 60t14.5 77.5t56.5 76.5z" />
    <glyph glyph-name="ring" unicode="&#x2da;" horiz-adv-x="240" 
d="M110 972q39 0 65 -17t39 -42t13 -55t-13 -55t-39 -42t-65 -17q-40 0 -67 17t-40.5 42t-13.5 55t13.5 55t40.5 42t67 17zM110 906q-26 0 -38 -15t-11.5 -33t13 -33t36.5 -15t35.5 15t11.5 33t-11.5 33t-35.5 15z" />
    <glyph glyph-name="tilde" unicode="&#x2dc;" horiz-adv-x="305" 
d="M-27 800q10 51 41.5 79.5t65.5 28.5q25 0 47 -11t41 -19t34.5 -6.5t26.5 27.5l72 -36q-18 -54 -42 -79t-61 -25q-23 0 -44 11.5t-40 19.5t-36 5t-32 -32z" />
    <glyph glyph-name="uni0326" unicode="&#x326;" horiz-adv-x="0" 
d="M168 -244h-129l52 175h145z" />
    <glyph glyph-name="uni02C9" unicode="&#x2c9;" horiz-adv-x="323" 
d="M-5 695h309v-123h-309v123z" />
    <glyph glyph-name=".ttfautohint" horiz-adv-x="323" 
d="M0 0z" />
    </font>
</defs>
</svg>
